<mxfile host="65bd71144e">
    <diagram name="Page-1" id="UUCaEok2P3TRAh5nDXag">
        <mxGraphModel dx="1103" dy="626" grid="1" gridSize="10" guides="1" tooltips="1" connect="1" arrows="1" fold="1" page="1" pageScale="1" pageWidth="1920" pageHeight="1200" math="0" shadow="0">
            <root>
                <mxCell id="0"/>
                <mxCell id="1" parent="0"/>
                <mxCell id="PfXECihAOiwtT0cOO5vL-1" value="Docker" style="rounded=1;whiteSpace=wrap;html=1;align=left;arcSize=4;verticalAlign=top;fontSize=26;fontFamily=Open Sans;fontSource=https%3A%2F%2Ffonts.googleapis.com%2Fcss%3Ffamily%3DOpen%2BSans;fontStyle=1;spacingLeft=8;fillColor=#cdeb8b;strokeColor=#36393d;" parent="1" vertex="1">
                    <mxGeometry x="910" y="120" width="510" height="620" as="geometry"/>
                </mxCell>
                <mxCell id="PfXECihAOiwtT0cOO5vL-4" value="network: home" style="rounded=1;whiteSpace=wrap;html=1;align=left;arcSize=4;verticalAlign=top;fontSize=22;fontFamily=Open Sans;fontSource=https%3A%2F%2Ffonts.googleapis.com%2Fcss%3Ffamily%3DOpen%2BSans;fontStyle=1;spacingLeft=8;fillColor=#E9B2B2;strokeColor=#36393d;" parent="1" vertex="1">
                    <mxGeometry x="920" y="490" width="490" height="160" as="geometry"/>
                </mxCell>
                <mxCell id="PfXECihAOiwtT0cOO5vL-8" value="" style="group" parent="1" vertex="1" connectable="0">
                    <mxGeometry x="920" y="170" width="510" height="290" as="geometry"/>
                </mxCell>
                <mxCell id="PfXECihAOiwtT0cOO5vL-3" value="network: openziti" style="rounded=1;whiteSpace=wrap;html=1;align=left;arcSize=4;verticalAlign=top;fontSize=22;fontFamily=Open Sans;fontSource=https%3A%2F%2Ffonts.googleapis.com%2Fcss%3Ffamily%3DOpen%2BSans;fontStyle=1;spacingLeft=8;fillColor=#dae8fc;strokeColor=#6c8ebf;" parent="PfXECihAOiwtT0cOO5vL-8" vertex="1">
                    <mxGeometry width="490" height="290" as="geometry"/>
                </mxCell>
                <mxCell id="PfXECihAOiwtT0cOO5vL-5" value="container: controller" style="rounded=1;whiteSpace=wrap;html=1;align=left;arcSize=4;verticalAlign=middle;fontSize=22;fontFamily=Open Sans;fontSource=https%3A%2F%2Ffonts.googleapis.com%2Fcss%3Ffamily%3DOpen%2BSans;fontStyle=1;spacingLeft=8;fillColor=#9FD7FF;strokeColor=#6c8ebf;" parent="PfXECihAOiwtT0cOO5vL-8" vertex="1">
                    <mxGeometry x="10" y="40" width="260" height="70" as="geometry"/>
                </mxCell>
                <mxCell id="PfXECihAOiwtT0cOO5vL-6" value="container: router" style="rounded=1;whiteSpace=wrap;html=1;align=left;arcSize=4;verticalAlign=middle;fontSize=22;fontFamily=Open Sans;fontSource=https%3A%2F%2Ffonts.googleapis.com%2Fcss%3Ffamily%3DOpen%2BSans;fontStyle=1;spacingLeft=8;fillColor=#9FD7FF;strokeColor=#6c8ebf;" parent="PfXECihAOiwtT0cOO5vL-8" vertex="1">
                    <mxGeometry x="10" y="120" width="260" height="70" as="geometry"/>
                </mxCell>
                <mxCell id="PfXECihAOiwtT0cOO5vL-7" value="container: sshtarget" style="rounded=1;whiteSpace=wrap;html=1;align=left;arcSize=4;verticalAlign=middle;fontSize=22;fontFamily=Open Sans;fontSource=https%3A%2F%2Ffonts.googleapis.com%2Fcss%3Ffamily%3DOpen%2BSans;fontStyle=1;spacingLeft=8;fillColor=#9FD7FF;strokeColor=#6c8ebf;" parent="PfXECihAOiwtT0cOO5vL-8" vertex="1">
                    <mxGeometry x="10" y="200" width="260" height="70" as="geometry"/>
                </mxCell>
                <mxCell id="PfXECihAOiwtT0cOO5vL-23" value="" style="endArrow=none;html=1;strokeWidth=4;rounded=0;fontFamily=Open Sans;fontSource=https%3A%2F%2Ffonts.googleapis.com%2Fcss%3Ffamily%3DOpen%2BSans;fontSize=22;fontColor=default;fontStyle=1;exitX=1;exitY=0.5;exitDx=0;exitDy=0;flowAnimation=1;entryX=1;entryY=0.5;entryDx=0;entryDy=0;curved=0;fillColor=#cdeb8b;strokeColor=#3333FF;" parent="PfXECihAOiwtT0cOO5vL-8" source="PfXECihAOiwtT0cOO5vL-6" target="PfXECihAOiwtT0cOO5vL-7" edge="1">
                    <mxGeometry width="50" height="50" relative="1" as="geometry">
                        <mxPoint x="-715" y="325" as="sourcePoint"/>
                        <mxPoint x="20" y="165" as="targetPoint"/>
                        <Array as="points">
                            <mxPoint x="340" y="155"/>
                            <mxPoint x="340" y="235"/>
                        </Array>
                    </mxGeometry>
                </mxCell>
                <mxCell id="PfXECihAOiwtT0cOO5vL-9" value="container: home-router" style="rounded=1;whiteSpace=wrap;html=1;align=left;arcSize=4;verticalAlign=middle;fontSize=22;fontFamily=Open Sans;fontSource=https%3A%2F%2Ffonts.googleapis.com%2Fcss%3Ffamily%3DOpen%2BSans;fontStyle=1;spacingLeft=8;fillColor=#FFE0E0;strokeColor=#36393d;" parent="1" vertex="1">
                    <mxGeometry x="930" y="535" width="260" height="70" as="geometry"/>
                </mxCell>
                <mxCell id="PfXECihAOiwtT0cOO5vL-15" value="" style="html=1;verticalLabelPosition=bottom;align=center;labelBackgroundColor=#ffffff;verticalAlign=top;strokeWidth=2;strokeColor=#0080F0;shadow=0;dashed=0;shape=mxgraph.ios7.icons.cloud;rounded=1;spacingLeft=8;arcSize=4;fontFamily=Open Sans;fontSource=https%3A%2F%2Ffonts.googleapis.com%2Fcss%3Ffamily%3DOpen%2BSans;fontSize=22;fontColor=default;fontStyle=1;fillColor=default;" parent="1" vertex="1">
                    <mxGeometry x="240" y="280" width="600" height="280" as="geometry"/>
                </mxCell>
                <mxCell id="PfXECihAOiwtT0cOO5vL-21" value="" style="group" parent="1" vertex="1" connectable="0">
                    <mxGeometry y="360" width="210" height="220" as="geometry"/>
                </mxCell>
                <mxCell id="PfXECihAOiwtT0cOO5vL-20" value="Remote Tunneler" style="rounded=1;whiteSpace=wrap;html=1;align=left;arcSize=4;verticalAlign=top;fontSize=22;fontFamily=Open Sans;fontSource=https%3A%2F%2Ffonts.googleapis.com%2Fcss%3Ffamily%3DOpen%2BSans;fontStyle=1;spacingLeft=8;fillColor=#ffcc99;strokeColor=#36393d;" parent="PfXECihAOiwtT0cOO5vL-21" vertex="1">
                    <mxGeometry width="210" height="220" as="geometry"/>
                </mxCell>
                <mxCell id="PfXECihAOiwtT0cOO5vL-19" value="" style="shape=image;verticalLabelPosition=bottom;labelBackgroundColor=default;verticalAlign=top;aspect=fixed;imageAspect=0;image=data:image/png,iVBORw0KGgoAAAANSUhEUgAAAaIAAALsCAYAAAChsbPuAAAAAXNSR0IArs4c6QAAAARnQU1BAACxjwv8YQUAAAAJcEhZcwAADsMAAA7DAcdvqGQAAP+lSURBVHhe7L0HlCVV1fb/fmt9/+9VXyMgDExicscJPTM9qXPunp48AwgIioA5EcwJUBEVUUAEyTlHiSZQBMlJRFDJKIgEFTD77v/a59SpOvWcfSrd0N3D7bWe1d33VtWtW2fv51fn1Kld/0U5fv73f/83pv/85z9K//73v5X+9a9/Kf3zn/8M9Y9//CPU3//+95pqqqmmmiagbC+3Pd74vuGA4QLyIunnv/AF6Qc3aAPIho8Nm7/97W/017/+VemVV14J9fLLL9dUU0011TSBZHu48XX2eBtSCKU8QEoFURKAbPgY8BjYvPTSS/SXv/yF/vznP9Of/vQnpRdffDGmF154oaaaaqqppnEo9Gvj4+zp7O0s9nkDJwMmG0o+IOFPIojSAGTgY8BjoMNf4vnnn6fnnnuO/vjHP9Kzzz5Lf/jDH+iZZ54J9fTTT9dUU0011TTOZTybPZy9nMW+zh5vgMXezwxgFhgopQHJ/vGCyAch0wMyAGIq8o7wTvHO8c7yzv/ud7+jp556ip544gl6/PHH6bHHHqNHH31U6ZFHHonp4YcfrqmmmmqqaRwI/dn4Nns4ezl7+pNPPqk8nr2ePd+AiVnATDBAsntISTASQYQQMr0gMwRnA4h7Pbwjv//979XO8c7yzv/2t7+lhx56iB588EF64IEH6Je//CXdf//99Itf/ELpvvvuq6mmmmqqaRzL+DV7N3s4ezl7Onv7b37zG+X17Pns/cwAZgEzQQIS9o5sGDkgsiFkD8WZXhB3v3j4jenHH8pUZEoySX/961+rHeUdv+eee+jOO++k22+/nW699Va65ZZb6Oc//zndfPPNdNNNN4X62c9+VlNNNdVU0ziT8Wj2bPZu9nD2cvZ09nb2ePZ69nwGEzOAWcBMMEBiVpjrSEkwioEoCUK8IdML4m4Y088AiAnJO3TXXXfRbbfdpnb8pz/9KV1//fX0ox/9iH7wgx/QddddR9deey1dc801dPXVVytdddVVNdVUU001jUMZn2bPZu9mD2cvZ09nb2ePZ69nOLH3cw/qV7/6lRoNYzYwI/h6El9HYnYwQ8y1I4SRAyJpOM5AiDfIpONrP9wlYwDxh99xxx2KmD/5yU/ohz/8odrpK6+8ki677DK6+OKL6cILL6Tzzz+fzjvvPDr33HPpnHPOUTr77LNrqqmmmmoahzI+zZ7N3s0ezl7Ons7e/r3vfU9Bij2fvZ+hxCxgJjAbmBE8ZMfM4BE0ntBgYGR6RoY3IYiwN2RDiDfAG+KZE3yhionH44VMQQbQDTfcoGjJO8Y7yTt91lln0WmnnUannHIKnXjiiXTCCSfQ8ccfT9/5znfouOOOU/r2t79dU0011VTTOJTxafZs9m72cPbyk08+WXk7ezx7PXv+FVdcoRjAPSUGEg/dMSOYFcwMZocNIzNMZ3pFCkQIISaVuSbEPSEbQnyBiofheJzwxhtvVMTcd999qa6unt705rfQ//2//5f+67/+q6aaaqqppq1Y7PWvf8MbaNas2bRp02Y6+uijFZC+//3vq2E7vkzDrOC5AzxUZ2BkhulsGMVAZE/RNhMT+JoQd60MhLjbxR/A44T77PMues1rXktvevMOtN32s2nS5EaaPG0hTdt5cVwzloSaPnOp/h1o2sxI/F6qZrXGtLOoZa5mL6MZc5ar3+rv2cuzac6KUDMlzUWtFDVr3iqaVbdK/7Y021adUZuoOXXtsuoldcQ0t6GT5vJvowZUp6vGLlHzbDUZdXtV19RDdc09+rcR/y+qN1S9rfnmd1+qGub3u1qAGohr4QA1OhqMtMj6O7fi2+XPcj4f90/Yd/yeovC4WcczEh5zaJtAYfs1u20atjvEA8aKEsaVEsSfHZuBotg1f0OMYx4EwryJZOVYkHOYj0Z23sZzGfId/cDyC+MZjqcIMr4UCv0rVNzr0A8dvxRke27ou5ZHhwIfnwpir99xciNtv8McevNbJtFrX/s6GhwcUkN5fG2Je0d8/YiZwTAyPSO+xMNsYcaY60X/hb0hMyTH0+54xgNPTOBrQtzFYrrxhk8//XSaMnUavelN29KOU5qdHcQvsLWASIQRBqYAoRqIBLNDI6wqiBAC4wFECTAK/sbvKQqPmwOhGohqIBJ8FyGUAURaLcF7LTR56nx6yzY70DbbbEuHHXaYmifw4x//OIQRd2T4mhFPYOAODjPGXC+KgcjuDZkhOZ75wBedeLyPh+POOOMM+u///m96yzZT1Ie7O1YDkaQaiMYxiAI4IDBiMCk3iEQY1UBUA9HEBZHS9Bba9q0z6TWvfS199rOfVTDinhGPovG9SDzLmqd389Ruc72ImaNAZPeGzA2rZkiOx/Z4BgRPTOBJCVOmTKNttpsafbCzYzUQSaqBqAaiGohqIPJpawIRa/sdZtMb3vBGNamBp4LzNSOewMDTu831ImYMD9Exc0IQYW+IicXk4iE57lbx7LjddnsbvfGN21gQqoHICUwBQjUQCWaHRgggQjOtgag4iFwY4TF3IVQDUQ1E6OPo80kgYm2z7SRatapNTfnmGXU8m+7ee+9VTOHLPaZXxMz5L5wph70hJhjPDeeN8cSEHac01UBUA1ENRLlUA5GrGohsbY0gmjx1gWLGIYccQpdffrkaouPLO8wULgvEjDHXikIQmWE57iqZa0M8nscTFJhke+21N735LTsAhGogcgJTgFANRILZoRFaEKqBqAaiGoh8mjggUteLtptCHR2d6mZYLnTAJYN4hI3Zwowx07kViMywnLl5lWfK8ewGrh/E14b4rtmGhkbabvtZNRChMDAFCNVAJJgdGmENRDUQ1UC01YFo0k719JZttlWT3PgeI55nwNeKmC1mBh0zJwQRDstx14mL2fFsBy7h8KY3vZkm7dRQMohCII0BiGxhIHglBFZhEAmqGohQaASOUZQZRCg0wjQQhUASzBfkQKgcICpJJYIoEH5PUXi8ygAiWdUDUaTqg8hVPhApoacIQn9y/KuSIDJejMoIopgARFOmLaD/83/+D5100kl00UUXqVp1PJ2bZ2EzY8ykhf+y7x3iYTm+2YifMcFTtrkLxcNyXE+I76LlMb8Y/XKCaPrMJbRzCT0iA5miIJo5t3iPiANslhR4GJhO4EYgml3f5gR8VhBx4s31JR8mqACieQ2dSkVBZBtNERBxjyYdRBGM0EgbFrDRFgNR44J+DYESQNTcMiQAJpuaFmkVBVHjAt73Aed7ipKOXfB6URDVz5eglA1E4esYWxh/HhCZ5YuCyCxXFES8XikgMss4vgLygUi9X0EQKV/l1xFCOUDE6/pANHX6IlWFgcsE8Y2uzBIcnmPmhCDi60Pm3iGeLcc3H3GZb552xzXkeGPTgg+Nwwh3LAVEs4qDaAbDZHZxEDFIzPAcBoJXVkDNnreSZnEwFgTRnIZ2J+CzgmhuQzvN4yEKIfGcBBVAVKcMoRiI2EjqFVC6C4OocWFfSSBqXMimLBivIAlETQoCxUE0v2XYAUxWNS/SKgoive/FQdSoIN5XGES8PrZpVhBxzNQ1FQeROoFqLA4izhs+gSsKIv6cUkA0a572C8dXQD4QzZwTvF8pEM1aSjN4PYRQDhAxyNJAxOV/zjzzTMUSZsrdd9+tGMOz55g5IYh4Ch2P1fGUOnN9iMfyeKYDV1rljfEHzphlCGog48pAxkCLvzwftBmzWxVIwoMoAIhBxTLrGM2Yo0EyWzV+0HDqjMEvuzHVuvNWBjDR2+AG5t9G6n8MrrncE1pJc+pW0dx6Hh5r0wHMcLHFAcfLQjAr2BiQNOpkUj2j4HpR7OwNFSQcA6iusZPqm7rUb96WnZBR4tp/B4nc2KmMoL65W8mYgknwuFxj4eUbmnuocT6fWfeobSgjCkEUXUPg30bmfz6b5t5Ms4JAX9izcYwwkO71RGJ4sJoXDVDTogAmIXD09vQ2o79DEw96QgyB+S1DqlfTZAEhVWq9YZq/eJgWLhlRf0fbiHo6Kzo20Sc+/VX9uqWmRUPqcxcsHlbivxM/n/fXAhG/xsvPb+EeGW+PYQXf1RwL9Z31sTXi95sWMsi0FJB8IEIoBW3RML9Xrcu/uS2xrZPgxLHCMRPGTRhX8bhzToSCnhCfPHHMm7hXJ2LBSZaJ9yRxvtU18Wfw9vi1IH+tk70wXzkfzTXc4H1e3uSsN+9BBlDsB7w8+wZ/ng0kx3P4dyB1khy8ZzxL+dVcXtbvcUaRj1qwsn2VOwKB5yo/Zl+ds0zByPhuKMvHNajiHm+2OXN2K+0cDPEpODGADKimtyh2HHXUUXTqqafSpZdeqphiXyfiOQkKROb+ITNRgWsC8U2sPNWOa8pxddWoR2ToODY9ItarskfEkCmhR6SS3iR54R5R8aG5vD0i7BVVtEcU9IocMGToES1evpbOu+BKuunmOxR48H0DrJJ7RKUOzY1Vjyg4mXFiC+PP0yNSJ02l9IiC5casRxT4heMroLHsEantYG+ozD2ir3/966pqN7OE5xyYadzMGp6wEIKIZ8xxbTl+ke8f4okKfFGJLy7xPUS8MU06FO6YH0QaRsVBxF8YDz42TBKISp01hwGXF0SxM7CcINK9JDfpsoIodraZE0QGPvbfeUGkzqZLAJE6I+e/0XgFIYgMjOJGnw9EEmS4d3TwJw6nv/zlJfrd759RPSNcRiu+3TwQsvcdv6coAUQs+7i6x9yFkA2iUq4RhbGDsYXx5wWRVlEQ6R6QUX4Q2X8XAVH4GvoKyAei+PWhCoDIvI4QygEi7pykgeirX/2qeoQEs8RMWGDGmPuJ/sueus0gMjPmeFYDPxqW74jlOeDlAlEIpAIgUioBRLYwELzyBFYREEnKCiKdVG7SZQYRCo3AMYqxmDXnB1EoNF5BCKFQJYBI0rpN+9Ptd96najW++Kc/0+57fcRZphwgMsLvKQqPlwOh/CCSlR1ETlzlAFFc+UEUV34QucoHIsdPPEJ/cvwrJ4hmzVlODU2dtGnLvvTdE8+i004/n9613wG0ZNmQGuYzQ3TKd8Oht2IgiskDoiOOOEI9z4hZwkxhtjBjHn300QhE5gF4PI2Op9Pxm1ygjsv68E1I/PCjcoFIEdmCUTVBVGqPqGQQ1e4jKg6iEntEJYMI7iNasmIdnXDSuer6Kv+88spf6bNf+IYAoTKAKPgfv6coPG4OhPKDyL0WVF0Q8ftjBSIXSvlApP5HTxFUDhDNa2ynweG30UEfO5TOPe9SevKpp+mFP79EDz36BD302JP07PMv0O+e/gNddc2P6JDDjqQNm/ehpoXdajsOhHKASL+XDKLDDz9cPVyPWcJMYbYwY5g1zBwRRDx1mxcyU7d52l05QbT7nu+jSy69mr535Q/oiiu/H+p7ZdCVV/2ALr3sGtq86/7VAZEDIxdCNRAJZodGOC5BZMEIQPTO/T5GL7zwp1jl+tPPvFgYwsPt1UBUA5GrUkA0NLoHHXnU8XTDT35Ojzz+FD31h+fogUeeoJ/ccR/9+La76Zqf3kJX//QW+vGtd9P1t91N9z30CD31zHP02JO/p1tvu5tOPuUc2mW3/amusb2iILKncDNbuGoPsyYGInMzqwERL8TzvfkBR/wU1nKBiPXzn98RPiK2EuJt/+ym2xwQ2cJA8EoILEdZQSSoaiBCoRE4RuGHUSEQodAI00AUAkkwX5ADoIwgkmGEvZtBWtm5mW697R7VE3rqd8/Q/b/8tfr7+ht+TktXrk8EUd6JCrbwe4rC4+VAKD+IZGUEEcZTARBFqj6IXCVDCEGkhJ4iCP3JBVAcRCvb19I3jz6Rnnjyd/Snl16mJ55+ln758ON0412/oB/dejd978c30TdPOIP2e/8nafW6vWlodE/a8x0fpi8deTxdfPX19KNb76Ebbr+X7nrwYXqYe05/eYn+8Mfn6KyzL6buvs26l5QRRDF5QPTlL39ZPXacWcJMYbZ4QWTfzFopEPFw3M0/v4P++a9/0b//zdAov/g73XrbXWMEIhlGKsDHskeEQiNwjCIviPwwCsFTCohy9IhYaOIlgyjoETW3DNOJp5ynTnhefvmv9LVvnEhHfvMkBaJ77/sVja7fd6sDkdsjstp8KwdRHErpvaFqgOjoY0+hp5/5Iz3y1NN0yy9+RT+563664Y5f0I9uuYuOP+Mi2ouvBS0fprn1q/Qs4+CyBq/L08ibFvXQ+l32o68eczJdecPP6frb76Of3PkLuvneB+jBx56il175G1140ZXU3rkuE4iy9IiSQMTMEUHEd7zyna8VAdHMpfSpzxxOP73xFrrpptvopptt3V4W8bY/94WvOyCqztDcOAURJ/94ApEXRuMbRO//8Ofp5ZdfUUNyP77+Zuob2pN22/NDunf01NO073s+WX4QZZ0xx8Lj5kBIABG2yzgDEb8/UUGk/kdPEZQHRJdf82O6+e4H6Ibb76HLf3gjHXvSObTfBz5Fy9pG1XRv+5o63yc0PLoHdfVuUmDi1+yp2wuX9NPu7/gQfeXok+mCK39EP7rlbvrp3ffTj2+6gzbtsl/ZQPSlL32Jvv3tb4cg+tnPfhZWV0gFES/MDzU6++yzywqi+Yt6aGBoNxpevTsNWRpevUe6RveMaUTQwPDutGjxQA1ENRA5hu4FUQAjBEcIo0WD1DO4B91z7wMKOs8880d67wc/q64JLVy6mv7617+pCQuf+fyRXgiFIMLPrYHIgVANRD610hnnX0Y33/NLOuWcS2l43V40hwEDs+aMWleM0OVX/YAuuvRq5bk2iGKTxGa10pIVq+lbx5+utn3lD35Kq9e+vewgYpYwU8YFiMxvdTcv35UbCO8aFmXdhWzuQEaphsUGHKcgisGoBqIqgkiAkQAOA6JFy0bpuyedS3//xz9Ub+jMsy+NTUy47Y57FaCO/+45tKh1NCeIcL/c/cbv5xUeNwdCNRBNdBB96WvHaRCddTEtb18jTt826hvajX588x30w5tuoy27v8cLIuPPJ5xyHt3yiwfplHMuoRWr1oxnEFkfWgKI1N/8G8mcIH2hrnhlhVJB5A0+DFAviNwbWjODKCn5MEF9ILITHo3AMYo4iGyTKQIiVdYHzQ4NsZIgQqP3gEiCEZfXeff7Pk2PP/E7BZsHH3qYOnp3iw3Bfffk89R7V197A7X37CqCqNCwnLXv+B1F4XELjl0pIKpvxokLOUBkXse4wvirEIjKe0NrQRAFJ8dJ8oHILePTSm/f5yNqJtzXjz1ZXQtKAtHA6j3ox7fcpWC0257vc0DE1W6MJ3PH4JyLr1TXir561HepvqljfIKonCV+ioCIG2XcFT3NASJOHgz4rCBSxRu5XpaQeE6CCiAqVOInABEbSXrR02QQOSV+coIoLPGTEUa2kYclftDwEQgeELV1b1HXg7gnxFO2997nILgOpK8d8c/9v3yIhte8M7Z+U1DipyiIFMSygAgBFCi1xA+2C4DILfGTHUS8TMklfnJU33byJqhaXxREXG+uJBBVoOhpS+sQffjjh9Hmt72H6po7SwNRUOKH/ZivF11+LV9/+hV99tBvqJtis4CI68xVFUQ7c6E7/oIMkBBGuGMyiFR5HjMcZ5cezwAiPlAKQmb4LWgoP4jiMOKGnDWHC6auVL9N40pygiZ4/IMqmBoEsAOjoDCqD0S8Dp+Z6erZOiFiIOLXPCDihDMFU5VM4ceMIOKE5kQ2xSNDGKEROEahZSDEZ8VaGkhZQcTr6MKZDAddqic0PzREBFFQuJON0BTtzFVvzhQODQqfNjswQiC4IGKIfOObJ6khOZ4pd8xxZwj3Cg3SwOq91SSGP//5Jdpl9w+E66vPhYKrzmda+6T2z4KQ2fcQpMJ31d9XABEXjeXjp46dWTc7iEyb62KpelkbRLE4ABDx3/y+XWxXvZ8DRKrYbxC3vI4T4wkgCvOmQW9H1Zyrt2CUAiKdj5yzeptcvDSe4y6AbBAZz1BFT/kElt8T/MYIQWQXPo2KNGsQcfHlb3/nNLr8yh/QyJq3FwKReSQPFyzVRUuXUu/QrvSDG2+hn915P33wo5/Xj+zxgIgLn5pCp2H1bn6vGiDi3pD58LwgUkAJQLR2/d7qzt7Pf+Fr9DlL/L+oQ76u9IVDjwwU/b+4dVCAEICIzyxmLw9BlNRVlkCkQBOCSOgV4ZmS1BsKejUc1GLQe0A0OwANJ6uqImzODHOBqCOoYGyBKCOMIkOxIGSfCaeAyJgdg8gYZGYQBTXm2EALgSh4lo9j5ikgsmG0adf3KsDwz89vuYsGRvZyIMRq69pCfD8R95oO/PiXIpCpx0BoEOmZd8JnJvSIeP9V5fGUXpEPRBrkvF0DoWwgstuOj7v5O0+PSBc8lUCUDiETn1HR1Hw9IrOMgpBa1+RTNhAZmZwNT0AzgsicnNp+gV6TCKKgKjdCiNU4v4vOv+wauv0XD9J7P/TpDCC6U4HobW+P94iMHyuQzFxKu+zxXvrZnffRj26+k3bf6wOOjyOITGkgfiKDqspdrR4Rf5DeqWLXiNSOz1xKN/7sVnrxxT+rYY6S9OKf6JhjTxYgFAeRGZoLG7Tg0FxY6h2DLwVEIYyEB+OlgyieWJh4aSDyDs1lBJFtKsZoYuaTAiKjhgWlXSMKH4ynDNY1YlRseAserxCXH0TL2jbQfb94UEHoj8+9QB896LCwN8Rgmb94JAQR38h6+fd+oJY96ZTzVe9n8fI1+lERQa8s07AcgEjDSL+O39ERgsgCUvw6UTYQhW03vxfaMxuI7FiJx1U2EJmhOd0bygeiMG9i14nyD83xelEeQ56jD1gginwjHUIsBFE0mmNfJ9Lexr20I751Il123Q30tr0/oAA0um4vOvKbJ6iackannnYeXXjJ1XTH/b+m2+9/kC674vvqtXCZMy6gE757Jq3b8A4FvPd96NN0892/pPMv/z71Du7m+Dj6vFaL6l1VdWhObTgGoXwgMj2j3/zmkbA0Sqm68KLvCRCSQVTyZAWfMEA9ICp11pxOLDf5nAQVQKQSGpMdDQEhZIFIMpc8IBINDw0RQBSDkYFQRhCx0NAdw5dAFMCIZ74dfexpakjun//8F51z3uW0bBVXTdCQWr/53fSOfQ8OQcRTuM2NrTf//E7qGdydzjjrEtr7XQdRy/I1HghlA1EmCLEQQHAsRQhJ7QIgKv+suewg0rFr/s4Porjyg8j+28lz9AEJRBkgxPKBKC7tbXxCzT2dt7/ro+p6ES//2UO+Tnfe9yA9+OgTMT3wyON0+y9/Tbfd/xDd//Bj7vsPP06HHX40NS/qoc8d+g36+T0P0DEnnkWLlg44Po4+b0Ck35uAIDr/witU6fxSxb2qj33iiwKEyggiVhqMMEBrIHIkGh4aogCjsoJIhBGCYYCaWgZpn/0/To8+9qQCy0O/foTWbuSKCRpCS1aspR/+6Gd0wonnqBl15lrShw74grqf6PnnX6Qrrvwh/ec//0uPPvokffOYU6h7YHfnc0QQ4f6qfXa/m6gaiJx8GVMQSUP9HuUBkS3uDfFDQ3fZ8/104lkX06XX3UCXfT/SVdffRD+58376yV2/oKtv+HnsPdY5l11Lb3vHB1XB1GNOOINuufdXdNgRx9DchjbHx9HnJzyIOrs30Dv2+Qjt866P0jv3jbRPFu13QKi99/kILVrCN666DeQ0YplAJMIIA/TVBKIYjNCwJiaI+kferqZhc81C/jnhpHNiT1b95jGnql7S9678Ia3o2Bi+vsfeH6HHHn9K9fb5ffPz0kuv0M9vvYve/f5Pq+3UQLT1gijmFRUEET/i4atf+7a6Vr50xYjyloYFXaqatq31u+yrrg/96OY76J37H6hea7S1oCt4cvUKOu+Sq+mmu39JB3/qcNXrQh9Hn5/wIFKz6IKLZKXc0KobDAFUA1ENRFqOoYsgcmHUP/x2uvLqH6uahfzDPZyjvnUyta5aR7vv9WGVL/zDzyJavX6fEETDa95Bt9x6dwigJ574nQLa3/7+dz31+8U/0cmnXUCrOrfIEJpoIEqD0HgFkZVzmIsTBUQdPRvpuhtupl/++hEFmOTJCu6sOZytzD2i799wM/309ntp/w98Ut9mM9FBlAQjAyL1d8bp2zHZM0Qc+ExwEIUwwgQaXyByYFQURF4YpYAoI4wcQ88IIlbLsjV0+FePoz88+5wqpMvXI2+86Xb6zW8fC0HDteXe/s6PhiDiyQ18QZh/+DlFHz34i7Rg6Qh9+nNfp9/9/g/qdQbSz266nVav20fYD2F/s4JIgNBEBlE8dgUIvcpBtLxtDV35wxvptvt/TQd/6ks0fXZpIGpe2Es/ueUu+sGNt6nl+DPSIVQDUQ1EqSCKw+jVCCKWY+o5YMQTDLa87f103Q9+qnoz9o/Km3/8gw44+IvhsB3/PvY7Z9Df//4PuuDiq9S1JjNJ4SMHHaYgxOtdctl11N3/NncfcD+DitsVBRG2Rw1EEwJEXPXgou99n26+51f0lSOPp7qmjpJAxPU5f3bHvXTZNdfT0Jo9w1t0xi2IYh9aZRAZwIwViHzB5wRoBUCUlHxOglYARGg2Ew5EttEjAHwgCmC0rH0jHfLFb9Ev7n9QXTd64Fe/oV8+oJ9B9K1jT6WFS3kat+4VffzTR9ANP72F2nt3DSHE15EYZvzDPao933GAWtbZhwqBKD59u7ogCt8bIxCJ07cnEIik6dssnm7NteZuuucBOu+Sq6i9a4MMopHdFYh+dPPtiSD6xKcPp5/f+ys69+KrqaN7o+Pf6O9jDqJSe0QsvjjGz05fsWqUlrdFWtG2Jpva14biB0Shlq0YUUGGILKFgZCoraFHJAkNASFkgQglg8gPI6/poTECiGIwKgVEthAAKSDS07lXq5tbzzz7EtrzHR+lU0+/UIHlqmt+TK0r14UgWrNhX9qwy3vC9ZoWDdIXDz9WPbuIe0pfP+pENdXb/XxhP7M+g4iFx8cCUXl7RFZbZwCRE08FQKSFsS3kgQCiuKoPoqxCf3JOpAFEDKePfeYI9SC8W+6+n/Z8x4fU6wgiHsI7/bzL6aSzL1ZQkkDEpXyuu/4muuW+B+hbx5+hvBn9G/19qwDRYV88Sj247o47762Ibr31LvF5RGMOIo/GNYg8MMoPojxPaq0wiArCiMU3qfKU7YM/cbgC0UMPPayqKhgQmQoKpje0ebf30y8f+I0alrv7nl/S0hXrhM8V9q8MIMLjWHUQYRxNQBDFNX5AxOro3UzX/vRWuuOB36gbVzu4VwQgmtfQRht23Z/WbnoXNczvFEF05DeOp3t+9TBdf+vd9IEDP68eK4H+jf5ugyimaoEoRr+cIDJFTxlCnJiVlPSE1plzGSrFQBQCRwg+J0CdANYgmp1WWSEBREnJ54eRBaKgeGRREKHZ5AVR/QLX7PKAKFZZIQeIWGzoXCqnMIj43iK7aClfO9r9/fSXl16mf/zjnzQwunfsPQOh1pXr6axzLlMTHXgKN98Eq7eHn+sCyAaRWQa/V0wJINLLCBDygEhqu6IgmtcQvFcQRGZ5J7Yx/j0gir+eH0S8XikgCl9HTwH5QKTe94CI9+HATx9O1992Dz346FN05TU/pp7+LQ6MZqgZyVFvyQCorqmdjj3uFHrwkcfVsNyJZ15MKzrW6WVygIgvsVQVRLr6tl1nrhiIrr7mR/QPvmP9X//KJd5Xlu91Ix4Cueba6x0QFaq+zQpgo+tGucHnBKgAItachpTq2yGIXBglVt/OACJtFsVAxOva1beLgEjVKxNMzzFGAUZsqrHq2zlhFKu+nQgiP4y4p2ODZnjtO8PrRDwRASHE+tBHD1E3XTOsjvrmSX4IeUEU7H+w7/i9QgkQskHkLXaaEURcnqkwiMJaccVAxCdPHLdObGP8e0AUVd+2cisFRLGcrW8vCUSmPp3jKSAfiOLVt+Mg4mtC/H2OOPpkuv72e+i+Xz9Czz7/Il10yVX00QO/QJu27Eu9A1uorXOdumTBT2lds24v2nf/A+mob32Xfvvw4/TIU8+o4b1Lr/sJjW54pxryUyNXOUDEnl5VEHHBUy5wpytnG8DIMgXxeBn+rcc1udLrMnUzK9c8OuPMC+j0My+gM868MFVnnnURnXl2oLMuojNYZ2qp9yydfOq5tM++B8QaM6ygzWXZVRDpBg4reof/u8HFwcRVdLnqra6mqwsgxhRsV/8dBbQCTdCj4aKl/Fv1jILrRZg45uJqqKBwY11jJ9U16aRUQILE1Mmrf8fOKHk9BkkzSxefNNBR9edExQ1GVWBWxUd14VNlSCGEIoOqa2ZFQzn8u36+qb7Nhstn98YkBVO0ZC6wm+rRqvDnIh7+YkMOeklBsU9j2Hr70cV9VfBTrTtI81v0oxhM8VAWm7ujYIiNoWFmwnHR0gWLh/X6wQw5noxw7fd/okB0+pkXKwCZdVmdvbuqR0Lwz09vvJW6+3aLFV615YMS73tYOTzc9+C72d/d7jFa4vc0hLV4GTzOkty2M9vm901b48mGCyZepoFl4iY4GULpkyILVMFJkopbUzVexb3QM0qQyRtVLFjlTDBxwcq7EECcj9Y1XJ2zbWHO8nqc407eW7IhpYokm+rbartRzTnXc+L3RtqVt6OTX142fk+l8bdlK9fQoUd8m6658Va64fZ76f7fPErPPPciPfPcC/TI40/Rg795hH710G/pN488Rr9/9o/0hxdepMee/gPdePcv6Ic/v4tOPPsSGl67l7qpNexJmdqgxscFf2cAMRN09W69nIKTuoQTgGp6S/lBlPV5RGk9Ih63bF0xTMtXjNCylZGWr1ydKDNZYTlPckgQT1aob+p0ekTqzGSi9oiCsvZ4Bpi9RyQMzTm9Irc3FOsRlTA0N5Y9IjZ3p0eUs1fEILD/51p0XHGBf/jx4fFlh+jiS69VQ8RPPvU0ve+Dn6EFPJXb+Zw4eFBm/9V3f5X2iMwJkxPbGP8JPSL9+lj1iILX0VNARXtEaubw7GU0f3E/bd7jvXTE0SfR5T/8Gf341nvoR7feRTfcdo+6SfXGO+5Tf//olrvpR7feTd+/+Q468eyL6T0f/iwta1sT9YSM8vSIZgY9Iqc3VKEeUbhxvEDl7JwMIg2jEqZvm+cYZbqXyIJQAKKSp2/7hAEqQIgVOwPLCaKol+QmXxYQxc42vSDywEgwGjShNBCps2nB9PwwioxUX+dwjdYxZI90z8E1+jwwMr0kW5875ChVW46H3vgGWPP6QR//sirxwzrtjIto8bI1cs8nAUI2iOxenig8Lnjswr/TISSBiNvOARG2P0IoAJECSU4IxUGk5cQ2xr8HRJGKgSj+f34Q6dcFTwH5QBRdH/KDyPbBusYOal01Sht33Y8++okv0pe/cTwddfwZdNQJZ9JXjz2ZPvGFr9Pu7/wItfVsVOV+GJS8XgxCmUGk/Z97SBMORLbygiiU0ACuXBDZwkBIFAQYBp8ToAKETFBLygKiOJTcBHQSFUHkExoDQigAkaQ8IGKh4eUCkSQ05AShyecFkaT93vtJeup3z6he0V77HKhe4wfk8X1G/POrB3+rntaql8ftZwdRqvC4wLGLVAxEcckgwtiwQRRXPhBFSgcR5kk5QBRXfhBlFfqT418ZQOT4pEcxzw2H3oqDKJQDoXEMInUgLBAVglFBEJXaIyoZRJ77iGIwqhSI2ASEhHeMwTGO8oDIO33bC6I4jMQeUQ4YocmngygOI6lHxPcM/eJ+fR2IHwGxdOU6OuW0C9VkGe4lffxTRyRDKAFEsX3P2RuSQYTHVmgHD4jE6dtVBBEv58Q2xn8BEGEOSiCK/58fROo19BNB1QKR7bUhiCxPLgIi/T4CqAYiGUTBVMhCvaI0EGWE0asDRDKMxhpELDT7PDCSQMTTs2/4yS0KRNf/5BZ67wc/G/aQLrrkGv+NqykQGr8gstr4VQeidAgVBVE2CNVAVFYQ2ao2iLDBMSC8KheIhKCvFohUQktCY3CMozwgCk1NMD7HICUQ+YTGnCA0+7wwQvED8c48+1JV9udPf/oL3X7HfWqCwoMPPkxdfUItuYwQQhAlCo9HiSDC9oqrOiDCuHXjWoj/CoEoUjEQZRH6kuNblQaR4M3o3+jvNohCORAaxyCyv3T1QfRq6xHFYYQJnxlEHhjlAVE4pVswP8cgJRBVskeUCiI9rRtBxPr8od9UExb459//+Q/99W9/ow8dcIizviP8/CIQYuHxcABUOoiq3SMaTyCK/q+ByNUE7hGpgzFjiUrcRx59IgYirobAP/aBu/W2u+mPf3w+9hr/f9Ip56iD/8pf/0qPPvpErIH4fbcRX41DcxGIfEnvGINjHFUAkRdGGUBUJRhFs97iINpj74+q3pABEQ/JcZFTXD8rhCQQeYfm8DjkAREe/3KDCOOnBBDp1yYmiNRr6CegcoLo4kuuUvGo3g/8kp+LZf/87ndP03R+3tDMJWr5//3f6D2+vrl67dsd/0Z/32pAxLB45ZW/xkDE/yN0zGsnnXy2CCK1nb/+Vf1fA5GkKoEoBiO/maHxTTwQGWkQrezYTE8//axK4l//5lH1lFZc1xF+bgKE1D6XDCI8rsLxf7WAyMo1zMGtAUTPv/Ci8j+uXmNgpB7QGPzPPsv/GxgxiNTfgS/z/39jGK3ZsywgmjIRQGQAwwfnxJPPjuAUAIff49e4V6R6Tx4Q8d8MoxqIJNVAFDP1gjByQRTp57fcpZ7CeuRRJ9KCJcPO+zHh501EEGG7C7HhxM+rAEToE+wd5QNRHEISiL5w6JH03PMv0CWXXq3g4gMRiz1///ceHC5rfJnFyz/wwEO6kzBuQWTtQCkgYuAY+PCBYdDw/zaI7J6QhksEGntojl/j4TkzRBctWyYQsQLYeGGEgSqAiBMCgz4riEwCekHkhVEKiDLCSDIbNKOk4TkuExQam2CAjlHmAVEGGMVL47gASIORvkbkvs76znfPUjBa1bnZeU+ta0CGnyMI99vsuyljFAq/fxlAhG0WgYjfy9EbAhCpZTJCKBOIMO4TQBQ9j6jKIAp8Q78u+ImlJBBJzyLygcgGzu+f/gONrt3LCyLuOflAdO99v8wHooQbWisCoqjETzEQmRI/BkTh72BYzvw2IMKf226/WzWMBCKWGaLzgcguepoXRBx8pk5dURBxEmHQ+0EUh5EpeloURN4SPxlAxOth0VMRRgkg4hI/pYCI10+EERq1beRBzbUIRi4AHAFMdIkf93XWO/Y9iNZu3Nd53YjLC6k6cfgZGSDEEkv84Pf3QohL/GiQFwWRLvFTDET8flTiJz+I1HpY4gfjPgFETtHTnCDienOlgEjVoEvpFSWByNSYQwhJIGIft38eeODXajkJRKZHdKkAorw9Iq4zV1UQ7cyF7oKZFmF3LCOITHmeGXwQg2s//KW5J8Tg4N82iOzhOD6AJweA4YbxgcgM0eHQnALJnOU0m4sRqqDRjY8BoZdzgyYsmBoEsgkuW1j0MNYTUoBpU0UYzdlZDEL8mgdEvDwDiIsvRsUb3ST0gYgTW4MkKB4pwQgNAs5m2Ui4R6OkzCk7iNj0VNFUhkDwt88IHRCpopsaJE3cqwj+RvP1gcgASBUP5aKppvBqDhgZiMxvGdL16hJ6RihdcBSLlgqfY4HIHoaLipbqfedjGPaMnO/vgigqfKoVg5F9zD0gwrYzBU+j9taFTB0IBe/ruOHesC62awqXZgGRjtug2C8WPMW4F0CkY18XPmXpmnNWngkAskFk8nKequ9o5X1GEPEyvLz+rJXadwS/8YHILnxqFz31gejiS/W1HvX6zKXhMJ0EIu4N8bLsxZcE6/HfvB73htSEhZRrRHZha7WuYUI1QMS9IQ0is3PZQaSAEoCI/zYg4i/AP/aEBfO+6RmZA8+QOfmUc70gYvHwnAOiAEYGREmFTyUQKdAEIDIVeDEInTMmC0QmqE2PBgPfTg4EUZhUAYwSk9EDIk5iNgJVibgwiLqDXlH8LDgLiFiq6GnKGbkDImWEGjIMIgMlx4Q9INLGHgFB9yyMybsgcBQMyRkQ6craLnCSZMNIPRPJAyLcbwMiXl5ByNr3fCDSvUnVK0o5/hKIorYz14oy9ogARnlBZIaTeZ2iIGKFEKoPhudSQBTmbJC3pjcV5n1WEAXShZKTe0UiiIKTZx+EEEQMl3e/92OhZ7L4NQbQk0/+PtZTMhMV2I8ZREVmzdlVuPmJDHq5KvWI1HhgDEDZQYTXiML/rVlzLPtAoqQGYGEDRfJ0cwNhQCRJn+HoICw6NOd7MF4MRgKI7MQK/xcSESGkZQ1xSBBKAZERV96WTCcNREZshKHBCSboA1E0vKTNVxmsT4KZR4buXvRHGHjFMEgYmvMqWD/tGhHuL8psL3wNv3cgHJLTCnqyeFzx2AsgMtJFT3MMzcGJjFom49Ccc30oWDYW0xj3nmE5nSf5rhE5ORs+GA/yG/PfMzRnlkU/sSWBKBrNMdeJ0NtcH0S/lGR7rfZb15OVUkCkpf2ft1HVobnwA8YIRDFlghE2ammTFaQznjwgwqDPAyIUJmI6iKIhD0doEAKIlNBwEEQxGOHZtfW3YIJpINLDSsVA5BMCIVEImSThuinC/UJlnajgQkiDSBQe+wQQhT0hAUJpIIorP4hMzBYFkZaVUzlBFL1WEEQpEGIlgSgSelt+CLEcEAmenBdE+n0XQuMCRD4Y4ZeugQhgVHYQaRhVH0RxGMULZ3pghGaZF0SVhJENGARPQQCxcH8kxUCE37dMIEL4uG03ViCKHvpYThBh7k00EKH/Of7oUSYQZYJQDURa4x5ELoww6FETGUS//vUjanzZJ77bmw0wEUQJMKoGiPjGVNxv1t/+9nf67cOP6Ws8wbLm57HHn3Lgkke4P5KKgwiPowyhUkCE8bB1ggjzWsj/GogcCE0IEPFPWokf/OHXeDad+ttqBN6OqawQn7ywjG677e7g/qIKg0iEkRvUSXKH5zChKgSirDBCw7EM6bHHnsTmiv1wPbZygciGUUfPlvAzTj/zIsfEs8hA4bnnXojtM/787vfPhMuan1JAhPvhUxYQuRCqDIjOOvuS8Lvz4+MxHvwgwvgSYtCBUJlBlDIslxlEmPc5QfT0M8/Seedfrt77y19eCo8n/9x9z/1qGfYrXs59bxn961//Vn+zh7H/ffPoE+mxx5+kG35yc2x589PVs4leeullalk6qNbFH54Y9vjjT4Xe/M1vfZdefvkValncv/WCyIhntqWV+LFnzhmZ2nNquZwgUoKzDwwSr8oAojQYlQwiL4yixMbELxeI9tz7w3TIYUfRIV88Ss3WMT+HfulbdMgXv0mf+PQRdMFFV9I99/5S6dlnn1PiR2l/+IAvKDO8+trr1XsXXXw1ffmIb9Nvf/uYWoZ/d/TsIoLo4YcfDz+L/9aP7e5Xy/OD6Z794/Mx3Xb7vY7Ra7OPQMQ9oMO+fAwd9qWjlV5++a/qda6yzTPgzOusvfc5SK174snnqs9GffXrJ6j3R9e/i267/R7n/bPOuUx9/ndPPlf1yOx95WPz2S8cqd4/65xL1fI/+vFNtNc7P0q/+tVv6dlnn1cg/PABh6hjcvPP71TLHP3t0+j0sy5W7/Hxu/e+B8Kp26vXvYMee0y/bsT/f+bzXw/B8+Ujjg3bydZXvnYc/f73fwiP9z33/JJuuvkOtU5uEGH8JYDIEcZ8BUGkVRxEkhBEXX2bQz/i/w2MzHL8t90b4jb797//Q129m2IgUj2lmUvV/+ZeSuObBkTGa/lzOns2av+dEfzfvTH8+7zzL7Vu0/EJODCRQGSoa2CSVOLHByIDI/6dB0T2jLmxABEGPWrcg0iAEQ7V8Fmz3bMws+X4rNrX4+DyOLyceZ+Lh+LPCy/+SRkygkj6YViwkft+OF4QRCzz+dx7s4fh2NDNT/PCQWtLukd0w0/1M4mknzvv+gV19uxKnGfSD69/6hkX0n/+Y82htX54vXfud3C4D7wcLsvHj6dYc77wj3T8GGoMIj7TlX74cxoW9ND1P/k5vhX+3HHnffhS2NOtGogw3isMIv1a9UD0raNPopdfeYUWtw4lgoh7P8/zfUKzl5UMItaPr79J3Xd0/Q03696RNUSHvo4gmpA9IgMiTpqwxE9wYyuW+LF/nBtdZ7Wq12sgygYiTv6qgKjRDyLT4+E25J7SE9b9Dd854axwPTZaTjZe1hgnv8bTr7FX5OsRce+Ff1588c9h78M8roGTkJcpCiK+bmR++D0bEtwLwx6RDapnnvmj0yPiYqnmx6z/+ONRxeSf/PTW2D48//yLqkfEcDY/XGbIgIhzmntXfPwMAPk4HnLYN8PluZd5yBe/Rb+xPvu0My4Kh4P4u/Ajz3P3iBrKDyL9+sQEkXo9B4jYpxgaBkT2z/kXXKY8TEEleJ97T9865qSMIBqIgairOwBR4MlPP63btrNrQ8y30dfHD4gywkgCkZG5oTX2G0r8+HpEBkSmZ5QVRGM9NIdBj3JB5IcRJmIaiFJ7RWgUjpHIIJJg5APRD3/8s9iQ0J//rB+fwD+nn3FRDARmKMk2YL4XB0F06ukXRtvga0TQU+L1JdCUAiJ+zd4+QsIeWvvIgYfSHXf+Inz/9DMvdj7XXp97c/wa95LMD/eq4vvQr76j3UPh725AxN/DXA+yv9Np1jYZKAwXGywMImwD7uHaN7Lefse94fLcthgLlQBRTBjvqSCycqmCIEJ/cPwjI4iy9IgMiNgD+ZrPmWdfWBKIjCdzrwh7Q34QRd6vlhEgNKFA5CvxkwVELDWcZz0Ggv9m+BgQ8fv6/xJBxCoRRDOFwC8KIi+MMHHHCYi+duTx4WvSTxEQscYDiNjApeEw/uGEH48gkn7GGkQYp24cC/FeYRBpVQ9EZiKCvRz/7QPR9TfcpNpqLEHk6w1VFEQh/XBHnB11QSQVPeUvzT/2hAVz8PCHDyxDxQaRGaKzn0dk/+gG0RDCygp5QBSV2ygOIk4Mc5YlKQlEBjJFQWQMITuI4jDyVVbICiLbNC+65Gr12u22kQomyEbKiWF+uMxPEojOOe9yEUSm3loeENn3BXEvh394uMoUL41vX09GsCcxPPW7Z8Jlxg2IrGP1q1/9Rg3N8UQSo/aezfRHAURh0VMAUWfvFicWEEQ6JoqDyCyfBCIXPnaOWJUVUkCE+apztrQeUfh+Aojsnyyz5mwQsXi5x594qhCIuMwPv18KiHh5BFBFQaRgIlbfzgoiLtMj3EfEynAvkSl3of63QMSyzxgixefiz5zLvZqiIIrqRhUFESdSEohCGAkgUlWEg1p1RUBkqm97QSTCyAJRMH3XMZ6MILKvk3DM/eMf/wz/5x8bRGz45h4e88PXOPAaEeu4488Ml+HrQrzOb377qDJS9dp//hNuy1zkf/4FPfEBZe+39MPvm56S+WFAMGh0HkX3HplrVPyZV13943B5ezk+Brz+XXffH77Pr/F79uSGc8+/oiwgese7DgyX5wkOfP3M7Iu5z4uHE80Pfh/uUfHjLsyP+S58nSgJRHwSkwahJBBx7BYFUaz6dgKEfCDSOVscRKY+HfqJEY7QOJ6Voc6ckuCXKNtjlc+qItauJ6Nvo68jiHgbCKCKgogLnhqponf2DgdF8GwZspovPGN2K80MD2r05e0DpWofzdL/8zJarQog3CiqYQxMrAYzkLJlNyYHgwJJ+CgHHQRmm7rBozMYBAwH8tx6Nn9dhVcSLxf/X0NHQaOei55ycrXpmnOmAjf/FobgzJmcTkZdvFEXLfUMWQRJGiW1fo0/k9cz1bcjU8ChEzYNSbpoZcP8bmowhS8RQuZGx6Cagm3oTQvZ5Huou28XesmascXG9swf/hj+z0bqAwEvyxMdosKfwTWi4PEGOENOw+E+Z3YZ//znP/+hc86/PKw9Z8v3+bydF//0Z1q/ef+wgrb54c9iI/b9PProk9S8cCB8nDj+MDQ7e+PHxv7543PP0/yWQRdE8xFEFzsg4mVsEDUu7KPfWT01++ell15R7XTq6Rc4Jwn8w0A//rtnUlv3ZvrLX+L7yvuBJyMKQFxjkGNHVeDWPSPdOwKpk6Co16R78EHBU1M13hQ+TTzhMnlg8ibKGVW1PsgtO+9CEAV/KwCZnFWFiu2K+W7Omzx3YMVeMG+lrtwdrBt5TCR1Mqw8Tct4mRmBmTUvXn0bvS1SAKjAS43HsoyXxn028FXbkw20gg6CEfq6kWGBLmSti2ErSKkRMw2rioBIPY9IgQd7Q1l7RNHQnKMsPSI+cOZgZ+oRxXtFMYgV7BFpiAmwKmePKNYrino/+swupUckJqlOak72knpECmLZrhOFd+IHcNLDO930vg9+ht7/oc9GN0taN1VKQ3NG0WMMXHHvgLd56Be/RaPr9wmH5/hm10Ot4TIW9oKyygzJZRF/JouH63hdU/T0/R/+nHp9730OdLbPMu8bqeW44Kt5/EPBm1jDytvBcX77Oz6qhuXsdkDp4bqjqL1nk247aN9PfPor9IXDjqK27k3xWHBObsrRIwpOrDDOM/aI8jz+AcXrOnmNeY+9oViPKHhf8BTWWPeI+HXHk8vUI2IIVQREsQ8qACLT+3EglBFE5plG6v8CIMLrQ3lAxLIDDgMxC4xMsGMCZAGROUMrCqLY2aZPCSBSj48wKgAiXcHZNTwbRkkgiqpHo/HGzVkUVicoIKzcnUfh4ytyy+x/9JiHIiBSEqoppFVUMO2n2g7aF9vfB6JIBUEUxGVREIV5VBBE+vVkCCWBSL/veokR+hGCyO7tVAZEgifnBJFaZqKByKsMIHKUCUbQqCWAyA40DMQsILKD26ckEKEwIZNAhEITSANRTGg+CCEBREkypmjuM+IKAQiiuNB8XZN25Jj8BBB+h6IQ8oAI28GV1YYlgQjiCuNOiE8DopgwzqsAIiefMd9TQJQm9CPHr7KACH3RIwlEjg8XAJHSRAOROiD4xasEolJ7RKWCyAQ7JkAyiPwwwoT0g0gPceQHkQdGaD4IIQFEWH1bApEjNNMxBFEpPaLCCvfd/T74/SsJInNdsBiIMJ6EuHMAFIeQfl+I81QQWTlUEETm2m9REKn30EcsoR+5EHJBhL7n+KJHPhCp90oAkVpmQoEogJGoKoBICRs+D4zGGYi8MBJAhImORuCHERpLRhABjCoNolQYocnnVNVBhPufCqEEEOFxzQQi6NFmARHGiQQijLcMIAqFcZ4IofEBoiShD40ViJIgtFWASIQRfvFqg0iAEQaIVxBsGIxpILKB5NOEAFFWGGUEkRdGaKgpMELDdoRmP16F+50JRHh8kkGEx9+VH0TY7lsziLSSQYS+4PiGR+hDjk+NAxChn0sgUppoIFIHBL98lUAUTnssCiJWCSCygx2ToNIgYhPY2kFUSRhVtUfk7HMahLZuEOn3hTgvACLMtzQIZekRJYFIvY8eEgh9yAVQdUCk3isBRGq5rRFEmWFUA5GTmD4YTUgQFYCRY+IoNQNNMP8UVQ1EuL+ZQITHJRlC6SCKt924ABHGdw1EuUCE/loDkQAidUDwIAkH09HWDKIYjDDBSgeRF0ZoHD4YoQkhhABGaSDywgiNNQVE2WAkACBF1QGRsK8WiPB7FgeRe+y9IFJtmAFEGB8ShDwgwrisgQhVfhBFN6tOdBBlhBF+sdiXroHIUcVA5CS6awi5QJQVRqWCqACMHCOX5EAgWRUHEe5fbF8LggiPYxlAhO1dGRAJsYvxnQdEVk5hvo1/EKGfjQcQCb6PbKg4iOwPlXaogiAKG2KMQIRBhwGZBqPiIFplFW90hclZEohEGHlKs6AZIYTGCEQijLC3gSBIkVQkNasy3dCK+4v77qkq4R4PAUQOlNxjnwQie/o2tncWEIVFTzHOSgQR5oEEoTBnCoFIl+lJghB6gggizw2t6EMuhIxnjW8QqeWqCSJV4scUPS0AIv7iTjmJHCAydZbC13KCSBU9xcbPCCIOKHN2VBREXGeuKIii4o2YcNlAZJf4KQKiWImfPCAKYBRWcHZMLwOMYiV+0HDRmF0QcYkbXl+XuikGI1MVu4hMiR98PRSCB6TWFQq+ZgWR+d7mfzzmSRBi2SV+sL3TQKTqxan3hTjLACKzDSe+M4JIlfjh+o4FQcTbKAVEyjM8vSL0IYSQ8iyhxA/6HvqkJMdfA9/l92KeXABEXJ0BIVRREO2sipfyFzA7mR1ECkJBvTi79HgWEPGB4saIipPqhsEGcSGkQaRBYuo+RcUGJRBJ5TgMhLjWnApmod6cCTgJRBoqbTTPVM/GRLCKLyKIVOFFBgknpEpmnaB5QMTJzMUfwwKQOUAUFp5UhSsZFBaQ0IwQQEHhSy7Po0ASlupB8/OAKCjcGQNJHhjxugv0IyC4YCoX/cwLI7Xugn5qXjSgfucZotOPn+inpoVaan1cDsED+8efp9eN6s1lhlBQZ45BwjLHLna8nbawerGq7bqpkddVbW89iRXBBBAyAKoPtqFhFBQ4zQgiO27VcjlAZOcNFzzlgsX8OgLIByKTi+rkz0DMzvEUEGlP0PUpVY1KwVeSQMS9qLDwaeBbPt9D6Ehy/NXyY8eTM4DIeDprBhdUNUyoBoj4wwyIJDK6OyyDSB2cHD0iU4E7hIjvzMCBUACiAEZhg5YAoqh6twsjH4hUUPPZWUO7DvysvSJreMEklUnSVBBZMDIJHVYwTusVIYiCCtxOr0gAEcKIzYvNjo2Uf2ujRPPzgKhJg0v3CgqASPWGLBBJvaIUGGmQaRCFxUdzyKzPMNHPOIJlcF9A4f4HAIx/RzwOLog0jDXMTeFTPOZJIGIxiMxwHra1BKEYjFT17OIg0vHH67nxjfBBEHFPSJ94BcPaQq5JEFK5qfJTj2Lo9YLrRWkQskDEMo+OkXwlEURw8mz3itDzEDqSHH81vSHbk3OCSD9hYbHuUQGEKgoiswMKOgWG5pzxyIwgMgobwn49A4jss4ywwSEIMEgcBWc4GHwYmBKITHBzguBZlyQEUaFrRBaITFIjhLwgAhhpQwAIKQmmJPSK2NR00VNjcmh+fhAZhUbqlQsiAyPTq8LeRlYYsRhk+FpWideI8PM94u9g1s0FIQfmWSAUB5FpP1P0FNs5GUTRiUzSNSKMRztmY3GLsZ0CIidvhDxLApFW+tCcBCFbZj18Hf0Hh+QiILnXifJCiOX4q/HewGtLGpoTHoxnIFQZEOE4YF4QlThZQVQeENkNnhdEFpCKggiDHhPCAVEMRphoOUEUJnkxELlGkwNE5oJ3BhB5YYRmK8oFUQijLEJYAEzwtcLCz02Q2n9nogJ+bxAeO0t4rNMgpE8k4s+gcuTERQSiUBhfGUEUxi7GdkYQ2bmEeZYFRLFZc5jnCCEBOBKEWOg/CKBI6GflBZHTOSgAIvXahAMRQGjCgYhVA9GEAlE5YFQ2EOHnJSjc9xqI3Niugaj8IBL8Gv18woIIYfTqBJGGEQY9JkQyiArACJO5JBB5YISm5IFRHhCx0EBDg0XTLTeIjAAgJYMIt5+i2L7nAREet8wQstvHBRG2bwQhCUQYN0J8lQgijH8RQiWBSOftqxlE6OOvChAVhlEqiCIYVQ1EIozGJ4i8MEIjKRFE82IgSocRmmg2EJUbRhGQioNI2G4G+UGE3xeExy0ziOy2yQMiISacuBHiS4hDH4iUxhpEmN+ZQST4R2YQoY8VA5Hjq8ZvX80gUhojEMU0BiBCYUKUHUQAo1wgEmGEhpMDRMrQSgARQilRLoQKgQjlQMYnYd0cwv2OC79rOSAEIMJ2E9o3F4gwrvKCCGO6iiBK6g1lAZFP6D+OP1URRKGKggi5MBFAJB2AaoFovPWIMsGo7CByYYQGUQ4QOTBCs3OMEEHk3lNUKohKghHCpczwMcL9VQp7RPg9QQKAygKiJrdtKwMijNPygQjzKyuISu0R+YT+40KoeiAK/y4KIn5tfIFIhlENRGMPIp34pYIoH4wcEAWmlh1GHhBVCkbBFG9z301DSy81Lu2jphV91NzeTws6B2hB9wAt6Bughf0DtHBwkBYODdCioUEl/lu91q+XUct29lNzW7/aRtPSPrVNc5Op+bw0EOmhOfx+IAE+2UGUAKEkEGEcSBAqB4gEGGH8FwUR5mO5QbT1Dc2h348HEIkwwh2PfzmEUIzKeMCEg+ooB4hiKhOIvDASQDRTCHxMDAdEMRhhwmWAESb0RAURCo3YkWvoCCN1bxFXW2jpo8YlfdS0vI/md/TTgh4NFAMYpWH4vxQNDKrPmN/eT83L9WfXt/RRXVjGSBJ+v+wgwuPqapyDKBeELBAVHpaLQBT+jfmNABIglCT0H8efPCBCv3P8UJDjq4L/FgaRYcCrHkSsVBhhA5cXRhigXhAJwsRIBlEyjDBhs4IoH4zQePwgisFIBFEyjNBQHaEZO0IzD3o8i/p0T2dlP83v7KcF/QO0CMFTRTH05vcNUHNnPzWu7Fdg4n2MoITfKzuESgWRasMKgAjjzwsijOdUELm9odJAFAjzGyGUA0ToO44v1UCUDiK1gwVBxAeAS0o4ByAjiExdJHwdGwcbzzRsVCojP4hmcokgDkDzWm4Q8V3a8coKeUCUVFkhEUQBjIwp+GCERoEgiu6QF4QGJYDI3J3vwghNUYZRODyVC0Qshk8PNS7WPZ7mtgGa322G1Vwo+NQyMuS8llUtw0NK+DqL98HRwKDaRx7Sa1zeq/a9nsvsON8tC4h0rT9/WSU/hAyI+Phhu2YF0Twu9cOvp4JIgFAwpKyWLwgikzOYX8kgsnJWLSPkN0LIA6Jw2YIgivxKABH6oEeOr9q+G5T5KQVEvL2qgkjDhHeyBBAJ1bczgwirb+cFkaq+zbXqCoDIKmyKAYgBKsOI61a1O0GPieEDUVL17UQQBQkd1ZnLDyI2Eq4VFpZqcczHDyNjaHYF5yIgUtdUJNNFU7a1oIcaW/vUENjC3kFaNDjkmr4AhxhEVg/S0l2GacU7V9OKd4/Qqg+NUvuBo9TxiTXU+Zk11PX5NdT1hUCf16/xe20Hrqa2D66mFfuP0Iq9R6h11xG1rVQIoQYG1L7zkGFDKw/f5YGQDSJfzygdRA0SiLD9fSCCYru5QRQU+y0KIq4zx8L8CkGkakeiorzVFfOF3BZ8AD2DFZYFKwAiU+jZW2cOfdAjx1cRRKEnFwDRzi0KZFUFERc8NTI7ihRVX8YSL2N6QtybmTmbD2i89DgeMPP39GA5fWYQFT2dMSdqGBs0dgPajafWm7s8KEDIgRE0Li8XFEE1zwzRQaY/R8ucGenK22ERQ4CMgZQqlmj+Dy52msTQINAJM3OuPhtTlbcFRXBpU8VSw+rbBib8HiauBR6TtKEZqCKWBiZRDykSGopWYvVt9X5kWDZ41N9mPe6RqOsf3LPRZ+dZZSYPNC3UhT/5uk5owAieQPWLeqhpZR/N7+5XRr54eIgWj2ipnglf7xHUsmaQWvccpraPjFL359dS/7fW0/DJG2j1mRtp9NxNtOaCTbTm4k209tLNtO7yzbTuik207srNtO6qLVr8N792+WZae+kmWnORXmf03I00cuZGGj5lA/V/ax11f2EtrfrwqPos/kzcjxCQw4N6v1cP0ZKRYTV8uKC7X303/o42jPREBzgOQY09I92rdI+xc1Kg2k63N1bfDtvWkY4VW7rgqVYUey6w8EQoBFBjUH27ibcHPaNY3Os8iUkBiPNGi5fjfAohFOSZARH2kOwTQJO/dm47HoCgCp5lNLsuKJYc+o7lN0HtS+NXpvdjAGSKnpp10efcE+4ITsZjlc/iSb0FIPZV/bn8XjSRQcPK9XPb51UB7JlB9W21rgYVw8dAqiIg4g1PVzuSr0dkgBUOzakvkt4jwgOoDpx0JpDaI9KwKmlojiFjzoRUMOXtEZmzKzz7ytYr0gmWfDbo9IaspFWJnNAjQjOwe0TaFIyReKCFZ8wAp4YF1tBcACnHAD1K7BFZQFIAWtVHC/r6acHggJ7FFsxqMwDCHsfiLcPUduAo9R+1jlafE0DmCobLZlp/7Rba8P0y61qGlv4M/qzRszdS3zfWUdsBo7Rki91ji/a/JQSU/p+/2/z+fvVd6xcKxyOQOX7+HlF6b4glDs1h+wuAUXFjHqrowAbl9oYUkIIYzN0jsvImBiDsEQn5GMtZPmnEvDY+gBJ8o3iPSPsWnlTn7xEJnir1iKBDgf7t7RFN5x5RfGjO7g1VBkTQ/coLIgMjH4gkGOGBNc/NiCkjiGIQygkiVnh9CEDkhRGAyBf4mBwSiGJDDk7ypcDIHmvPCyILRpHQfJJhxKamzry9IMoAIx+E1PUj3QNSw1iWgTtiQx8ZpKW7D1PXZ9bQ6rM2uKAYS127hVafsYG6PjNKS3cbpkUjvM/C91DTxAP1D+geEvc0BQipYycczzwgwucQOe3uAxHGkRdCHhDZPZ88ELJAxMK8ygMiM9KBwvz3gSgcxSkIIlReEDl+6kzdDkagSgCRWr66IFpUMohCFQSRqIwgcpQTRDEVAJEb8FUCkZ3QMRUFkQdGAoQMiBzlBRECiHtAPGS3XPeAHKMO4TNALesHqXWPIer4+CgNn7ye1l+12YVAkq7bQuuv2UzrrtxEay/fRGsu3UijF2+g0Qs30OoL4uLX+D1ehpfldXhd3oaz3QTxPg6dvJ7aPzaqwMnfIQYlA6JAfN9S4/JoUgMeP1dw/LF9hHZMBxHECMaRF0QYl3H42MJ4rzSIlDCvEUAJIJKEvuP4UhVBFKoEEKGqAKIANCWAqJQekblehAc7K4hUECSAKA1GKgDN/wVApB+q5wqTQwJRNGuuGIi0AWCyZweRGfcvAiKW0yNyYIRGCSCyekRsto2tvep6ScyQLQCpns+uQ7TifSPU+/W16noNmr2o67YogIycs54GTlpDPceMUOcRQ7Ty03205INdtGCvNmrcspzqRltpTv9SmtW5JCZ+jd/jZRbs3a7W4XV5G7ytgZPX0Mi569VnZILTdVtozYWbqfdra2nl+1ar76R6SgAiI74uxhM0eFJDdOzMtSAPiLBdsO1w+ja2exKIzHtFQQRQwnhPBVHwHuaWH0RCzmJeI4ASIJTaG0oBkT00hz7n+KAgx08FEKnlSgDR+OgRZYRRGogMjJwDJxxcR9hADoQMiLCx3aDAQPKqCIicoE8GUQxGJfaISgJRAKPUHlECjJT5oeHhWbkAINtMefipYUkvNXfoSQhowgpAqwep9e1D1PGJURr8znp1PcYxd9DaKzbR4KlrqfOrQ7T8Yz208J1tNG91K+28bCHtOKeRtt1+Lr1lm9kladsd5tKOcxtp5+ULFaj4M5Z/vIe6vjZEg6etpXXfSwclf5fB4zaonh338Pi7OseAe0d8/ai9l+qX6IkheCyd447tgm2H7YltLoEI46coiAyMioJIyKlcIOLXMK8RQqWACP0IQGQLPc7xQUGOn0q+mxlE6PPG/2sgijQeQQQwKglEMRhhApYHRIkwKhlErtk5hugYZqT6hd3UtLKXFvQGw3BgvouGB2jpHsPU+bk1NHTyBjWDDY08ZupXbKa+b4/SsoO6qXGXFTSrq4UmNzbRdpNKh05WbbfjXPWZ/NlNu66gZQf3UN9xo+n7fuVmGjppA3V+do0atuPvHkJokCdq6J7i/N5+alzRG+sdZQGR03Z5IZQAIoy3ioCoMIQmEIjQ/zxy/FTy3aIgCv2/BqJIExhESTCSQZQfRjKIXBihcfhB5IGRYGReEGWEUf3iHprf3UcLBmAoLtDi9YPU+alRGjp1Q2LPgmfBcc+n9aPdNHdwCU1dNJ+2n15Hb9nWhUS1tc22c2iHnetpWst8mju0lFoP7KGh09Ylztxbd8UWNSWce38t63TvyIAoVD9Xj+ijuhYbRn4IVR9EGI8AIQtEGOcihGogisnxU8l3ayCqgWirA5EHRj7TSwIRDys1rOil+WoyQmSuYS9oaJBWvn81jZyxntZ9zz8hgIe0ur8xQvXrl9PkhiZ665R5tM04gI9P22w3h946tY4mNzVR46bl1PPNEVp/taeXdJ3u3Q2fuoGWv2eEFqjp3XEYcQ+Sj2HjcjONuyCIsJ1rIKqBaCxAxBt1IDRhQGSXyyg/iLwwwqD2CJNkrECUD0ZoRskgMqbmSABRHU/Jbu+zzDQOosWbh9TNoeuvFszZMumOrwzRjBWLaJvt54yLnk9ubTubttl+Ls1Y1UKdRwx7YcviY8H3JC3ePOjAyKipo4fmzc8OoWwgKgohX0yObxBh3pcfRK53VRRExpPLAqI4hMY/iAQYSSDKDKNqg4hVCET8Nwb/RAWRB0aSmWUFUXMX1bV0U1NXX/yaB4NoqJ9a1gzQqo+M0Oh58qwznio9eslGaj9sgKYtWega+wTXzssWUccXB9X08PXXur2k9ddtppFzN9LKD66mRWsG1DGL9Y4YRl29VLdIhhG226sLRPF8zQwi9AVLYwsiwUsrDCKEUOVAZO9ADhAZGKWBSIKRObCmZIV7wMsHoiQYqSDMCyILRnr6dj4QhTByEg4TMRlGXKrESXYPjNBANIQEw/GBSICRmQKMxheDUXMnNSzppvk9UU/IaNFIPy3dY4h6vrKW1l4hGPC1W9Q9PB1fGqTZvUvULDU08a1FPKFibv8S6jh8kEYv2kDrBSDzMer+8lpasjtP9zbHkY+rVnN3rzrWCCNst7DtsH3zgIiXcQCUA0IpNRZjeQEQ4vdUOR8hrzAHEUKcu+UEEfpMFhCVUlXB8VFh6rYEIvTtNBCpdaoJIi7t4xQ9zQEi/sKxchLCAUkCka6L5GmEDCDSRU+x0d3gwGAyARWrF1UARJwoPhAlwYiTyhRvLNoritWpc5QOIlW4MnYfUT4Q2YUzHQip+4y6qGFZN83v6w3M0jqLH+mntveP0tB314sX7/mm0a4jh6lxywp1wR+Ne2vVDjPr1Wy77qOGxZl23GMaPH49rXzvSACjCESs+T291NAaryEnSbUdtm9GEOmCucVBxNvj2MX4FiEkgIjLavH9d5hTmHs+EKmcLQFEdokf9BnHhwQQmbJk6G+O/wlyfFQAES8Xll0rCCLueVUVRAok6gsFO5wDRLyOKXyqyvR4yCyByBTnmzmH68VZN3hlBBEvb4OES/X4QGSKn0oQCguemuCzIRQEnKTZQRFFVUBRSATzPyaLghAXPWUIqUKlQc8mTD5MSBlEBiTKEEQYoUHEz2Z14Ul9Zhyvwp0OIl6+vqmbGtWTSHURTXUdKNYb6qSG5T00v882Sj0cp2bEfXqNKh6KRssaPnMdLdqvnaYsaJ6Y14BKFM+249l/Le/uoOGz1jvHhzV6/kbq/NQaWswz69RQnQUjnsSwTE9gQADZbWfa3m5j8cTEihtT+DQqeIpxhnEYBxHHehi3vLwQ514QBYVP53DBU1awbFYQcZ5zvquTP1Xw2Mp9lAAgXs54BssAJSuIbM+aZdXILBeItJdHj9YJPVnwbglEenRLSxU9DTooCKGKgIgrrkZVVvOBSFdr5S8uQ8iGkXMAg4oKBkQKMDOFxvCAyDSs3aMpDqLoDAcDEgFkxAHMw3KcGPzbN2kBIWSkKnAHMDJnePlApBPaLXyaDUShoYi9IgFCFoxUbyc0M1P3LA6hxpU9tKA/frbOWrzLoKqKoGbE4dn+1ZvVdSC+B6ea9/6MV2234zya1d2ihialCRw8VNd7xFpaspmvu8Gx7utTsxPnNsV7sqbtuEcUDt1hG/tAZPWGSgGRqjqvQBTBxJUMIg0jnTM2hLKBSOetnbP5QKRhZFfeztMjwpPnvBDygUjqDalC0tYQHXq3D0RGZpSraj0iswN2tywvjNQFNM/QnBdEwYFNvEYEIBJhxBCTAgACBIMqCq4IZBKIvDAywa0SIP/QnIFRBKD0oTkHRqY35ZUHRJapqAecofEkwcgyNe4JocklQah1z0EaOE6eFbf6wg20cJ922nFe46uyF+TVtrNpp7pGWrRvO41etNE5bjyNvf/YdbR09yHneM/v76OGlT0OjFTPiIueYtv6YsETNxhfbvzFIWTDiGMXYzsuF0Qmb8zrmE+YewgiM8KhlrVyGfPdB6K4ZxQfmmMgOUNz6HseOT4q+a3y1yzXiMDfLe9XHZNqDs1N3ZknK0CtuTwgSpmsUHEQ+Ro/B4jwNQxKB0IxENnBjkmQDKIw6azkSoMRJrST9AkgcmBkzEf9jUKDcmHk1CtLgtDeQ+o5QNJF+MFT1tLcwaW0ba0X5BX3EOcNL6Wh09Y6x48rfA+duIFa385TvAUYqZ6R1U7BM6ecds0IIrMcxpYbfzKIzOsY20kQskEUPuMrFUQAIQMifi8JROgHCZ6BPuP4EEAo9KwKgij03BJAZHpDVQMRb9QBUE4QxeQ7KHgAhYMsKgVEWtjw2UEkKguILBglgSgJRnaSFQERJrYrNArBVEJzQaFBuSCK9YaautQ1IYQQTy1etvcQjZzmPp6Bp2XzjZ3TWhY4xluTrOlLF1LvMat19W84nsOnrKfWvQQY8TCdumYU9GCxPZNAhHESCOMqF4gCYWxnBpEgzDkRRJi/BUFkC33G8SEBREaVBJFSCSCyhRCqGIi8MMIddb6I0CMSYCSBKDOMUkCUtUeUC0Y5QBTdRzQGILKTHJM/L4jywMgaijM9ofrWbmqOTUyIIDR8qjCkdOUmWvWFAdpxToNjtjUli4cv2w4bEGfVcXmgZXsN0XyAEbcNt5HqGeXpEWGMlAtEpfSIBGHOJYGo9B6R/o3+UmkQoX8mgQg9GX07FUT8/tYIIglGeKBFFQWRACMMKK/GMYhiMEoFkQsjNJRCIApgpMyMHxu9uJuae80U7Ug+CK25ZCO1fqRbleVBk60pm7afVkfLDuxWN8Hi8WUYLd3LvWbU3NOr2mqumqAigQjbX4gRL4gw7hIgtLWCCP0nAUToa47vCXL805oxh7I9GT07D4gQQOMWRAZGFQMRKwFEWtjw5QWRF0YY6B4YYdKkwwgT0wMiSGxZaBiuqRQFEatuYZe6kRJNr3UveThu9fkb1OMStuabU6slvm7Ekxj44X14nPl63FLhmlFTVw/VLZAglB1EGE9FQIQxLYIoI4TygigRQhlAZIT+4vjPGIIovTeUAqJACKBxC6KK94hYCSCqRo8oCUTxHlG5QJQMI0zqsoEoJ4y4gGljpwuhpXsMKiNEc1x93nqav8cq2m6nWk+oXHrr5Hk0/+2rFODxeA+cuF5VYQjbZkBL1aZrRhhhuwuxUVYQ+WCUvzckgwhPEKO8tXtEmOdjAiL0O48c/0wA0fSdX2U9oiwgMjByDqRwsEVVG0SsLCAyQT1WILITHQ0gAUZoLEVAxEM7/KA2foyDDaHFWwb0FG2YHcdGyRCqDceVX2+dGsAIekZchaH/GFMwNQIRTyhpatf3EZUHRBhv6SDi9zCui4II800EEeasD0ToA4LKPjSHfueR45+Cz8b8tlIgmjbmIPLDaKxAFAkbvzogcgLeSYjygygGI0huWWgcrrn4QSTDiMvIKFOzILRoTb96/DXeJ8TXhHg4rtYTqpy4Z8TVKPCaEd9n1HPEGtU2IYgCcRvmBRHGUSKIMD4DYSxXG0S2MM8dH0gQ+ovjPx4IVQNEth+jX4sQckCkfzsQGhMQiTDCLzRxQJQLRplBhEGPCZEMohiMJgiIuMqzMzlhuI86PrXaeYgdz+ziiQm1a0KVF18z4gkMOJuOn23U8YnV8V4RT17o7aV5C7NDaKxAhPmCwnxzcxLztrQekZbrLY7/TCQQSb5fTRDxsyacgqe4Qwkg4i+NBfacg+IBESv1htYUEIX1npwAkGGEAWXq1OHrGKAOgAJxojhBnxFEYfIVgBEndGgOqSByYcTrhZUV0HDQlOwhueYuau7oUWa2yNQ4G+qn5e8ZptXnxyHE97qsOmSgNhxXRfFsuvYvDjqPkxg9dxOtePdwCCPVdgN91MxDdM0CjDAm7NgJipYmQigBROZ9jGkJQhKIzDJFQaRytgQQ6fWgR4S+kwCictSYSwIRL297Mnp2FhDxtqsKIm/17Twgsqtve2Dkm7CQWH1bABHCqBQQRXWfhADEABUgxAHOdaucoHeSQoaRqjGnCjDmA5FJ6LD6tpDkrgBEDVb1bTQdNKUARvqm1aCaNpvZ8ADNH+ylJbsP0uB318WMj8U3q9buE6q++D6j3mNXx9vjui2qaveS3QZVm3HbcRvO7+2lhmVY9NaFkA0idQLjLbabAqGwxI9UfTsbiExpLD+EkkHE6/JrmN9ZQSTWmUPf8YCIa8DNLFDiB30zcaICn+BD5wB92/F18Hxev6og2nkmFy6NahPhDruAMQDiGnO6N8MgUT0b8+UDKqsDaFFaHbwQLlh92z1ziBQ1rAGRLkC4nGbP08UMbSCZWk6m+6yKngYy6+kzI11FV1XShWA1oFEACoLZXOTk32q9Og0TkzgGQpg4oUxpElW4kYueYvVtnWC2wtesM0j+myFkqhjrs1OT5K6BuHDh9bgKs1ZYgTlcNl4Ilf9WRVJb9HOFFvLNqvxAu+FBWrS2n3oPX+s8yoHL9kxbXKuYMFaa3rrQLQd07Rbq+eIa9SDCxcP8WHbdlvzoiLoWA6Nk8TLxuBFizfTSEUwBgLBqfHSCFY97W5w3OvaDvFHbjcPI5JkBkV3UNMz3WM4CtDD/leKeEau+rfxBAynmOehBpr5csB2uvK2qb6tizy6stOLlzxR8bDjZXhr4rO3HxpOVr3NHAwW+brze1KlThayDdbkMnLp8EwCrIiDijesdEXpDVegRmQMfO8iSUntEcWCFSukR6QB0z3qU0npEfHZVQo/IJFbeHpFRST0iPrNVEMvWI+Lhm8ZVQQmf4DpDy/AArfzgMK27PD4MxAVMuXYcmmNN1dW8kaU0enF88sLayzfTig8OU8swD81xz7aXFvT3UuMq/RBDH1gUXMLetAZS4tCc0BNicdzm6RFhzpi8YdkQytobUjnLPSLsCWXsDbGy94gQLloGUFl7Qyz0zcQekXW5BP06U49oOveIlrg9oUr2iMyOKOIhhLKASJq+LYDIHCA8oJmuESWAKIJQNhBJMJIeE6GUAUTxoqf5QGTO8lRyFYBReGaICY+m4INR0DtCw3Fg1NhB9Uu61DCOPeuKHz/A1x5so+NHOXAV7VoB0+ziB/+xttlujvNeKdpux7nUsn87rb8m3ltdfe5GWrKJh+YCEA30qrblNvaByI2b/BAyIDLLpUHIByK76CnmWRYQ5Xn0gyTjGUVBZN4vFUTor85JvwOf7CDidR0AVRJE9gfgzsggEmAkdPXw4PhAhAfcqwqBKFFZQCQFvgAjJ5lARUDkTXo0Bg+ITM9IFPSGmrv0BAV71lXfN9eqaw+2yfHzhNSjHARjrCmuSTPracUn+mjwlDU0cPIaWv6xHprc1OQsV4p2qm9UzzOy24jbrO/IdepakQ0jrrrAj/FwYkGIGy2Mr2QQYewWBpElzLNqgMiBUE4Q2V5WCRDZnQP0ahFCAoh4OQdAYwoiEUYTCEQCjJzA8gkDtQQQpcGoOiAqBqP61i7LsDSIlr9nxLlfiJ+syg+1qz1PKF07zm2knqNGYrPb+O9Vn+0r7wSPbWfT7J7FNHJ2/Emv3HbL9x+KgYhVv7TLiQOMl0QI+WKyAiDC/MoDIszrkkCEfjPRQIR+nwSiaVspiDLDCBqvKiBSQZcBRPw3Br+THFUEUSKM0FAEAFkgmtfcQc293BuKQMQTFIZPjxsbV9NetH977cmqKeLhN34Eevc3hp0JHix++N2cvsXOeqWIn/S6+D0dzv1FQ6duoEVr+MQiulbU3M29oq0IRJ6cxbyuFojQx7KACP0yEUSB/9ZAlACjcOwSD6pw8B1t5SAqAqOkpHfMoSCIeLp27Kx5sJfaP8k3rtpn8luo68hhmrJgvmOCNUXa5q1zaOdlC6nr60POfT4R0DdT3Whr2XuVUxfNp+6jhmNDqXyja/vHR1SbGhCxGlrjvSKMl0QQYRwKEHJBlB9CZQcR5n2Sygki9DlBjl8mTFR41YNI/UaVE0SsVBB5YDQmIHJhhImEqg6IssOIe0N6gkKkJbsNqDNp29BGL9xAjVtWlN08tyYxhGa2L1I9IbyuZmv4rPU0s7PFWb9UcU+sabcVNHqRVY+O7y06eT0t3rU/hBBrfm9wk6sXRBhP4wlEkIOenMW8dvI+SZlA5EKoBqKMIPLCCHd8goMoF4zKCKI0GI03EDUst68N9dLC4V7q+OxqWndFNFOOz+z5YjjP+kLzqykSX6fpPWYkEUJcJ27JBztphxmVOZY7zKynjq/Ee2M8nZtLM6lekQWjhmXdlQVR7LX8IMK8qhaIlHe8KkDkv5l1woPIwMg5sMLBF1UURAKMMMC8woAVgrryIJJhlJT4yTBCY3EhpHpD3XzfkNUb2mOAhk6KXxsavYSvaSxxTK8mrW22naPuqeJZcQgeW2sv30itB3TTjnWVnXHI+xIrjMq9In5cxNsGYiDiWZLcK8I4SQQRxl8iiAQIVQlE/DrmtJP3HjkgQp+pEojQV2sg2tpBxMoCIhFGmCTJIEqGkQwindRu4ieDKB1Gja1835AFoqFeav/YCK29Mn7fEE/Xrt0zJOvNb5lJdaNLaeScOLxRPNFjyQe7VI8Ft1Fu8b1FnV8Zin/+9zZT20HBtSJreK5habcTI24cpYMI49YLoowQygwiBJAPRJjvCaqBqIIgsj/U2aEMMCoFRHjQEwWNWA4Qeasq2KoUiKwb8yoCokQYmZsSBRA1dqiHp4VnyNwb2tJPA9+GkjHXbVGlZNDsXu1681tm0OvfuAPNGW2kkfPcGnx4DFv27VSAwO1USjNWLHKGCAeO5ecW8bOKIhhxDHAsSCDSQ3bpEKoIiLLezIoAsnK2VBAp38kJosi3st/MihDKBCIuv+YFUQYIjQWITNFT88HODqWAiL88V0YoCiIuAsjCBvAKQBQv8ZMPRKrukwpYN+BiSgARJ5AfRMkwsos3FgGRvgveTfxsIGoPa4shjOpbuqi5JwLR/IFeWv6eIXXmbptX5xFDjsm9ejWL3vyWnel/Xv9Wes3r30Bz1tXRyPkAbhA/K6h5j1XCtiqsbWdT95HD8X25cjMt339QtXU4PNfTo2rQORAKq28XA5Hehnk9P4jMdjCvnNwTIKRydt6qkkDE2w57RegzKSBSnsX+k9HzEEKJILJ6Q/4SP9lANH2mMFkhgFBFQKQufKkvx1/C3aEkEPE6XJOIC+Spwqk4jRsPlDVhgQ+ygpCCAosbyW0IW3hWwY9viBc8lWEUnr1YMhDi4oW6V+MGHQetBCIWr8PrzlW14oJtWEkQ/Y/JokGkINTQrhUUdcwKI16eAVTXyPXiUmAkAEhdA+LCp1y4sikqdml6SY0rumkBV9gODInvNen9WvwaB5fymbFykWtyrzLx8Nsb3zSNXvf67ej/veZ19Lq3vIHmbW6gkXMTIHTdFlp9wXpq2nVF2cv6ZNXM9hbVhvZ+9X6FH6AX9Yq4ynrDim6aE/Scw7jhoqVNuthu2DPCuBMgZOKW11Mgs0GUBUJcsNRcGw1GA/j1rCDCnA0LlwrAkaQLlq6g2bydmO+gXAixeFmGkKpxaXkW+lwSiIx/oq8aEPF77Me2J2cGUeDprBmzIiZUBUSqG8dfMugVOQBKABGvY0DkQCgVRLonZUCkGktoiJiEYblZc+ONKoEIIWS61xGITFAlSAARS1UAViDz9YpkEHHy6cdABAmVE0SqR2OfmQomkAQiVYEbIMSqW9AZH5br76XFuw3QmovivSGuCrDN9mNjomOvWfTmN+9Mb3jTZHrd/2xL/99/v5b+v/9+Df3Pdm+k+t2aaOS8ZAgNnb6OGjctr+pwHIofVNh7TPxREaMXbKQlwVTu+YEaO3po3oIoPhSMGnUFbVOXLin+fL0hNSxcAERmGyGEwgraACKhJ2RgNIdzLcjf8GQzgwxA2C8YSPya4zUJINIjMRpEWSBUFETso+qkXr2eD0TGu3eexdvj16vUI+KdwQ90IOQBkYaR7t2E/6eAyMDIHFh10IQG8Cp1aE4AkQdIdnBh0DnyDM9xUMeCPQOIbBixMOHSQGTECW2SEg0gDUYGZHidqG5Jp753yBqWazt4JGZYfANrw4blr8r7ht705un0+jdMotf+z1tUD4gBpCC07Rupce8FtPoC/zUhPm4DJ62h+nXLxv6x6dvOpsbNK2LVHdZft5naDhhWbW5AxE9xrVtihueCExkseorxlgCiEEYqbq3YzgKioPdjlovnVHJvyIhzlz+v6LCcGk2ZG9xLhP6SAqLwBJpHaTJAiCWBCP3UBpGBEa8bB1AGEFnijkJVh+acD8sJItMzKgqi8AALjSDKAhHLhVA+EGWWB0Sx3pAIIhlGmGBeECXAyEAo/F8wgiQQaVnXhxqDSgpWb4gnKgydFDfXwVPX0uTG8hbnHN+aRW968zT6n9dvT6953ZtiADIQWvT+pbTmEutmUYTQdRpC84aXjmlPyNbk5mYaOiPetkPfXafa3ICIxfeTzW3EuLGE8ZYAoShW+bcLoSwgkpUdRPx+KSAqen3IEXqbIMcnBT9FEBnvdSGUDUSKAdJkhfEJojiMSgVRZhhBY2KDVxtEjjAhCoDIgZEHRCg0gmwwikA0b747LMdDNeuvil9L4Ptd3jp1jM/oq6JZ9MY3TVXDb//92jeEQ3C2Xr/Dm6n14ytp3ffiz/1BDZ68RhWE5SEx93PGRm+dWkfLDuqJ7SdPWmjZMhADURM/Tnw+TE5IgVAaiLRcEGEeoDCPioAoJszzBKF/OP5SZhChP+YCkeDNrn8LPu97KutEAJG3R+SBUUkgYtkgEntEHhhhIOWBEQZwENhOj0iEESZNeUDERhBPbNcM0kEUwaiupZOarUkKrM5Px68j8D0ncweX0DZb9bAcA2gKvfZ1PPz2PyKAWG/c6S204nPtzmxCFF8T4qfVcpkf97PGTjxRgh+ehycaXEvQBhEXvZ23iK8TYdwIcZYRRL4eEeYBCvNIBBHmI0CIlykFRMk9IvQhD4jQ0wShPyaCSPDdUkDE7/kgNLYgEmFUHEQSjLAhvBoLELHKCKI0GBUDUfFeEU9Y4EcAGPMxIBo5I34zZt9xozS1ZestbqoB9CYHOqg3Td2GVh3aQeuvkYuXGvEj0ytVsqccmrZ4PvWfMBrb5+FTN8RANL+/Rz8eAqdsJ4AI4xJVBESYPyKE8oAI8ztFYw2itIkK6LupIEJ/n+ggsiUdEFRZQeQVBogMIwy2RAkgEoWJ4SROOoiywgiFhpAVRHMaO6mhrTsGopYNfc6Nj8sO7tnK6srx/T8z6A1v3Ile8zoefnOhY+v/vfa1tO2c7WnlIR3eCtosnhrNMwt3GucPCWRI8gP57H1fd+1mWrS+LwaihrYumoPXiTC+coAoL4TKCaIivSFWzDvQV8YZiNCX84LI0UQAEU4RTAORgZFzoIXGEFW0R1QBEFWqR5QJRGXrEbXTXL4+1NUTOxNe9RG46fF7m/S9L9uOryGmIuL7f3gCAs+Ae426/uNCB8UQemvjJFp1SIcDaFtrv7eJ2r80SJObm8b9zEIenmt+20rnWUUrPzQcA1FTVzfNbYYeEcZXLhAFMBoDEPEyJYFoDHtE6KM+EKEn5wURv+8H0cLqgMgLI/wi4wFE3sbHACk/iFgiiBwYYeKUCiINo6hMSkYYCQAymrewU93AaIOo7xvx+2EGT1tLs7rK+9C2akvfgDpVVUDQExBc4Pi0w8LJ1H54VzKELt9EKz/XR1PmN497CBlxZXC+jmV/j96vrwkhpNTH9xNlAxHGoyt9Y2o1QRQ7gSwAophn5ASRA6FxDKLQ/yciiFBFQZQZRtCo2PCJMAIQ5YKRACIMeBlExWAUA5EDI0zuDCDywaihneqXdsYgtGC4l0bOic8E6/raEE1umpjTts3wWzQDzgVNknZaNo26v9nvgCcGoSs20fKP9064YzS5qVk9rM/+LiNnbaAFQzw8F4Cov4fqlnbqSiAJEMoKIoRQGogwb7wQygCiUJjfCULPkEGE/uMBEfqZIPTFvCBCT84Loik7AxPGN4hkGOFBcQ5aqdeJSgGRACMMukQhiDgZhMB3ksNJoHQQOTDKCKJEGCGEAhA1rogmKrC4msLaS63hmuu20PKP94ybe2Cyiuu/qRtQX/dm+m81A86FTKJe8xqa3jWT+k+MD1Oi+JpQ60e7acd5Dc4+jHfxzbUrPtkb6+mtuXQTtezSHwMRx0gaiDAOZbkgwrhHYd6UBKIcZX2M0DMcT6kwiPJcH5JBhL4t+HusR1RlEHFFBays4AWRACNTIqgoiExlhaIgkm9ozQaiqNxGDkFQcxJh0MswwgSKqitg0mUFkQGJm+gJILJgZO6Q5xtZGzt5okJ0jWjF+4fVo6Tts/2F+7Q5JjZepSpgv2EHes3r3ujcgJpVfE1oxuBsGjg1XlkCxZMWWt7TSdtPr3P2Y0Jo29m0aL92dW3Lbu/l7x+Kg6ijW8UKV0Xw1TfEOHRllbYqCCKzvAgizEEBRLPmrXTzOkWxE9fAMxxfcfxHBhFXVVCvo6+VCURqWfBk9G3H1wFE7OtVBlG8+nZ+EEXVt4uAyFTfLgoiucRPRhCF1bdznCHFekNCiZ8cIDLJiUnnBVEMRvESPyg0CASRXXyS75rne0VsEHV8brWqDm2MaeTc9VS3ptU1sXEmvgb0P294a+L9P1n03697Hc0amUtDZ40mXhPi6dsL9m6jbSd43b26tcto5Lxoqj63fcdn+H6iCERNvQwiK24EGGEcutIgUiV+MoJIyhuVdxlB5Jw8Bjnr5HaCbBD5S/yg/7gg4v9NEWbH18oFoqB0WlEQcW+Ia4jKEKoQiHZWvRKtaTMQNNi9M90+rk/HBU91Be2ZYeVsTeGQyuYgKUIvDX8bmR5JBBNdrM+V1agBiMy6XAUXC5+aQqr6/+j5IaHUZ+qCp0am8GlcOlgxqDngeR1OBq7ky79VJd9gGVNQUVSQXCoZVfFHU3crKHxqSb2m4BMlsUlkNoKw+nZwf4dKUBx2E8TLc/Xk+qD6dt3CzqCsizYc/rv3qLW0wapDxk8Y3Xn5GFTb3na2uhGUjd5/Ey2X4JlOr3v9W0uCj9Fr3vg/NGt0Hg2fk/JU1cs2UfPuK7eK4q8zVi6iwVOs73vtFuo9cm283FN/ryqKa6q268KnbnxhLJr4VdW3G/jxIzp21br2iRjEv/O8LhX7ds7w6xGM7EKmdh6avOVlTf4YALrwinuA8o5AqkhyUMF71jzePvtDdHIbeU7kQfyeBpD+f5Y5+WWYhSfQ6HculHQvx3rN/M+/d7YKnqpC0vz5fIKvK3Bz7wZhhb5ufNuwwF7XAMiAanIlQGSeR6SG57L0iuzekKHvLD4w8S8Y++JI8EAGZKYAYOYeUfBICBY3bNSgkvCsJbouxIFmekS5huisQNeVfDGYsTfk9origMnRKzIwCpJan5XiWadJfPeMNewR8Vktg6yBnz/UETvz5YvU/Pho23R7jx2hneZW954YfvLr9OULqHmPlbTwnW00u3cxbT/NDH/p+3/4BlSegFB0+A3Fj3GYzc8SSnmMA/cQm3dbOfbFS8ukneqaqPfbVhUNfoT4d9fR/MEoLlh1i3TMSI+AwPhzFcRtABN9AufGOwrzRlWfDypoOzmGeWiPYAR5aXpE6j3MbUHRUL7+P/7omZy9oRik/MNzUo8I/VPsEQVPRAg9OZw9l94jmhL4O7OAq2/r5bA3VCEQ8QeFH5jlOhF8IUNiia5pILIpHzvoQsM4MuOtiRDygMg+g8kDICN7vDl42iMGvwyj+BCDnWiYfCgEUTTWjsmeAUSBzBNZ9Yy5yGz4RtbhM6wCntdtoc6vDtF2O1TPdLkXNG+0lYbPjKYV831MSz7URdtPnxvMgNumbABivfbNr6e6XRuTK2irxzispcYty2m7ydU7HpXWdjvOU7Mi7e86ctqG4MZWC0RLrFI/EE8Yf66ikyh18lRgWC6eN9khZIuXdXI6QfawnO7Z8OvoKeg7LoiUrJNox9MEL8wNIstv456cBUSR9/ueQ1QxEKmNCxDKCiIFI2HOuu/gOCDiv/GgC43jKDzLMF1fnzBgIhDZwuBLFAa1kABZYYTJ5ZOvV+Qmew4YBYZSr2bMRWazZI/B2NRtvg6y8rN9jnlVUnzhv/8Ed2iM92XpR9rojZPe4oCkFHEF7eZ3LqQ1l/oraKtewqlrqX49P8ZhYs0eTNW2s2nV5/tjj4UYOXsjLXmbNXOur4fql3e5cZQJQqz4Nc40CGnYuLmihXkl5J4AIZOrTk4nyAWR4CeO7/hBlCbHD3NcH2Ip/415suvZjq8DiHiZ8Q0iAUZbA4hywWgrA1FjWxxEre8apNXnRyDiop5LP9TlmlcFtVN9E62/RoBBsD+LP9xKb9zxzQ5Qiuj1O7yJWj64lNZekVJB+7S1NHdwqRoyxP3dGsTTz+0JKhwDHAs2iBpWFgVRvDevXhPiHIV5Um0QoUdsFSBCPx83IPLACHd0PIPIDyMMmDKAiDWWIApgVDKIAhjxtFwbRCvePxR7IitXC1j4jnbHuCqpHWY1qMkACINonzbQ4o+00htKhNEbJ7+Flh68PBVC/NyeGSsXjbsK2uXUon3b1bRt8505Bpa/L5jC3afVxDXnMIbygkjFb5lBhHnnA1Ew+cjJZ4/QI/KAyIFQFUAU+m+5QAQQ2ipBZGCEBz4PjNJB5IERBliJIMoOI0yogjDKCCIWmgaCqCm8h0iLn9K59hLLkC7dSE27rHCMq5LiG2fxWTkohkfLh1pVjwYBk0VcQXvZp1alPsZh8CT9IED/rL2tQ027rVRtHbb7JZtUvcEYiDq7nRjCeHMFvaEARBjfKMyP8Qsi9BsPiNC/PHK8UPDNsQIRQ6gGIlQpIBJghEGYqMIg8sMIExElgyg4u0wQGgequRtAdPCI6gUZQxq9eAPVra3+PUQ7zmukzq8MJd/Hc/VmWviexfQ/273RAU2S3jx1W1r+6bbYFHVH122hvm+P0k4N1Z0tOFaqW99Ko9ZTZtdctolWHRQHUXNXiSAK47cUEGE+CTmHACoHiALfqCSI0AdrIEqCUZlBJMEIG0jUWIKINZYgCqaxZgERC80jBqLwZlat9k+NxIZoRi/aQHMHljrGVQ1NWdBMHYcP0rqrkx65sInm77uIXr99es/o/73mtbTNrLfSis+2JQKOr5XwLLKpC7feZy+h+PoXt7U5Bmsv30ztn1gdQkj1iHriIMI4kzVOQBTk7UQCUeKwXBlB5Pj+hAQRQEgEkQdGNRAVh1EEonQYIXySQNTx6RH1JFZjSKsv3ECzu5c4xlUt8cPbOr48GLuQjlp3FcOoJbln9JrX0Hb1k2jVYZ3O+rbUYxy+OEDTtuIHAEqa07eURi+0QHTFJnVSYoOIY6UaIMK8SAQR5luZQIT+MO5AhP4qgsj1a8fPJyyIAEYSiEQY4YG0YOQ0gNBIjgBEuWFUZhB5YYSJkwAjTEhUURCxEEBeEHF5H+v5NKsv2ECzOscORKxpSxYoGPH0bQSHkRqme98SesMOwgSG17yGJi2aTJ1f73XWs8X3Kq36bB9NXdjs7MPWLm5jbmtzLNJAhPElS4BQSSDCPBLyDQFUURChz3ggVAUQxbzXByL08fEEIrUjHhjhDpcbRL4GyAojbHQMiDQQhc8WKQwifUNrERBJSYcJiSoriIKbEmUQRUNz4wFErKmL5lPn4fGbLlEMI57AYM+m4+G4KaumU/cxyY9x4OKl6jEOjRPrMQ7l0qyuHCDy1Dh0VX4QhaV7xhJE4f/oMx4QgWdxVRn0MpbjgYJnpoFIe21pIFI3tAKEKgoiX/XtrCDiL+wW2MsOIlV92yp6mhdEXGqDg6IIiOygLASjOcsVDFJBJMJI173ihMRkw6REmWQ2VZCLwkhV3q7v0CBioxmnQ3O2+Fk/aTDi2XQ8tZvvM/p/r3st7dwzi3q/M0jrr0voTfGNsh/qokmzJ95jHMqlOf3ZhuZURY6GLCCyIGSByFTfxrhOh5CGj9mOD0IiiKy85XWdXAY5ELJAFHpGQRD5yvug/xUFEa8TeXIxEKmip9UEEUNIg0iGEe6wDSL+8lynTj3GocCEBVMlVpVFFxoCGwrFjWkXO80FIi6aynWjVOAG28gBIlMUVVcBjgc9JoUEIi7AyOsyyDD5MDFR5owyKsdvkh6NwFUIofqoZhj2iNo/OULrxslkBUmT5jRQx5dTYHT5BlpywDKq29JE/ScPq94OLmPEvSi+h+atU7aekj1FNG+oNX2yQm93GDfpvSIXQvy3uZE6VtA0E4iCwqXBtuwCpygfiPg93odwOSG3WQ6EQn/g6tuWZ3hg5AMRv6dKi6mTZ9fTEEJ5QcQ+HNX/1MvkAZFZjkEUMgEgVBEQMUiMHHrGZHX1pkc15kylVv7y/MVDCAUF98xBUgc0gFHUKFH1blP4NA4alNug8crbUZWFqPscr8YdabmqgKurdweBFShWfRfAY4KZ1wmLnqoKwNEQnVNxW9K8lapyN4uTFpMRqw7b/yugqArc8erdKsmDOl5ablVklnkEBFdPZjX3xEHUdvCwO317XfWnbyeJYaSmdgtgCQFz7ebEa0osngCxYK+2CffAv0pImr7dZqZvG/X00DwVNxGMQpkacuFJj/k/Onkyj4BQPap6rjgP1bcxD2IKqmcH2+X/bRiFQ3bmhDA46bNPEMOctZa18932gVAGUMH7pvK2fRIcB4x94hs/QVYgC7azc/DUAqnidgxO5sTdeOeMpaGnhr4KEIo82YWVq/gIlxrlmhVAzFy2sS7dVAREquhpwjWi1F5R+GA8G1bZe0XmwXhFJyxo4MTPPvDsJFK8VzRDdbPjZ0B4ZpQmLgmPZ194dhYKekXREAOe+WXrFakhDjzzdM5KXUW9Ii11Q6s56+3vUTcx8s2MoSHxDa27rnSMa6zFw3Qdhw+pHg0CJlXXacDOf/uqraaCdqlqept7Q+vKDw/Fe0Sd3daQsBtbkYTekNWb59jFmGZhHmCPSOUND2vn6Q1BzyfLg/GwJ2T7RugZjr9o+XpDoWeZ5RA46H/YA0rpDUWdAD3a5HYmBA8XhuVYvL5vWK4iIIp9mLBDaSBSMAqpmh9ERhKIssBIangMDB+IzBAdCoMySVLgY2L4QKSFyZYdRCrhg+GOIiAyamq3QNTXQ8vfN+iW+HlndUv8ZBVPsU6b2u2IH+Nwznqav+dKeutWVEG7VC3atyNe4ufCjbT8vYNxELV1OfEkyw8iFcOe3g/mAUIoJswvH4iknBVy2Qj9AEGUNCQn+RF6lk+O9wk+mQVEGkbGk5Mh5AMRLz92IPLACHccQRRJOCAoPKAlgkipFBAJMMLATBUGvpAc5QZRCCMHRPlh1LiqK2Y2btHTzbT0w9UteppH083U7iw9I36Mw5nrqGnXFbWeEKj1ACh6et4Gan3nQCw2uOgpxpIriEeEUIIwDyoBojShHyCIIqG/FAcR+l6pINIqDiKHCxMBRPpAlA4iCUbYYCix4YXgqBSIxMAXksMPI0y47DBSSS/CCI3BlQ0iLu1vm82S3fvVIwCMIXEV7FWf7XeMazxJ9Yx4Nl1CtQTW8FnrqH7dsq22gnZhbTub2r4wEHsMxOqzNtCS3fpjsVG3rNOJJVcyhGIgEnpEGP+VApFaRshlI/QD9IukHhH6UFEQFZmoEPPdUntE9rUhgFCFQLQwFUReGBUBkQdG1QFRNhhhYCYpDOrCIPLDCBMVpZJeBFE+GPHDzmyzaVnfR8Onx6tRqwfjTRrfPYip85sTJzAMnb5OPeWVHzuO677a9dad5lHX14UH463tC+Oiua+b5i3pcOIoroy9oVwgwnwR8soHoqSc9SgbiNBXqggi9FPJdzODyPX6CQuiuIqByMDIaRCh0USVEUR5YaRUARClwQjPNouCaN6ijhiI+PHQ4qPC68Z/8c8d5zaKU7sHTlxDOy9fSNtsV4OQpJ0ahEeFnxA8KtwC0dyFxScpYPxmg1A+EGEeOnmaIvQBCURa6CseEKFPeeT4nuCPeUCklQ4i9PlQMFI2vkEUwEgfCBlEIozwwCaAKA1GqvHHEETh2RUmgJAkZQcRJ74XRNlhNLepPQ6ivh7q/caaWGXqgZPXqOfxoIGNR+0ws55aP9JNay7aSGsv3UQdXxxUvSUefsJla9KasWoRDZ6yNmxvHqLr/fraGIRYc5rcGBIhlAYi6BFh3FcSRGHOCkIfkECUq0ckeJYrwfMEf/SBCP1WeS72iNC3U0Ck3quBqHQQ+WHkBpYEIwxQn3KDKCeMED4VAVFDu6qqbIOo4zOrYxeuR85bT3VrlzkGNp617Q5z9bWgGoBS1bB+Oa0+P7qHiCeodFhVFRhCTd1dNKfBjaEsIMLYzQ4izBMhnyoJIvSIBBCh/9RAVAqIPDDCL2CDKC7hoKDwwFogkmDkNpwgDAAhUFJhVLBXFKoCIEqFEQrNwDELV1zqp9GZwj0Um8rLfy/cd3xO4a6pRG07mxbt3xEr68RT9le8W99DZHpDje0MoqShORlCIogyQSgfiDD/nPxMEea/D0Ra6Cmu/xQFUeL1oYwg0ioIIuRBNUDEG8UPdXYsCUZFQOSBUUkgYo0BiGJnV5gIQrKUG0QOjAqASD0uHGbOtWzpp7WXWNOhr9tCyz/RW5vyvBWK76Va8ane2IxDvpl18WY9UcGAqH55p6qGgPHjQCitNzTGILIrptjC/C8ZROhPXuUAEfqo4LdZQYT+boNIve+BUEVAxD2icOZEQRA53cAcIDKNYcMIQZQEIxUA5v+8IGLYmOrbBUHEZUJir2UBUQAjVaJElQdKhhEmbgggYwCJMELDiANI1Qurb3Nmzi0Y7KXVZ8ZnznUdOURTml99j0fY2jVlfjN1f2M41tYjZ2xQMWCDaN7iDhUrYdz4QJSlN2QNzWG8p0EoXp7HA6LZCSDisj/C65j/PhDZ5cOKgChc3ngfeh3CJyeIoteLg8iuvo0QqgiIYtW3C4CIv7AqkJcAIhFGwYE1JX6KgmjGHB0QEojSYGTqPqkgLAKiOUIlX0wIBJAFIpOoaSDywYjLpCgTSASRDCNV86shMpR58ztofq82HqPer62JmZOa/tyz2DGymia2ZvctpuEz18XauueINTEI8TXEufN1rJh6hVFdOX9vSAKRib9kCPlBxGW1WF4IJfSGWLosl/s65j8CyAhrzIkQ8oBI1YFTNebKAyL0WZbqUdmeLPh2EoiYBbyNqoKIIcQFT00F7jwgUhAKYKIOXkhh9+DgAVSNomrFcSFA6/kcCSCyn+HBDRmBhOvGCYEQBAkGjb1urHghgkgIViOu2s3rmgKKKhksEKmzLg+IeHlO0LAoJCeok4TJIOKEj9X8ygEiZSQN7TSPC1c26pL+c5vbqakrfp1oxYfiZ8l8Abv5bStrU6C3Im3z1jnUvMdKp0TSivcPx68PdXapGFFxE1Tfjld+l0GUHLf8mhvrPhDpvDFV63n78SKnaSDSuWdy1i5cmg1EtmdwsWXbV9B3JBBFvqPFvscVuB2vQ/hkBJHy1eBpCDFPFiAkgYi927CAOxemg4IQqgiI1NBaSM3kXhF+EQMx1aMJIZQNRKb3E1aeta4RSTByGjVo2LCKrXlPAJEkBa+wqrYMIgUjIaDVekFgc7IpwJj3MCEEEJmECJM1lnSYjB4QqR4R92i0EZjX8sJI94raaHZDmyrfYoNo0bpeWnddNGGBxQ+O22FGvWNoNU1M8VT3FZ+MP7WWK2ksXNMbQoilSvs0WNWzY8Nz2SAUxm0Qf/w/xrkPQqY3pPNGA0mDJHuPSOes7hHp9RIg5AGRgRH2itB30K9szwpPvoOK2wghL4jQQyWfNRW4FUiCZQQISSCyPV4/BqKKPaJwJzJMWMAvopThGpEIIgOjoJHsA54FRGHjYqNnBBEGVxhwGUEUBrc03pwBRDqp4EmTCSASYRSYgJ3kfhhJw3ORmfDvuqXx60SsoVPjN7b2nzBK0xbPdwytpokpfgT7wHdhCPbkDbHeEKuOKyoEQ8Hxxz3IEPKBSMetjkeM7ywgiuVNDgjFclZYBvMeIRQp/oiZPCCKPCv+2AcEkQOgHCAKvdb2ZPTsBBAZ/+f1fBCqCIjMhrOAyAcjfUBsEGWEER7oBBD5YJQGoiwwiikviISgxsRAAIXCREuBESY03ouBRpDWK0LNXdhBzXA/UfvHrbvt+Wz5qs00b2RpbXhuKxC3Yd1oq2pTu43bPjYSgxDHBMcGxosTXxlBZGIX4zsRQhaIUJhvTj46Oeu+hnnv+EIAoRBESRBCT0qQ43GCH/pAhP4aCTxZ8Gz0dQdEwWUaBNC4BpH58lsjiNJgVBKIvDDCxPTASKjXVRKImtupsQ2mcW/uV9eGbKNafnAPbT+tzjG2miaWuA15Sr7dttzWLRv7YyDimODYwHhx4isrhAJhbCeCCPOmjCDCfN+qQIReXQNRPhBJMMJGZDkgYo01iFhZYYQJV04Q5YQR3zVfvxzqzg300MAJ8eG5oTPW0eTaNO4JrykLmlU1crttB45fp9o8BFFvN9Uv6xQqKvghVE0QYZ5NZBAlXh961YLIAyP8QiWBKAVGYwIiAUYYyPGg9gR+VhDlhFEaiFhoCllBxJrXAsNz/MTWA+Kz57gOWeOWFbXSORNY22w7m5p3Wxl/bMa1W2jVh4epud8aluvuUjGBcVIqhFgY23khVDEQoR/kBRH6UYIygwh9U/DXkkFkeX8iiKa+6kHkwigLiHLDCAMzAUbVBlEMRoVAlAwjNTzXHh+eW7xLP41aD8pj9R67mrbdvvZMn4kqrsHX953RWJuuPm8jLd7SFx+Wa5eG5UrvDbEwrscCRJjneUGEPpMHRI6/CT6YH0TafycsiEQY4Y76YCSCKCOM8IAngEjqFY1bELGywggTr0QQsYqCiGdG1a/opObeCEQLV/dSz+HxmVX8NNRZnWN/c2v/wGYV6+bnrLMvCt+7//5fha//61//poMP/oKzfto2WPu/+wDxdUlmW3fddW/42p/+9Odw2/xjvzdWmt2zhNZfE7/21/2lUVowYg/L9XjK+vhBhHGYJIzrvCDC/MoCIZ2z0d+Y5xMFROireUCEfu4DkQOgCQEi9RuFBykfiCQYYWOKIGKVAiIBRhjMUlA7ygqiojDKCqKcMJq3sIOauuPDc8v2G4wVxVTG9Y0Rx+Cqraee+n1o7AwMjnvz93PPvRAux1Cy/8+yDfM//7zyyl8zgYi39eyzfwy3x2DidX0QHBNtO5t6j47Phlx7xWZq3XcwNizHMTDPef6QH0JZQWTiF2PajX8hT8Y7iNCHEoQQqoGoVBCFQELhQRJA5IFRVhB5VWYQJcHIq0qDKEVoEllBxBemeUiGzSicPbepjwaOjV/YZs1Y0eIaXZUkmTz3PqQeBwIm6zYYLAwg8xvXt3XV1T9QsGPo2SD685//4iw7luKeLLZj/9FradHG+E2sPFsuzyQFjD+fMJbLBiLMvxRhfmeBEAp9xvGhBGUGEfql4KsIolDo0RlBxHIANGYg8sAIv1j4hfEgOAfJPaA+EBkYpYFIBYPQyE6ACEGUCCMMUA+IEntErArBCJNbUjKIkmHEN7fGnlE00ENtBw47vSJ+NPd2O47NtSIJLnbvxpaBhFnPDNVl3QbDyQaRvQ3+3waODSLTozI/SUOE1RBXT+/6anzyCT/ygSek2LPluO3VTawZIZQVRBjHZYNQDhCZnMX8zgsi9Jc8IHJ8baxBBL7vK+3DEKoIiKZMD6pvFwSRKfOTFUQIIz74dtHTdBDFYWS6ydjQToAIgcRSlRWcoBMC1AMirpWFr8WUACK8Q9xJxAQQsczYPSa7F0ZgJOZR4Qgh1pzGdlVfzO4VLdmtnwa/uy7+uIBLN9K8oaWO4VVDOPzGYgg89tiTsdew14MgyrKNNBDZPSYbRCh+j3Nzm23H5obgutXLaM1l0cST9dfpKdstu8Akha4uFQMSiOwaiXkgxDInUby9oiDSeVMcRCZnMb+zgsiU90F/yQoiX2kf9D8fiNBPEUKqzM+MoOhpQRDxNhwIVRJEasfVF/DACHfYghGvxzsc1TXKByIDIV0nzm0AaXgubMygQWcGIMoCIwlCpm6UGIQJINLr6bpXUe2pZAjZIDIFHO3CjU4iJoCIk5nrftm15iThWWtoJrGaYS6IWHWtnaExKRgN9lD7p0Zo7eVRr2j9tZup84ghmjSrwTG9Sqtob6bc2+Delg2uJBAhFKupHec0UNfXhtT0+6g3tJnaPjFCzYPWlG1+9lAr9oZ0nMXixoIRxp0kG0Ju9W2MexdAmDe8TB4QmTw1tebCR8CkQijyGPSM/BAKas0Fy4cn1zl6ROinNoiw1hzCaEoKiMxy02cuDt+rCoimzYgqrkaQAe0cKVwmqPSqvrQqWmoOUkDl8IJZBB/7b1MslRuEZarFOgp7QfHekGlQXcXW1IvTjWvgpv5XAYRBpZfnYFKFE7mSrgCjsKaUEr8fBbSp3junLiq+GAU9/x3IAyM+K4uqCPuqbwcJyQlrJW2UzNHzhMKEZyiFalNCQzGPgDBVlJ1ny6httqsz4uaeLmru71FS14q29NPgSetjvaLRizaOSVVuydTxGhH+j8qyDfOaD0Q4K878YE/L93nVELfN/D1X0ejF1jT86zbT0EnrqcVM2Q7amYfl3N5QFDvzVOzEHwVhYi02gcbEoX1iFGxDx1wEKPGka05cUdV6rVjl7Vje2XlogyjKWZNbOu/d3JfkeEawTuxE1z5RDk+y4wVPjWfpnlEcRJJsCE23vBTBFJ3cS09EsBX3dKXA6802d56p17NBpDsqFQKRAY/6gJw9It0rCrqBhro5ekRmXXXABIXvOcNz0RmGXcXWEXabPb0iE1COoEeEvSJW6tAcSwBRNMQAD/jCs0IpQQMZc8AzT5S3VxQrXimrfmlHvFc00EttBw/TOusx4gylnm+O0LSW6hdD5d6L6Y3gcJkEFGm5pG0YIYh8y7GSekRPPvl7BSi+oRTfq6SmL1lAPUePxE4guDe06sD4tSEWPyQxHgc4pBsfmsN4k2THrYrJ2NAcxrvbE7JlTgLz9IZscc5iXieDKO4ZYm8oY4+IZQAVelqCB9peieBxBUNzWYflrB7RmA3N4QfhDvlgFPuCfBBEEMkwwgOrhA1gwSgJRF4IGaWAKBIGnwwjDGpxSA7l6RV5hUnpgREme5J8MIrkQojFs6b4OUU2jBaO9NLwyfFeET/PZvF7O6v+KHHfPUA8XCb98PsIEd82bBUFEe7HWECIHwW+5AOd8eKm122hwRPX0YLVcQhxW89pwN6QFScQRxhnPkmxWwRCmEd5IcQKh+IzQcgFUTj6UgBCLPQz9LxiIIr7rlouK4jQ7wPPRzaMSxA5MMoBIhFG2AAWiBBG2LCJygwiD4wwYAUYpQoTR0iwIiDKAyM0kKwgYvEjomO9or4eWvauQVp/dQQi1sjZ62lOz+KqG21NfnFbzOlfQqvP3RBrq/VXbqFl+wzEIMSa15LcG8I4wjjzCeM2Esa5kA9lBhHmczKI0CO00Fcc30kQgsjbGxJAhD7qA5FSFgh5QIRcsCFUFRCJMMIdRxAhfSsMIhtGeXtEyTDCIBQCVpi0gIHuCBMnDUaYmB4YmQTHpJeEBpIHRmoGXXBfUQij/h7q+eqaeK2yYDr35IYmxxBrGhtNbmyizq8OxSF03Wbq+cpovKZceN9Q9t5QVhBh3Eaxi/FdHRA5kxRyg6j4sBz6WOVA5PaI0L99IFIMkHpErwoQeWA05iBKgVEmEKngdxMIkywdRlIyR3+nCU0kK4h4MsS8RboYqg2jRet7afXZ8Rp0/HTPlnd3jNm9RTVF4mHSxe/rVMVMYz3XMzfQwrXxm1e5bbmN4+V8Su8NYcymggjzoMwQUhOOEESY7+MFROiPgo/WQOQbmnNAJMMID7APRAZGTuMJjexVBUGUWZhAQqKlg8iFUR4QsdBMHLNBCBk1tgc16OIwWvHeQXVDpG10PDNr3mirY4w1VVf165ap+7zstll72SZa/u7BOIT4UQ9cU66qVRRYGNtCHpQdRG4uO/meCCGtIhBioY+VB0Tot4In5wSRqDEHkQdGEXiSekQyiEQYYUNYIEIYmYZN7RGxMHCEwCoKolJ6RMVghGeV5QaRH0ZzF0Q3uSoQ9ffQgpFe6j50NW24Nl5xgZ9ZtPOyhY451lQdzVy1iIbPhJJM12ymzkNGacGwHloNh+Q6u1XbZoVQOUDEM9ec2Mb4T4NQQRBl7xGhPxjvyH//kJEEoawgQv9MBBF6sg9E6PPjukfkAVEIIySwdFAE4YF2GiIBRAZGZp5+okoFkQAjE9iZQcTCJBISLg+IUGgCPqGpOKYjQIjF937UL+0Mh+jYzFj8mIiB4+IVF1h9315NO9XXrhdVW1Oamp1HPGz4/mbqP3ZteM9QCKKebtWm8XvJKguhSCWCCPMrgxwQYZ5nAJEj9JsEOR4m+F1ZQJQFQnlAZEGoaiASYYRfwAaRpCIgSoGR04hCQ4vCwBECLBVGCb2izMJESoMRJmqZYITG4hiPAKFQDW3U0Bb1ipSpDfTSsn0HafU5cL3o2s3U8eVB2n56vWOW1dQ5514cm0LNuXHccaeo6dfSz/euvE6t9/GPH+oss8+7PuzdLr4/Ftph53o1YYSPvd0Wq8/ZQK37DjhPX21YlW9ILiuIMC5dYUwL8V9mEGH+JoMIfaF0EKF/JYIIfVHwTy+I0ItzgAg5MLFAxAcDv3yVQJRpaI5VIRDl6hGxMJmEpEuHUQQdTHA0BJ/QXBzzQQBZmjO/jdRjIqzhHYZR+8eGY+V/WHx/0fKP9dB2O1b3/iIjA5MkQNx1933qplb7NQMZAyX7NbMt/v/FF/8U2w7nXW/fRuczqiG+X2jFJ3tp3dXxNlBlfA4ajrcXV1Do7k5/6B2ACOPIJ4xLlK4kUj0IscK8zdQjQl+IQMTv54UQy/GvHMNyuUEEnoy+nQYifq/qIHI+NCeI1EFKBJEfRmFjZAARwogbVwWH0OiO8CwmCCz72SKJIPLASCWKEPRe2QDKkIQuhCIYqYRXY+35QcQKzUeEkQsgW/OW8L1FlrH19dCC1X3UffgaBR/bCNdctknNpHvrlOrDiGGRBgcJRM8//6K6MRWXffzxp8JlEUQs/iwbXtXSW6fWqRlyOHGE26ILH3inekM9NG8JQkgAkQQhoXQPCsETl64qUhREZnkntxIUz9ksJX1cCNkgMn87PpMg27eUcoAIfdMLoQBE6Mno22kgcqpvVxpEur5QvKaQCCIPjPiLc62koiAKy11kAZHQtdUlfjIEhAdCukeDgYdBKYOIA5wLKGLQJ8pKqLB4o5B86TAyJX7cpEdTkMTrzTVFU0UQpcCovo2a23qcWXQtG/qo7+i1ztAQ16NbsHcbbT+1zjHRSotzAUFjSwIRryP1omz4+EAkrVdJbT+9jha+qz1eR05Npd9MvUetoYXr45W1uc2aVnXnevKqDSJe1pT4wbhKh5CeqKDjtgCEgrxhkDm5lSA7b03OOvmdEUQzglpxeUBkQwhra6LXlQoiLPGDnu2DkAERP5GBa4FWFUSmgraqnO0UuEsGEa+zc1B9Oyx6mhFEpmo3Fj1NhBH0hng9XUCQg8RtfKMQVBaIYgUMHRjpYHRq0MFZ1aw5XECRiy+abUTC/+PvBRAKE16oOZcAIv48XscGSbxoqmsOcQhFhU+VeDuBsThmhADi2XNcfbmhnernd1JTezctGIhmYTGMFu/aTwMnuJMXVp+/gRa8o21Mekbck+EfBAcLQZQ0nMfvcdFS7mEhiMZiaI57QgpCF0HlBJ6c8J1ocoLRAh6Sa++m+qbOoGhpfJKCrj3ogsgGEN/0qoRFTlNApIqWzuViv0G8qdeEePeAiGPfnLzZOYP5JUmdOJqc5XXV9vk9BJAfQsozZi+jWWo7yyPfyiD2LPYo5XdhfUvtS+hzCKE8IOJlddHTyJPTKm4b6Z6Ulq7eHTABIFQREJkekSp8Oj3f8BxXbY0eA5G/R6TXDWa+2Q2ADWNAxL9DEAUwmhM1aKo8PSIfiESFvSG9ru7RuIGfKEiqtLNCBJGGkU5oNgcp+dEcUAZGSrbpOCByYaSMpL6N6ho7aR5P6e6AyQv87KK39dPwietj5mh6RvqG1+rDiCXBAkHE8vVssEdk/+B2Ky2+JsTDcdgTMnXkFr+tP94T4qna7V00r7md5jV2WAVvsb0TekOq+rV5/IhbcBfjEGUqaPNnhMNzGO8ChGwY2cWCGS5OfgkyOct/q5xTrwv5nQAiI9svHI/xyHhWCCMfhEoGkX6agjppD17LCiLdG9JFsMPHQAi9oclTF5QfRAYwsW5YRhDpnXbHI2UQ+WEUg1AaiCwY6bOM7MHgG55zh+YSYATDc7khZGQBxh528EqCEZ/ZJSQ/mgQqhAuYjmNKQq+IxWfUPLwzd2GHepAawmjpHvzICPfx4nzNiCcwjNVsOoSMBKKi14iqpR1m1KuJCXhNSEHo+HXqRMCBUGcXzV2oe0CJ07UBRBg3vmtEGH+u7LhNhpAPRJw74fuYUx5JOevkdQYIhb6RE0Is27PC1wWPk0CEnumDkFLYq4k8GT07CURGsWtE1QCR2rAAIRFEPhiVACIFIxQ2DEpq1KwSYCQLA1QGUdYzMkeYYEIiOkIQOYmeD0S2isAoNDOGUUsH8SysGIz6e2jp22UY8UV0ntq9U5Xr0kmTFyQQFZk1Vy3xfUI8RRtnx4UQ2r3fqSPHVbXtEj5FekNpwvhzBbGL8Q3C/DAgyispZ528zgMinjU3MzuIbL8KfQs9rYwg0v6bAiL0dQARL1N9EHlghDvqBxFAyAsjPJAeECXASJo5l0sAIj+MMEBlGJmpoBj8qcIEywKjnCDKAyM0H8eckkAU/M3PscF6dApGewTDdHDNiCc09H57dUUrMODwmQ0SIwlELLyPCAE2FiDiigl8sypOBuFrQjwcp3pCACF+uGHdEoaQ1V4+EFUBQllAhHlRFEQIIZ2rQk6ngCjuFyWCKMckhVwginmvBhF6dW4QORAaAxCJMMIvlAtEMozwwI8PECXAqBwgYmGSCQlZLRCx0IQck0IQIZz4uhE/SA9hFFwz4gkMaKAsLgdUt2bZmF03mgjiAqZcO84p2xPMjuOJCdI1IW6LuqWdzgy52KQED4TGHYgwfzIIIZQMIsz/yoAoz2w5P4jQV9F784HI8X0viBZsvSASYYQNlACi3EByAssnDFQ/iArBCBMtJ4yygIiFpuETmpBjVAAjB0QGRsuEnhHPptuln/q+tZbWXenCaM0lG6nlPZ3qERK15xlF2ma72TS5qYkWv7/TKWDK4iFOnqKNs+MMhOpbsaJ2dhBhfPiE8ebKcxKFsZ0EoXEFouIQygsi9MkaiBJg5ByEcoDIA6NxASILRiWBiIXJJiSmoxiI+G9M/GIgYqEZOWZlwUgEkYER9Iz45ldzn1H3l9Y4FRj0mb1+ntGcviVqRhia8qtNfAz4oXZdXxt2HuXA4mPIN6suXAePdDDDcUJPSAumaQsQGncgwrzJIASQknRbRgqIJL9wPMUjhJABEfqaBKGKgQj9fGsBUQgkBJEIIzyg+UGEMCoVRH4YYaC6IIqfabnJkCpMOCExHQmJ7SZ/mWDkQCgCUaIYRks6yZ7AYHpGXIGh7WPDqv4ZXjdijZy7QfUApi1eQNtsN8cx6K1d/J2nL12gHu+9+rz4/UEK2N/fTCNnb6T2g0bcignBxAR9TUhoFwSQB0QYEz5hnLnCOA2EMV1FEPmF+S+DyPGTBKFPVQxE6LtKrkdnBVGoqoMoD4wQQEFlBvdAIIT8MMIGyAoiu7ExCLzCwBKCLxVGBj4V6BGlwsg+q8wIIzSQJKEpyUBK6BEF4gkMPJvOntptYKQKpe4/qKp2S9eNeMip51sj1Lz7Spo0q8Ex661VO85poPlvX0U9x4zQepwVZ64HHbuOWvcdjNWOM+Ip2np2nFS+J4JQrEdUEEIsjDNXAoQSekSYB5UAkdwjwrz3QMi8jp7ikQShqoCIl0EAeUCEfq8833Mj67gGUQgkPBg5QCTCCBvKghE2cC4QsYTgkoUB68LIFiZDJmHS5YBRVhDlgREakwwiDaNUmfuMrJtebRgt3tJPnYeupjV4PwzrOv2Qva6vDlHdSCttt9PW+9RXnoxQN7qMur4+TKOXbBR7ivxQu65DRtX1oFgVbQOh9uA+oRJ6QnlAhPHlCuMzEMZyGogwXzII89JAyC/Mew+I0EcShP5kQIR+5gMR+qMXQhKIlFyPzgoiJQ+Exg+IAEZ8ICoCIg+MSu4RsTKDKAFG0CMa7yBioZn4hOYkwSitRxSD0fx2/fiIoDadmdqthupGemnF+4Zo+KwNtP46oRdwLd8Ey0Aappnti+ktW9Fkhm22nUOzOhdT95HD6jvyd3W+/3WbaeTMjbTi3YPqoXYIIPU4h7YuoZK2H0Kq7bB9hTjwCeNKFsanEMdpEKoAiNweEeb7Vgwi9HEPiHjZqoLI1JQrCiI+CFwdIfzfORjCQbMOqipHMSM/iAyMVLAUnLDA685ICUQtDNxIs+atcAIek8InrnfFUv9j8gmJitLGgQmPZhBXDDaBKaHJhO+jwMzmNXQEf6PpyZrT2EYNKzqpKYDRgoHeEEasRWv7qOera2j9Vbo3hIZs1POt1TS7azFtu8PcCTnDjveZp6rP6V1Cvcesdr5fqOu20Port1DvEWto4Zr4hASuGace5cAz45Z30hznmUJ+CIVtVxBCahupMBIgFIBIl/lxh+Yw/n0QiuWNIMxHG0Is3o9SQJS1vI8EIZapT5cEoVwgAr/Vvhl5chEQ8TaqCiJda07XF1J1hQThjhsQaQhx9W3r4CCEEkDEDWAK9ImNIUAoBFHQmLrWHIMlH4w4kFS9OBW8ycGI8GGZoFeVfLm6Au9HDhCZhIxqZsnCZDVSyRyCxE58NARX2kz0NRxzrQDNRgRRYEKm1piqV2YKrzrm5xHf+Bo85XXhYB8t6O9VCofr+nvUQ/YGT16vytdIPSQWXyvpO26UmnZdSVPmN9P20+rG9cQG3jfexykLmqn5bSup//g16jvg99IA2qxmxA2euJ5a3zGojosNIT5GCxnivT1qdqJ/KM4oAlDYdg2m1lw+EJkTD94G/4+PIUkDkYZQELdB7CfFfyxvVF1Ikze8nptXWjKITK05Pnk0yyaBCCFkXjfVt9UygrewEELamzSEwvqaxvc8MHIBlA4iXk/745Lg/XQYRT6ve0Is7hzo96sEIlNtlb9EuFNc/BSkezvRztsQ0iCBg2IfJPMZgUwtJD5YM1QRwKBR+DVbVu8HL/JpmCz1Vt+2q+LajR8qqNzNVXSj55O4wRgJQBSsFxY9zTNpgde1ip5yYjkJmAAilYjzTNFTbRDxhEdTiEOIpapv82SC4KI2Gk5oPII0fNpV0VNVhTnRCHn7cfG68xZ20PyOHlrQ2+v0jMxwXdtBIzR04jo91dvXQ7p2i7rJc/nHeqlutJWmLZlPO8ysHxdQ2uatc9S+TFu6gOrWttKKT/TS8NluhYk4gDap79x2wLA6BvqZT5HUcertpfnt3VS30DziO8eQXNB2CkRW1XVsd58MhExVDX7NhZELIAMh8wgIVbXerqDtUyxvot6U6VFJJbYcCIUg0rnn5KyT6x6xz5j6kubE04JRBBjtZ/i0AO07wWMgzHq2v1ne5wMS+mjcc4MRpvDk3iyjC1QrBT5uxL4eefzCYDldODV8Hy/dVAJEsaG5AsNzGkgpQ3MJvSJ7aE4faEG+XhH3qNTZSrHrRLyuGZorep2IE8wJ+iwwkoYYMAkTYMRSEHOG5tJhZIAU9aiShSAyZ7TR0JwtNEK/5jZ1UENrJzV26uscNojsyQztnxyhwRPW07orhAkNlniW2cB31yjDb95jJc3uW6x6S+qepGoM4W07m946pY6mLmhW9//M33OVKkw6cOIacQacLQYQ14lr/9gILd7cT/P7hXuDenlWHE/N7qS5jRroeEzjwraJ2o8f45GnJ2QUxo53aA7jMBD25q2hOYx3EUKQN/7ekAAiKWfD/zHPI2GPyPhGWm+I5fSGrBNpZ2gO/c7pAWXrDRlpz8w2NIc+b8QA8w3LVQREzjigsFNJIDIwsr8sHpgkEKGwQdJAJDa6EBheebrfrtyAZonDABlBJAqTUQCQndBOwmcEkTGUrHJAFDwOwDE6xwz9UkOD3Ctb0E71K/RwnQMj1qB+xtGqA4ep/5i1tPaKZFNn8fRv7il1f2OYVny6lxbt304N65fTzLZFqnrDW3eqUxMFHJhkFK/71sl1NLmxSW2zYcNy9XiLlZ/uU5/Jn41PqpW07vKN1H/0Wlp1wDAt3kXPhsOhOKXgWhAfq3QAsbBd8EQiX0+IhfEjC+PQBVEYu0kgwrzIIcxFMWdTQIS+YIMoL4QQRI7Q7wRfzAMi47dpEEoCkXpvTEHkgRF+ARtEKOegiCDKASNsOAtG2OCVA5EfRk7glwIjTMgUGClh0meEERpNkhBC2sx8QlPMoMZ2df8LT0F2QBT2kHqoZWMfte43SN1fXkOrL9jovYaEWve9TerBfIOnrqXe41YTT5NuO2SAlh3YTS37dVDz7quofuMymre6leYOLo2JX2vYuEwt07J/By07qFut23XksNoWb5O3LZUuEnXtFho9dxN1f2mUlr9rUH0nAyAJQo1twb1BiRMSbGF7CCAKhO2cJIwfVxh/MoRsYZyXCiLMQQlEaRBKA1Ga0I8MiNC/fCBCP/RCKAFE6Mm5QIQ8GE8gEmFkwFOoR5QDRB4YVaJHlAwjDGTr7AqDvwogCs8qMfEzgoiFZpMkNLFE03PM0ZVzZs/XHhhILZ3U3CWAyIgv1q/Ww3arPjyshrQyQ8AST5XmXsvaKzapqdN8/87oxRvU005juniDqoXHy/CyvI40zTpN667cRAPfWUcrPzyk9n3hiHttzAaQenRDi74Olz4hwQjbwQOhhOuCkjBuZGH8+UGU69pQDmEOYr7GctbJ72wQUsugj1hCPwpPmn2qAIjQkyUQob/bIFLvVxdEvOEqgEiEER7o8oCoVBhhYCbBqOwgYmFSemBkD284yZ8RRmg4aUIzi/6WhCYZlwMi+72GNqpX9eoSekgBlFRPaVM/tX9smAZPWa9q1iEExkrrruHJB+up/eBhWrSxX/d8gqnXXgB1c8XsDg0g4dj4hcffA6GKgAjjzg8hE7sY32WHUCKIMK/LAyL0IeVFlQIR+mvFQBSH0PgDkQUjlHNgcoBIhBE2ngUjbPhqgigmTIIywwiTOSY0gBwwYqHxJMkxNS+I0mGUJu4h1bV2UBNPaOgRQCSI77lZ+f4h6jlilEbOWE9rLtmkezLca+JyQr5Za0V0HfeONqtt8+y+NRdvouEzNlD3V9bQ8vcN0cK11tR0QSF8eCJCFxcqLQIgIzz2QjsJ7ZkmjBVXGG/pIGJhfJcCIRbmnpOfMWFeZwdRktCHDIjQt3wgQh8sAiL0YglCaSBK6g1VBkTB/PGiIFLTAAX64sGRQaRn3LHwoDsg8sBIB4DQ+EKQSJICDwMzCUSxpz1iIqSAKExI4T0nQQUYxXpEiTBC44jDpyiInLvz0QRTYJTUI0IpIC3tpKa2bmru7lb30GCvQhRPdNjcRyveM0gdn15NvV9bo56LNHLqBlp91gYaPW8TrblwI625eKMqocMwYWjFxK9dtkktw8uOnrdRrcvbGDxhHfV+bS21f2o1LX/3kOqZ8Wc6+4HiOnG9PWr4rbFNFynl74jf2yd1P1DsNTzmLoBsEPE62K6SZs51QRS9lwIiAT5RrHp6RJgHgnjGnDRrDnMPczXK2ZwgkjxD8BIW+pAEonBZgFAyiFzvdPw1lODJgnejv9sg4nWqCyKpR5QHRtKXzgEi94AXABH/jY0vBEmiCsIoNgMHEyEDjLzCBM0CogIwkgwmizR4hDIxaIYJMMpcIshep6GN6hZ2UMPyLmpqt6CERp+kgR5auLaPluzWT63vGFCQWvmhIXXvTvvHR6j9U3G1fXxYzWrjZbjMDt9kumTXft3b4XugcPtJYvh0d1FTh54FN29Re0pVhDThcU6HkFKGafssjBFXGGdZQeTGdlYQScKcSwSReg9z2gMhATp5QFSxYbkEEImenANCCkRjMzQnwAh3sBwgEmGEB7w8IMoNo3KAyAMjTJrMwiQFGI0liFjKCAWzc0zRA6MiIArFN+Q2t1NdSyc1LOuiJq5jl3HoLlSWHlWZxNe6ePZb/bJOmtfSQfPmZ6mIkCY8vhkhxMoAIowPWRhnGSDkAxHGfw5hziF83JzFnC4dROg/BkToWWUBEfqqBSHRkwuDyIXQBAORB0Z4QPPACBuxgiDKCqOKgoiFyZoGoirCSJmhYHhZYVQSiCxxj2JecwfNW9hJ9Us6qWFlV7ZrShUEEX8270PDii417MZVsRmc5vpPnmFJWXhck0GEbVceEGF8ZYRQmUGE+ZYMIl3ay81nN/8lCLEqBSL0Py+E8oIIPXtcggh2IC+IxPHIHCDSgMED7wGRACMVBCVMWogFVREQ2deIPDDCxDHSY90pCYjJasEoP4jiMJINxzUkn9gQ1W+f0CABRqWasbS+ukm2oZ3mNrWrXkfd4s5wGI9no9mwWGDdu5NbMPONt82focCzuENVG5/T1Kbv/RF6PtK+Z1dQMy74OwlAIoSstvPJhQ7ETckggmtEGPcJwmtEmG9OPlYBROg7BkISiNQ6AKFygsjx5CIgCq8RuRCqCIh4okJY8LQAjPgLc705BJE+IO6BwgPKDcJ1kdyDnw4hlgoi07BSMAiBZAdUWK5DEAZqXLo3xMUXnWDHxPDAiNdl4esxCRAyINImkxdGkZkYY0OjmSkYk6S5DR3h32h+WWDE6xc1ZFWRQdW5k9efwzXtgrp2etkOtTyXFeI6d/VLOqhpZQ81rtQ3jPI1G+7BqCfK9uiJBErcs2HI8HsdetnGFd1KDUs71bbmNgbb5pJHAnQkqf3x7HuyNISiOoH5IaTbrt15zciJB1C4bQlGGIeCeD2O26IgsvMG8ywLiPS6Loww/30g0rUt4++h7/hApP1O151Df0P/KwoiVQMUS/zkgVCs+rYLoYqAiCtv66KnwU7mABF/8ekzWhRIdL24eM8ID5INI/6iYaPM4obhhsIGiDeU3agKJBwUAYhUw0rBEGwfg8lASJ9ZyTAygStpZrBuWEAxrOQbgCfhOUW8PCdDVPRUJygmXCgBQrwOF45UxSPZEISEd0wiEJuNWjcwaTY4NCA0J1vGDMPCmcZ8BSNEGNkmyuvzbwaGa7h+GQhx9e8sMAuhFMh8dn1TV2wfMsn67HmNncExSPl8633z/evU+uaz3XXMsvHXouPHnxv77Njx9pfvibVdsE1cBsFjx4RZX60rwQhj0IGQHbcpcQ+S8gbzLAlEJt9nz+PPNb0qOfclCNmewQWTbV9B3zEgwp6Q8qzZXOPSOoF2wIPKBiH9JAX2Y12Imj2Z/88KIuPpvJ2w6KkCVBxCO02pAIjCKqxAxSwgYvEXlSCUBiIbRrrB8OC7IMKeEa/HDaqCIefwnKnAzYGVFIwIIFucHObsShdPtYTJ4YFRcjn7QFKPiBNSnQl7IJQAInNWa4xOMh80JxSvrwpnBoCxXxcFMLJBhgacRQYIulfkvp8k9fmmengCCHxSlcsLfrZZXwGQ1xfedwXHDyqnO8c6ELaZ03bCexgHKFU9O9x+PgiFJ1Gmera5ToTxniA7b3TlbTfPEEAIozBng7z35b7jGWHe87oBSDwgknpDIYzUiXd8eA59zwuhBBApz+WOharAHawbPFUhC4hMb4iXmc5+LkCoYiCKdoI/pMDwHI5H5gCRgVFSQzgQskBkGtZAKQ+IMLjU/xiIqTAy9yR4lAAik1SpEDISYRQYhJD0WWCUZj5oUig2QXxNvS7JGZrThhr9j+abLrtHV0Slrlvy+pl6gu5xU8fO6pWgsD0k8bbxNWx/WcHQWvB3Vgix7B49bysvhIxM3mB+pUHIBomdx5jvPhDFPCMBQkkgMp5lQyjJ/xwIpYDIwCj05BwQssXrIoAqC6LYh7g75OwwgijoziGENIiywUgLGyABRgKIDIwwINJA5AiD0YFPXDqoPUoBUW4hjLIYgAOgOIzShGYVkzCsY4TmKAHJDA2VAqNSVApISlWRnpAjPLZCO3gFbYftLgvjJzuIMHZ5HSe+cwrzKxlEmLMpIEJfsIRD/eg3BkQIoJjA09DzvCBCHxVApGFUIojUZRoXQlUCkQAj3GEfiILeEQoPVqVBJMEIAylRGJACfNyg9giTpFQYYUJnMAAlNI1ywSgBRCw0SYSRC6Lqwmh8gwiPSxkhxMoNIoyb7BBiYeyWCiLMq2QIVRdESb0hCULlAJHjuyWDiH8jGzSEtnIQ+WGEjZYXRJWEUSKIBBhhQuUSJnQwxo5JLwrNIweIWI6RCWaGQqNEGMkgqh6UxieI8BikA6gUEGE7+4Vxkx1ETtya1zG+cwjzqiiIMM/TIMTKMkmhPCBCfxR8tEIg0q8hGyoNotiHenZKUEkgCmAUNUTpIDIwwsBIApEKRnwdA1MAUFEQ2TDKdY3ICM4qTaJj8jtC8wjG+l3DkeUYmYKJe50BhWZpKx1EyTDym3k2lQKikq8ROa/h9xZkHz9epyiErLbDdpblix0hzkAIIDtWndjOKvsx35lAJOVsZUHkwAc9KhVCAojQPz0git1HFAOR6+EihMZljygDiEIJIEqEER5opyGywQgbOS+MHGFgpsBIC4PfDyMnsfIqIbkTJRhKJDQfV2hmeYQQigw1i9C0tzbh9xWEx60ECBlh+/qFsRII40sQxmkojOkcwnzKAyFbmN9ZQWSE/mIglAgi9DHB6/KCCP02piK9ISXkwgQAkToYCTDCA+cHkR9G2HgheIQeUckgYmFwCoHMis6uMAH8ICoZRiaZoUwKmoAjNJKcIGLFzCxlaA6FBqpMeAyBVEqPplRl6w0Kx6xMEGJh28rCOMkOIgc+EKtOXGcQ5lEREJmcxfzOCiHTI0J/KS+I0BcF/0wAUcyTi4BIvY5sqCqIBBjhjo9jEBkYYYBsVSBiCSCqOoxygojlBdEYwMgdHqueMoEIj1eZAGSE7eoK46M8EOL4VctgTGcQ5lEyhMYGROhHSSBCnxsfIMLLNXEIjR2IMsAoCUT5YIQNkg4jlK9XxM8twqBKFAapENRxYRL4QVQyjDC5s4KIhaZSCowKCE3VERqyV67Bj2/h/nuEx6OMEMJ2TBbGRhlAhHGcQ5g/6SDC/IyEeZ0VQrYcfylbb0gAEfpmAoRCFYKQC6AJA6IYffFg5AaRH0bYiAo6nh6RBCINIzegvMJAFQI6PhUUEyEZRphouYVJXhYYoRn5VaRHZKSBI9+QWS0gVa9HhPvrEX5/QXgc8yjWdqlQwrjIBiAWxmNFQYR5lgFEnLOY1/lBJHhL2UCEfij4ZqVBpN6rIoh0SQf3Q52dwy8QyNQ3SusV4QE0ihqkGIh0N9lt9KwgUuU2hFp0ShioAow4OeOBjsngB1GhWXOWzKw3THY0BlFcIki6Qz4HjLjKNZpdHoWVFQTDzQKjsLpA+BoCIFmqSKnwehaZ2nP4elzuPhupGnN2ZQn83oLsY2e2j8c0SbG2q2932jMSxkMcRGFlBYypNBAFcau3kQ9KUt4kg8gFUJizc5Y7OZ0HRLroqdwjQh+SQBQCS/C4coCIl0dPRt/2g0j7P6+PTKgsiAxIpvOO5QORWVcXyOMD4x6UJBBxQ3BxvqjgaXYQmca0az4hiAyM7LMXe3hOB2VQN8oXiBis1lkVy61bhQkhg4inn87iCtpBQmPiJUknoi7+qOt95YcRG4kpEePUDHOMKS5jbLrWnDZdNL0kmXVMrTWzH14JAIoVTY2VCjJCKEQyU6+56KguteMukyRex3y+O+EB98Pdd7dWnfCdUyAUFUt1j68kqe3wvSwg4rjhuPMV28U4RBCZ2IuqxrvxLUnlTJA3s3k/1DaFPEuAUZSzFthyQEiftAajILN5vQhGqb0hy5dmBLXm+H/0OBFEgnf6QKQgxLXmQk+OgIT+7YAo6JSo6tszdK0500mxIVQREJkejVtpFUnpQkgX2NPVt/U23AMTyT2IfMA0iLj2UgEQzQxAZM/rh0Z3QRRBiNfVIAoCUgg+hJANIk4iruSbCUQWjMJ1Ta8kN4i0KYQmlRNE2kyi+3jYFNyeEZpTHES8nlT0NIuMaTuVswUDjgmMPCwcKoLIpwAkDboCdpH7gUzRUgNC9zP8MvsfVf1O/u7SsTNFT81+4zKomcHJitR26v2MEApjJ6iebWIvE4isuDWFU802Mb5d2XnDOaMVFj3FPBMg5Jw82nnvy30HRKZHZU5eA88xJ7gCeNCP9BMDglEYfl3wuawgYk91IaQ7BnrbkSc7APKBaLoe5eKnKvDfVQMR70CmobnEXtHi1KE5daCEg2nA4hx8p3FcGKkelWdozjS8gREqCq6EobkUGKmgdIbmssHIHmJwEy+bwjL6HiGAUOEQCxpOBhixcHgHDTBNvP4sMFI0Yq/Eobk8MkNz+Ho2lfTZwbBkUk8QjxXKbAtft4XtldR2Wtj+cQg5cQPxhPFnQ8iW3ob7uk84mqDyxn7siiPMx0icu87QHOZ7ivR2cvaG4CSaX0NvEyGUCCLXY43P2kNz6NkihELJQ3MVBxFv1IWQB0b4RYKumzooNog8MMIDGRMefKeBZBAlBUAWEGVSAoiinlB+ENnC5Msilfz8NyZ+DhgpoelkhBGaHRphqjxGiqacKDT5HCoMkqKK7XdxCGUVthe2Vfw1bHcZQj5h3CWBKBa7KcI8CYV5lQNEvExREBnviHlJGogE30Jf84IIfTIDiNh/bU9Gz/aDyPJ+9b4MoXEJoghI5QaRDCNsUCVs+CqAyIaRLEyO8oMoJkz+PCBioflkhBEKzbCo0JxThaY/noT7miA8DkWF7ZIsbO8yggjjNKcwT0oBEeZvURChygci9D/BJzOCKBVCaSCyhBAaexB5YIRf3geiRBhhA3hAhDBKDIAEEJUDRhzcco8oAUTlhBEmOppAHhih+ThC85LOqqPXM8nTI7KFRp0qhECCKtojwv1CQY8Iv3cpwvaQFF8O27ryEFLrCa/bwvwoBUI2iHi5IhAy15r5bwQR+k6lQYS+ihBSyySBCH0dQaSWeTWCSIQRNpQHRGPUK0oGUX4YYSKmCpMZjaDCMEoyPTRHURlAZMsx86xCSAQqG4jw87IoABF+x1KF7eCTXhbbt4wQwtgEqXWF121hfqRDKCkXKwOi8vWGaiDKByP8QgGI1O+yg0iGUR4QGRghhHKDiCXAqJwgyg0jKZnRDPKAiIVmVBBE9jJe5QQRyzH0oioKItxOUWWY7ZZXeOyTpJfH9i0jiDAuQWpd4XUjzItSQRQ/gQxAhPmdKhlE6DdlAxH6Y0VBBL4fgAgBNH5AJMBIBFERGGFDlBFEZYFRbhAlwAgTrMIgqgSMspofGmaoAiAycoy9iBImDFRK4f6XEUQzM7ZDrE3Ub2zbMkFIiktQ2mxRzItsIMLcKy+IbM/I1BvKBSL0PcEf0yDkgMj1ahlCNRAVApENoxBECTCqJIjSEsBNljLCyJfwaAp5YYSm5CgCDBqcT2ieSiWAyAiNPpeqCCLc73J8dxYe52yynickCeNBEMZVHgixkkCE+VBOCFUVRJkhVCYQWd47YUGUC0aVApEII2yw/CAyMEII5QYRSwhqDHxXmDRlglFS0qM5VABGeY0QTbRcZmwLAZCoCoII98tRGb47Ht9s0u3nBRHGgUcYU3kgxMoNIswbR5hzKSDCvE6R6xkpECoVROiLYwAihM8EAlG260SJMMIGSYFRHhCVBUZSUAvBP+FBxEKTAhUxw5iZlsGMfUIwiKoAiHA/vCrxu+NxzSar7eD/skAoKR5BPhBhHoxbEKX1hgQQoX95IZQAIvRRH4iMJ4tCP3f8Pg1E88sPIrMzuUBkwUjBx/rSuXtFpjHKAaIMMJIgZGrVZZYV1HyNqCiIVMkR6ZHHWWGkkl94Pfa+LDYU3x3yodCoHBCh0WWTMdOSr5PkMHMEBiupskGq1ESHEva/hHXtY4jH1i+p7fKDSMVOsDzGlBN/CVLbgtcw/n0gikpq5YeQyVUnp1MU84yEai4+CNkg4tJmurZmGUEkeK4DIBFCMojY110AVRhEusSPvENpIFK16qwCeXlBpOsiWSDKASNuXLtmUxYQ2TDidWcUCUwroFUBRSEBXLkgikr8CImXAUTmrBZfD4VGYYNI1arTBSzRbGJCs7LEZWr032h66WITzVorTZKquVYCDHg9rvfmACZB9vqqRE99sc826xfZd3PsDAjxuMpKartA2O6CTOzoWnF6u0VAxNuSSvxg/EsQsvMmDUQIIJOzM4OcdfLao/iJKxctDQotCx6TBiJTX5O34wWRAKA8IOLyPLrETzEQ8Xq8vgugCoJoKhe525m/jNlRhJAHRgGEpgfVt3UFb4BQEoiC9Uz1bV30NAASNkwAIjyr4PViQeGBkQomAJEuPmgKIXKAugHoDVZejxNi9jJVfJF/8/92Eriz6aJE4vc4kTgZlVQiu4mIiRpPZi64qg2B1+faW7iMUgKEuHClLl6Z0jMK1jHiQq1szKrgpzFpx/xk2Saat4K0kYIQg0AVPI2Kd2aVWV9X384HBLNuvHp2yvqwf+a7m4KpzvLCejPnxiFkF2vV78ePsQ9C2HbY7vg/xoCCUDiV3YIRxp1Hdtzi8BzGP4II8yY8iRMgJIHIbAMr5jv5DQpPXAPP4Hyfaar+I4ASQMTLKr8L61vystlBhB4qgYiXMyf3pph1Mogsjw88XRc95fqhC2lKMFpmQ6giINJDa3qncg3PBT0gU4GbD4b5sllhZB4hER20nD0ihhH2iAQQxaBkVEqPyFTiNSXlhSRwFT+rM0mV1CNKhJGdkPgeSoSRNgMNIcF0UJaZ6c/lwpltUDjVBY8kY67KxNF8M8oAIRUCHikYBEVP8b008TqmR1RkfZYpeoqvS5KOn4G59H6keLtJbee0s0f2SUzUIwqqvmO8pcjErT2sjHGPEPLmjZNnkVwQaeneVLCMkNu2sDfEr4WeIfiLD0LmRNrAKIJQGUAEfqt6RIEnhx2MLCAKekOmR6ReE3pDFQGR2SHzQbhjXhDZMALq4oFxDlwgDR2rJ2QLG8cDI9OgeUFkXyPSyjlpgSU87RGTIS43qWJj3ZiEKTBSBiG8LkqEUSDBeEShqUnXGRwz9IvP+PERBblUEAJGRSGmxJ9dwudn+Ww8XrFjl7oMtovQdti+CZLipgiEjNQ2g78x3n0QcvMG8ysSQkgpyNssADKyQaT8IniUgxdCCSCyT6DzQigPiMzrMQCJEHJBFMp7jahCIMIPcnYoBUQKPAVBFMJIEjaQB0QOhFJghCCKn/G4gZioAC4Y8JgUPhA5wkRMAVHiRAWUAKKYuWSVbWZew0NTlCUZKZpxRVUCSEpWymfjccknbA9XWXtDGCeOMM4yyh6Ww3hPA1EkzK/qgEi9LnhLFgi5ygYi9M2Y0G8Dzy0JRM6QXJVBlAtG+EULwAgPeF4QKRhJwgABGGGAVQdEFYBRHqGJFAERKxVE2WEkCU25YkqBwVgJj0c+YTsISrsWZAnjpBwQsoVxXg4IlQtE6A8hiARPKQYi9DfBBwuACL3YDyL0dy3NAAlEGkLjD0QJMMKD4xy8NBDlgBE2fBqMfL0iDMRMwmAXkiIXiFiYlOUCEQvNpCQYpRkfmmR+oUlvzcLvnl94/AWFbZgOIowPRxhbBYRxXg4QYT7aEMoj9IeYd0jauUQQof9lARH6rA9E6NspIJI1zkHEBwS/OB4c5wBmgRE2lAAiM9aKjZ8EIhNQTqAVgBEnhRP0QnLkghEmpQ9GeYbmYusJplIARsk9onQY5TFfNO2yaCx7RMFn4/csLjzugrDthDa1hbFRTgCpCQNCjJcKoSwgUssIuWwLfSEGIt/QHPqPAx5UNhChX2YBkePJ6NspIOL3kQvjCEQCjJC8IYiqX2XBEQYKgEiCEQZkJmHQp8IIEysbiEQYFREaSwkwcszOKzTOYnIMfYIKv1dpwmMtCNstRRgT5QYRC2O7HCDCHEQIZRX6gvIGwUfGG4jQh/0gQl+Pg0hWlUGUDCMXRA59JRAlwAgPfB4YldIjkkCUF0be4BeSpBwwiiVz0R6RWlcwmJwwCs+q0fS8ihtoKYaMxl5IY9AjKsd3jwuPsaCkthOEsVAJCEn3zZUKIW8uSjkr5LIt9AQbROp9wVMc/3HAkx9CiSBCf7VAFPNk9OwEEEX+jz2iCEI1ECWAqCiMMNgKgYj/xuAXksQVJlk6iGIwKgVEan3BaIqAiIXm51VkoqWaMZp8blUZRLjv+H3yCY+rR0K7OW1nCeOgIhDi3lAFQIT5J0EolrMeoR8YCCWCCH3HAQ+qBqISQSTDSBIepEIwwgYDEMWgJAkDBkBUDhgpYQJkghEmWTYYYVIXl2A2OWEUE5pgotBYSxca/1gL9688wuOYImyjBGH7O3Lip5gwnssBoTwgShL6gAQiUeg7gj95IZQAIvTJLBByhH6dAUSuxghEyTCKfynfQcADVQhEIows+MSKB7rBkAVG6m8MPCFIJcXOrjAJhGRxhclWbRgV7xmJZ9VohAkqWjQ1ixAKoirQI8L9KK/cY+gVtktK22G7O8KYKUEYy9WGkFpeeJ2FPlB+CFUJRHZFhQIQ4uWqCiLeAa4n5JZycHdUAhEfAC7zgxDSIBJgBAc0LNCXBCNsNKtR46Uy3IBIAhEHl6m87QSfEKSSeHgs/B8TQUgYW6pcSVoSYsJaMqV5MNGzStWoQ8MRhCZmxHXq8DUlNEWP8tSoQ/F6pjwQvodCWBhxrTZ8LatMvTX+Gz8vi9LL86Dg2AXHAF9XwvYQZLcdtrcjiBteR9VHFGIqTeokikv0cGmsgiCSKitg3iWBKJazIPQBCUSmLmVREEXLJIMIvTIriJSXcokeEULZQMSe7oNQRUBkSvSYCtx5QKQgNJ3rGi0OD5ALIxlEqrjezi2080wuXho0itAYLoQ0iHSZDBMUOiDygMhAyK415wSgEKhGKgFmR5V8zTYwGRA+MQipenFRgrrJJ8NoxhydzGxEhWCkjEAXPjVnxo75WEIT058LteZwOTRHS9wTYkW15tB0k2VAYNeaw2WSpNfXhUuzlNqxxSWJ+DfXiVPfP3gNP8Mns50s+x5B2j1+5hEWYpklbIuEtuPtY3s7smJHb0PHDn9W7uuUQeyFtebm5AORLlpq15rT72HeSSAy23ByNglCFohMGTC9brBeDhCxZ4Unv8qHLBih7ykQJcAoAUKxWnP8ngMiGUY78e+gA6FqzSkmVAlEqvq2gQiDyCajsLNGulhqVLg03EYaiAIYmcdHGBDx39gQSTBSjaqqb9tnJ55ekQQiFVBBBW4OLBWMGIQugOygVjBRZ3YJZ2UChOyEUiAyF26d5AvkgEgnojJ0NpOcIDKGpEBk1RxzDMgDI2VmAUgMVNDwlNAgJRCpXkX2wqnGyE3RU1M4NC8MIhDl7NUE1aftoqf5P1v3xtTxS/h8qcfDx4oBFFUtt5bB4y8I244/B9vaByEdd1HR09wnQQo8pugpx0wQ+xjvjjx5E+QD5lsiiIKTR11xPxlENoSMZ7Bi6wogQgCFnmSBiAufhiBCv4vBKB1CBkTKV4Mi1PppBpYnZ4AQK/T14NE+vC5CaMfJFQBRuCPC0FzmXhEPzfH/AKEkEBnZQ3MaUG5jyDDSDawCKOgNxRodJcEoDIoAZOIZkQshW2I3HxNCAJFJqmiIAZMvGUYsTigspZ9H4dBcaBSCEYFsU/MOzdkSQGSkjFQwWzRkSRqkfhPPIoYBvpZV5vEX+HpWJfeG8Hi4cobm8LiniI89tq0jIWZYvH7eoTnnRMoMzWGcO0rOG8wzH4TiOes+oRXzPsx/4fpQbGgOfUaAUFzsd2a5pN6QAKAUEIWemzg0hz4u+380NOf2hioCougD3J3JAiIDIx+IRBjhgbWEDZIGI5yskBdGNpQwCLOACM+qlDAphGRyhQkoSOgZqd9C4pckNCQPiMQhOZ8EM5UhZAsNurzyg6Dykj8bv39G4bHOInyoHQpjogRh3Iaxi/EtCvMkLsyzNAjpnHVfw7z3QUh5RQkQcoQeVwBE6LcGRqWAiJedICCKwygXiBJghA2SBiKfMEAqBSKvMDmEJHKFSZgMolhiCwZQWGhKCTDKJTTQTEKz3lqF3zuD8PhmFLanI57WjzFRgjBWQ2F8O8L8yAChDCCShHmfBKJQ6C+CD5UdROijHhDlgZAEokguhCoMoiIwgh6RB0Z44JJAlAgjbMTgWpHb4G6AZAFRERiphBBed5JDSCRXmIiC7ES2bgrE5C9ZaE6CcvWIjCwjTe8R2ULjLl1yr6Q6MhMF3O+ZUXhcM8q0HW8D21NDSIiFEuTAJ1SWHhHmRwYQYR4Kwh4R5nsahNQ6uUHkepfjb2kQygGimCengAj9Xnu+e21owoMoL4ywYZJg5ANRXhglgSgJRiohhNeVMEmEZHKFyZgNRGMBo1IMkdfNByJbrrEX0diBqITvjscxo6S2w9ec9i9RLnxAGNulQigpF2M5G/2NeV4KiNB/yg4i9E8PhF6FINI7vDWAyMAIA7L6IGJhUnpgNA5ApH4XVGEzjglNPruqD6Jovwt9d+EYZhG2m912MWH7lygHPCiM64wQYmFeVQJE6A8TG0To2xMQRMkwEr6058A4wgOdBUYIIqfBi8MoqVeEwRwFdUrwY6IISeUKE1OQAKJqw8g2MzS/LCpkxl6h6aereiDCfS3w3YXjl0XYZlLbKWG7lyiMSwdAJYAI8ykPhFhpIErqDRmfQE9B30mFkAdE6IOVBhH6fBKIDISqACI/jPAL5AWRCCM80GMMoiIwUokhvB4Kk0VILFmYnIIEEFUERqwMZoYmmKbYNSY03pKEIJBVWRDhPsWVGUTCccsqbC9v22FblyiMRwdCLC+IMA9cYT7lgRArnH4t5HjVQIS+VgBE6K/otaWBiH+/WkCUACNsoKIgygujJBBJMMILn6IwaYTkkoVJCkpIejSHsijJzArASJzsgEZcVsVhUTqIcPvZlQoiPC45he2C4s9w2rcMwjgUIVQCiDCPioPIze0sEGLvyAci17MKgQh989UKIj+MpC/tHpi8IMoKIx0E/DcGwPgGUTYYYZJiMvsTHw2iLJLMTDA59V4GiSAyQmOugCIYIGAkueuXIi+I8DgUELaFJP4sp33LIIzDfCDC+C8/hFics5jXpYAI/SYVROhnaRDKCyLHk9GzkyEkgciGUIVA5H4o7lQiiET6CgfHAyMDFufAZwVRWK8JAyAFRAGMVHDmgJEb1BkSARMnkFS80RUmazYQZYERV2XIXZnBMjM2UzS4mNmlKBFERmjUWcw8o8Q6bRnFn13K5zufjd87ReHnW6/h8U8Sf6bTthnlixuMv0QIOdO3Me5dRSdwep3iIGp18jorhEIQca3LoiAy72UFUR4IWT5bHETzHSZUHET8gar6duyDccf8IFJFU7mcREEQYa06FDYWwihWs8kJggQYBRAKq29nBJENIz6zmimUCxEFEOJk4MrbUfFGN/G0BAAFMobgJH0GGOmCq2xoBQwpML4sFZzRQG2FJX6E92LyGLm36GcGmXpr+HpWmRI/RWEUqxOH3zdFpuioKjwavIbHPVGzl+sSP9iuGWXixoYRxp0jKW5zgMjJmyBnioAoytmcIApgFNaKE3wmDULG77TnZYBQARCpOp4xT3Z9OwlE/N40VeKniiCaGqu+bWDk7pwEIl2lVX9pvY30adwGRnzww0ZRQaAbDhvBgU/wtzkzCSvZOkFgQcg6e7HPalTRU1XAUAeoAyPPBU1+3ayriy9G2zBSSWInAJzRGQhFZ5dJyRhP5BlqfTQEIfmVXCMxEDJmlrd4JdcZYwOeq6pnB4aYcZiO1zPrMMjsCuCRVtLsxl6au2gt1S3dTHWLN9LcBatpdn2n+pxY4c95poq0a/Y+cZ02Xn9ufXtumOj9D6pvmwrYKevb76vjznXu1PrJIJbeM8eP11XrC8ce/7dl2s58NtaM48/A9o7ek+JGv+fGnQsgJ275RCkDhAxwnLwxMBJgI0nl7KxWmsX7HBQ75tdVXmeAkNpGULFfFVtO8R0HQgGAGGLRCbQGkva6RdQ8bQl1TltGo1OX09C05bRy2lKaM40LkNogcj3V9lZTv9P2dUmuv/P6WtNN0dOpCxwIVQREBigRhPL1iqZw9W4GiNpGeo/IHCwNI1OyXIaQAyKAkjk7iZVTd4LBApIHRmHRUwQR/y2AKIJRqzq7Qgh55TmzS4aQkZDUBmL8GhoAyDUVbQaqRyQMsySJzYTXVz2iwGDR8FAxQw0+1zHiuSupbukWWrLhCFrxjtNp5bvOoVX7nU+r9j2PVr7zLFr+9pNpweDHaE5TfwgEPeHANf8kqe9tKlCnQESS+ewsEHIUwEA9z8hXtTxFBkZpJwAxQdupquG8PaF9E2X1pHl9/wmQCyIxbjOAyJc36j3MsQxSPSKYOZe1NxTzDMFjfBAKYaS2EfSIghPradNbaM3U5XTWjv1056QR+tUOo/TwDmvo15NG6ReTVtPNOw7TF3fqooVTF6f2hth7ja9Gnuz6Nvo6+jt3MAwTEEIVAZH58DiEsoNIgYWfBqj+zwYjm+6mgRBAWWHEDaroXwBE5izHF4BJMDJBnSsZIKnMNSKTYMkSklqZg/UamkACiFjG2PD1rGJDVH+j6XnkGKplxAyXRaOfo1X7X0DL9z6NFq7+DDWs3IvmLVxDdS0bqKnrPbR401dp5bvOpRXvPIMaVu1Ns+s78oPAkq6e7b6eRerRFXmGBfG7m/0WjksW6fWTr9GFSmq7AjL7wH9jnCVBKIpbHY95IeTkDeZXBnHu8nZjuZwFQgGIDIz4f/SXVBBZozkKYtNbaOG0JXT0Tj30yA6jdMek1fTNyd2059SV1D61lQamLqMPTm6j83bsowcVlEbo7VNX0kwfjALf1b0aMzoleHYCiIz/8/Z8w3IVARFv1IVQDhAFMCoKolACgLKASJ+VFASRBSRJSSAyMMrcGzISEisbiFhuUseERpABRqXImJESml+CYmY6Z4WCzdJdv0XL9z6V5nd/gGbV9zjGq7WS5i1aRy1rvkBt776YFg59jGY3dEXvo/mnqBSIZZKz/+UTHlOvhHZz2q6gML4cYXw6wvh2hXkSCvMqg+y8zQ0ieyTFgCRRfhAZdUxbRlfsNEi3Txqhgya3UeP06AGjoXiobdoi6p3SSsft2ENP7bCGvjy5i+qnBo95EEBkYFQSiKzOCUKoYiCSYYQ7mAKjHCDKCyNsQISRKwyKFBhh0AGMEEB2QBcSJlVmGGEie4SGUEEYxYQmmCBjqNwTat39OFr+zjNp3uKN8aE6j2bVdVBj+760cr8LqbnnA877oRAM1RDuQ5mFxzFR2D5lFMaVI4xJURjfGSFUIohQqRACEBmhtyRCCEDUMm0p/WDSEN03aYQGpy6j6eB5fVOXUUMwFGc0e1oL7Td5leo9HTi5zb1WhP7rARH6uQSiJAhVGUR+GOEX0wdBAFECjBwIJYAoCUY6ILDRMTBKA1ESjEyP6K67fkEvvfSyE/yiMKkywuixx5+kZ/7wxzhwnOQWTKFCMFLGiK9bRnjX3ferY+IYZKCZ89powdDHaMW7zqW6JZsc02UtXv9ltcyseW2x1xlYCwYPppXvOpvmzB901suiQj0iYTtFlAW4tvDYpQrbJUvb5ZCJpZ/fcie98te/quttuSCklnNjXALRH/7wR3r0sSfVOuWAkP1/3t4QSy0veIvRzT+/nV555a/qWpQEoRnTFtMXp3TTQ5NG1aQE2+d2nraIPjq5nZ7ZYS2dt1M/zZ8WhxFPLjt0p056YNIoLZ26xAuhPJMUJAjp5VwAjSsQOTCKfelsIMoLI9OId951H+EPN/rtt98zJjAqBCKWAKFSQDSvoZ0ee/wp+ve//62OyX/+8x/6y19eooM/fpgDonLBKNHMMoBozvwhWr7XqbSg9yOO8Rq1v+8KWrr5GzS7odt5b07zIC3b/Tu0ZMuR+qZTYf0k5YVBOZXns/G4pQrbQhDHx6mnn++8/vDDj9Nzz72gP1dYD+PIARECx6cUENk5EQMR5tHMpfTww4/Rv6y4f/nlV+jzh3wttowEokwQCqAT9wrXUyK1pIKodVor3bbDCH1qcpeaqGA8btr0RfS2qSvpgR1W0/M7rKPf77CWjtmph2YEs+aMby6Zuph+OGmILpzUr4bt8oAIfXzcgUiGEe6oB0QxVQZEBkYMIjY306j9g7vQbbffTfydf/ObR4qDKAFGSSAygV0uECXBKAIR/x9P7Id+/TD94x//pMOPOFb9/74PfkodKzSOcoIoTWkgauzcj1bsdSrNmT+s/kcDZrW/73teEPE1o/n9H6X2915OcxeMCu9PbOHxSpXQBj6NLYjc2PZBKA1E99//oMr9I79xvFp33/0PUrnIMwrNMpivYd5mARF6hOAnqSCCUZz3TGmnWyeN0IppS2P+tnj6Urpl0ojqDTGIntthLf1hh7X0zZ26I+AE06s/PblDLbdq6lIRRFroza6P+0CUBKExAJEfRrEv6NA3G4wcCBUAkWn88y+4nP73f/+XzjjzwhBEP/jhT+hvf/u7OlP697//Q7/97aPqdb6P4E9/+rMKYhNcN998u1qft2OC8He/f4Z+97unadmKEZW4l1x6dbg9PgN74IFfh8GOIOrs3qgSiNfjHz5LO/wrR4fv1zW20+9//0x4Jsdtduttd4cg4umxvL9m/eeff4GeePJ3cRBZif/88y/Sb377aDzhLcPg9++48z568U9/jo7Hw4/FTOaAgw4J3+fPffrpP9DS5SPh+8d953SVYNL6fIbP+296ZPx9H3zwt4kgWrzxcFq84Ss0s64zfA3NOBlEK9Tkhfb3XkFNHfs576UpT6+k3Er7bDxWqRKgkaSsIOLlLrzoe/T3v/9DtSv/vva662kG37aAIJq1jFpXrKann3lWxQf/cLx881snxiD05JO/D+OEf9919y+CG1xbqXXFCD311O/V57I4h3h7CkQMJgCRhtQT4nvm/bvvuZ+ef+HFMG4fefQJmjl3WQihr37tOHrppVfi789ZFoLoe1d+P/z+nK933XWf2raBz4033hLm8cuvvEL3//LBRBCdvmM/nbFTH9XzsFvgbTx77vs7DtITk9bQ8ZN7FYj4GtINk4bp6R3W0Ccmt9NMyzu7py6lP+6wjt49eZXrt8Zzc4Eo7vu8LMInUvPWBqJ8MEoCETc6w4XNkf//5tEnquC46uofqWX23ufDKkj0+4tV7+nZZ58LQcQBy5Dh1zkAmxZ0q2C68We3KhDxz5///Bf66IGfV2dTl11+jUqUgz52qPrfBhFPLX3mmWdVQnf1blLgu+8Xv6J//vOf9K79DlDL8Bnbdd+/gbr6Niv4/PBHN6r9XbxsSP3PyfmPf/yDDjjoCyrJLrv8WpUkEYhaYyBiCLH5v2u/A0UYMYh4/Qsu+p76/9AvHqXg98sHfq0Mp2lBjxrKe/iRx9X/aze8U0Hpd797Rv0/tHqPEJb8/+cP+boyILP+2edeqrZ/5lkXqf8P++JR6vsmgWjZnt+lhcOfpBlmGjLfH9PYTzPru9T/bIZxEOkbXWfWdUSGPq9N9YgW9B/omHma0mBQSUmfjccnswTQpCkPiDgP9tz7Aypubrv9HvXa1478ThxEdRpEfHL1wot/UvHC/3O+Mmw+9JHPhiBikA2M7K7+vvKqH6jtdXRtUP/zMNvLr/yVhkb3UHnAox38vg9ED/zq12r/PvChTzvvGRDx+pddcS3tPLuVDvr4oSqveASB7wVasmxI/c9w4e1zPr/08svqfQbVYV/iPPk3XXDhFer/o485ScX1j6+/SfnEd044XefVhVeoIbuDPnaI8t4kEN04aZi+OrmbpgfDcnOmL6ZTd+pTPZyjJ/fSuqkr6Lkd1tHxO/bQ0NTldO+kEXpwh1HaZcqK0Dt3nrqInt5+LX1hp86gMo7guRMVRDKMcIc9MCoAIg2j7CBiOSAKgdSigo4BwH/zWZX+O+o2X3Ptj1XQ8d/XBn8zhBa19Kkznl89+Bt68cU/qwB77/s/oQJ405Z9QxAxlMwQXdPCbvrrX/9GP73xlgBEer84+HldDs5jv31KmBAMnj/96S/qbCmWLMHww/JVo6pHduxxp6qbDXlZ3cOJhizU97NBZAGns2cTvfDCi2qfGbDfPfGsGIwYRGpdq5fEScywYcNhkPD3sU2Jr7uZ1xiMvA37/cceezJ8jQ2It2+/z/uvQMT/o3nOWUEr9jmLmvs+Gv7PAGp927fVLLpZ9d3qNRtEXF1hxTvOoMaO/WMGvmKfc9R9R2jsE0V4XHJJgEwW5QHRHXfcq25kjU5qXlBGza/ZINpt9/cq6Jx62vmx2AyXVydO7lCc2pfTzlN/88ng7Xfcoz7H5AafYPp6PUuXD9Mf//i82gbvt/5O0RAe58xzzz2vIGSG5O6595fqpItBcfPP76AXXviTWseMhPDJKPsAV1DgE1f2EnuCAvsKv8bLPvHEU2r7/FnmsoCBowIR+tT0Frp3hxH6zOSOsKxZ3bTF9IMdB+nyHQeobloL9U9dFoJo6rRFtGpqK909aUT3fizvvH/7Efr6Tl0yiBxPdv07CUQsZMMYg8gPo/BLOvTFg+ICqGwg4uAQQPTc8y8E14wiELUuH1Zmf8yxJ1PL0gF1hn/Cd89QUOLAGV69uwLIQQcfos7E+HM42BhEChIMlgwgOvuci1ViYNKoazzPPKv+butcp4beGIa8H/zbgKh5Ua/a9o033hpL2Pg1ojiIjL7y1WPVkBp/DwbTkmXDgRkEQ3cWiPjMlI2D/2bQSD/8PdiQHn/8KXxL/RjQmO3bpsbbDEHEAhNd9vbv0sKRqEfEPZ2WtYdR23svo5b1X6JZDb0KREs2f4PmLd2FVrzzTFr5rvOofsWeoYlzj2jVe6+g+f0HOAafJqlXUm3hMcklATBZlQdEvJwdNzxEzCc7CCI++eGf+qbOWExyL4e3yWbPQ28PPvRbdeKnfUoPeRkQ8eedctp5wjUiGURGhxx6pDoZ4rhniKxsX6vy0qzLlRQMiC6+5Cr1OfMa2hRopB/2Ax7J4PWlH4YPe4PZvl3dJXaNSADRTyYNxXpEDCQG0Mzgf566bYOIPXHu1BbVCzK+ybPr+PrR53fsEEAkebLr30kQ8oOouTIgUkDhnSkIIh5e4wOJXzoriHhdbpysMEIQmcoK8+pXqdcfeui3mUDEwcvjxnydiA2ez+7NtaM777xPXR/i120QHROAiGVAxL2kvCAyQ3d8prhl1/2cHpEB0U9TQBTW+RKAdODBh6ok516ND0Q8NGiDKAYNEIMIezzcyzN/ZwKRUWCkSzbwNaLDY9eIZjX20uJNR9Cqd19Mi1Z/RoFo2dtPpGV7HE/t772M5g8cqO4jYqNkkNQtXq+uEfF9RWjyaQrL3BQQf3ZRkKnvqaoyZKyMgArq/alt4bHNKB+IHn30CXVNxmy73CAyQ3d77vXBWI/IwCcLiOw6caj933Owyp1773tAwQdBxLnL13ptEJkejTRJIVzfqqSgiqUG/yeCaLYMotN26qczd+pXPSH0N/Y+7BGhZ7L6prSqa0R8XxF6rc+T0b+TQMTbcCFUQRBNmbpAzU2PdtTdKXfHF9BOAXXtukbxKYPJIFLLT18Uq0RrGsJpHAFEJlBM0VPu1bCRf+4LX1XBwGAxQ3OmS81Dc3wdRr2muuCP0jN/eFZ106++5kdqOYYXB1f4mgdEzYt6QhBxkNvXiEZG9/QOzfEQRfPCaF1zkZZ7MmlDc9Hwly5xEi+Y6sqewMB/s3mwkZh1H3nkcT00N2c5XfG976vk3LLbux1zYv3i/gfDYTpjqHb1bWlojocoHBCpfdb35DTzrLm9T6O5C/SsOaNZDd3Uutux1P6eKxSI2t53hRJDa8ZcXZZH1YqrW0ULBg6kNjVrbsQxfJ8URKxac3mBwsvrwqfJRUtR/N30/UimVp2GEb/mwMZaJ67lanm7WKxTKxD/t2T2ha9z6PiLw4wh8etfPxye5HBM8AmFGZrj33yt9Ne/fkRNqLFBxBMVfENzHGu8Tb6Oeced9+oah7OX0ac+czj97/9SCB9naG7mUnVSaUAUnYDxtmUY2fBRQ3PPv6CG5vg99gs+WeX85oLF7Cc8GsFtKYGIfcQM05n37PqU0dAcg0mD6J5775dBFNTVfM+0Drpjx9W0Ynqr+NSBLCD67OQOenaHtbRiypIYgAyEuFYcerLj4QKIzLK8DfN+dUDEO26DKGOvyMBFfWmu1Do9BUQAI/W5O0cgUjDLC6IZi9VFVL62w8ZvT9/myQr82lVX/1AtayYrcGDpdZeongubKweinkGzWM1s4/85Afn6EIKI/+dl51sw4cA0Z/8c7HaPx56swPvDkxUMlPjMkpNqzYa9lQEoeB13qkpANn57sgIPXXC72iDiROL1G5u71PY//dkjVOKzQf3sZ7ep73DmWReHIDKTFdhMDvvSN9X2eOYf/28mK/CZq4HR+z/4KXXtiP82kxUef+Ip6u3fVRnpZz53BJ10yjnKGK+48vuxyQpqMsMrf00E0byFw+o+Ip6Cjb2DuYs3qskMCkTvvULfK1TXGayrC37WLRxRPaWlm7+uJjKg8fsUA5FY/TtZvHys+rWwjK0YXAqBKIKL+fxSQfTb3z6m2vP8C65Q//cP7qZgwa/t/c4Pa6OfvUzFkJmswK8xJPi1r3/jeBV7WSYr8PIf/uhn1fqcE7zMnLqV1D+4q/rf7gVxrz+crDBTT2zg90MQzdYgMidw3PP53Be+FkLpRz++US1/0SVXhiDi/3myAoPhYx8/LJqsMKs1nKzA13wGhnZT+X3AgZ+n004/P5yswHB94IGH1LAiA+foY0+mLx3+LfX3ueddqrZvT1b4y0sviyBi32GvW77zMrp10mr69JROp6ICywzNfWenXhFEfCPrjyYN0QWT+mkq9ISMryoQgSejh0sgmjItApFZByFUERDxsBz3ingnzAe6EHJBZAOJv3gEoGwgMjIly52hOQ+Q8IZWDgI2OwaOOeswuvjSq2LTtxlC9lDd4tYBFWQMDXMG1DS/SwHGTFrwgah5gTw0p7r/wTWg3z/9B7V//MNngieedHZ41nbe+ZdHU0L/9S+V4AwCA6K5DW0qKc36vD+/fOAhYWhuGTU0darXzZRY/mFzuPqaH8d6R0899bTajjkePCyhEjownfWb9lEg4u+ql/k3PfQQX2TWJnbIod9Q+2h+zFk1v8emyBeBzT7wsbnppttdEFmaVdeuqyPsczbVte4SN+K5K2neks20ct8LqHX342nOorWx9xkAi4Y+rkoDzV4w4pi4MfIkza6LV2vIo7D6tfUafn6SDADxdUfCcTPHW32m8F4W8b5z23Ls8Q/HGQPkU5/5SmwYjl/nnm1s+vb3b1AnQRxXCCLuFbGpc3zxDxuyPjnRMcsGb7Zlpm5zD8uAaOmKETU0yJ/L4nhkQMaG5qyipzyEbqZOm7j7wQ9/Gk5OYBDxMvb0bR5+DKdnz1iiZsq9+OKfwm3wMeHvZSYo8AnrSy/r6d38w57C15l4XfaZ2267O9wHfu+Gn9wsgsho1s5L6NApXfTLSatpnV1ZIfA9rqZwxaQB2n9ym+uX0xbSFyd30n2TVtNyqzcUSb5cgr4tQciIGcD74RuWqwiI7A+3hTvnfgEDougxEkVAhI2QBiIWnmVg91dWBCBb6hkhwk1rYRfdIzNE53vsMA4XSDJAib1ujY2jzPKhnFlI7vCcDaLYfUbBMIsZckGhcUkqxQjN+rMa+xRoVu5zlronKJzKHWh20wDNbuqPm/PcNnVNaNX+F1NT9/td8/YIYZK3J+Ss6+nJZJGpBIGvhxKOFx47tb7wXhb51sU4YBjErhGF1bPdGHMlxCzELsZ4KCFfEvPGkp2H4fUlfs/kLl4PsoU+YA3tR55hl/hBnwkkAMj2qIXTl9D1Ow7R/TusVkNxXFXB8T/oDU2fupD23WkVPbH9GjqAa82hvwYgQk9Gz04CkfF/7qAgEyoKIvfDfCDywIi/rAii7DAKoSQ0BELIgRGCyAsjF0Kx4JKEQSqACAM/D4hEYULmApEfRhKI0oQmhTLXEYrKmCFXRWjd7Rj1vKHGrveo2XIIJKW5q2juonW0kB8X8e6L1D1Isxr0PUdFJIEkNPgKS/rsUMKxKrd8bYcxIIEomzAu3djF+M4KoiRhHpYDRI5XxEr8oM8I4LFke1jHtFa6etKAqqbwocnt1DxtsaqggBCaNnUhdU1tpW/t1E1P7LCGvrpTF9VPEZ6KbXtvJhChv8f9H5kwvkFkrhc5EBpvIEqGEQZfGohCGAnBXzUYiSCSYeSAiCXAB4VGlcXMsso+K5/dPECL1nxeFUBdtscJCjL8PKK5LWtp3pJN1Nj5blq8/ku0/B2nKzW0vys2266IEmFQYYmfLRyjSgnbDtvdKAYiIa5kYTwKSgIR5kMOYQ7aIArz1gcizP9UEKG/5AMRa+m0JXTsTj2qAOoNk4boazt1055TVlLX1GWqKvf7p7TRqTv10l2TRtS9RPtNWammcju+ih5cdhBFEKoqiGQY4RdJA1EZYCRAKAYjCUReGLlBlQiiFBhVDEQsTM5cIGKhOSRIMCBbaGI+M8srZ3iIS/Ys2UJLdzkyeDrrhWoaNz97aNV+F6j7iBYMf5JmN/W5Jl5AIgyqpNhnC8em0rLbDttbFMaMVxiHPnlAhHmQQ5h/YR4GuZoIIsx7D4RSQYQ+lAChyMcWqSe0XrJjPz00aQ09PmkNPbXDWtX7eWSHNfSLSaP0tZ06aYF5BhH6qeS/AYjQq5NAhN4/jkEkw0g8EOUCUQKM8oPIDyMMwCwgMkGtglxIgJJghAkqwUgZBCZ4lOiZhaYjCI0MzayIHBAZqcraQ1S/bHdq7NiXGtveqSYulDIMJ2lMQcS/8XtXUabtsJ1FYbwkCuPQp+qACCFUPhChrxQHkZJ6AF4LLZu6lLZMWUHvmbKK9pmyklZPWUb10+AheOinkv+mggh93fX+KoOIN4wfmh9E+rckPGAufCoCIi+M3MBKhBEGrBDUySCqIIyUSWCCx5M9s9B8/n/2zgPckqJM/2IEBSVMjswAk2CACTAMM+Qw5IEZhiHHISlRWYKgEiQPMDDknBTMAfWv65oWXcO6ugrqroIogpKVIAgC9X/eqv66q9/6qru6zzn3XlzP87zPvadPx6rve39dffp8rShmZm3VsRkrBt9EfQ4ib987PvYO5d8tWSmOk0px/Oly8auAiOO/gTjvugEi9gffJ0JfUfwnFUTsd8ot2/0LojKE3qAgagYj7pBaGFUFAAdKDYw4EFNgZBNBgl1JBAejMHGSxInaGEQu4ZPFJqSIzYwNrom6ZsZs+InqMxDx/nbz2NsqBUQcH5XiuNNVxG/3QMT5VgUhFUSc7z0AEftWaxCxj2oQ+kcDUSqMugmiKIy481JAFIVRGFxtYWSToVcggjhZ/WS2ZhEmeyg2jQqxGSkSMxswINLEMFDUExDxfkTU02Ovke3DOhBxXFSK401X+USKQMRx30Ccb41AxHleA6G+ABH7YfdBxH6u+34URCN6BqI4jHiHuwaiChhxx3QfRHEYcUCmgMj+7QcYOcMIE14Xm0eF2JQUwdAGNIhYDIxugYi3k6g+PXZPef91DUQcZ3FFQcTx3kCcZ3UQ6hmI2HdaQqgSROyfVSDKPFkX+7nu+yqEegUiW9JHARDvVBREdNBhg1TAyPtBKzc6d04MRnVBEAQMgQhfPHLgcVBWwcgP6ioYcQJBtmZV9qjxWnUMIpf8vip/mMjGpKhTM+3O8u3X0QhEvGyHNxzYZTsAOU4Cmp4IlPuuAkQcC9G44fiKqwwh7/ZtjvME+XnDeWZVAaFSznJ+J0AI3qHerMC+UwEiWUYDEftgPYjYZ5uDiP0eKn7Q2lcgQqG7bAd5Z+IgKmCEBkKJH/t/CxAVJX6agwi3PY4dj+AJO78eRqj7NNOsmZ09ccBxcGogwnIoXeJDKAYiDUZY1pU+CZMtkJLMKFPSzBDKZiJmxkaTiw3KE5b3q2+3USdlarBcp8uj3htPT5WtV9fB9t3y7ZZFn2HZJsvrfRf2axADigoI4j3HWCiOWxd7btkgzmuEXJG8wXvOMZtnNSCyy1oQ6TBiL2DZG5Cy8j5NIGSfNLBm9sSAcVnl7R6AaPRYV+InBFAIIQaRqzXqas2pIBrRIxC5ukRZcbxsR1NAhEaQKq9jbWegIfWG0UCERgdA8qKntnCq6wjuHIg71i47foYZt5bAJAsUJRhccBUQwnsLEQR1JlfavQwiF6whiCzA7HIb23pS+RmawChLmiBBKJmQjBYmKUlZSuZZdrvOjGAKaYZgZS/LyLJO4ydkZqWYTmBUMJEJzgjXsfXSsnUknp37Joqioa54Z5Pl3bJS661U/FOZX5MrGloULW1i6Hb7/razenM8nz+//7kA1B67V72bl5N5S9OygrHlYw/bjt9Dsb7DewFQ5QjZO3nxY6eYX4m1TGHcunW43KmJe082b7KccSdhWGc5zwQSGogkT7Fd5K7kbAqEbCmw7MQVfpFXaoh4DvuV+A6WF8my7HUBgKIQKvttUXnbndwXnsyjo9DPxeelCLYtmor12gFKH4DIHkB2QBqEYiCyI6Cs4isOmhtFl9eAGXAERO7sIH1EJFBxAKk/M/FBNGTaIebNh79g3nS0sXr7fr+0gVoKvIhGj9/ErDH3LPPOBd8ybzn0KbPCUa/m68E637Hv/eY9291gRk/aNgBRGUburM4/Mxyx/t7mPfNuNu/Y5z7zlsOeztcr6377/r8xq+z8CTNqvd2dqcBwsHx2mYMNIKrsO57CxELTGbHhAWbl3b5o3nrwn7xjfN285bCnzLsWfssM3fQkd1Zt9yE0viq5M2p5lEHzS1xihu2Xd98P+c8j4nmqJDCRoqdNjl+O3a/6zfPUqdx24eeFwpMI7Cuqwe83ejNz53u2Mg+9bTvztxW2N+ZN86z++ubtzX+/Y1tz+WpbmE3Gzg7iooBRtn6OLdK0NWeZz628Vb7+/1xxmxwkMg8DJ6a1xm1kjhg2x3x2la3Mn966nfn7Cm6d0LNv3t78YMWtzVlrzDVTxxblfHzJTylkROTmSR8N2XnHOZhsNXqWuf49m5uH3rZtvh+vv2me+eNbtjOfXHkLs9fQWWZUMCLCZb3pZs3x3qNvUiAUBRH7awEjW4i6AYT80RDW40ZU8nkfgKi8sRBCSTAaWz5YbhwVRJncaEfvAO4khpEdGWXXa6Wjo8ogNGqtTc07Fv9XyeTfvu8vgqBjGI0eN8usuvXl5i2HlgERE8Cx6tbLAhDxyAgaMutEs+LiHwfriOqo18zKu91jxk7cModQIxBZubPTAEJrzzbv3unjJcDqet28a9G/mzHZPpTMLjBEXfVGGtf4/OFw4WepAgx4WqqwbYinp6oNQH05oIXTIe4PEfr7sOFzzQNv3zY38Cq9uML25pLVyw+5Q+wUIyeOqbJ2HjXb/Iq29aMVt8mXZ9DEBACdMniuhQ/voyZA6V8G0fOFSiOjjYMTzDoIOU23V38uXm0z84oHQU2A0mfetYWZMIZh5EYsnUNIB5GV9U4GUDWEWFg+dlmuJyAKNqbsVBWIBEZ80EHjVMAoaPgGMBII1YIog9G7590SmGodiIZOW2Levu8vg+XcCOEZOzKC3hSY9+vm3TveEQXRqMk7mJXnf0lZr4ONrNeOvI58OZjnHfv8zIyZsEVwDT5dIYRWnv+VYDsrHPGS248lfw4+wwiwLYxiRtpX6gQEA1XcD6KZ4zYxX1l568Awoaffsr3541u3s/JHR6K7371VDqFUvX/IXHVdABE+Z9jEtPPI2eaHK24TrAdG/9hbtjOPZvvtj47kcwCDIWRHRnQ5Lg1EDkI3vXtzu25/Wy+ssL3djyffEoLyP1bcKoCRVSqEoiBiXy3kPDj05NC/Q5/P/d7+HYAg0mHEB9r3IGIF8PG0xiYn57B4yyGP52YaA5HV+E3Miot+4Jnv6+bt+/+vWWPumWb02puXAhzzrrr1FaXLfgDKGpudqcJo9IStzdsO+K1n+H8175r/ZTN05tFBQo5da5YZNPcj5q2H/KkEglV2+XQJRJ3AaNXtbyit++0HPGCGbPKB0jyjpu5h4emPmN61x9cC40uF0T/VPXH7+7p+1S1LBvng27czJw3ZzKw/rvzd4Pi1ZpnDhs21xuqb+pmDNlNiJ9Sk8bPMze8ptoVlf/6OYlRkQcSxHRFGQl99V3FZD+v6yTu2MUuGbmomjit/N4Rn/JwyaI75y5sL+AFORwzdtAwiBUD1EHIg+tDqc0oQ+tnbtzGLh5afObTRqJnmxlU2L42Y7lhlc/d9TQRC3QQR+3AViNjfy2Iu9DmI4jDiAxEYoWH4oLmBugqjyIioCkQj19navPWgR5zhH/myec+21xaGWwEiBOmIybvaZd+85Dmz+tyziwD2bwX1NGTm0SUYvWPvnwQgEhgBOhhVrbLTXWb0pO2CZGSNXHc389aD3XFA2KeR683vGEajp+xU+l7KjnQmbBmOmuzIaZZ5zw7eyPKo18ygzc8OzK8ORv+XR0TdPnZud9aktTYx33rn1vZy24cHbR5ekiXNGjvbPPC2AiAPv207M2U8PuPYKbTZmE3MT73Ry2tvmmeuWG0Lc/Yamwcgwvwc25o2HjvL/OZt25pn3rK9ORJQUfLI5lI20tltxCYlGH17pa2L74uyu+S0ERHnPUNo/TEz7fc/st7/WHFrM3FM/EaFM1croPX3N80zSwaHD8ArFHpeNYjYT0MQhZ7Mvh36uw+hYETkQeifIFJgxCBSYbTmTPOu3YpLYO/a7Ytm9blnJoFIYDRko2PN8PX2LAdwBETQKjvdna9/hSNeNMM2PCBMHiXxUrT6lhcWEDj6dbPGFucFIGoKo9W2u8bb35fM8BlLAnMqaZ3ZZqXFP8yXeeee9wbmVyg0TqjbZtxU/yggCttb1zZjNjW7jdrU9l8diCCMmMR4X33TPHujAMeNaMmwOfa7GZn/hTdvb44bOtfGYScgghaOmG3mjpkV5A9DSIBz2arF9rAf247Knsaa5S2DiPM91HTzwTUKsPx1he3NjsM3Dn0mEzwID7r7yjuLkeHn3rVFdhebptDz4hD6J4gqYcTiBuoERCqMCD5VIMIoRgzzLQf/yQyfvEtjEKlSACQaPOsDJVisvvm5QQK1hdHIKbtYuMn6373jnQGEGoFo7U3Minv/NF/fuxb8W2BKmtbY6iIPXi+a4dMPDsyPxSb6T7UXt22tlD6s0kZrzjbPe3A5b43Nw9jJNH/UpvlIBN/Z7DVi0zwONRBxTNeJ80YDkeTe4uGzc2jg73uHZJfnOH8TQYTvhr61UnGJ8K6VtzBjFAD5IILeN6jYD3yPtPWIjUIf6+JlOR9E7SFEAOozEGHFvNFgx6pApNG3+zDizhMYaSMiH0bDp+xRXCY76jWz+pyP2GVCELkfucbEwSuySaKAaMSU3TwQGbP6lhcECdQWRLiE539XFANRKoxGrburB7bXzRpbXhyYkqYxk+eV9mO1ba8MzU+RGGk3RwVt9EYeEXGb1or6rn5EtLHZYNwse3u3GPBFq8dBhFg7athcc+9KW5u5YzYpxaAGIruMEtsxcd7EIARtPGbj0nc5xw6ZU85ZD0qc56Gmm+mjZ5rnMshivccO3jSAD0MIWnf0dPPQW4vLmyevsakZzR5WBSL2xwYQKnsye3bo6wyivh8RqSCKw4gPCOJGGCggGjVuE7PiXj/KjXKVHe7MA+bd29/YCEQxGHESREG0hQ6iNjDC90T+HXqrbbM8AFATGOH7HVmXHdlMO1gxplAws5UWfT9fNnbTQkydmnGn6s/tt9k2t1+SlH6TvuNpZaWDiOONdfYaxSW+NiDifGEIcQ52D0TuTtslQ8ojm21GVl+W83WPd3nujpU3D0DEPtf/IHL+XwIRQWhAgEiHUQihPoGRAiBf797Og80+95lR4+d2HURWCojWmPOhwtyPfNkMnXFUkEhtYbTqtleX1j1k42OD5GexefjCj2hlfW895DHFlOJaZZfP5Mu+Y79fhkZYIzbbf0oXt1uSlP5Kk4uLWWM3ye/+ghG/b+jcIHY4zgKN30gFEcd0TJwnGog49w4ZumkODtycMX/4rDBnlfwO5UB0pne33O/fum30shz7D3TFezbLl/3RO7ZOBxH7YgMIlcVeHfq5BqKS+gxEDWHEB1bVENxgXQVRVvqHOx8aPP3I/HITbosePPN9paApQSoHUXMY5WdXlAwr7/LpfP1vO/B3RdIoCdUERHzXHH4Im3/OJpAII/+3QxYmdjqbUyicVb/H+13Wmw9/zn3GhhiRXwGajbcv1GZU0tfiNkuS0les+IioiIvTBhcAwaWpTcbiVu9mEII0EKXCiPOEIaSBaLl3s8Kv3r6NGavkLOd1qOJH8Dd7vx0CTGK1LdmDIP/uuWfevF2fgQjzNwdR4f35iEiBUE9AVFTfZgilgQiN4H7Fq4+MuMEYRHmHtISRX1lBNHL8bO8HqK+b92x9RRA03QIREpJBNHLSvNKt0LiDTgORJGQqjIbNONy8ff9fF8Z/xIv2dz75PGwEinwjkV+445KarNPdqCDzsEmVheoAgzY/J1+2dFmPzVGRq35dvGcTrlNVdYEUocQOT0tV59uur6zA7VVqO2xbq6Ct9JMmbJ+n+bExYfzG5ocrFbdif35l/KjVixt+npCmLC4ZRKjzllJZgeHDeaNBaIOxG5Vus1626mYBiHAMnNehChDdvkoBNtyosKZU7K+BEHTY4E3KNywM3yifn72tGkLpIHI+2RmI8soKCoR6AqKRtvq27GAaiHwYjRrjqr1yY6TAyNZFWtPVRZLifFUgYgjZ6ts2KBAMRee/a9cv5Oa40h7fDCBkQVS6NPdLF1gNYYREQFLxqGiVHT9WwOLwF8zQaYfa6flZXAYdm5BZwsZgNGLqIvvj2Xcu/HbpeyGMPobMOdWd2XISsyEoIMJyYqYr7vPfERDpQIIJYfm1JhKIjnzFDN34+GJeNkkCTqnWnfJ5lVy9t6zwZgsgSL22NjDBMrLtTpfnzyBuL5YsLyDLPwvAEsrvOwEKQwg6ccjc3HxfXWGeOTK7dduPGzeqCmPMhxDkg8jWmstLBIXwETF8/PzI80YB0dLVikthuItvxxHly3KSs27+MLcZQtC3vTvm7gaI7Igsm68BiF5aYXuzYBj2J3viQAxGAYAaQGhUUW+u+DwFQs7/Xb259a2n2wGKAqGegAgVVqXKqj4y4p0tQISDxA7bSq1ZAzKEoiCSSrHjXCFAuce+EkTZPHJJrlS9O+vY1XCrdl494TEzdN0FLrgCEN2UG+g7IiCKBaoENAAwHhWAvbMz/JjVv7UaUJIkKUCUJVOWkAKjEbgJIVsuJvyA9d07f8KMmbR9YQgwj0QQQWImYob1ICrDCHXesDyMfPAWH82XDUCkAEkqSKNO29p4FEJWL47NtrRMYORFBe42MJBjt9W3Gy4vy1ZVv2bx59J2Pgj5mKWttGm2zt1EH4QEG3of6zsfJiK8x3dDv/NuUvj0Km40ZOPGA5Grnq2MjAgqDCIUXbV9rsxbBSLOG4l5ya/5IzYp3W6+dNXNAggVOZtVwFZzvAJEq2xhxlH17FLVhBoQLRw+K38MBNatwiiAUBqILITypyJkj9ZJBpGDkH2Uz6gN7O+g7AAlAqOug8htvPnlOYaRO9AQQpUwyqq8OnpTw3PnCIxoZJRXsR07zQybtLP9nZA1xqNeM6tufr6dzhCyIIpemksfFeVnV9l7qcCQr3ef+4IyQP6oqBgRuUSrAxEqMGBktNrWy+wt3G4kEUlmNgcSTE0MJQ1E4ciodkQUgZFIRjM8PaaymYsR66OKOokZ8/RUVY1oUiQQ4WNMkV1eAM7tnCj0Xdi/rkQPKjCI8aKiwuZjiu+G8hMZ7IsSV0EcRi/N6fNasCgQymGU5Zy9pO3l1UZjNrYVGGQ7319xazNprP7bITciyi6vBWIfKIPIXZrLAFYzGtJAtGAY/MKtl72tEwj5khGRD6BqCJW9346IcGlOAVDPQJTvCDYQQKgeRAKj4oDDhqkCkYNLOohkfn9kZP9fc4ZZaY9v5Ka48s6fLAVEL0BkYSRnRmvNKVX1Ri274VMXBZcOeGTkJ96IdXctFTqNF1N1po8K3GPW2SJI5FxsEgyj7Ow5HURlGAEiySAS+YbagRFDPNJoqrYQc8u2374cuzuRaKd8eW7fRPFICBq/1sbmVq9OHEYXi0egEkMYNxDHUxB/mRhE7vbtcD6IwcMQKuVNlk8T1tzIfHMlD55v3dbMHRWvsI11cD43ARG+c0qBkAqioe7Wb3zGvtYtELmnZvue3AxEAiOGj2jYiPV6ACLeUACiOIy6AiIrbvhqGGkgerdfO26f+8zI8XM6BFEajGxQE4TsXXqzTgwAxCDiRCslHSUovitadbvrSnfMQe/Y974OYbRxQxAVRgQzawwiUQcgys1YMfkmaguStirteyfHzm3ZWG5UUwUhfC90wpDidm2Om0Acd566DSI/lxhCFp7DNgkA5I9+9MtxOoQ0ENl1dQAi9rNqCLUAUea36SBiv888n9kwUEEkMAoPOmyYVjDijlJghGAYPO2IvHoCIDBoo+ODgGgHomoY2QBfe65Zac/vFnA46jWz2hYXB/Bh5Wd3FUDiJLVaa5Z5907FzRCQrcDN85WWUYzDk3/7dhqInAIQNfgxLNSRGUfE5l+lXoKI94vV6tiVNmyuou98CF212ha52cI4L/Z+vMrxoopjzlMqiDj+c/m5QhD6oledG9W2Txhc/vFqOog47zONnW5uXqW4fbsRiMZod83NDLysGkTsk/UQ0kDEvt0WRIDQ/z0QVcAoHxWN39S8fW85o3/djoyCgFBg1A0QjVprjnnnguJyYA4hG+whfFh1IKqC0TsXfDPf7psP+3P1qMguo5hHDqJ78nUVvyOqF8xM/R1RovJLS2y4XRQDwlc3QcTbrVMjEClt11xh3+EvIHTJ6sXtyY0hxHGmKAVEHPelHIhA6O5VihFcKoTagOiG4HdExffSUWX+xL8j6kWBU03syezbAx9EDWHUBEStYMSdRSBafU5RM65bwp1pdSAChPzvpFDhIIeQSIGPBqI2MFpjs6Isj33m0dwzg3kCsYlkeo/3HCJXWSGEjiaYmV9ZAc9pCg0wruA7DkMfEKYAAP/0SURBVDbgHgrwaAMiXk9bJYFIabN20vuOIYTHNlzgFTblOAnE8RVRHYg43jUI+SBiCKF6goUQPq+BUBsQ+c8hspUVkP+JILri3cXt5D9+x9ZxELHvdQAh9mT27FoIWQb8Q4AoDiNu0LYgEhj1HkQhjJIg1BBGnIB1IBq57vzSPuPREDxPIDaSTINnn1Qci728dlBgXJpgZist+o982Xcu/JZignEFIILYjHuoJBj0SLXb5nZprbDfoLXWntUZhPoYRG0hlAYiBUAZhCA8/M6/vIZac6kg8mvNffJdm/8TRI1ApMKID6AdiKphxB1RD6O+AVEBo1HjZpl3zv9/+bx4ds9qm50bBH9TEDWFUSsQQWwmqL49ZSfz5iV/ydaF6tsXBcaliatvv2eH2xQjjEsFkYiNuQeqhUEPFd02t0NHCvsMwkjovEEFhHBjwjk9ghBUBSKOcw1CAqLxa840t727+C4Lzxp6X4tHPCSByLuMv+GomfljwAGkYwfPrgZRBqF1R5Wrb5+76pw+AFHoyezZbUEkEOpnEFXDKBQ3UAqIIjDiTvPkd3xJHBye1O+IJPA4ID0QaRDCc4ZscFdJARCrKYxW3+qSYj+O+rsZvOlpgQFUioylNLJJvGGh9Dyio/5uhsw+OfuMDVFXJYhYbNhdUBQGfaDStvlYu6KwvyBA6FzvsQy9hhAUB1EY47loJFQJoY5AxHkeggj6kjeywQ0L0R+xeh7kP4/olRW2N3sPidwxx37XGkJNQcT+7vv/P0GkizuvAxBBURBFYDRq3MYEob/aZxv5Qc1J0AZESTBaa5ZZca8f5PuC3yzFblYYPXFbM3TGEWbY9CXBZ765rL6l/5C7l8ww+4TW0Mhyrb2JWWmv4gmtbzvgwXCewBzLagQikWLqbdWvIJL/+fg6FvdBIQ1Cpw/eLP88AA6L4ydRGojGrhUfDdWNhHCL9uF4bHgLCJVBNN2sO2aG2WnExmaHEag/p0MIOsaDCp7QusPwjQJP8b1ozJjyE1p//va++37IBxF7dVsQ+RDqWxANNBhx5/kwYgh1GUQxCHGAN4XR6pt9tPR7oxQQjVlr4/D27Z0/ESQ/xJW637H3T8vzeCYzZsLm5u37/aqYd9/7zZgJWwRmJvIfHYHLefaheMp8oVF2UYrBD3jxMXRN3O5ldQyhLoMoiGsFREkQioCI81LTzNEzS9UYvrPSVtHK2uuMmWHvmJN5/2PFrcyEMcrlucx//Lvl8Pfk1Wc3ABH7YTMI+WKfToKQot6DSEp+KxsPdlQBERoA9Y10GHFDhSByJXu48blj4jByZzAKiGpgVAkiH0bjZpp37falEoQGbfIveTDjEkMSiBQYiZmjUvfKu37BDJ59qh3BaDAaNXEbs9qWF5q3HfDbEoTeevCfoqOhVbe5sjQv311nS6V4v5C3d+J5VRzedsADtrq3b2ij1tvdrDz/S2YFbz78qJaNryw2Taei1llzoVgn6qblI4sWQpkdnpYqqazA01Up+y937PH0VBWFQyFu71C4/OZD6ORh7S/HYRmpj5giBpGLu42DGPchBKGUzi0Eof2GzXaX9qSyAudYAohczk43p6xRPLfItsub5pklg2eHXpBpyeDi+UzQz96+jdlr6KwShGaOnGFuWGWz0nzfW3GrHEJSfgfz6xBiL2wOIvHVTkCE+qN9CqKRo9d3RU9xkAwk3tESgIoDdtW3XQPGQeQXRHXzj7IFU6USLXdGNYTQkajaPXY8DL4YUmsgstW9PeF9dfXtQv4jxTvVu3e4oxj9ABSlUUUh/DjXL/GD3wnxPNBbD37UjJju7nDLTcJTedTitMaWFzoj4UcJZIajLYNLdXZfloT78dZDHjejNlgcGF+ozDSzS2IQ6p2Nn+D+TwUS5pNbr/2Co4H5VwjbwyMo8sKfqUDJzB/LrI3l81p34XxWsf2Xfc8rh4fzWfF0b/vlgqfc1mXhOUK+4Xaiu9+9pX10R2nbFHcci1z0FEVH7eM/lBsWbGX6DEQY+XRrvy9cba5bL2o82jp3M83Zq88N1n8MQKT4AASfOsu7lVuEO+kefeu2+Q0NvlBuaNMRuN1bvMgVaoZnVcPIV/kkveypxXvfj93JefZZAKEIjEa4uqMoeopac37R056DCMBw1bex0WajIv/gmco6jDxly6Fyd/EYiJpREYEIcuXYXeHUYESUwUj7YpGf0KoOybsOots9EM00g+Z+pPTcolThdnH8fmfsxC1sUsEM+CwUwp10vJx9mmt2VuubiX/2u9rWl9l5ebusFfe730IoxQwLFTCRoqdNRwYlM89BGhGDwQOhLXpq/1cgUiG77Wz77vdF3voTZEHqQ1SZJ6q87eR3UJjObVxW10GUwRDr5pjTFIyIACLAwLthgb8XgroPIndVYhy+nxo3wxw7uLx+eUxD4AN0leT9gze18/I2WBgJAUKlk2d4lh21uZPmwOMC8LQbDblC1O6zWgB5vi/PpwOIpBA2Q6gnIMKGgpFQIogERnYYl79ncYMVkkYLIZQGI7k0J2cWAYQqLs/VXprrMYggd/fQLPs9Eb7necc+P1eLnNoRySGPm5UWfstenhs1aVubvKi8XWUGY9bZzLxr96/Z9eGS4nu2v6n0uVwiKS2XwWjkervb76LeduBDJSi9ecmzZsXFPzKDNjvLXdpSjC9NXbo0p3yWKrf/4fQU2ccpNIWIv3wbCFm59nMwL95XqasgWmVLt32OmwoxiDASwjq0S3J+fnQbRHLVA3mHv+uMnWHuXGULW5UBl/3OXm1O6AGexDsAsY1GzzQXrjrX/OLt25i/eVB66s3bmX9daUtzyOBNAq/KPSs7aQ68LfC/5iASGGF9IYDqQSTyL80xhHoCIlkx70g1iBhG5f9DcaOVYRQXd1TYqQKhKIgqYCTigGMY6cq+Ewp+k1CIr1vHvivSVDpDVK6lF5cywsTvSPzdQERihmx6TdQWQt1Sf2+/ucI2bKqi/5Tq2b44LjoUx60GIQZRVJxPid8NOeESm/tbEud9BEKq2G8ysVeVxL5WAyL2zRiEfIUAikBIAZGdNwKh/gFRFEZ8gFUw4obrHohKUIrBiAOnCYgSYBQTJ0lbGHHilkHUvzDqnth0/6lC3FbtxP0XFcdDh+KYZTWCEMS51ABCUXHOp0JogIKIPbkSROz3nhhAPQdRJYx4xwlEfODcKL2EEQKhDKMwIDqGEQetp6oRUSWMOLkiqoKRn+Sc/B2LzUkRTLL4v7n0ERWbcO/UnyOi+m1zu7QX9xv3XUkcBx2KY5Zjt1sQagIiN28ahDQQYZmBDKFqGLGPK35vPX/9AD79D6IaGPFBc4P0JYiiMFLgkwyiChi1BlEXYOQnOhtAV8QmVWNmbIB10kEkYmPuvuph0DvFt83t0F7cX1V9Z8X93wVxzJZit48vyakg4jxXFHhFDYjYjwKxn3UZRJonN4LQGxVEmrhxwgbsAEbcsSkgqoGRe2R5GIR1IHLioC+Lk6YpjErX0JWk7k8YsdgMOxcb9T+q+Lg7E/dLrbjfuyCOT1Z/QCgQ53kNhEpif+kBiNgnQ7HPhl7cCkQVl+WGDe8xiCphxAfggUg7eG6cOhhxB1SCyIMRAoI7mgMjBUQORmEg1sEoLRFmmIcfftTw6/gTPhQmXEQajLRkZzPomti4rOEpZ9WKKcZUPSJisXF3rviopPcqts3H2bm4PzRh2/l77usuiOOSZefz4vv3v3+E08O8/6QzewIit4yS34kQwrKtQcQ+VgGhehCxv5b9lz059G/F5z2/ZzYMDBBVwEg7aG6gzkAUh5EGorYw4kBUFQvqIPjLAoh++atf58nz0/++3zz6x8fcewU8mlJA1JcwKpmZIjZIVjMQsUJzb6r+AVE3jl0Xt3+VsC9B/3ZJHI+s/AYbAtGv/uc3bvlxM81Pfnqf+eOfHnfvFfi0hVCvQcQ+VA+hvgIR+7bi7yRmw4AHkSZuoM5hxJ2ndHRfwEgJ7EKcBGkgwv+/fejh/Ezw2WefyxP06Wf+nE//299eNnssPKT2El1fwqhObJa9EZv9QBPvb/fF7V6r8f00Eop8LxQFUfb/bx/6fSk/MB159dTTz5TyY8Giw2pB1AmEcrGn1EGoBYjYH+sgFMKnPYiYCz6EegSicMO8U9UwcnAJDzxsJA1E0hn1IFJgVDEiSgWRPbtBZYdUEBGM3M0KaSDyX4CQJCRA5MNHoPWJT36hNN0fGdm/2dklJ3sqjOSHhTy9VpmZ4aw+MLiI2DihTkcF+vIMgbhcmZl2wrarR1S8X91Vsf2wrWuVVdYI+jVRLm7C6Rx/mqpA5L8EQjhRA4gEPngv0Pr43Z/L84PzrQpCdkTEOd0ARLYSjAIj9p9AmW/l81dAqA2Ict8NPJk9W/F1ghDmCSDUSxD5G28DIhw0ahMxhNqAqB5GfCZR1FQKOj0BRvYGhSw4S4GmBGYaiOIw0kZEklz4336WJaUPIBkRHX9i8X2SJLLU9eJkT4VRzFCS1BBEIjZTNtgm8s24WgyJDCZdAxFvr16dLOsvz+1bq7zvuwsijjtNPoTsMjUjIskP/G8/y0D08bs+m+eHjIhO/ABXww8BlAoiBk9JY8Qf2kEoFUTsk6HYV33fdfO8oUDkQFLUmauFER0QIFRV6ZUby4cRGhzFTl3B0+YgQme6GnFxGAUAyoSzGizr6k+5wG0KIyyHhMyvOSeACP9j/jM+dIH5619fNAsWHmr+W0CUfV+kjYRw2UGmCYT8Ej2c9HUwcmbmxKZSJ1eaaGNbsFSMMTC8iHwjRb20NJCwHARQJie13hrLbT8rWKqARlexbKfbluXbwMgu33REFOs7pX+rhFgp4qY+9gIA5aWtqr8jOv2M821+LFx0WAlE0F0ZiOzVgCy/XnzxJRodhQByEHIlftwJYZjXAXh8T8jmt56R+04DEGV+JLUx3XT2uBQQsZ+W/db6aubJUi8uEPt6phGZx48a40r8aBDqCYgAEnvw2OkUEHkwwoHiERAosIfaRGUKV4EIjeUqIdhOyYue1lyi884s5MykCKh4MNgAIxAJhFy1X7eOAEQVZ07YLpLC1tzKztR8GPHvi0ogGjfDwgeJg+Xlfxkt5aMnunzx3HPPm92z74iQTKhiDDkzCQ0gBiMxk/G2ijIMrTCVFGGffSNvcnaeQyRbvo2Zi5F3uvzaqP7dcHl/26nb58+l7epAzJ9J+6HtyiDk33P5d8SV+zXoO+p3ux2lz91nWtw0A5GcQNmTKKxXAxFdjpP/XTXvmeb3Dz9i/ud/fpMVLy0uy2Ee9x1RCCAHIeTsDLuczX3J0UQQyZMC8mVzXwk9J4CQfdqAAxAqb4vfaDAKwVMNIQGRXJ1CwVLxZPh6KoSwjpGZbPXtDGJ9AiLAJ9hgIohyGI2pKrAXNpqTa1gpeuo3NndMWeVRUalDI2IIWWVnOBqESjCqEAIbicgBLzBiEPHrhPd/2CYXLs09+eTT+XQ5s8PIyH8xnKxBSTIrBsDSTMWVxA9NJ0U4qy5NU8BTJTsiqDDiKgkQ2KxTJWbM01NVjGjCz1LUZN+53ezy2QkAf1aS0mfRvmsgv3o2xxjLh5DELdZhAUYjIn69/wMfyaHE+QGYfOyuz5bmB8gcmDgXM2V560ZEYT5z/quyJ7GZZzQZDeUn0O7rBPfoHPa2diBiv8U6yp6cCCLvshxGRLHRUE9AJNApbbQFjNz/YaPUgUg6iBucOycGIxsI2bC3SgGIPBgFwZYIIguj4DsiHUSaJEHz74j8W1NpNKRp7DgHoTzRFSNg+YaiXetvImuSPJ3NsEKAUOl9Q6UaeUydLG9HEx0uz9NY3F7ltgpHQiVxv6T0XaIkZji2WBqE8til74hy0e3ZAqICMu6KAl9xKMR5WIaQzVnMp+Qy53+gzDfyeRtCqORZ9jP2NYaOJvZRxW9LNys0g1Du/fwdUV+AKCbe0SiI8gMOGyUFRpq4g3oCogxGVeJgZdmg5qBPhJEkmgqiBBgBRO5vexh1oqiZsSlGFDNSNuReKQUGvVLVtrk9Gov7Q5HdjjI9RRxPmqogZGNWAxHHfwREcXH+6SCy87aEUA6iFqOhQuxnqSBi/9RBJH7bEYh4cNJzEGHFCoRqYTTQQNRfMKpLgCBZQkVBVAMjAZH7Px1GbCxtVWtmbJCkGIjK8/ROVTDotXjbfNytxO1fIbtNZXqKOJ5YdRCy8cog4rjvJoi0nG0CoQiI2F8CBQDqPojYZ8sgIghVgEjz/RiEBhaIPBiV78wIGyUOos5hVAJRDYwCAHULRPZvTJwsoTjxAimJ7OBTTuYmMLKGoZhMEyWZGZulpxQQlefvrhgGfSnZNh9ja3G718huW5leJ44hVgqEbKw2ABHniy7Ouy6CiPwiCUQBfLoPocYgYv/+xwZRUxhxg6fCqDmIegIjCWoO/j6AEYPITes7GDU2MzLPpiAqluuO+hNEbY89ELdxorAPPK1KHDeaUiFk41RAxHHeCkIQ51wEQgQiznNVfQAi9r1Q7Juhv5a8NvBkxb8HHIg6hFF40GHDxEFUDSPuMIbRgAFRJYw4aXRxEvYFiKyBKMaToqZmZuWZaDfMODT4dPU1iMr73fmxB23bQHZ/lOmaOF5i6jaIOD/i4nyrgFBTELFPiFe0AhH7VyqI2C9bgIh9uwJCJRApEBo6fN03NojiMOKG7wBEfQ0jL6iDRGgII07EQJzMCoiKz3oPoyZmFqhbZuyJjb9OvQYR7195X1seO7djS6XeLclxElMTCEl8BvHdCkScZ+kg4vwOxP7g+QR7Sj2E/gmiWhANlw0qO1QLIxVEcRhxY6Z0BHeaL/khbCAOjhKIChjZgEwEEcRBbROmFORVUsBDt6FyMgYqJXMcRJLsVUBio2ETqpM1W2V6qurMuk5NzJwhAXUKotrf8VTI3X4dTo9KazulTVOVsjzHC8dKGwD5sRnEtifOlVKO2N/+tYRQlrOc16oYQL5PKL6SDCE7X2cgYl8tS/Fk9u0KCOUgikCoZyDqxqgoFDdOHEZO3PipMOIOrweRg1EkwGrEQa2KkyICopg4KQMpiR1THYxYbEZ9Jjbef8qJ26mPxHGhqS2ErDimEyFUFudXGoggzmtV7A91l+NSQdRTCBGAKiBUBSKrNxqIAvr2JYiqOp+DpBcwQkIogR4kRg9gZA2DE5zkm0UqjKzJKObESr28E5N6Vs5G3EM1GVF1W7Xb5nbpsqr6jmNBUxBXTZT9mDuIaSUP4uK8SocQ5uGcDsS+YJX5RuzSHPtPAoS6DyLnvyVPVjy7DkT2s74Ekd0h+RVtCxjZ+kaj8SvediAqOqMaRtx5orzgadD5SqAwiHKoNIORH9SofRUEeiWIChiV6l21AFH+C3dOdJIGItSmc7W74sbDBsVCvTGe1kT5LczKZ4ExB0aOemUNL2+RUGaHp6UK24Z4eqrssWuX9rgdIvIL3raR3ndhDGiSuOkEQkXh0eYgcmW5IjDiPFSE4+ScDhRAqICPgIz9JPCfCIikrFkbCKWASHy1LYQg1KiLQagnIMIG8+J4dufisgcqB5JV7caytkBeBhOfyI7KBXwYROiMMbYKtsAEHcWdSGDxOlMKCEo1Wxss2bz+NVyp8F2WV/hUyvRYyGSSYqwCH+895nXLoeipK6BoE4MgJEUSQ7liq1jWLl9zB9HYTPl7KR6Jml/WkPQftqrKALOmLZgqZWqyffAgJaZk5xXjyeS+H9nYrOUVTJV5kpQZMeqd4VEMDCR/e/J9jBi1fW/rzM0ya0m9t8Tvetzy2SMcsLxU3/aAoG6PhGWwbcg+SiJh+8X6sqKvE8rVu9Vj1yRt59e643n8vuL3St9J30u/VykvfOpXbecYo1j0YxP74uLeq5OoxHxM/glUFEh8Mpi9t+uwFfOxP/L9bJHb4iOa3AmoV5/S+k4ZSAVgivc5iLL31rMyH4ieQBO8AhBlXspgkkEB6sQVTzRgUHkK/N1BzHozls1AloNoRKZegAgbk8dA1I+KlNFQvtPKnRp84AQmNBSK/0kBQNcIfFZQyO8c6VgLMYAl1ql81uLBSR4F4QogNhwVZUCxELBJEp55BQniySaETariTJHP/KpGRjap81pxyplnRGIOzhAcyOqKV4qJFWbmBBi0qVcn5uwgUphhkjwYNH4UQg4DBzNUv86330ACcUggxPNUCcuPUyCUKjn+Nstrfcf9HZNAII+bhNF4Lj9us/1gCHHss3KQ5IAjCHH+sbL57FWM7H/Oax4F+aOh/ARWgVDgOwpQchjJYyCUGpt1IyL20bKK0RBgZJeJjIocfNjfXY05CJ7u5u2jEZFsPIdQJYjCy3MCIzdKYnFD6TAqU587owJGpUtzFaMpBUR5UMgZDwcfB6giBHf00lwCjKouzQUJqEjOdIOkr5EPI7u8YjosNjRIv7yTrjZGKlpzfOeX5gADnpaq1pfmunDsdnkZaSmfpUj6jvs5Jn+0IyMSjqtK8UmUd2mO4z2u7CQuX45yinOPJHk7dnzFXXPsAx6IRK0g5ElOmtnbOoOQA5EPI/tegZADUejtuYaHl+Z8CPUGRMoXUsGOVYDIASgGomoYcUOnwIg71QWCvOdAqAZRGUph8AVBqsgmiBL0aTDiRIuLIRSIE79CvqnYM0vFeDSxmTUdCbE6MdJAbPgJqr1hoFvifR0AajQS4nhpKo5VTxzn1eL8aQ4hl7PKSCgRQqrYb2pAJGJvq4JQPYjYdxWfbgAifyTUJyDCSgMQtYFRDiVN3Gh1MOKOqQBRIA6GNBhx8KXCiANeFSdNIE64UJzAqtgAKhSYi2JAMbGpDTgxCPpavD8DUNynMQVx0kQcn4o4zuPinEmHEMR5q4pzPwVE7DMdQ0gHEftmLYQqQMR+zhBiMYQGLojQGF0FUQMY2WDgjuagqIcRB18yiBITIUiehiCCOInHrknJzkZQo8BkFCOKCWY2oEZELZRvn0GiSVm+E/XXsfv9x33KCuKjqZSYLVRXSdsX50tnEMJyPC3I+woIYf5qELEfdQahNiCy39ezTzcAUey7ob4HURMYdQCiOIy4g3oNonYwkqDm4A/ECRSIky+uKIhawAhqC6N/GBD1g/pj2yXI1ICotxBy4rjWxXnSDEScr37O5uJ8TwUR+0uPQMR+GYr9ljy5IYT6DURRGPGOxkDEChqlGkbc8HUw4o4NxYGRCqMwEOtAVApwJRF6ASNO6EBsCgkKjEcxp5jY8P6pgSXurzp1BCCI41ERx7Quzo/OIaSK870CQrnYV7oCIva/FBCxz2ZiT24IoioIDVwQafTlhgkasD2ISjCyQRF2dhgc9SBqAyMkRP6/kgyBOJlagAhCMqsjoj6EkW9ybH4p6nRE1an6Y1Qi6qttc59pfZeL+7+NOA4jAEqDEedHOoQgzlUtZ4M8zxV6Q+4RlSMi9qFUCHURRDFPbgAiGRExgHoOoo5gpB00N06vYBQFUQRGSmAlgSgCo1JQdwVG6UDCdXZO9EBsFDVqAiM2MzbBOv0TROH0bor7i/uq9J77vak47hSVYzeM57I4J7oDoVLOcn57Yl9gj3C+o4k9qI8hVAEi9u8YhAREDJ//EyCCuBN6AqIuwygP6iYw4sQKxEmpqxcgggJTUoxMMzP+rE7/BFE4vRvivtDkzxf0dxtx3Ckqx24Yz4U4H3oAIs7rRAiJPwSeUgOhNiBifwzF/ur7b+jJ7N9vLBClwEg56KCBEmDEHZEGo7oA4GCphxEHZtdBBHFyBeLkDMWJHhWbRoICc6oxM01skKx/giic3pnCPogJ89u/3M9txPGmSItdnubEedAcQlKSJyasJ8jrVBDFnoEW+E4TCLUBEftqNYjYt6sg1C8gkp2phBHvOIEoeqsgN5ICIr/RuSNSQFRUVYiJA6YAkb1TLgtODjgOzhiMbM0oLdiD5AhVJKmScAkwamIEgXnAeDID4+n552xSZGYpP4oMzbJQp2aM5TtZR6fLdr58OD1VUp5H3nO710lK7LSBUL5NvOc4UxSLW54exn8EQjK/klOch5qqQMQ+ECgDUVhSjH0nDiJZpgpCnYAoL7fWKxAN6wGI3I5jZ8OdqQMRlh05slwgrx5EBYzQ2FjWLt8QRiOzS3M2qFCrrhJIHDQumKQAoVtHGIQcpD6IZNm8bhUHu5IkZQihxE9mANEk5ET1k9nVuXO16sLkV+UDRswMpqKYTcl4WBlg/BI/bHQszURdvbOs+GUDueU7qLeWgcAvGsrzVKmTbbvlXYkfV3Q0/LxKsu+24O3abtvc1lXK+w77jnUq/V0lzF8UHZ1ZKsarSY1bOYkJyltx/Icg8gsVa/UdGTrlnHQqynI1g5DMV9SmTISQgCjzoqI2ZhxEIXhY7KkCIdQOzTzVm87eHQMROGB9fbSU+OkjEFl64uAzGA1lCFXACAc5SkYldh00MuKG8kAkEELlbqgeRujI4izCwQRFT/2gCIPAKjh7cUFlC57mAR0Gog1ghpAXjEiGcWshOd06+KyLkyRXVspeip5WwygEEuZd0247q96dCiJrBBmE/Ordmcmx6bABieyya6GC8yblApiK8bFQYFVMFCBqZcaZEbvlm8PA7rMteppV326wvEBIql+nLM/HJxCWwqM8f2w5mebar3zsZdjE+6LoO9TKc31f6ueKOLDb94qe5iDjGMukxa3LGRe3iOFiPo75MoD0vMmWT4AQJAWO7clbXuzYjY449zU5mBVV9O1yKSASz8quwhRPCxAYsdcxdFjspz6IspN7z5NjBU41CIEDkPVj6+M0MhrWIxDZjWc72ubyHBoAjRmMhiphVDSqjIj8adwpOYgUoVMdaMIAKCsOIw1CefApEBIhSRDUHPAlIDGEPBVFT5XkKylMapuU1pzKlzjYDGLyz2zZcGLikRHOqtnoUoV9TzHxmMSQ2y+fPY9I+SxFAgKenqq2+563XXZpj9s1JrXvlD5OEapfN4VQOW7dMRTTON4jIOK8oemce4GyvMV+Nx0NOY9xcttrBqHiBDqDxBg5qWafY+hoYj8tey4AhFGRvGfPjoHIF0ZEwUiolyCy4CHq8U6lwCgAUCWIChhpjc8dUwUjBIN0cLVCEAmMgoAjMYByVXxHVICoAkaSiPb/OoUJHUt6NoWYcnNTzKZK/sjImpFifCnC6IiNtom0EUMTtQGBv2wn22+zbKntlGkxMYRsH7bo9zxuZD1KTEEcj6zyfBznJM4ZzptUCHngwXrbQqjkGS1AJJ4lvhV6HEOHxT4aggiSq1Ps1SkQAgOCkVBfgEgT71wliBg+LG40D0QxcefEYFR0aBgEoUIQWXHQkQIAebJBzQEfwEhJJk2chIHChOZpnOyVYqNpIGtGMEMxJcUA6yRGyobbV2oDg26pyba53ZpIg5Dtvw5AVCWOw5jcvBzfJM6PiDjfVPk5m12OSwaRdvLaEkJlsbeFPhiKfVTxW+u57UCU+78GogxC/Q+iCIzkgIPGqARRNYy4g1JAVA+jMKg6hVFqInDyRMXJGIiTOS42CVVsNg1kjZKNTjHDmGImy0bcKzWBQbdVve2wTZqK+8WHkPQd92elOG4UcfxVyc3Psd0cRJxnUXHOpkKoJYjYp0Kxr6WAiP3z/wCIojDig0kBURRG3NApMOoERBUw4uBTxBAqBTUHPokTqFKckC1BJPMkiY0nQWJmbHipQLLLK9P9z3upahj0Vtq2+fjbKugLRXZ7ynRVHCuKOO7q5Jbh2E4HkIjzTFUkZzm/VbFP9BBE7H+h2D8Vn00FEfs6lfMJQORBaMCDqBJG3ICtYVQNotYw4gBUxAHdBEQQJ1FUnJiq0g2ATSMqNqAasZmxAdYBqYn5sml3QxoM+kqybT7O1tLavkJ228r0QBwjijje6uV+QxfGdDMQcX6pqshZzm9V7BPiFYGnNIFQCCL2vVDsm3UgqoDQgAQRVqxAKAqiCIxqQRSFETd4HYhCGLE4MEIpwdUBjHJxEijiZIqKk1MVJ3hcbB5RsRE1FJthHYyaig39jSo+rk7E7V0HoSRxXETEcVYvjmES50FEnFeqOD89cV6rYn/IxX7SFETsZ6HvhWLfVPyVxN5cBSEGUaD+BFEURgp8+L0qbsgEGHGHMYwQGNzRHBi6OLjSYMTPLbJJ0QBEECdVVJykpKZGwCYSFZtSRNZQtekRBQbaoSGzuTdVX4+IeN/5eJqK27cJhOz2lelWHA8RcXzVi2O3hxCCFABJnnJeB2Jf8CFkP2c/KcR+VAehehCxX3YfRIHv+yMiglC/gCgFRnzQ3CD1MOKGT4FRHERpMOIASwMRFAVRH8OonRmEhhIVG1QTM1MMkoHUDTPWxACIqVcg4v3RlDqfJm7PJgDK+0brO+7/CnFM1UuL3eYg4jyKiuHTRyBiHwrFPtYSROyrigIAJUKo/0BUAyPecQYRixukHkSdwSgmDpJQHGTtYBSIk0IRJ1ilOGEDcdLXi40lKjarFmLDZCD1hRgW3RJvp5fi9msDoKi43yPiOEoTx2tzAIk4j6LinMzEeayK/YBBFBH7Tyj2r5YQqgER+3EbEFVBaGCByIORdvDcOPUw4g5IAxGCI+zwVBC55QNxYEaEwLbJoQR8kBiKOMkqxclbOqvkxK8XG0yl2LQyWSNWpsfEBtrXRs7Stt9XgGm6jaDtOoRQqe+4vyvEcZSmitjlOK8Q509UnIsEIczDuVwS+wFDyM7DPhL6Tyj2r9DnQrFPKn6qgEjz5MC/K0CE+WMgGjJsSvdBhKJ2+UYrxDsvIELDoEH5oLlxYiAqOqQdjGzB07Ywykc2HHBKcCrCsig1wgGfCqI8uZWkC6QkszMiP9HZAOLCdnMzUwxHFZkZytTwtBTJdkv1yhTzrRJ+a5PXyFM+T5Hdf2V6ivLySMpnKbJVHRJK9DB4RCn1AauU9x33cYUkdoqio2FchQrjFjGLY2gLorzWm5JTQR4qIBozbnqQy7nYBxhCqI9pt1Oexr4TqvCsYpnQ42ohVAOiKk8O/DsCIQjL9ymIXLVWV+gu2PESWJzkAKRAHmoSjRojjUq3caMxc/jQ/yNdh0jRU+mYKvnz4P+w6GkGJA4gDjav+GApqPObEQrl86NiblblG/O6s7qigKJNlCzgpcqvFQocKkIyrDneFXAUGARJnEOonNSY15pRVn3bLe/mY/NQlRcuzYqmevtg170mqipH3st28+rZ2Xct4xoo+34G9c5czbSs1I49U5dRSWbEBBv7PqszZ5dvUDRVlrflebKiqQwEdXsk2XdbwRoVsBO276/PFk7NC76Wi5bmy2Q13WJt5xebDeYZVwCK35f6DuvCZ9TPLD927AmAFC0VEHJ8ZbHq/1+K2/wxFNnnQZyzyhBzRU8Ri26aQEhyjvPQPznE/HbZbH1u2aIitqaSZ+QgdOt28BIgFR6U/08lyEaPhWdly1Z5Hk68MxUQ8iDl+ajvq84by57sPi883Ffg8yOnmnFrb2Q2nL61WWvtWQ5WdNWsJyASoDjIhGSsGhXZZUc5GPkQKsEopoza5cdAVI+Kyp3FZyfNR0UIviJY+QwokwIxgRE0drwkUngGFpyteUISlM4slTNAVZSQ1rApWcNELssahBgClo+YSUwOFu6sWv7nM+4qCXCsEXvGG1MwSsjNUIw8nKdKdnuZGQtEeJ4qWRAKCBJGNSwBqYWYPf7wmEvHz+2Xjcby0WQDybZs38n6lT72VYodr/q1XacSX+VYLMuPH7ssx7eiWN4UIEkbDfk5K//nOc15zyez9oTWnfyG1bPrlHnW6OLke1TmV+xxhZSRUO1oqPBV8eThI6tGRKHHz9l8vjnvomvMRZdeby5cer2Zt9M+wWioJyByl+ayHWnxXREaAAfOEKoFkddoBYSqQRTCCORPCwaGUA4jOesJgq8aRCIkEwd9Koz80RgnX6WypHYmFEt8NodQFoLeM2HYgOrU9tKcyI1kivdswKySmeeX5kKjTxVAwNNS1Y1LcwKSmLi9Sm0nIy3ls6j8vltr46A/NXHM2DjJQaCJ4zBUvjzHtSLOGc6bXJx3BKFyziqX5jjvNRDlo5omEILKniXLsbfVgoj9MwBRMaopebLi2xD7+3obbGFO+eAF5oKl15kLL7ne/j319AvN1A22LEGoJyDi63+8c3UgEhgxhJJgxA2dACO9U90IqUocTKE4+NJghCSwf5UESIGRL07CSikJXhYbRJrYiKpUZ5Z1ihkpG7ImNvY2ajoS6ob4ODRxe3RFWt8pfSriuEgXx6EijuWIOD8qxTkXgZCfs20gxGKfCRV6FsS+VguhBiAKpHi2BqItt1lo4WNBtNSBCNpqmz37AURtYMQH3kMQaTAqxEHQNzDKA1xJhP6FEcRGkSY2pkqx6XVRbNKa2OwHmnh/NfFxd1XcXxXiOGgmjj0Sx2+FOC+i4jyrgZAqzvWuQQhijwr9LBT7YT2I2HfrQMS+Du248345fHztvuDQEoQGBIg0GGlfevUSRn6nuoBIAxHEwdQpiJAM+f9VMOIEqhAnZVQpyW/FhpEmNimWNVCeziZYodiIqEps4HViKJQA0cUREW+3Vi2+32ks7puavuP+TxfHmyItdnlaJs6HSnGeJYAIy9VDqAJEdrnQW0KFEKoHEftgOwjl0xMhBO2+8FB1RNR/IKqBER9YRyDqEEZlENXDKAiqQByM1TAqBXUViHoBo1QTsGLzSBObVZ2ZWbEhRtQGRKXlO1UDEAXLtlBp3zs89kpxfyiy++O9535PF8dZRFrs8rQ+gFApZzm/UyCUgWhELYhCAPUCQjlwFM/tDER9PCLCSgMINQRRLqVBeg2iUBwQoYLACsRBGQeRJk6KNjDiBK0UJ31UbCJpYhNLFhtkD8WmP1DE+9lTcfsnivs7XRxfEXG8VojzICrKq2GTdzWDpx9hVtv0DLPKNlelaeuYrixptdkfNGtMP8oMmbLA+gP7iS72pb4FUS726EQQ+Zq/4JCBCSKGUf77Im6EVBhxwyeASGDkAoM7nIOirBA8mhQQKTBCUvC0PoMRzKD0PkVsJmli84Ks0SrTS2Kz9NTTUYEChUA1d621Ee9DTF0/dm73Gtl9Vfo5XRxXEXHMxmK3CYSgMdPMiLU2N+/e7lrz1gMeNG866uU+0VsO/oNZeYfbzNC1twt8pQ5CvQAR+6zvtwygKggxiPwRUZ+BqA2MVBD1MYziIOoGjBQIKTBCUjCEakHULRgpyRwYQVRsLGnSzCxJbJy9MOMGsuDoz+13a9vczqmK3n6dIo4lRRyXLKzHe89xH1WWP6tucYF585KnAlD0lVY44jmzyrbXmBFjZgTeEnpR30KoNYgWvAFB5MOoKyBqDaNYx3NwhArhw1IgRDBCcjCEkmDECVahIIkjyVxMTxUbTLpgZo1AlBtgYaJdM+OW6s/td7xtbtdE5f3XCkQcPxFxPGrC+rL/Od6rNGT9A8xK878SgKG/tNJuXzaDpu7fIYQiIGJ/7BBE7N+sgQuiGhipIKqAETdkIO6IjkBUD6MQPCwFQA1A1HMYeclcnt5EbDbpagUiUTfMuEP15/Zbb5vbsYH8vmsOIo6bCnE8asI6G0Jo6JQFZsWF/x7AoL/1joXfNkMm7a74T3+CqNloCF7fryCSHYnCiHeYYZT9kjcFRCqMpCNawmhkpyASaAQQSoNRXm8qoqpbugUanHAxcTLnBsNJnq23TppBNZGUaWmrpqWBWJ3eAt0aBrLtjpcPp0fFbSffSSntqknrO54WVyxuwpgK4lCRLM/xXakx08zKO94ZQGCgaMU9vpH5CntQ6FnhdPa6EDos9lXNY5MhNBBAVNCz2KFAvNMehFzR1A2KW7gbwMgtC5iguJ/SGRUgsgUBR62f1W3awK1DVQgggZAUMQyLF6aBCMlhq2/bRAkhVMBIg5ArVaLWzKpQkczTs7phSOow2atgZEukZBWQ23xpbY1knJT4cf+z8VVJtuuqb6OwpnymGLAiLGtL7GSFN5vCSL4fKtVbayC7fSn22gQmpeW9yuNV4rbL2q9Ua05pY1Ft3ynzlMWx48WNxF4jCGW14iwI0+N+tU0/bN501N8CAAwkrTr7Q4H/MIDgleX6mt0Fkasd6jw1L2xaB6LM5wEiAAi/IbooK/HTZyAqDjyDEUOoAkRYZuRIV7jUFU71KKw0UglEWWNJp9iGQ6fYzzStb4Z7HQuYYDlUs0WlWUCDg0AEaIQgchV3XQXuDCQModK0EEJILAEBkqUEH35PI6E8Ib1k5uTTJAkNQ8qLT8IwlKTPFTGTcuFMNqC4sM/Y7nhbtFQKYLrP2AhZ/nZLj4HgedmQPQEituipV3mb56mSbN9Wz5aaccp8muy2M4j5RVt5Pl4m/z+vfO6KpgYworbidokuryzH/ab1HdeMK8dBQtxgPo63CmH+vOq8hVcY4yVlOfP2vf8rMP6Bprcc9DszfMzGURAJhPInDsCLWoCI/bTkrdnJfeHJ6SDaYyFA5IqdStFTgCkA0dAegAjwwc5ih6KX5+pghAJ7dD0SjTJ7/jyz27/sZRZfsJ/Z5/L9Ve17hVNpOt6TsI49Tt3bbLn3LqXOBUAAFjnj0BWOiPxRkQqhQNqICM82mRGMgDTxiAjKizfiPSdghSSpc4AoCR8oYirOePzPQvOKCUbM00RsoJrcowBCsy1JMXbf0OsgEBOWt4U/lc9S1BRgrACgfNwVyo9dWY77IaaqvnMKYyaPnWw0bbfHcZYgPL4B6+C4VjVmmllj4/cP+NGQaPWNTlQhVJxAO0jYq0gtIFQHIngvAATAJV2W8zy+dGmuakTUCxBZ+GQQEgUQqgCRg1H5euTCD+9t5t29lZl5+7qttNnHZ5oFn9/ZHP2vh5oz7j3ZnPv9M82Hv3uqed/Xl5hFX9jV7Pqp7czeF+9nRo+bnkOoGkRVMEqBUAWM7HNFQvBoYhBJYubTOAlrZI1BSfSo2FBy8wo/C40pFMyIp/lik2RpRlopMvO2EOrG8h1/RyT/8zEmCstz+3H7V6m67zgWInHD8ZUgG7c2dsN4DpTlxcrzbgsMv60+/9+vmRdfMfb12uvGPPbs62bEqa8E87XVu7a/JfOWEELsUwGAOoVQBiL89W9WYL9OAlHsO6KhPQQRK4BQDYikAXY8eqFZfOeeAVhSBQDtc88Cc9EPzzVffvCL5ieP/9j84bmHzdMvPW3++Pwj5mdP/NR89aEvm6U/Ot/Od+DdB5od37en2smhQgixQvCwFBChnIi8V+DDYhgF4mSskDUGJdkrpRhLXGxQZaVezmMT9c2UpyVJMfY26gQkHamTY1fE7Z0ive+4/yvEcZWgcuyG8VySlxPv2PPewPDbaPgpr5innjdm2TdeNSsc9bKZctYr5pm/GvPwM6+bFY4O52+jtx7wgPUShk8oBUKdgsgbDCRdkqsAka9+A1FTGKERNthsC7PVx2cHcEkVIHT8N442X3nwi+axF/5kXjevu9MWemH64399zHztoa+Yk759nJn3iS3MZnvu1BUYheDR1BmIugmjtoYQmEql2KzqzCwuNtBumrEVG36Neg4i3j9P3Th2bt8mCvuO+71CHE8JCmM3jOdclA9vPbB3lRO+8+vXzQt/M10F0fCRLUGkgCcZQm1ARP7+xgFRBEaTZ87ueCR0zNcPN99++BvmxVdeZPaor5dffdn8x6PftfA68O4DzJSN5iSAKB1GTzz5lFUIojKMSiCKwOj6G+6w+4y/3YSRPCmSkz5ZbDCVYuPSzCxNYqTdMONaMRw8dRVEvN0adXLs3J5tVPQd93ONOIYSxHErscvTrDgPxkwzb17yZGD43dL9j75unny+eyCC6kGkQKgGRAF0WPQdfS2I2NdTQJRBaMCCaO/L9w/g0kT7fmmh+dKDXzDPv/I886byhfnveeDz9jIdbnLwOzsEUDdBVMAoAJECo1YgSoCRn8yc/Mlio6lUzMzaqY2Bd1ONQaSso63G4lZ1ZXqVuP06UXiTSo04bhLFMavFbi6O/0y9ulFhq0v/bl7+uzFfuu+1/geRAp8UEI2dtJ2ZOOdws+a67iaufzgQRWFEBzR81Hpm509sG8AlVRgNXfzD8+zluDavx194zFz+46Vm8Wd3t8+UrwdRGoxSQRRVDYi6BaNScitGkCQ2nUqFptap2HD/qbK4vboj7tcKcbwkiuOzUhz3nlZY8kxg9p0K3xf95UVjfv14974fElWDSIFQByCaudflZtPDP2023v9Gs/aMvUswYq+uAxGAwxDKQeRBqM9BlAKj2bvNC+DSRHt9Yb7514f+X/Q7oZTXdx7+ptn/S3uaTXffsdTpIYDSQATVg8jBCIkSQCgRRElA4oT1pJ5VtgUSm0+COh8RKdP6UJ1cHutUKdvmtumOsr7z/q8Ux0mSwphkBbHLce/prQc+EJh9JwKEnn7BmEf+3H0IYV/jIFIAlAAiho+vaXteYuYefY/VJgfdYcavv4cZli0TwKcCQv0PIqxYAVAqiPA7IYZLsm5b1xz/b0ebXzx5H7Ol0ev+J+4zx339KDP/5MVB54cQSoORgOi3v/29+fvfX7XbQZt++ctfL8EIifKTn/zcoM3xevXV18xjjz1hps3YNgDRvd/9oXnu+Rfs/6+9ls03c9sg8QIpiawms/9ZYA4JYhOqUadmqYGo9HmPlQKDXknbNh9/d6X1XdinJXF8JIjjMKZS7HK8k96++IeB4beVQOh3T3cfQtDb9/pRcxAp8EmBEDR67c3NRvtcY+Yc9UUHo4PvNOPW3dmuNwBQBYjg9VEQ7TFQQeTBaK8L9g0Bk6LbnM6894Pm0ecf8bDS/PXoc4/Y9ex9+X5B54cASoMRIARYPP74k+bQw443Cxcdau6//3/s9j73+a/kIHrggYfsfN/85nfNoYedYJZfeZN5/vkXrGRkJCB6+eWXzTe/9V0LHzuf7Z+/1I+KaoCkiQ0iWWxGSWLT677YtP9RxMfZG3F/JYjjIlEch7XiGCchN1aed2tg+G0kEHrgid5ACMLviHQQKQDqAoiGDZ9qxk7e3sxYdIWZc+TnLYxmH/IxM2793c3QkesnQegNAaIojLID2+eK/ULIpOi2dc2MW6aY8793tnnmpacJLc1eWB7r2fvyfZUAYPikgwgjoWkztimNgAAO/5Id5gGg/Mtyhx/5Abtf3/7Of9j3AqL//fWDpUtyn/v8/7PT5ZIdJ6EqHzbWNJTkls8Vo0gWG5MiZ6T+NDbAatWNiDSxkXcibVTSZ2px7M0V9lm87zxxLCSK4y8md7en90PuiCRPVt/4xK7csIBbtWOvf/9Nd+C02swTA/+pBJECn3QIZRox1ay57k5m+sJLzJwjP2thNOugO8xaM/cxw0dPqwWR+Hy/gkigwvCpBVG23N4XtxgRZaOhGTdPMR/59mnmj889ynHR6IXlP/Kt08ziy5qByF5ay+Chgeipp56xz6b3QYRLdX/964v2/9J3P/QdEeb53e/+UALRLbfdXQIRrqXj9YMf/lcrEMmdT5zopaRXDEMkpsjTc7FBkVBmhqeFZhiX3LXG01OE/XbVBRSTTxTK7PC0VGmVDarE+y/FUnl6itz2nfizQtwvCX3H/R9RfkzeNI67KmFbWD6I7QiIoLce8L+B6Q80vfnQJ8ywsbMD/2H4iP8weFgBeFj+LdsCoz0uNnOO/IKZe/QXzcYH3mrWnnVAASP27woQ5SV+Lu4jEA0f6WoT4W8wjPOEmnR+hW57i+DIqfZ7mQA0dQKEbp1ipt80xRz7lSPNLx7v7DsiLI/17PoBVFkoOtp2dlYg1YeJCAVTUfC0qL5dSL4jypfNEgIgwvdAWOZ7//Eju/0bbrzTJU62LP5/8smnrPD/9Tfcaee7HvPlyegqd+P1m9/8VoWHJGTwPrtRwBaOHC9n10WS62Ijc8VK/YKlubHIvDmMxEzde2vCWeFMWwE89jgIqcxNcstkRU/zCtbFvsl89r33v7zH/LboqVTAtrdXK9vJYOFDwx23W84V/izXbGPA8Drk2LFtv+ioU7gPsf3P991v/+DYteOSoqfl5a28tpe+4vey/3nfWRhSv1cI25G4ce3Ecebkx2IJQBlAXbHeSJwr8Fptzhun+jaf/FpPkjpzY1zRU1vfsqIMkAak0rTsFm2/lA+2s+aUeXZkBBDhe6NZB9xsJmxyoIWRm6/w8tzPM+FR4bbQ6SWu+jb+90dEQ+2gpEcg4qKnMTFFBUab7t7irrnsstz0GyebvT4x33zjga+XwNL0de9D3zEHfGYvM2vX7bKzjrBjeTQkIyJXvXtDO/LhEREuw8l7HhFhmaYjIlyKE6Ch8jcSEa8f/vAnpbO/lNEREraAkJ68LP8M1pmsnFWHZ72BPJMRWMAMC+MMzahQaGbWUBUjTlEBlAKCPE+VBBzyGAjfwJPkmXGbUY1dPi96Gn5eJwcjOokI2lxXqe+y4wn6ukpe1Xj8zzFWJ6wD27TLY5oS25wLopV2HzhPZmW9bfF/meGjpwe+o42G8sfWVFyaC0Y/LPoBq9yujc/GTtzazFh4sZlrb2AAjG41a2+0nx01sYf7Hq+OiAbSpbkqGI0YPbX574gERDdMNnOun2Eu+c4F5onnnyjBJfX1+POPmyu/t8wsuhNPSMw6MgiGahgxhPzviDacvk0JRH/5y7Pl74hefdV995OPtNK/I/ryV/7NTm91W7et3t3cDHxTaWxEZGrq5Z1KlQ21DYREYmauDdoJIOBpqaq/NFatTi7N2eWTTgDisn3H/ZsoFzfN4s7KO4nKq84nAEg0dMoeZsWF3wkg0N/CE1oHT9o98BsNRPkVG3ymAKgthAREAqMx62xhpu1xYQ4j3E231rS9ohAKQITR0MV9eGmON8A7VwciqHFlBQHR9ZPNhldONIvv3N3cc/8XzAsvu1ubU1/P/+15c8/9n7fL7/HRPW0HVIEoBiOnEES4BPf00382p33wXHPIocfb0RDukLvl1rtz8Pz8vl9md83da++uW37ljeW75jwQAWy4a+7QJSeYj338M+bFF19yUFOSLgVEQaInio2lsTIzExA2U2GmnUCkG2oLwYEhbtcGsn3Y4ASExPGULI7fhiCCBq+/v1lp/pcDGPSXVtzty2bQeuHdujEIWSnw6SaIRGOn7GA2Oei2/HdGG+1zrRk6bL0kEMn3QzqIJg9MEE2esUmzWnPeiGjDqyaaWcs3NMd++ijzw9993/z9Nfd7nLrXq6+9an7y8I/NiZ87xiy6cqGZMG0jM2yEeyRFGBApICrDCID4+c9/Wfs7IujHP/5Z8DuirbZeUAIRbt2+eOlV6u+IONmSYcSJ3kBsLo3F5tZC/Q4iZVpfqd22wzZsLO7HhuI4ShLHrcRuQwjlGjvDrLzDbeZNR7wYgKEvtdKuX4jcnFABIgU8vYDQqLXmuBGRhdAXzSaHfNysNX1xybfZ3wcWiFrACA2x8U7bmdl3Tguho8n7jmjDqyeZ9S+bYGYvm25O+uzx5uu/+pp5/LnHo5UWMP2xZx8z3/jfr5vT7znZbLl8ttls7+3N0OGTHYhsh3NApMIovESnqQQiJAaBSS7RVYqTq0ZBImePG88TmpM/SaHRNBLM0f5tp2JExYbbN+rPEZH9nkyZritsu0bifvP7roHC+EmQEreY7n8/xLFeKS+Hhk7axbxz1y+YFZb8OYBEr7TCEc+ZFff4mhk0ZZ/AV2oh1CmIFACpEFpni/yGBVyam3XgbWbtmfuUviNiXy+BCAAa6CDSYCSNscPRC9JGRt5dc9OumWTWv3yCWe+idcxGS9c3e96wm7nsmxebex/4jnnwyQfMsy/9xY6Snvvbc+a3Tz1ovv/b75krvnWZWXTjfLPHJbubzffbwQwZNskMHT4lAxHuHuGgCBVCKB1GaSDqLoyCZBYQUYK3ERtOsnwzY/NLUHhpjw24t+pvEPG0UGGbNRb3mdZ3tQpjJklKzHLscpxXivMn04ixG5tB0w43q875sFll6ysTdJUyrVrvmXOmWX3Ge82wNTexPsF+0nMIpYAI3w1N2tZMW7A0v2tu4wNuMevMOsgMG7lhJYTSQTR5gIMI/w9f14wcu4GthD33zpkhgDwQye+Ipl0/2WywfKKZesk6Zr0L1jbrnruW2XTpDLPPzQvNBz5zvLnwX881V357mVn6bxeYkz97ojng1sVmq2VzzE5n7mxGr43tAkJuNITOKjqeg6N7ICrByCYIA6hvYBSAqK9hxGbGJlijEEQiNuTeKA0GvVH1trk9Wor7q6rvIuI4SRbHJUt+MpEqzhtVnHuhXO6GvxsMxb7gJN7BflILoRoQBdDRpEBIQITP8Z3QNP93RAfcbNaedaAZPmpaya/ZzwcuiGpgFIIo+5+GiCiIuvsHF1swBVq2v9n7sv3MXkv3MQvPX2Tmn73A7PKh+Wan03Y1O56ys9nh5J3NDv+yU0lbH7mDmb7tXDNs5CQzeMgEM3jIRDN02GQaDaWBqBpGaUCywW2TJAz4sjhhPHHC1agWRB3ACGIjqlTMzNgQI4qDyBebdPdUDYPeKtw2H3cH4v7QhG3yNE8cF43E8aipqyDifNNV5G0diNgLyvBpBSIFPo1ApADIh9Ca6+5sR0Jzjvyc/V5o4wNvM2uhGjdBqBZEGXx0EDkI9S2IGsAoB5ECI1/ciAXAsM7JZvDQiRYwg4asYwYNXttqDfsX750GQxmEhgwtLsmhM8og6hRGHJyKEOA2ScKgL4sTRxEnXoVqQeQlexuxKUVVY2aBQZLSQMRiA2+vEAZ9p+L7IT6+DsTtXyVsm6dl4nhIFsdflcaGca2K80QV55suyVssE+RyDYTSQKQAKAFCtSAKfLOA0NDh65kxk7czM/a83MzNILTJIXeacRssMEOHr58MIQuiPd6AIPJh1B5EGYysPBgNzWDkabAVADTBDBmaQWiYf0mOIZQGIw62pjBKTwROHhInYI2QzLUgsgnfTmxOqirMrDyfrnYgYoUmn6q+BVF5v7tz7Jm4vVOE7fO0PoBQHr9dAxHnWSgtZ3maE+d/CKE4iNh30kEUgIcVeGYBolHrbG5mLl6eXY5D9e3bzZrrz7frbQKhehAVEHpjgKgLMMLNBw5IDkqQg08BIJSasGUqbGfGIFQPomoYcaCGSk0GJ04iEidhjZJABLFpJIpNKlDEzKIiA+2qGVux+Ver9yDi/SvUtWPnNk4Vtk/TuP+TxfFWIYndJBBxfgTi/NKl5SxPc+L87wKIFPCwAvAkQgiavvCy/HdCsw5yEMJNC3aeHoFocC9A5NcPUqXscAlE2TXKtiDK6yWNKGBUAMlByd4VZ+HjAShbV14mgwMgAUZS/6laHKwU1CgPxHfSVapIpDw5W8LIwSJMdlVsHiiampkZT2exYYlcmZZweq2y7XZSGcAun1/iCj8rxHAo5OqshdNTZG+/LoGMt1utYvnwsxTll/a4bRPFfcd9XiW3/WwZjrOoynELcTyXFEBHyxvOrVCcr37OlsV5r0PIgcgtUwuhGIhkuToIJYBoxuIrzZwjPmdm7X+TWWvaotIyjUA0tJ9B5EYVGQRiQOKdFhBldeoAg3xU0wBGsqyDiYMRA6mQwMctP9xCaD1XPRsBwwFQAyIEGAIVdZ/y2k9RcdAWUEFCcvDXy9W3s+XwUay0BYyQyGPGOUNoCiMxklKZGMVwWL5xYXlXvVr2IV2yjCucmQKT0IT9IqTNl8+Kxmb11pqCxN9+023L8kXR0HbLS4mhpm0v7S99l9LvpRjI2q4AmRJnpCBu7TocyDiurRT4+BDCNt12MY1zq1CQs1neupx1yzaBkEzDduEZxefsNzqEnNetb73GFTytAZECIB9C0Jgp88zkrY434zbY3QzLfFi2JX5ZCyEfRNmPWcNacz0GkbuslY1IGoIIB4kDHmlrvKGR0kEkEJJOKWAkclAqwScbPbll3XISjHntJg6GrPMZRHZZFD0FEGQdFITlaeWgBgCx7bG2ZhYCk0ZGVUmSXVazIBlXJHMqjLA9VA3P650lmEGuzEzsslnR0CYFLJ2Rue2icGap5ppieoGy0QSWaWvGbvmsinab5TOQoHp20+3LsnbbXuVuno+X8d+PtSByy/NnwXJK+0nbqZXTs3mC5TIVfScnAeV+x3a5z/3PpO98CAYxFoNQFvfF8pinOYSKk59sec6vGIg4ZyN5HwNR7hljM8/AemMg4lGQhUOxjlGybGxUpABIA1HZV4uBgQWd58ns3QwhaPcFh5gLbZ2567Lq2yGIAKGegEgudUUhVAEiCA2AA+dhIDcSSxpVRkR5Q3OHlBR2rj0zEQhFQFQoPMNxoyE3zOYgLEsL7A1scvK0NLmkhDjhUmAEOcPyrrsrRhCTNUTFiFIFA8JZNRtdE+WVs/3piiFrEiC0vbzlRmRNi7YWkhERT0+VfwKgSmkvEfbd9V0cODFJ/6251sygT1Ml+1B3AsTxWsStiz+eHsS/KoBA8oZzqhDnqi+77YajoRKQsv0I/aUaRA5GDhLW8wJ/qwcR+2igYQ5G2FbSJTnP9/NLczIispfmru0bENkNVEEoAUalkVAijKRh8++IkkBUfiaH61ilii0HRQREAh9+H1cY1EigYJqSGJrcWVkFiCBOVk/4wpfPKNkMqiSmx0aTqjZG6Kt2eTZnUtVoIkVtIWaXTfp+Ki51WT7+Ktnla9qPVO67Fv0ucSPrU2JKxLFajlHlZgWOe1VZ7uTLhDkFcT6ysKz7n/O7HkK5R9j/2V+qIVT4U8VIqAsgcv5a+DD7tQYhSP+OqC9BlEsBUKZLL7uGy76Ze+/9gVly+InmlVdeMQ888FAJQo8//qS58KLlpUZ64YW/2mV8GGGa/0LVaukMrOPe7/6g1EGHH/F+uz3/hW2jY7V1BUGiBBYLgYbnCXFwajBCgvA0Nz1VnGzuoXz2qa38nhOak9lP9OzhfPKSh/QFGjut1J5/eOSPoQFlOmTJCXaen9/3K/uezfP+X/yPLe7qv5eXPz1XZqRPPVU8Kv6JJ54K5ps0Za797D++/2O7zZtvvSufH68X/vrX0NQz/fJXv87n+8MfHs2nS5Fant538kDE7ZKo//fVb+bHgNceCw8J5hFxX2K7PK1SHDcV4njUVIpdJQdCcd7o4jzUhPVJPh962Am2qPGZZ12cBCHxh9BX0kEUQIelACgZQpmSLsnVgujaEogEQv0LokuvscbOBwIQwbShQw45rgyiCwsQfe97P7Img4rTDCcASxrbh08MRNgWAsg/uxAQXXTRldn0qebBB3+nwCgMLFY1iNbPn9wKobI2KnRzsHcCI/cocnpfl8wk2S8xB6wDD+Bj03jk0T+Z/Q54b244gJL/XiSQwV8fRPL5l778dfOnPz1unnvueWt8O+y4j30vRojtPPLIH8sGueYMc/Mtd5kHHvydfb/WOpvY/bTAyebBNPTrQw89nE/HMhZYgbmXBaN+6aW/mc22mF+a/ugfHzN77HlIPipBvuA9L9910bGX3kf0xJNPmzHKdAi5ZI9trAMuHuTINy9wP4qwPzwtKgU2mjgGq5THbgAcTZwvcXEOanLzhXmdDCL7VwFQAoTagiiADouuRiWBiDy+CkQ+hPoARHEYVYEID4sDaCxkIiCSERLmPeTQ46pBdG8XQJTB6PEnsI4fhgGjBJgvgau8MCIRQMkLRu+/MA+m+dP9h+jhf/8l09w8LulkHer7MQ5K8vqhN0ry123nl4TPTALTNBDlGjvNfPS8ZXb9W2+3Z2hGmTQQzdtxbwsgjJjUkc/Y6fbxGRqIeD4fOP57jJpk+n/+53/n8CrWFQqx9tnPfSWYLgKILrz4SnvMDCtADMYu7zHfU08/k3/mv/C4EF439Le/vZzP87V//Zbdz9PPOD9/rAheAAim3/2Jz+fTZDqehSUvwJPbyteFF7n90y65/fnPf8nX4/Z1mvnFL4uRooX1lrvZeTHdj1+MFh999LH8vV1euSzHoKlTOogKyNx336/y/cDrs5/9sh39/+EPf8yn4X8sh5j84x8fM4888ic7HX0sn2Fd93zpX80zz/zZ7LDT3ubZZ5/L4YTj9dcFcGFeeSG+3XfKU0vtiunq1wRdgND/CRBhpakg4tcFF16Rj4gOPuS4HCIMoiVHvN+aAv5/4MGH3GU8D0T+y0JIGR35IOJLcxY0ERBhVGQv3TUEEV7XX3+7DU78lRES/vdHRAIKeY///c/lshpGKG6kE57FFXJA8R897r/nS3R44a9sk5M9T/psRMTmIcJoRV7aaKgORA8//Ig56+ylOYjsZ2SU2AYelV6aTiCS0Y+890dLDCL/FUApE06ccHIkLx8YMHZ5aaOhKhBFAedtGxDx4YP2332Pg4t51nTTZRTz1FPF/CL/cz42FsCF4+P+wnHKpUeZlo8UPfjIPPhfjhuxgVyzn2WwE2h3AiEXkwwcTUVu7LDj3jY2zjzrogBOuJyM+ZFvgMNnPvtlC6KXXnrJ/Oznv7Cf4cQVnijL4ZjwmQ8irAtwwnrEBw7JlpNp9933SwsoXAFw83qjIwU8rAA83YCQAiJMC8BTASFogIFIh1HViEhAJP/jEl0OomFl+Fx62bV2PT6IeESEeatAZLdx2PFBJwcgGlEFomoYCXhEIYgwXQeRGz0VoJJRkYxaHFgYQu4yn4OVS0R+j//5hXlyWCkJD7nP7wwApAnG88V7vhYYmgYiCAkp730QiWBgWAZJzubJevLJp801195m/weU8F4+80HkSy7nyXK+kAdyBi/v8+9RPIBgOoMlCiLvuxkxaE3+aEhex59wRjAiggkCNDIi8kc+qSDC/mBfuK+gP//5WXvM/jTARkZGeJ8DZsvdcqDJHXEw9s9+DiMP9x4jXx9EHGvJCqDDCvNDRkQAiNx67Y+G5OUAs08GmOI7XLTRZz77JTNvx8U5fPz/5XMfRP5oSF4CILQNHoT5kTMvyn5+Uq0APCwFQkkgYghlYq9OB5EDUJ+DKIRRuJM5iPA+AiK8B3RwFuqDiEc9eMmNDAwiucSXAiK8twFTASJM0y/N1YMIf7sJIhHW5QBTTjS5rCfJyO+xTD5a8i5vVIHIH0XBOL7xzXvzPvjxf/0sABFGLvfd/yvz618/mM+Hx5qLifkgQrLjzJpfSE6MkGR+nLG6W26nmw+efl5uxH/0vkNi0OCSnPbSRj9y+U5GP4h/mD7iVb5DgfKRjCybjchg/j6woBxEkfeQ3AiBdcoIC8f24Y9cZEGEffDnh1566WU38llzhgqan/73/XY9mIc/5+NDmxbADCHUGERb7GZ+KZ8lgIhjLUlZLNePiEIQiQAfxBhuMMClNxn1SM5BGBExiAAVLIvLxO4yXQEiH1QMomKU5HzD/45o+x32siMvO4/nRawAOiwFQJ1ACJ8F8KmAEFQCUTYiOr9/QRTCKBVEEMwf0wAiHgFBAisNRE1GRA5EZej4IMLy4c0KrBBCPogERj6I5H9IQOODSLs0x8mkgag8LbxpAetyUPOSueLSnA8hXwwfX3ZE9MWvFdPI2LRLcyIeEQmE/HlKxuzdNaeNdnzF5pE76rQRkQ8YmC0ez166syzbfj4i8pb1L0PJuhhEUDGCKE/HpTntex2AyEJkzRkWOjIi8ufBdKxXvaSXCW1ZByGo0aW5sdPNL36RAqLdgphKkhfLcRCF4NEEkOA7ovvvdzfR1INo/Rw6gBeAg/Vg2l8yEMUuzb3++usZoByA+GaF7eft5dbxDwGibCQ0kEHEL7l9m0EE+OAFEPnfG0nj4TsjC5NDjwtGS/b2bQ9K/Jn2HVHs9u3HHn+iCIYAQNUw8kEk7/3REV5uJOS+T8JLRkdyCQ4vgdL119+RT8PLjXSKmxXkEpskWvG+nKiybbwsqLIk97cpIyl++bASY/G/cMULoyGGk29sfGnOlw8iXLLjlw8pMVRt5KPdwu2DyL/dGy8NUCL/Nm2BDUZG/othJfP53yP9/veP5Jfm/OXzu/KUbfuX52CAmCYjHrywflx+xF1x+I5IXlhO4CPTBWrSfrKv/AJoATHs19wtHGiSblbAvGOm1YLo2eeet+vFfFhu07m7mEcf/ZMFIraFtnk4u0xYBSJdIXBE+I4IIw95YXsCGf/ynIyUyiAqrmwAuA5cDk7b71CACHled7MCXj/72S+C+Ma0GIgC6GjqIoQC8CRACCqBKFOfgygFRiV5B6fRlxvHB1FM3BElccdl4k6PKoBPNYhYfjD7koD2R0T+pTkWJ1i9OFkLOXNQzjwTFQCnTgQeHhE1FX/B3+dS7trrM8nviHh6RNx2nUpuRmgijp9GKsWti71UCGnivIqrKmfDPNdV9ouiZJjiM4rYswKx13UBRPicPbkRiJZeZyHUZyBy0MCOaDAKd7ak7IDRmHzA3DgxGEllhVoYcedlcsHkOpsDIJASUE0CkgMaQt2p4n09iCBJJr/eVVwhgET2rFVKBHHi1wjble9t2HAq5ZkZytSwwTWRVDaQ92y+VXL1xtoV/RShVhtPS1VeWUH5LEUpJXq4vYp2Kuqt8WepwvaDvq2QHztSYif5JIhPoLLl24LI1nmM/JC8DkJ+znJ+6wp9A/tgl2d/UcR+ZT0rW08vIaR58hD27woQXbj0+r4FkX3EtlS95h3PIMXCTtsaddnjuUeMco2KBsiXozIT+f8Cm+z7Ha0SrV/ctCxvHoDEFj1FcHowscDxAknKAAlMRNmyKF5oEyoSuPly3jSbDDYhXfFRAYoPIk4+FpJRzCSa1JJ8dAaJ/7FMUXiyWJ4NJyYUW40Vr8yNUHmfm2BW9LTN4wxcsVdUv0bR1WJ5a1D+vNgul7KRoqlZ0U9b+FPmqVO2vD3u8Sh66hUt9dbP22O5oqdORdHTGmXrw7y2aOlaKHrqVR/Pt+cUtIUntJnbPtoi/FyW99ch5i8At32Xg7zcz744bnBZL4+brIK2JolZLW6xTVtnz263HOdVkpMnH8JYb3GC57bDJ3ySt5KnebFV7/sjVb5fZB6A9SHvnWdkP27NT3TJgzwYuWmAWFb01O4XPmePC8GVn6TLtOwRD3517fy99cbCk+3ndp7Qx0uePqxc9JSrb/uDlJ6AyO6Iff7PFGVEVD0q8mEk6yhDLCS2wMg1rCuY6goAetOVMwRtVCQdazs0dVSUBUQOMgRr/lsAPhvSJQEJIaj9YA/PynS5gPbOLJUzv7IIZDahBBDeZ0oCa0IS2+VtQje/TIf9tiMKeZSFYkYxyTIWQnYfwnlYbJBi6HWjCk1ixsWjEBpKqpd3sH1X9NQVTeVjrZNs3wE8/FyV1nc0XVMQN1mx3RwESmxZKSdfErfSBmlxX0hgk4Og8hKdApYcJNPy+Ti3ywpHQ4VnoNiy4i0efDTJyTcAJlBhBaMfFvtpaTRU4cmKhxea7EZES91lOQeiPhwRWfhkEBI1glFsGJgAIogvzTWFEQKjPJoKgyIQBVbxngNRlx/YbiTEAc9JoUseJcEJV60iqa2RBJc4FFOIKF+eprMZxVS6vMPGlyC+NJeqwtCbQ8CXBYEyPUWdXJrr5NhFxUlE+FlJSr8FfaeIY6IUH3JpTfnMiuORYZRfmuPYjivIm8pLc5yPYc5yTusKQeSDJPCVBBAJjOw87G0pEKoBkYOR4smKdxdyPi+X5gAfjIr69NIcb6ApiKwUCDWBkSbuoBiINHFQqFICrAmQOLhDcXLo4oRLU5jcgdgcGoqNKUlsgn0kNvqBJt7fPhP3T5LCWGgkjsOoOKarxXkTF+dhWZzHcbEnZGIfUcR+pIp9LRVE7KMEIVXs14FCEPnqNxA1hZFcY4yJG62bMIp1PAdHIA6whiCCENguScKAbwIjiBOvXjKaqhEbRQOFJlWWNVllemCIESWd0XdBDIZcLUc0ocJt1qmnx879oQj7zdO4/xuLY09VFr92fo5pXZwr1eIcDCFUDyT2AwIR5mE/aQIi9rNUCEVAxH5rPde/a07x7LIKEAl8fCD9nwcRxJ3VNRB1CUYuUcKgbwoiiBOwWokggtgwGooNq8rMSmKDJPXUjBPUn9vvyba5/Svk9x33d2NxvFUqi1+7HMd0WZwf9eL8CyEE8fuy2AcIQtY34iBiH1LFfpYKIvbPFBApfl1W4fHJIBoyqe9A1ARGcicdN0Y3YMSdxTCq6nwOElUcbA1hxAEfipOlWpyMVUoGEcTm0VBsZGxmtWLT7JUZN1B/br+r2+a2TpD0HfdzY3GcVcqLX7tsGNMizot6cd7pEJKc5WlOnP/NQMT+o4p9rAcQSgdR2d//CaIacaf5MKoKAA6UqDjgugoiiJMmLk7ISjU1AjaRhoqZWSN5BtpVM26h/tx+V7bNbdtA6Dvu38bi+KqUFrtKTGfivKgW51tZWs7yNCfOfwVC1i/+D4NoyKS+B1EqjFJA1AmMuNNSQSSf14qDrgGMJKg5+ENx8sTFSRlVKZk58SNiM2khjMTEzNjgktUtM+5A/bn91tvmdmwh24dVd72liOOqUnWxWxbnQ7U4z8rifPVztizO+wiErF+EIGLfUcX+1SMIidcOUby6UNnX4fX/OCCqgRE3ZDdglBIEHDSqOPgSYeQHNSdBKE6ianGCBgqSmQ2gQmwsLdQRiARkbLR9qNYw6IIabVtpuzby+w7r5f5MFsdSVErMRmPXiXOgWpxfZXGuajnrxPleASHrFS1ApHhXEojYJ/sTRBmE+gVEKTBKBVEljLgDuggiiAMnEAdgIA5ePag5GUJxMlWLE7U+mdkMKsQG01BiZmx4qQpAxgbcYzWCQZeVtG2lzdqI+83vu8biGIqK47I6djnu68V5FYpzVc9ZznMS+wSBiH0mKsW7aiFUASL2VVbJkwOFEPrHA1ENjLhBO4WRVhJDUxBMmjgIW4BIpsXFCVWtIIErkrkQm0KN2GwS5ZsZm1+KAhCJ2JB7pCQY9EiV2+b26EDcZ1rf1YrjpVYcj4rseov3HPf14ryqB5Ces5znNRBqAyLFt5JAxP7YnyDyINQTEPHOxMQ7nx+UfDHGB6s0jgYjVy/J1U4KOkIRdyQCJuj4iIKA8uvQtYQRkoinSbDHJZBxiRsmWVlBEmdy39XEEp/NIVRuVnjP5pMg/Lqfp7ERVik3Y+WzXGzSuZE3qC4QkZSpaSNst9PlS/vOx10j+Q0TTxdxv7C0vlNVFzeBOA5DcdxyvNepWI7ziiGjC8u6/zm/00AktefYX1Qp8JGTZ/a2QAqA0iDkli/5cQ2EAhBxZYVeg0hqzTmChgCKw8gtA5Cg0/LfEiWASBrLLeuK9OXF+WqUd6gFy3pezSclCEilgEJA2oKrUmuuGYxsQozy6lY1AlFWOBU1s/CU1SyJOeG05POT2dZssyZWZQBsFMXNBkWtunrj8mWXt/XKssKVytk1G6MvqbFXLtqaKIFAXnizeakcgZirldf8B6lYplQwNrXemyzf9tjztptuxpYK5hbifmD5fWf3R5knVyR2sE1XODRbviGE7DFI4VEl1mPK11GqNZcOIVe4VHI2K9OjAUmBj3gGlpFac5jGHlOSAiABGbZjT8AVj+sMQqg15zzVervvyQkgkkdA2FpzAqLdD+49iFzFVhx8UxBNtg2GxrWVXrPGyw9YaSRfFkLZslKF1nZM5cjI71RXLNUvWhoEggcghhGCAcvllXAVEEnAhHIAw3I2IbOzulQQ5QkpBUOzZObEY5US2lb+Ti0eyWbiDM1WwfZhhM/ZjBQ5I3JGnu+DAiMoNFIpOiqPQqg+sw9EIJB1sNlXSbY9DtW/G4Is3zaKlmbVs+uWLx2ft327bMWxa59J+/Gxl9o80hda3+G9uqwKoSxusgrqAsFUCEGI1TxmsB0lzmOS5R2Mse0yjBg8LKxDctadgMoJZBqIcs9AO1nPiHuOCqKswLNfqw7zBT6nACgZROKrFnRYJg1COYiyitul6tt9ASILFLuz4Y6x+EBwcGgcHHhxsGkgso2WLWuLnvoNzh1D8jvXQggd6o2U6lQEVkUBQw7OQC74EZQc8KlAsgGdPT6iiSSp3Zl8qgmwqWRFT2OXWBQTY6F6Nk+LyR1r2VTrjLhKYojq8goMWFL9m6enSkDA0614fxTJIxh4eoqKY48Dp07RvuM4UCT7UH8CpMtdCSgqYKdJy5tyPnHu6Zrqlg3yuRpCvqxnyGMWYiII5TAavp4ZYdejAKgGROyfqoa6k3zsA/4vqx5Ecjmu9DyivgDR4KGTzJBh4U7FxAcjl+fCg1YaSQERRmPuWUgk7pwIjPLLcg1ABBUwUiCUCCIIZ0ZhsJfFCSOSxAyTrl42oelae71CQ4F4ei42KRIui/G0FMl2xUzZaFOlQqhOHjCw/wFEElX3HU2dOl8e+xG2barUvuP+j0j2IYyvVLntcUzHFcubphCC3IPtwnxOA5H1jmxe9pSSFAjlMMrmYU+rglASiDLftb4aeHI1hBhEpe+ICESDBvcCRD7plJ1j8QGVD1YRN5YCI1XcQREQqeKgUMQBFhUHqgKjFHEyheLkq1eY4CkKjaVWbFiZYMg8rYnYXPtcMHOeNoDF7deJgr7jPq8Vx1W9OH7TxHlSluTXOhM3MRtO39rMnrOT2Xb7hREtyOT/72k7XbM33dFMn7G1mThpduAjqtiPPLGPBWIfbAihuJqByNeABFFjGHGDKeJGH1AwCuBTlp8MVeIE0sVJWC1O9GZiY0lQnZl1IDbdvlAno7G+ErdTt2T7jvs3SRxHaeLYTRPnR1m44WK7eXuaw5Yca44/4ZTOdHyajjjyBLPjTnvZ7xfZT/oNQhD7bkMIpYIIEOo9iNrCqK4huNFI3PCNYBTrfA6QiALwaFIAlINIgU5MnEi6OBnj6sQYCrHR1IjNTDG5VMWWZzPulTq5NNapqrbN7dEL2e1w39aKYyddWuzytLI4L8raYqvdzHvf94EQKG2kAKdOxxx7ktlu+wV2X1JAxL6lir0vFUTst8FvO+shBP2fBxHEjd8xiPoIRsVdNyF4NHFC6eKkjChLZk765mLDSVAFSFJVtzwbdLdVBYNeSxuN8fH3RFn/2e1xn0bF8dJMQdx6sauL86HQ1PU3Nwv3PCiESVspkGmiPRYeaNadOrfah1JAxL6XCiGI/bYEorTREDSwQJQIIz5AbohA3Hgk7oBGMFI6vgmMAuhoUiBUVgidmDi5dHFy1osNoJnYfBLEJtdDsWn/o4iPs6fi/ksSx0kzcYzWi/Og0KQpm5q99zkshEknUuDSVIv3PtRMmLhJ6D2pEOoEROyzgboHIoHQgAIRVB4R9RBG3Gk+hGrORLoKIwVI5d8hhNCJiZNMFydpWTCKcFqnYiOKyxop/mfDS1TdiChFbOxN1JcjomC/u3Dsyarqu6g4LpqJ45KFbfC0MP7L2mXXfUKQdCIFKm21aK9DQt/pRwhpIyL2b1YViHwI9R2ImsLIHnTnIIK4M+pgBIjYv0oQ9D2IegEjiBO2KplDU2guNiVdqpmxCVaoF2bMAKhSL0HE+8XqxbEH4r6p67tcHA/NxPGoCdspT+OYL2vOZjuFIOlECkw6Fe6uY+9hv1LFXpcCIYj9NQBR+mgIitaae8OAqKSwUUrixiRxh6TASMRB0FcwChVCJyZOOF1hIteJzaG52Jwaik2xn8Wg6JZ4O/0u7ofG4jhoJo7DNHG8h9r/gKNCmLSVApFuaMnhx9kfu3YKoSQQsa+qSocQ1K8jIqw0gFBTGAX0dQ2x7tQtzBZb7mF22e0As+deS5wW12vR4sMD7Tr/QLPVtgvNhjO2KcPH+2FYAB+WAh9WAJ2YoiOivoORGAdPL8/Tidikyqq9BZhNktQno4IK9ef27W+YOvhBqipu/wrpfcf9ny6OuypJbLn3HOehNpq1fQiTtgI05G8PNHOjbdNBpAAoCUIpIPI8mf06JgBHGxHt1hcgGjwk21mGUCKMcMDuV7wFiLabt8icc/7l5qprbjPXXHu7ufb6O3Jdc93t5qprbzPLr7nVXHH1LWZ5JvyfqvMvusrMX3BQbvo+jPx6dIEU6EipD55eq2w5V+KHIZQGI6l31RZGtqpCwi/U2TREzSozsGnh1/nTg2mq2DAzSY02np4imLirLtBuecjuvzI9RVLvjKenqqNj5+1zeyeo3Hfc19XiuOF4q5McQxjfoZAbO+28uASTE0441SqATIqOP8WccOKpAUAayVsXC78xqoKQ1NhEqR8GUDKIGDqkotpNexBdKJUVLuojELmddtKGcuWRTvEZ/qJQKsrzjMiqZ8+es7M59vjTzVXX3mquu/FOc9PNHzc333K3ufXWT5jbbv+E/Yv3N93ycfv51dfdbq7MoLT8agcmkQCqrGIe/H/s8WeYuVvs5oqmekCS+nVS+sfBQ6YVIBk5GnWrJJkYNBkw/P+991IwdbTUerNAcevFKCmXklwQDADLQjapFWCMyMqYcMLbRJbik9bQ3D446ISmk8s3sqwCdalopmxbTC9475lgqXBms+9aiurXqJ5dPA5Bjkvkv8/3Xapnj8uKptqio2EJHk3F8q5op60enj2OwV8/b49Vqr49rrrgqbY+u/z4rOgpAcmfn9chQttJwVPtNnB7yTDrc/89951Ub3d96/Vzhfxiu1jeLRvKj8U8bu1ITGIP++W2W+QExX82fZ99l2Tmf6qFyImZLFAYNDUCwGTZ6PIKYARAJ5zoQJYvS/MctuQYBxzvxNZ/D5+xVf+tlzjf9MXgggRA9r1XUZura7vK25n/wZOlmLU3OorJgmiPQyyARLboqTciksFJz0BUHJAyMlLIKcIyctAosXHRpdeYa667zdx408fMrbd9wtx++yejuvV2QOkuc+2NdzoYEYg0MYigy6640Uyfvk1QRNAfCZVq0WUjI1fwNAt6JIp9vghV6RbwKML8tpIvEtkmGkBVjIaqfl+EeS3EYAxI7izpUkdG2GckcWFE6VWMxXCwXG4osg4ygpgsTLLCn3Jm7ptfldyybrsAgayDDS+mHKKoHF4CUThvTHLssQrUVRIQyLZLII+IQSMgyUGkLMPL5dMsyB1I/ZMAbmNu93L7F30X9Du/p8/y47cQc+vkGIvJxY7/GAm3LY5vyQURvnvJQUIgSh4ZCUhOOMWceOJp2bI14GFly1cte+hhDkSa4EPwHXuM8IYMRN0cDeUjLu/ROpjO3h1oyKTsMRACIvcYCB9EPR0RDRkyyQzVAJQIIzTO+LVnmmOOP91cfe1t5qabP2Zuu+1uc/vt1SCCbrv9k+aWW+62l+zkUl1TYbljjjvdltyIgSiQBxt3ZqIXMGT4+Lrjjk+Zs8++JCt6ypfkWCGM7KgqewQFT+ekjOmccy81d37s00HC10mMRTWi0RuYa6691Yqnl7WhNTM2OtY5H3X7yNOhKhPPl1M+8w0xtnyKOro0l0Gcp/u66uqbzR13fsoexyWXXRss3wSA3HYagNLk+u+K5TeYm2/+uNKv9ULMuEtrYWzVy12FcMuHMQ1xPnAFhcrRjCaCRVcuzfG0TMcdf3IAIJacGHf7kpyTX4g69GtVmc8Hl+Yu6sNLczLkkg0EEKoBEbRwz0PNldfeakdCBYTqQXT7HYDRJ8wNN3/MXs5jyKRIRkkL91oSdHgAoAiMGECFQgAxiKR693XX324+cNJHFAjFYRRLvFQYwazvaAEiyJqKNbjQaNJAlH1HFRhdWVUgCozUM946EEECoUnrzjUXXXyVufnWu+wy0O13fMqOzg87/P3Bcrx8G8llMp4uOv/CK+w+7L3vkWazLeebaTO3DZdXlitJabNo29Wq3HeXX3F9KxAV8dMGREXsunWFMc15AAVgaSIFFtHpHQoQqgWRrYzdAkIREI0cO9uMXXdXM3L8Zm49crltWMIoSKSASL4f6lMQ+QogVAMjHPBZ51xirrn+dnPLrXd5EEqH0a233W2uu/GOxjct+CD6yNmXWHhwxwcAUmBUJ4aQDyKbLCOmWqB+9NzLFABVw+iqq242Z5+TrachjCyI7mwHIohNRpQKImeW8p6Nz6kRiLTl2JxJBx58rL0MDOjg+0lACdNh/oATYHDhxVcGy0FVIEnVGR+6wG6bp2Pa1WhDZRlI3bbSDp1L6bfRG5hlLUDE8ZOuMHbd+uohBB1z7L+EgEmRAgurqs86UC2IlBsTkkGkQAiaNPdos+72p5rJWx1nxkzYtoBRKog8jx9QIGoKoylTNzdXXnOLuQGjoQBCCSDKYIQbGHA3HYOmTv73Ruutv2XY+VUwUqCjiSGkgShXAB9WkWATJ21qL0/GQFQHIweiT2XvOfnTxYbTDkS+CiPsGET+dDLuHXbax7bfuedfHnwmAqgAo/cde2rwmQqDhrrqmluiIILZ83RRvm3l2Lsj7pOymoCI46WZwriF3HrTQOR/R9RICiwgnDAjf6Fbbrkr+LypBEBQ1XdEDJ8CQjUgUgAkmjDnCDN1hzOspmz9fjNq7S3y5dirA5G/5yACgCpBNHHggWiLrfawZ34ACUAUwkgBD+uOT5qbLYiaX57zQbTlNgvCzq8CUQ2QTj3to3a/JGiRuDEQ5e8zGAEQxx3/QXP1NbfY48N7fH92wIHvs8uccOKHrIliugh3GXISCozm7bjYXH/97W7eOz5l/7/o4is9EDkYHbbkRHuJFCMlCP8fcNAx9rOJk+fY9r7gwuWBYVx//R3mqqtvsQYhILrk0mvsvrtLXZ805563rGxSYzY0551/ue1zmQfrmDRlTjZPCJQjj/oX+x5/fRDxfPweusZ+B/lxM22Gu8wFCCy/8ib7P0ZCVyy/0UIHy6FtL7vcgQDfz+DSKUPi4kuuzufHXw1o512A43NtwNDDzTZyKVB0wUXL7T7603xQffCM88wtt95t7vzYZ2zfXX/DHWaHHfcpHSeWwfH70/x289/vseAQc8ONd+bbcuvbu9RPBx50jI1dd5yujy6/ovwdEfp72eXXm1NOPceOMDHvGR86P4iTZgoBpIGI45213wFHhpCpkwKMXHWfN5QPon33PzzwnyoIdTIagoaP3shM2vwYs968083UHU43U7Z5vxk5fo7dJnt1oIEOoiYw2mm3/a1B4CxDQNQGRrfcdrf9jdHlV90cwKZKPojww9cgAFJgpEDoI2deZA3/smXXmgULD7GCOSSBCO/v/JRthwsvWm622W5Ps+v8A8y1191mzctPMsxXNSKCMHKCuQEq+x/wXjN3813NhRc5CPkgOuKok+x+wJB32/1AK/yPafgM5gATAnR8w9hsi/kWWh/+yEW5KWG9MO/5ux9ops3YxkIP5nTCiWfk5gWjx3xnfPgC+9uxw5acYGELyTwMlLYggkkCBGLam2+5u902/uI9gGQhlX0X449IFu51mJ3XBxHAA9PGj6zlMp49vvd/KJ8PIJbjw3plBIpL0f66akdE2TGcdfYldhvY1vbzFttto41xXHIcUBMQYVns32Zb7Ja3v4Vu1v6AEuCDaegjaPmVN9rjYBChPQDJfznlLNtmOHEJ4ZKqED4aiDjWNfHviGqlwKKklHkS5UMImrfjnoH3VIEogA5LgU9Z65oR42abiXOPMuvN+2AGow+YUetsaYYMrxgVsa8LiDL4xEE0cWCCaMGiw+yZKQI4DqJ6GOEsDCOiZVfeFMCmSj6I9ty7JYgUGGHEceVVN5WmVV2a00CE73/8y3JHv+9kO/2IIz+QX6ZLARE+x3z77ndUKZkBFR9EuEsLZuLeF6Zw/Q132nnx/+lnnG+hgxtM5POll1xj+0Dew5RgXsXIxgkQBRDkPcwcgPLngfHBIAVqDJQ2IML/MNwDDzo2/xzfzQA8+H/SlLm2HU46+az8c5wc+ZfGsC6Yqw+iyettVoIHbnbwl8E8fLcbYh0jEB84JRD527dtVUzDcldedbP9X44d+47Yv+TSa/P5moAIsPTbH6NW127uPfZB60v7Gz8CkY2x/Y9WoNJUIXhChXeLxtSosoICi0Cp8yWIQTRjo20D72H4JEMoCUTu+6CR4+eaiXOWmPXmnWbW2+F0M3nr95vRE7czQ4ZPDTz7DQWiVBjtMn9/c+XVN5cuzbUBEUwO67ls+Y2NRkWpI6JaIBGIAJazzl4aTBcg1YLojk8FNy8AQGUQOWDVgeiyZdfll+38ZMZoywcR5ll2+XWlZIdgRmhfeQ/jA3zkPUCFkZO8hylh9OYbFwTjEhAdedRJmTGepM6HSz/4vwCK+6xYLg1E7zvmVPcdzzGnlowZn8PsfVP2P2cQ4HMZdeCza6+7PfiO6uabBbTFOnm7MkrytyP7UbV9yAeMv23ZH20+URlERTu6/Svants79n0fRpAMIh4pNxfDploc51XCdy8BdFgKKHophtBRR59o2zIFQkkgCqCjqbhLDpfkJswGjHCZ7gwzeasTzOjJO4QwGqKDCMCpBpGD0IAE0WZb7mZN54ab7iyBqCmMcNnp8ituNJdecYO5/Kr0UVHKd0RJIPJgdPAhx3YFRO7zzkF09TW3lr4/kkSWS0XyHtssgwjawJx9TvnuOvQX2hv/Y2SEz44/8Yz8czEv/O+blw8itE0MRL75sTH6APNv/46ByH2fEhqzD6JDDzvBzoPRhXxejN42NPvu/14LX/lM4FEFIrmMFhOvy1+PTPdBJPuogcieKNx8V/5eO94CRK69YycC3N7oMw1EfLOC3+ftFIImJolhjvO4pppN59ZU31ZA0VuVIQTN3nSH/oGQVEcYNsWMWHO2mbDpEguideedYSZvebwZM2UHM2TYepWjoQENohQYTVp3jll6mauowCAKYRQCSHTt9bebS5ddZy65/PpGl+f8W75jd82xAgApMKoCkXyeBCLvTrq2IPJHRL5wGaZ6ROTEIyJAB/DZd7+j7Rk+zN43Fc2UxNS6NyI6KbuU5abjOy/f4GU5TIep4zj9L/VxaQ7HJO9xDPjuBf+fe97lFjxyGQzLY8Qn86aAiC+FxZQKIigGouoRkWsfXHZsA6LYiEhuVqjq83SFsIlJYtf/v1pF/lQ+mTUARW/FENpv/yPsPvYriDINH7uxmbgpRkZnmPWykdGYSdvbu/MCH88Er68GUQGhnoAo3xkFQikggk49/aPmssudWVaDSIFRdsfc5ctvNBcuvdosvew6s2z5jQFwYir9jqii2GAMRH5NOh9G7np++TsiDUSoGxWAR3mvgQg/ho2BaM5mu+b/y3dE2++wuDQPvveB6UiS4zsiN9IpJz++N5LviESYDxDCceKv/1nMlHwQQdgn/o4i/h1RGUS4pORXdZBjETP2R0gY6SC25DshaPK6+F7o0+aoox0osD4ZPeF4cWcdjlHe+6MlgYetbOCBwgcRZH+DdBG+AytDBgJIoCYgQlu7OxOL5WPfEfEdimhnHzw47hQQYR+wfv6OCH2J9qzrc2ju5qjnWLzfaNYOZu0Jm2Tv1zcbbLiV7Q+OOw1AkKyHY15XAaJJkzc1i/emJ7QqkKhV2+VIAqG9Fh9i1pk4KxlCeekdhk8XIARhHcPHbGTWmX2ovUwHGNkbGCZuE/p4BES2+nYOooP6BkRS4ochlAqjXXff3/6SfPlVNwV3z9XBCJUYYKC4pfi8C5c3B1FWMHXhoiVFZyvwYQmEXM2nqQGItLvmll5ydQCiUaM3VMHD7yEGEerDyaWTDadtbe+uQ/IBgJjv4EOPt+9x1xzO/mGohxx2gtlmu0XWqOTWY0l23OKN7cbvmitMAMYmtx9jZOQbTcyU3Ijrevs/zOzipVfZ/Uy7a64wQcQE7uLafeHBZvt5e9kbHuQ2cX05BxpsS8wdEEM7YZ98yKRI4GFL9HjTGUTyfRBGWvIYExwr4kBq7GF+W0FhnyPt3YeyLxqIZFSD9c3bYW+z1+LDs7vmPmE233J+fuwAFtoQ7Ym74bBNzFMC0XtPTgIRTgxwDLi8izsgERPYL8yTAqJjjj3Nxg9GUHiP2MPx4mcJAiE5SWD4aBCCpE95eqgCQqL1pm5mR0a2xpwChxR1UuIH4BEI4v89FhxgpqznbpdOgRAkNeYCACWDKA4hARH2Y8S4Ofa3Rbh5AZq02ftCD/d8vwSiUomfPgCRVN4eZhtAv34YHHgGIVt9e/i6Zvz46ebQJSfY31Bcc+0ttlKCQCcH0R0AT/bX03U33GEuXHqlOef8y8z5Fy83S5elgcgWPb3mVnPlNa4K91rrbOxGRDjj8EYuFjrKiMaCIKv1ZouOWiAVIySAAzDyf0d04413umWzu+LO+egledHSO2VkY0c/+kjniCNPciCy34+4yt3HHHuqbS9MhwFhlITyK9gevr/Bckjm3fc4yIII8+Ez/I9bjT/2sc9kRU9dguM3IzAxGI0zm4+Zww53X6L6WrR4ifnYxz9jRw32x5VeyRYxavveM1IBkVRQXnPcDPs7m+K3Rp+yd5X55WxyY/TuPIO54Swd28dnuDHiAyedWZpPW06mnXzK2RYi603dPL/lGN+D4WYEjDKmz9zOHHf86RbCMvKQS2H4i8vAAEC5grUDEQzXv2yG30m539VgXz9jbrvtExactnDpmtPNutgH+zuez9jjP3TJiW4b192Wr8tfH36b5h87+nyPhYe4fsmOEz/U9fsQ86BUEP7HSAjbfu97T7brAJC0NvLXh0ux6DvbRxZKt5gLLrzC3iXoKrcDnABROLI76ODjspGvG7HhhAP9jfnRbhilYP9uvOnOUnwhZuWvwAh/pehpXufQGxnl8ML/mrI6dWPHTQ8fGw5Q8ChJeY/q2a5gqvu/0egoW58sCwjhGNhj3KjHwUaKmhbFSLOip6P48TUCsaIItVZd277PvNqHlwPQZDMU1bdHrmdGjtvY3kU3dcfsx67bnORGROTlvufP3/0QV3Fbip5m1bfdg/EmeuDqAYgEND4ZNTGcclkgTbZD0zM+cr4578JlZvlVN7ripxWjoptu+rgdCV108XJz1jkXm7PPvdRccPGV5pJl15tly28yV1wVwkfVVTebjTfZITjrCDpYEQJBHRHR90VVQrIJnJLknd0VzyMKz/zCs8NQziyURE6QhXB2swCfBacKRUPlfwZdimzVbO/yXBOJocHkAXwYLQxTzBtw8r8XYmF5HhE1kZgpT4+Ljt3Wqgunp6g49vrluc+0vksXx04xTRPHaxG32LfYiIjzIJTLm/XNOhNmmd33OMAcc8xJITQq1HZEhBEQtrVor4PDUVAOkrhkpBIdEQUjH03VoyFoBCA093B7SQ7fE03e+kQzBrdyowp3ZDTU7yMiIR2Dh8UHIBoydJIZMmySGTRkgpk2c2tzwEHvNR85+yJz8SVXmauucb9rsZfrbsNzie4yN9xwhx014fLGWecsNR868wLzkbMvNuect8x+R3Tp5deby3GzQgKI3nfsB+13KVxKPRVGcpZiocIQSgQREq4RiDwYFQkbJpsTJykldGYQ/jQ2gyrVmVWdYIb+ezbBOqWaaUz6sgyAuOzzdJTpKeKRTijer3Df9f1PU8ry3F9VfVcvLW7CmBJxrJZjtHggZFkc/7pkhCT5NGrUBmbDaVuZOXN3Mttut6BW281bGEyz2jYu3LU3bfpW9rgl99lPAv9RQARFvyMKoKOpAkT2rrlNzMQ5h9uRkL1rDjcq4BbuofqNClEQ9fV3ROUNhACqh9FEMwgHNGSiWWPwBDN46ESz/Y6LzMkfPNucec7F5twLAJjl5uJLrzIXL73SnHfBMnP2OUvt6OmDZ5xrzvjIBebMcy6x3w9dfOk15jLcvn3lzQ5EERhdesWN5oBDjnPDYjtcDTs9BUQFkBQINQRSYxh5QKoWJ2ua2BiqxaaTJhguT3PTB6oYFp2K1z8wxP2hCfvP0+LieKkWx2KaOO4j4hyqEOdnpTjnPbFfRMX+QwCqVAAcTXEIYR34Tmid7HdE9m65LY83o+XW7cC3Q38v3TXnqR9A1BZGDkQYFa0xeB2nQWubtdfZyMyavb3Zdt6eubabt6fZfoc9Lax22Gkvs+PO+5hdd9vfzN/jIHutfOGiw/Ivhq0WF9p+x73N1A22sIHjdyJ3fNdhxEHriQOek6FWnGiqOGnTxAZRLzagaqWYGZvkgFLNiOKNJG73OqX0XRgf1eL4SxfHuyLOmxpxnnKOlqZxvrcBEftO10FUA6Hxc+3vh4rKCicWlRU0v1a8PX779hsFREMBogxGgz0YZUDyNQgavE6uwfmXYNLI3AFKp/kQyoa43PlNYcTBF0gJaDWom8KIEy4qTt605GezqBebUVxpZhaaZq7+BkF/br+L2+b2TlF933FcVIvjrk7lZTjWFXHeVMh/0rImN097CGG50jT2m6YQ6ghEU8xwW2vuyBxCKHwqVbgDr37jgKgFjNAg3iU6NzIiIHlyEJpgBkNDAKIKCNXACIFg/ypB0BcwKgV1P8AoRWwaaWJjClVvZqFKJtpFM26lft1+Z9vmdm2qeN9xHNSL4y1dHN8Rcb5UiPNQUz4f53cChAKxzzQFEfucqhiEJpthYzYyEzc7OrscBwidaEaulUHI+nLo1+znTUG0xqCBCqIcSN7IKB8dhSoA5EZD9oaHoPEVcScylJRAaAIiiIOxDkRV4iSpFCdfVJzMaWLzSBcbVffE5vpP1YvbsLvivq8Xx1kzcWwr4jypEOdfrTi/m0IIYp9pAqEkEJUhxCCaMOdId3dcdjkOEMJNCzEIJYOo4juiPgRRMxjZxvFgZA/WB5KiYln/d0rcCfUgQjCU3isB0VUYEZDqEoCTpVaciKpcIrcxAjaSdLFpwRhjZ9VpklGB+78f1J8josRtc5t1S0XfcT+nieOqqexdb0Fckzg3asS5F1NQSaUhhLAO+z/7S9chBMUhBLnR0Glm8pbHmVETtrbrtd8bRUDEPh4FUWREBAgNKBD5MCqDSBrJHyGVJZ9xI4edoKgGRHaaEhhNYMSBqcoDDQd6OejDhKkVJ6SqzgyBjSVNMTNrp9jybMY9UyIMeqKKbXN79EKu7bl/68Vx1FwufitBxPmQIM67qLKKKkE+dxFE7EdRsbcFqoYQNHzcpmbchguz74ToYXgNIAQNUBDVw4gPNIRRtbihk2DEnamIAyOQElwsDs5AHOAV4qRJEienKk7yZmKTSVdobL0Sm/Q/qvi4eyvuzzRx/DQXx68izoMEcb5VivO4IYSs2E/agIh9LRD7YuiflWJPTgLRQcFlOR9EAqEBByIIB2gbiQ+cGyYibuywQxT50FFGRHa6EiBNQARxkAZKGBH54gSqFScpyZ1VtpeUTWknGKg+oklV0+XZvDtWxaik99rQjOhzAEGu/7APYZ/GxbHTXFrs9g+EYiMizv+Y7LzsKU0g1AJE7JuVEv9tACGoBCIaEfkQ6hGIZEcZQmkwQiPhR6VtQVTUU2oHIwQYgiPo6AQY5UHJt2M2gBGSNAj4iDiJ+BfiqjhZPaHMiTMJvOfErxa2W5QYCo0nRShRExpduooyMc2F5aREUWjyaXIlesLpKUqpbKCpfOzt289BtMnyWt+FfcriuIEkbtJOhMK4xXpt1fqWEJK84fyqlJ+zWLYlhOAdAjL2FPafmGQ9Q9jTIhBqBCKpDTqsKYgmlkDElRV6DiLcLDB0WHawESBdcsnVttijrwULDjZDhgAkk81ll11rLr74Srv8DjsuNrd4T2tF0dC5m++aNxSe8YOyPwIwdCoKNeaFULNadKeffp7tFFSwXn7ljUFnXXrZNeaOOz6ZFwG95Za7bKViTOfCqosWHRYEDQJJghqJgGD1Aw5FHKtg5JadmhdMDQI/Ij+ZkIxu+Sxps89QlNKv3G3f2wKq5WS2Zpid2WowQsVl2z5Z9WWZbo0ARpwtjyKcMp97UmtoSNC22y+y8+DJsFgexSd9k8UjE7AuMT+8x6MaIH+6g4er9YZjwLN4ZD6tAvSa4zeyn+FhdXj/3vedYuvJoeAr/rqHypWXkX1ChXCpP4c4wjRsE3EhhUdleqqwPCAm+++PrHjfWdbEqVYdz1McQ/gZpsn2T/vgR+3+S9vNnrNLMD/3oeyn33c8j4jjSWIHMYPYkWV5nkI6hGyh4TEOhD6Idt55Xxsn++x7ZB77oiWHn2gL9KL9sLw9CVPyDvUrP/SRC+3/KMZq/5e8zfKvKHIMhRBC1fUPffiCYDrWcd11t5mtt1ngtp0BpQpCO+y0t92PLbfePVuHlBXDcgwgHUQBbCqE+V0ha4DO9/UqOZ+3jwq/2EHoQtSay2C06/w+ABEeAYEq2kJQhpCA6KKLrsx3HE+bBIwW7nmIrdqNRyVcfPFV9qARCB88/dzoqAhViSEs64MIJf1t5w2dbJYsOSGDVRWIrrX16lDFFtVmpYggQATzkUBYcvj7LbD2JBhZmEi9NwuBEEQIXA1GV199i1t25FRbDXnZsutymPnA4STJP/MgJEllEzdLuptu+lj+f/4+SOgMJJzQmQmg0jceqCfvURRUqoH7ZnLVVTe7xMpGRigWutXWewSm5CBzt/0LEGG7MDMZGZxy6jm2720F8VEbmJkbzys9AwmPppYipLIMjByPd1i2zD1aAu+xnwIcfxqqftvpozcw7z3mFBtDqBWHCuaaYUOnnPZRezzrb7hVaTr2c85mu9jq2zB0PI5k07m7BMBhYdkcBNh2XrRV377I/9waaXbsttYeoKwsI8sxmP3t4+QCjw/BNDxaQh71XQUXfOb3XTivVgPOSZZH3MhJjIs9TSGEJN/s/tu4zQr+KqMeloDI5oso204MRFbKyaPddpa/fo7XgmiEA9E222YgAkwyGDGAKkE0Ui4PajBqDyF7A9gwgGhdMxzrztbXBESAkIDIjoou7iMQYQeG5MO3EEIaiKCzzrrYGgt+jArzR2l8rKMEIoIRnq8CqGBUZOe39F7XnHOOwMY1fhKILnXAQaeig6XjGUQQDPjKK29SRkVF0VMOOoAIklGVfVrr8PVsMshjITASxOMf5D3mAZQhmYbRjCQF/pfpEJISRoPpknA4XgsQ7f3IqbaquYxeAHBnBG7UJNN9AIkwzX8sBeDrIFgYDx41ANPfcPo2gYGJACI8Owr/j1kThTPXNzM33t4mG0ZMgJVvaqKTTz0nG20V07QRQQ4ceg/wyPSPnnuZPZ46CFx/w53m/R/4SDDdKqv+vf8B77PHzLACxMTYIcyHfZDPZJSFkYhrj3AbgKCMVk774Ll2GkpYAXzusRLu2USYftwJ7qm5IkzHoyrkPZ4266+bj73Yv7DP8seH3Pkp+/gHTMNJnExDUeL1N9zSTkdeom39EbI8Hws6/4Ir8lGJfmkuhA8L2wFIGDbQddffYbbeeoH93+5HlitXXHGDbQ8sDwDJpbmd7CjqbndV5Na77AmPgAgnWXhOlJ0HfeHlJNZ/5llLS1dO9t7niBxEOImS6VgPch+egTbG/uH9mWdelM+DNhYfwuNjZDra7rrrb7MgEu+SkZS8L9TBJbkMOHJpTr4uCaHDKny+dGluaXFprk9AhJUyeFgaiDAquv762+3/l1x6dQ4iuTSHzxhE6GBASs4ScMkOjQaD9B8VIZfu0DlVIJInvEogxECEs6kbbrgzAJGMjBhCENa55Ij32//x146Qhq9nDj/i/XZEJGdZFhSXXZu/B4QYPgAUlgPE/LM3l5jl74gw/xFHfEB9z5foYAz4i4S1yRUkfWEQMFs2DRgC/iJ5xWi23GqPYB5fPojkbBrP3Vm8zxEKiAogYRt45pBvpgwRGf3I+6Pfe4o9NvzPIII5CwhkHhbaG4YiZu4DA8Yuy2uXtKpABMDhWHj/fcE0ffjguGZvunP+OZZduNdh+Tb8+UVYzt8HX+VtO4AIZHzBCPly6ymnnZONFAv4YB70N/53hu/6H5fK5LP99n+vPY6pG7jlOJ7C+KuS/t2ogAg5i30UKF162XXWM+yy2bwyAgJUcUIqUJLLcQIi5OfSpVe7ZbKREef9mWddbH0D67QgAnyyE1TEyoc+dIEFCGJgq613tyfV1lMy+MADsTy8DUBcvPfhOZTw9QTyakjmXeEoSAdRAJoq0Xf0aSOhOIj8mxX6DEQiBlAZRMurQXSRA5EIHQW4LMeoaejkEnzwPh85Zd8bATb4X0ZE6LzNNt+1EkS4HJg/KKpiRFQFolzKiEh7H4JoaQAiO3rKYIP/BUwyIsI6chh5SQjg+Jfl+D3+t2d1GTQgPO3Vwip76qsmXMLBpbrQOEIh+U/6l7OC6WJiDKKTTz07fx8Dkb9M3EzdU0IPP+ID9n9Ayb8s5YPIl8BLlvOF+PPhg/c+dGT7mM4jpyoQ4TMAjEd4vvzRkGjnXff3RkRuGqCG+WVE5I98qkDEYGHYiHCCNnsOAFhMc9By/YG+9QGDzzDqkX7H8id+4MP5e8Ad83F8cMzVqxpEyHsLmGw6Hu4oIPJP5nCpDJeS5X1+ac4DkYyI7PJ2fQ4wgI8/IvJBlF+aG7auHfnIqEhAhCtC/rIy+jn0sOPtXwFUfmluq2JEpKuD0RBBSEBkf7cZgIfVBkQTBg6IMA3B74PI/liVhOcPLdjzEGvI/oPyLKQy+PggEhih8/A9Eoy+FkSYVgEiTLPrSLiTjsHD7zE6qgTRZXEQiZDM/uhIkg1n9v5lOX4PEOWjJe8W2CoQFaMoZxinn3F+DrGPnrssMBSMXACOpZe4x2RDeKKqfO5DZaNZ8+zZnw9GCEaLEZJAyDdJPHUWn8N0YRpirAwaXJJjI4+NfuTynYx+EFswfbSxf8mNL9UJiGD+fHmNQcTvIVw+w/awTqwD/+PYUDUeIMI++PNDmI6Rjx0RKaABBLAezMOfu+P7VHZ8++UQwgkhA6geRAVsOgNRGHOVEug0ABFypBGIPlwGkeTmYUtOtCdyWC9OlHGDk3x3wyOiFBD5wBEFINqxOYgC0NRJ8V18ZRJCh1X2+QEDohiMChDhvft+SO6cK4GIfuQql+kWLDy4NAKC7BD2lrtySPkgKo+IOgMRTBhnKwsXHdo1EMllOgGRDyaAKH/vXZrzk0dg5L8X0PhJye+xLrm+DQmIYpfm+FIeQ0dTbEQk4hGRb3A8ImIIseQGAIaQptg8ckedNiLyAYMRDUwodUTE3x1hXQwNCDBiiEG4vMXf60ACKGwbhi8jIl+YjvWWL+mF7VcHIUi9NHcqLs3dlQOFL82lg0gBTZV86GD5ChDJpTmBDG5O0kAUXJq79e4oiByMTrDL2EtrNxY3JKGvgktz2fdC6qW5w463viKX4EQpl+ZCtRwJRSGUAqLQ52M/aC2DaEL/gsi/dRvJMXfuLvlB+SDCCMgf9QA+6HQENDciOhyBr42WTj/9XNspMHr33RFu7XbCWXXpO6LbP+nApdy+LdP9YAkApMAoBiL5H+sGdDDML92skIGIb1bA5Tj/RgVcwhNQQfaSnwcZjHz896L88twdn8q+9ymgIyMSGUnxSMXBqgwW94V4MQ/gwfP4EhDh/yoQ4ZIdb58v22H5ZZf7++lGPXynGOSDCP/7oyQNUCLEkswnsIH54z3fbCCwkvlklAPhezD/OyKZrt2VJ/IvzwlwZMSDbWP9cqz+jQlYTuAj/QOg+G23/wHvDS7TQhj9IKf8GxD8mxUEMphHpt18SxlKKSDCfFhu3ambZV/IuxsJMP8Vy2+ohlACiPC/f9MP2h9f+jOISjcr3JLdrEAgQk7ic/EE3JQj8JFpAJ0PIryXz/hmBXvjAd2UAJ3xITeKyqffnt2sgGWiI6IOIFQJIgYPK/T5AQWiGIzKKh8UHzQ3SC5uxApxBzlxJypf/HnAiSmAD8sDUJUQnPwr7fzSnEyjkVCdODEr5SczJ36tQsg0FUxO/rYRg6ys0Ni7Lf6Oqi8V3za3Q+fifvP7rrk4jmrEMavFriLOi1p5ORhTnrfKXbIlsR+wIj+gD6T4VagOQMT+mgwi9vNUEDkIDSAQlWGkHTQ3SndgxJ2ogAjigFAUBBeLgzMiToIARC1gBHFiqtKSmY2gUmwyzaSZGZtglapBpIlNuzPFYdB7yWXJ8Bi7J+4b7ieeVi+OnwpxXLKwPp5mAdRbCEnOch7nYh8gWe+oAxH7UVS9gVDMk99wIEqDUe9BBHFncWe2BRHEQdYWRPZvFYh6BaNIMgemUCs2nDRVmRmboqbmIGKFBt9E/QOibh27Lu6HmJrM68QxUyGOR01YJ03j+E8S51kFgDhnVbEPlCDUTRCxr4XeVyn2VQ9CMU+uglA9iAoI9QhEWHEbEJVhpIkbqQ2MuLM0GKni4IiIg60NjCBOAFWcRAniZE0Wm0OS2Hw6Fxtlb8Wm39/i/euduN27J46RGnEcJorjPkmcX4o4TyvF+V+CUOgdqtiHouo+hOLwqYcQNCBBlAajAjjhQYeN1D0YFR2qjoggDpCIOOACcbCSkBD5/0oiBOJkShAnrYhr1AVik0gSG1Fc9tfxynRNbJxQr0YFoRgQTt0bEfH26iVlanh6U3E7p6q+7zguEsTxF1NWGUHec7wni3MrEUJYlqcFeV8BIlmGvcSKfUhVbyHE71NBBODkAApu3+4xiLADbqdDEKXACLcJonHDg06DkfwgNWhwEneedKr9cZpaLqMeSAimouZThThoPcEM/PecDKqyRHL1rtKqCAfJPCKrvu0ldFRsGJlcjbOY6bAxhUKdN56WIjFRVyeunRljOb1WWrqwfZ6WKtk+T09Vp/vO5ZmaKt53HAehsH237Wwax1uNpOAv/uc4T5EtWGqLjiq5VQMhLWeDfK+AEIR9wHI8fQh7T0RFjbmGIGL/VCDkPNettwmE4PU+iIoSP9f0DYhQPRuNgr8CpDJotIN2012BPcCgaFgdQFmDS+mJrANQNNAWAETR0hFZxzJwgs520xEIWA5FT/PihVkwuOPJRkveGYwvbA/LukcpIEEckMpykPPh4ZYtCqaOGgMzyRLD/7xKgMBot6yrYpwZgJK0bl1hIkvR0rz4ZA08sEwuKTxpK0DL8oUJyXx2Oc/85L1UTx6bFf10hpxuqij06Qp/TjNjsH0PSDJSqHqfL7vmdPtXTL1O/vI47rG28GjxOAd/e7KvvA4Iy8j2BaZ1yo8927ZbXoq2xo+Vl8+LpuZ9F4Fhat9l6w5iJCLsC7ZrC7bmBXcVIVbpPZb349bFfXEixnEeKHv0SalYsP3MwaeoG1nkYZizU7OcRXtkIMwBxvnPnuG8ynpOVmxZgFTyHPag7L3UtnS56rbHvqaJgeR7qfvf+S6mFdsRT1Ye0aMInj5/94MsgCBb9BT/XyyPgZjgQasHIBKoCBU1MZwYVDhgHgmljoqks7ixNXEHoZFtMFSNiCpGRRZmGYDwRSSfCQVSgIaA5mk2aJWzNJZN7MQRkS9JTPdcmIQRESWzqHpE5EsxGntWPS2Y1kQCMPwfGGmNYIidjio6GREVAA4/S5Fbvn7fuc1sWykFa5uq3Hfc39XCfjWOO09ybBzXtcrzJjv5VHIK4lxkYdv2f85vRewZkNsfHyKpcr7lj4jY46JSvLOACPut88YmoyF9RHRN342IhHRtvytCQ6BBuTFY3Hgi20GJIIIYRkWn1kgJKDl7kJGTmxYGYxWIkJg8TcQJwhIwBAmXIJvQMnJRkr1SnqE4swvNJlRoZjBTntZEAhGezmYcUycQgjoBCY9UmqpqeW4PTfLoCJ6eKoyk3P/cz/VqHXcyws/WwzFdKT9vsHxWuLQJgIKc5fxOgJD1iGw9bSAENYYQpHhnFYiKygqhZ7NUENnviPoYRGWFIKqDETdETNyAubjRK8QgcuJOV6QEVEwckHUwqhIniypOukRxkjeSYjDpcmaWapqdiE36H1V83L2WBUnQrwniOGogjt9kcb4o4ryrFed1AoBUsc+oYr8Kfa1S7JcRAOlir9YhxCASCA04ENXDqB5I3JDdgxF3fIU4kBRxYKoS0Gh34JA4aVRx8iWIE72V2GgaqD8MFGITb6vYiKTXkmPg4+q9vL6j97XiuGkojt1kcZ4o4nyrlDz6hfO5DYjYW6LqPoS6ASL29zKI+n1EFIcRH4jINUqHMOIOqFCpY21ANIARB1NEHJyBBDLdAhHESVgjSXBO+lZi40lQYWZseGnqphmz2aeoL0DE++nvL0/rnar6LkEcKw3FcevHbqU4PyLifKtUDYjYBzRhPfZ/9hZVfNIc+lml2CcTIVT2ZF3s7wWIAKAKEK3RzyCKwagrIGoLIxsQDUdGSnBp4iANlAgiO5+SQKo4GRPFyd9KbEA1KpsZm1+9em3GDAVWt0HE2x8YCvst7LuIOD5aiOM0WZwXEXGeVSrLW7sc53IihHKxp6jqDYRSQMQezWJfTwbRGn0KojiM+IB0caMkwog7okbcyWEgVIgDKyIO1kAc7DXiRFLFSdlAbAStxIbUSGyEA18MFBbP/8YQ90sDcTy0FMdmsjgfIuLcqhTnrSLOfVXsI5XqAEIQ+2MyhCD25LLY1wsQFd8NDRAQpcPINU46iCBu3EJKh1TIBUcLIHGAVYgD1lfjhEiFEcQJSoolOxtCK7E5Kao/q2ZzLKu/Tb4/t9+bbXP7xxXtO46DFuJ41BSdj3NAEedTrYKcbQEgUVU1lwiA+h5CMm/o1TEIhSAaMCOiOIgYRvpBh43DDRUVd0qFXHBwx3NgVIgDLSIO5hKI8D8Hf404uaLiRE1J5m7BCGKjSjGzQGyYTr0x43T15/a7u21u73oFfcf93lIchzEF83LcR8R5VCs1Z9tDCOo5iNgPG4Mo5smhjzcCUQahfgBRHEadggjiRm4DIxcgYceHwRERB1tEHMwBiPoBRkEyK2KjaCXFyFQzq1XZQLtrxs3Vn9vvzra5fdNV6jvu7xbiuKtTaRmO94g4f2ql5GvvQcQ+FHpWpdgHW0Ao7smhjxea8MYEkQ+j2EGHjVQWN/RABhHEAc1B3dcwSjUANo3WqjKzxuqWGbdXf26//ba5Hdup7Q9SNXG8pShfjuM8Is6bWim5yjnL+R0VecYbFUTs341A5EGoJyAalAElBFA9jNwBTzRDhoYHnQIiKO8speGDTlI0dDiCxf3PARAGSRhQoiD4oioHtRRdbQMjqT3HSRcVJ3NmKjxdE5sH1Mkv5LFd3HXGBtdEqDXW1pCxnKsTGH6WKlTf5mmpwrZtmRvlsxQ1r4xQbru875R2rVVWHiro00T5ccNxliLZjyC+K6TlDedTLs5HJWfDvK4Q+0a2DZ7O/sNeJYp+zv7XAYSagcj5fAlEfmWF3QhEg9bpPogGZzCQHQ8hFIeRg5ArfKodeBWMMP+QIa7cxTDbqREgcWf5HToMtebcGY4LGAaRg5F2BiPlfVyhRBfAQQBGhCCUZWFGeaI0AJEUPyxAECafKi+ZbZkYa4bphmC3lRmpFI5sCiNrRLZW2zT716qBKRbLF7XiyvOwCZdlC39mxTP9op2pAgBc8c5pzYEghUdHZ4U783p9acKxYxm779nyPI/fTlrbyfZt2ynzqCKI2L5rcSLitp/d+p4tyzFWJexLDvGEUZGfMy5+XY1GWzjULus+G7T2Dma19Q817551qnnXlldEtfKWy80qWy83K2+13KysfB5oiyvMuzc6xay6/hKzxoTdHMhQqDmo+s++o/tVXlYMJ9A8D3tfSwhJIWsfSOzdDCEofx7RxVR9uy9ANEQqYrcE0dAMRP46UkGEZfNRSdaZ3AlW3GFep1oQZZVm7XRFURBl1b8R4DaoGDgVcLLLjljPjEIFYUkI76yLk4gTaoRX/BH/1yVkSVkyShViqT6eKhgAVzFuYkhiRs7Is5FJoiGKkVozlsrfAYh86UZequLcAASQLG8rd9vtazDQhX31t50CQv9z6TdbwVpAZj/j464Bkd22vnzpfU3fBf3O7+mzvP8QN9m8HF9Vwj5J7OF/O53jW4GQljfDxm5qVt7mKvOWAx4wbzrq5T7RWw7+g3nXvFvNkLW2KfxB8Rz2qxKIRsjlQQ9G7HmNIFT4rvVVC7uyJ7N3R0GEkdDFrvq2PJOoBKJB6/QGRIMGTTCDcRABeDTxQTjQ4IBDANXDCLIwquiIGIhEUgW31OGqIjDKAyKTAp2YABxAgIf+JSkgElljGFEumsrJWCX/8RNNJaO5wIgaCEZamqaYaZWk+jRPr1YZCHUQqFInRVthxM5Mw89SpI8E01WMxMLPcil9Fu27BEnsIOYdhMK4qlVW7LeqejbEueILOfPuzc4zKyx5KgBFX2mFI54z79rqKjNk+NTAa9ijWNZvfM9iv2sMorLfYjnfk9mzNQhB/qW5UtHTvgCRW7lspE58IAKjFHHjOfkNzp1QktKhAh1tWqgQRJA2WmLgVIlHQqqUZLLQyZIzmK4kpqZWRuCJjaapohBjQ4yIz+Sbyi3fXk1GQiw5K+fpcWn7Hh5TqiqX5/5QFO27iLTY4WmV8mO35rtRzgdfq0/Z26y425cCMPSX3rHrPWa1yYsbgSiYh72uAwiJ3PKhV6eCqHSzgoAog1DvQFS6/lcnPpiwEeLiRgzFndEGRDI9lAKdmBToaLIJwuDRpCRVnThBWZ2CyBcbT5JSzIxNMtVMuy4GQ1OQxMTbSVPXj53bvU7YPk9TxHHSSrHYVaZzDvhaY8Ku5u0LvhXAoL/19j2+aVZfe+eoF1WKfa4RiNhfC9WDiH2dQVRogIIohJEcMDdGKG7IUNwZdTCq6vwQRA1gpEBHExLE/mXwsJTEShEnamUyswE0FJtQrRLNrJi/rK6bcUP15/a7sm1u3yZK6DuOj8ZSYjYWuxz3mt4577YAAgNF79j962Ywnoaq+FBU7G+NIASxv5ZBxD5dBaFaEHkQ6hGI1mkBIx1E/QGjKhDJ56EU8GhSwMNCguT/M3xYSnKliJM4lsxWbAYtxIYUVYKZqcqMtCtm3IH6c/sdbZvbs40q+o7joZU4Litil+Nd07tnfdC86ai/BQAYSFpl4w8G/lMp9rYuQUh8ln26WyBafY1egAgrbwyiMoxw4N0EEcSdUygETdDB9LkuBTyaFPjEQJQEo5ZA4kTmZC6JTaGl2KACVZhZijoy4y6oP7ffattKG7ZWpO84BlqJ41GRxC7HeUxv2+s/A+MfaHrLgQ+ZQcOnBR6kKvC1JhCC2FdDhQCKQ6gSRPMP7CMQtYKRDiIfRrN23tbs8v49zaLz9zF7L9uvI+11/r5m/r8sMpst2iEATdDJpBBCDUBUAyMkSWMQdQlGURCJ2CBais2qzsySxcuz8fZYrWDQJSVvm9usW/Lanvu7I3EMxqTcpBPTqjOOG/CjIdG7px8X+E8gBUDNQBRCR1MIoc5BBAj1EEQEoYYw4oNecMZeZt7dW5mZt6/bSpt9fKZZ8PmdzdH/eqg5496TzbnfP9N8+Lunmvd9fYlZ9IVdza6f2s4svmgfM3y0u3Uy6GhFIYgcjNS75jQpENJA1ARGTRMS8pO5FkTZ+mNqakJVZtZKdcuzKbc184g6WR7Ldro8TwuOv0p1bVenkesH/dtEWEdpGsddnRrE/Tu3uykw/FR9/mevmRdfMfb12uvGPPbs62bEqa/kn4889RXz5PPuM+jRv5Q/b6qVtr2p+rsiACcCoxA4mkLgxNQEQhAuwTGE+hhEbUdFUHHQ2x+xu1l8x54BWFIFAO1zzwJz0Q/PNV9+8IvmJ4//2PzhuYfN0y89bf74/CPmZ0/81Hz1oS+bpT8638534F0HmO2P2iPs7IhCEHU+MkKi8LRGQFISL0VI5iQQeYnfLflmFhhcEzVdno27Q6kw6CPZbfPx9ZGkD7lfW4njLEE2fhuA6O0LvxMYfopGnfaKeep5Y5Z941WzwlEvm3XPesU881djHn7mdbPC0W6ePzzzuoXTlLNesZ8/8Zyx0+TzpnrL/g/Ug0hRCJyYQuCwtMFB6Nuh6kAkEBqwIILWnT3HbPXx2QFcUgUIHf+No81XHvyieeyFP5nXzevuNIZemP74Xx8zX3voK+akbx9n5n1iCzNnj3lhh0cUgqhzGFUpAI8mJflSxAleKzaRDsTm1udSzP0NIT6OPhb3Y0fi+EoQx3CKulk54d9//bp5/m/Ggmb0aa+YV18z5uTPOFDh80u/8ap59XXTelRUCSIFQM1AFEKHFY6C3oggagGjQYMnmAkbbtTxSOiYrx9uvv3wN8yLr7zI7FFfL7/6svmPR79r4XXgXfubidNmhR2vKIRQQxhlgMHr+z/4sU0Uhg8rAA8DqCWMYAYyKnrwt78zf/3ri0HiB2IzqRHWiXXzdKjpWf0PfvBftt3kferyv/3t7+1+8PRAZPqvvPKK+fnPfxlMF9VWJuhUvH+e3Ggs7fi7Ia3veFpjcWxViOMW4nhWNWxds8KSJwPDb6tf/PF1eykOILry26+ZV151/8vnb33vy+b114259OsFnJpKBZECn15BiN+zZ6taoxpEPoR6BCK/xE9zGOGAcTMBw6WJ9v3SQvOlB79gnn/lecJN9Qvz3/PA5+1lOuxD0PkRCXzUEj+JwgsgguEANs8882fzuc99OYBQFYiQjACJCqcEObNzCZ0MIpGApKZEUBWIUKKnPC00QF8MIlcnr96MNRDZMjM1JYpyECmf4bhRqy2YnihAzNW4Cz8TPfb4E+ab3/xuMB2q2/c6yfIfPP088/zzL5iXXvqbmbvZrqV5uL+q+y5RiSV6RByzENaDduPpgbKc6NaNCtsu+7t5+e/G3PPz1yx8/NGRzPPmo182z79kzHd+3f7yXAAiAg/X1QyhwwqhIxq59lZmnU0ONaMn7WAGDZnsQIT1DvVv3w59myHEICqV+OkLEOERDqjWOmQYGkXZyQw2ZfK6aVh2+MgpZudPbBvAJVUYDV38w/Ps5bg2r8dfeMxc/uOlZvFndzfDRoSFT+17C5psmsBhOAqmurpZtvCpDXx380IhV13Xnybv8YKx4lEGWP7VV18z//nj/87WrSSVvZRWSIz0T3963K5HkpwTXxJX/oeQxKgzh4Kr7lEKU3MQAUy1siYsFaCzCt6ecflGhnUCBPLempCtvry+GWOrZ7v/A0OWM35PAiIuWprXbOPlsvclEEnlcFk2WsF6fW9EVF6fVK8eM9YVPc2LpvrbjxwHzL+87xuaI486ybzwwl/N3M13K82LHPzFL/6ntD61aCpvO3ufj5p4+9myP7/vl+bvf3/VPPvscw5E2L7Xd35/xPrOjgqV+UO52JH9F8nJEItjWeIYsYrtInalVmKeHwQ80QpLngnMvqlwU8JfXjTmfx8rANNLEJU8yIIBNTWnmOH5Yyyc3zCkNInv8jT8nbFomdn08E+bjfa70YzbcM+sLbOip3g8jrd8TOLzKHoKAEEXLnV/UfgUd9MBPjJfT0BULnra/BIdbtFmuDTRXl+Yb/71of8X/U4o5fWdh79p9v/SnmbWrtsFo58qlUdEzS7R4eWPiFLEI6INN9zKGskPcImvxajIXQJqOSJC0dTsElLJAEjNRkShfDMbUCOibPs8LVVSdRz//+Sn96kjkiq5CuTxfa/Tuects/C76aaPWdhh+3M22yVo/5hS+i4XxQ22Xzci4lgtx23NiIjy5C0H/CYw+yYChJ5+IbwJAd8HvRy5NHflt9pdmsP3WaURkQIWOyIagqKkPPLRFILD14YLl5q5R99jNevAO8yYdXc1g7JtNxkNVY6IduuDEdHqFjwEoQYg2vUD7b8bmnnbuub4fzva/OLJ+wgtzV73P3GfOe7rR5ldT1oUwKZKcnnOP3vxYfTVr37TvPTSS/l2XnzxpQBESFRARt4LdPD62Mc+bZ544inz2muv2fcwjgsuvMIm1yc+8Xk7ivJfMNsUGF140XK7Lrywjj899rh56KGH3fLeTQxXLL/RPPdccbkT/2NZfLZBBkEYdW4gmfHgMiPWif+xzod+97B59NE/5fuL2PrSl/7VleLPlsH6ACysEy/89QEG82IQ/eCH5fciBg+/33DDre3lKLQt/uflRQDRr3/9YKkP/vKXZ+3lLHwuIPjGN+617fk6HCg7vs9//v/l69lr8eHmsceeyI8ff5966hkze9OdbbvwS+DHIFx3vc3Mr371G/PK3/+er+f3v3/ETpd5vvSlr1uofPzjnzHPZn2H/cIxzNthcT6fABhte38LEPl9F5UCGIkTu22engAhG5/Z+nm6FUEIettePwgMP1UCoYeeCkc4vbhZ4W2LfliASIEQJKOkEDqaQvj4Gr7mpmbm3lebOUd9wcHooDvsZbohQ6cEXq0qAiJ5MN55fQYib+W1MFKAtOi8fULApOg2pzPv/aB59PlHKJWbvR597hG7nsWX7RvAJkUhiCab7373h3bdDz74O3PKKedY/ehHPw1AZN9HQAQzvu/+X5kDDz7GHHf8B83TTz9jweaPjvAKRkQVMDpsyQl2vVjXQQcfa/WHPzxqjVZABF173W12Gj47/oTTrWS+6667zRoGYAPo+CaycM9D7T59+9vfs2aBdcp6Dj7kWLPHwoPz9Szc87DcVPB9CAz2zjs/ZefDX7zHdJknABG9FzF4+D1MGSCqghAEEGA/MWLYft5e5uj3nmz35+WXXzaLFh2Wz4fvcX78Xz8z++x7pNlll/3yebbeZqH9HBDC5a8PffgCM2fuLubGG++0o6AxY6fbz2VEwiMiBhHaDX33hS9+1Rx8yHF2PVgOUJs4cbadByDCC/mL+RbttcTccIOb749/fCx7dlV5FNsGRLyOkhS4pIrjtZE4/jO1/R2RQOg3T4QQEnX79u38d0SoAKNASBQCR1MIHtYagyaZketsbabvucxsesTnLYw2OfjOfGTEfh2DkAXR/ANLNykAQgMDRBqM6GD2vnzfEDIpum1dM+OWKeb8751tnnnpaZt8bV9YHutZfNk+rqMV2FSJIQT95S/P2e9vhiiX5SC87F1z2fdG8t4HkV3euzR3080ft9MBCYERXlEQKUCSUcf6G25Zmo7Rjg+iP/7pcXv2j/99o8A0O9oZvp75+te/Y7d/yqnn5J/jjB3rF1PCOrFu36gw+nH77b7bwvJ4YZTkz4f3eJ3z0UvtewGPfN4GRPgfEFpy+InBciyA4Mknn86BAe240z4WkPl3R8pyF110pQXY3Xd/zr5Hm2FUyPOJUkB05JEn2Xa9994flOa57fZP2G3dfMtd9r2A6D//86el+X75q19HYdMGRFgnT7NS4FKnAChtxDHvadXp7Sor4Dug2Eu+AwKsHvnz6/kPWnFHXdvREGQrKyjg6Q2EMg2eZEZN2t5suGCpmXPkZy2MNj7wDjNuw0Vm8LD1As/WIASvHzAgUmHEO0wwWnzh3iFk6pSNhmbcPMV85NunmT8+9yjHSaMXlv/It04ze13SDkQajPDKRzyK5PMqEMFMfBABQHgJiGS+WhB5QMJoAML/MA5JZJxt+yCS73bkvZgGpuESo7zHmT/gI+9x5o91yXu5NMeG5fbbgYgBw/PhJg5tPv+9b7oxEGF+QCQFQhBAcP/9vwqmAyw4xhiIPnruZfay2ec+9xX7/mc/+4WFBUZGS5deHcyfAiIBzMKFh7rPvW2jD2Q/Zb7DlrhjlLaqgk3VZzH567ZSAJOiACiJwjbt/xzjEb1l//8JTH+g6c2HPm4GjZwZgKcXECqBSGA0cXszbfcLzZwjcZnui2bjA24x42fuG8KI/fwNASINRt5B7dLmOyJA6NYpZvpNU8yxXznS/OLxzr4jwvJYz84nLCg6XYFNnQRCl156jV1vpyDy33cFRMMcYAREvuRmBXkP4/RBZJN/uGf+mZHgOwo74hlejGzuvvvz+ecCNDYyt98ORA888JBbp2J4/vJVIPKlgQhmjWPyRw+iP//5L3Y9eAEgZ599iZ3Ol8ZEABEuhwkMcGkOAJbvt+QlIIJuve0T9jImvq/BiAw3CchnKSDCX7xyEJX2PwOjB6IFCw8ptUkVbKo+iwnbyt8rgEkRx2BjKfGtCXmyyhul+rYCn16AqPxj1QJGI9fexmy4x8UWRHOO+qLZeP+bzFoz9zODhnowCvzc+fyAApEKI95xD0Yb77xNCJo6ZZflpt842ez1ifnmGw+45Gv7uveh75gDPrOX2WjHrczgId5tjgps6hSOiPA+DiILlITvjKpA5IAWJqAmf0Tky79ZAeIRkYhHRIAOXuecc6n53/99wBqabzY5SGRaZl54dXNE5EtGd/gfhgkQAUBf+9q38t/M+N8P4bLXaad91Arf5U1Z1335DxDgmNj48xHRiKnmvvt+ZQH0H//xn2aT2TvaaTwi8oVtAWJY5uSTz7bTUkAUjIg8yYgIxyuXM3sNIisFLinimGolJbY1+fnzjgH0ZFbW2/b6sR15MHiaASgNQlEQWU0wI8bNNdP2uNDMPeqLFkizDrjFjJu+t/19UeDjCogEQP0OoiYwGjx0otnp7oa3cAuIbphs5lw/w1zynQvME88/YROw6evx5x83V35vmVl0x+7Zb6HK99szaFIE+GCU4L4j8i/ZhSAKRkQaqBJAhP85CTXh5gkYF74jcmbiElv7jgjT2AD874hEmA+X5zAqgHH7nwUgyoQXf0ckNziIUr8jwndO/nJyLPI+vzV9xHrmsMNPzG+CYENnad8R4Q44uVsQIyKMpjDS8Zf79KfvsSMfDUQQ7nLDPsjnKSCS74h+9J8/tceBafhbfEf08VKb9QxEWf/lv/VpKI6nxkIcZ6Nzjm2WnzvQ6uvsMnCf0LrWzgF8moMoBA4rBE8ZQiLcTbfh/AtyGOEGhjU3WKh4eOHxAJHAZ0CMiFQQaTCS74mWNbxhQUB0/WSz4ZUTzeI7dzf33P8F88LLL9gkTH09/7fnzT33f94uv/s5C225oQBELWAE6Hz3uz+w23B3zZ1tBZMe0mUQwWCfeuppM3fzXe3ddZyMrMMOOyH/vgJ3wh13wunWqPmuOdxdJ3e7YR5I7nbD9n1zwHFhWbwwMvKNJwVEENadetecvD/11HNKd+TJnX0w7BiI/PX42xcxCDCywS3cAMGFFy63oxmMCHebf6AFEb7/wvZwBxvuiPvKV/7NmjpeAhq09b3f/aG9q27f/Y6y68N+n37G+fZzLIPXv33j3+06cIce9kVAJPv2m9/8tnTX3A3eXXMTJm5i5+kZiKj/moIoAEobeXFs16nEt4ghJFptyt7mHbveE8Cgv4R9WXXSXqHnNIZQd0GEeUdN2NbMOujW/HdGM/e+xqyxxkQVQgMWRCqMGEQZjBrXmvNGRBteNdHMWr6hOfbTR5kf/u775u+vud9Y1L1efe1V85OHf2xO/NwxZtGVC8xaU6d1DUQCI9zh5P+OCGfqDJpaEGWX6mIgwp106Cu8MCLBNE5K1sc+9pnS74jwWxZc/vJBBOE3Q/w7oiuW3xAYxCmnnp1vnw2oFkQyLQMG/47IH+0wiGDiGEXx72r+6yc/qwSRTAMMMEIKTDcTQHDLrXdFf0cEEGGEhM/lN0TyI1HASkAE8GBd8sI899Adgr99yF0+xHrkUiSDCNJ+R7TFVqgK4j7vOogUqECpIBraAwhB7ofkuhg+gUZMNe/c/mbzpiNeDMDQl1px58/V3pyQDqIQOqwQPDqE3Iholtlw9/MzCH3RbHLIx82a69OIiPx92+33UkGE6cyG/gWRBqOMvjO238rMvnNaCB1N3ndEG149yax/2QQze9l0c9Jnjzdf/9XXzOPPPR6ttIDpjz37mPnG/37dnH7PyWbL5bPNnEXb2n2LgqgDGOkqLtEJiCrFiZQgTk5N1ijkPSd+C7EJ1Uk1MzbCCsnlqf5Sf26/59vmfknpOxLHR2upsRtOgzgPqrTG2vPMirt8zqyw5M8BJHqlFY54zrxj/lfNahOzH8+zz/QIQk1ANHzcHDNtgbthAZfmZh14qxm34WK7rRiEoElTNjXnXnh1AKJNZu8UsKHrIHI74eoHaeKdZRDZEkFDXEMkP4/Iu2tu2jWTzPqXTzDrXbSO2Wjp+mbPG3Yzl33zYnPvA98xDz75gHn2pb/YUdJzf3vO/PapB833f/s9c8W3LjOLbpxv9rhkvpm7z3ZmjUFrZyCKQCgCIx8u/FlsPoYRkj4AjyYlkaTunD9NLpFpL767TgynLYysGSm/cGdDisn+Ol+ZnovNkeRqjYXTUwQjx487OzH0pOoCEWHb7sel4WcpcuWZ2i+vHju3f4Wq+o7jgYVtIXZ4eiAFNA5Cbn/bAqiUN/jx6PBpZtWph5hVZp1u3rXFFTW63Ky8pfsremeCVt7kQ+Y9GxxpBo2cke9H4C+JEBoSfB5ChxWCR4HQ4IlmxNpbmmn+XXMH3GLWmrm/GTRkvcrRkPj9e4893YHo4mvt35NPO8/uK3Oh6yCSUQT+xoDEO11ACMY/0d4k4Bprghk6YorZe9m+Zu6dM0MAeSCS3xFNu36y2WD5RDP1knXMehesbdY9dy2z6dIZZp+bF5oPfOZ4c+G/nmuu/PYys/TfLjAnf/ZEc8Cti81Wy+aYHT+ykxm5Js5I1jGDB0OuUzgYcgARjACTvNYcCgQqABqMYAsAVF4WZponE8OHJcmUJZIUILVJWfM4iVIyZ8uj3pfU/OLPq+SMRJ4yCkODASnzKSYFyXcwKLwp/1eeYSsmiu3mBVcbGrIt+poVL+WCrSmS5bH9lHp7pWXzOnfYdlErj+erkhSdrTt2bb3Sb3LsOQy5zSPS+k4+kz7nOPCFfnZxVxw3z8Pg8VWOWzc/x3pMdv8E4nnOJORdJilc7Bc5xnqDvI/I5j7yfkQGQt9XEiCE+nLiHUOxrny+EDxNIYT14DuhDXe/qPgd0f43m/Eb4akEaRDCesaOnWaOPvaD5rwLrzLHv/9Ms87EWQEPegIidymrIYgyGKGR0Oh+lVd/iIhbu+efuqcFk9N+hS7bzyy+dF+z19K9zYLz9zTzz9rD7HzGbmbHU3cxO5y8k5n3LzuZeSftWNJWh88zG2412wwaurZZffXxZtCgtWzFcCfpuDAogoARmKBKLargSlBx4HlBGgMRzEAuM3DQcyJYZQklEConVZh8pUT0QTQC284SOjuGVBghmS0MsqKhYmY8n51XM7PMSGBmYiqVIBL5RpqBoM6MNUnB05HWzDdoPDLB9rB97D/+Ntk+9h/L2G1DCSDiz6WCtyv6Gl+Wl5Np+fZt/4Vtz+9Ln1Hf2WP34INtcAz4n0n/2djR4kaBD8et678sbpU4jwnLF3mD4wnzLq7yyaM/quK8jylfh4AIvjc09BsGUA4iW4E7AxGOKfMlBk8bCI2eOM/+fmjOkZ/LKivcasZPX2yGDJ9aCSEGEU7oITyRwTEh5EFPQIQNVW0wCqPSqCi79khfmIXihnQHPXgwALi2WX2Ntcxqq4+zWnW1NSPC5+OtMH8BIAchDUSqvMDSIKSJYQQhKMOgr1GWWC6xXdHUVPmJLYYTJHwKjJCQ2UiGP9PEhgbBDHlaskas1wpCIjFkzaxThccR8LRUCUx5eqrkEQg8vVZZ+zkAxQuP1gkAx1/u5xTZUZHdNn3G8ReR3YeGce8rhwjnVVRazob5nSRUz8Zjc7L/NTGAfA0ejOrbMhoKwcNivwxBNNGMXGcrM33hZWbOEQ5Csw6+w4ydOt8MGjy5DCEFROzzIvgqT/PVdRAJZHhDLD4AH0a2QZJAFMLINbaMxARGAI0DktVqazrZ9/hsrWxegWgZREkw8uASBFuFOKhtctj/OfgTlJ3lcaLVqUjoBANgs/AEM+BpdfLNTM6m28qCtAN1AiG7fBsQ5FK+o2mgxstqbae0aapST0Biwj6VpnHc1alF3FtVXW1Qpecs53Wycu9QPKUGQr43MXA0sVeGEJpghq25qZmx1xXZ5ThU377NjJ6ysxmcAKEq36/6DOoJiFLFB7EGpvkgagkjByIHI9x4ABhZZSMfX+4zd3MClis6Tu/wSnGQJYqDunjPSZAgTrREIZnl0kSyFEPpRN0wQ56Wi424B2oMgy4qum1uhy7K7ztsi/uzlTjGapTHb1MQcd4kSYFQJyDyfYO9JBFCTiF0NIU+WYYQNG3BpfnvhDY+6HYLIdy0gCtVdSBif2ev52mi1VbvZxBBfDABiJJgxA1bNG6xDQBJlIHJAqiAEJZzl+a4owtxsATiYEuUDqI+hlELIwiMpAOJmbHhpaoSRL7YrLukKAz6QKVt8/F2Wdxvft+1FsdVgjh2OZ6j4nxJkgIgyd0OQWTX00MIhd7IKrx0+qIrzJwjPms23u9Gs+b6e9ht5J+3hJB4ME8Trbb62v0PIogPKjjo1jAqN3K4HQGQjITSgoCDJhAHXKJ0EPUdjNoaghUbSwuxmbEB1ikZRCzF2Nuo30DUybE3EPdXVd8li+MoUVrs8jRVnCdJ4nwsIGTztg2IPL9gELHfVCsEDyv0xJg/TjAjJ2xjJm5xrBmz3q6ulpx4sfxtASHxeJ4m6hmIqjaqiQ+sdNDJIILijY/vfuIqlksNhAA+HUJI5JIlDPowOUIVd89k4iSsUb483cSQqtZmlCm2PBtiVB182Q51/B1TB98RAWLJIFP2vfKzBFWBjPtDE7bN02rlx07VTTKkqritlJIzat6UxHlYhpDkLOdxVOwXJPaZavmeFQJI88EqCKny/df+z14d+rmm2HyAUM9A1EZ8cAGIGsBIE3dQXNzZujiAVHEQJogDvimMAnEyNhSbQJLYcLooNskBI4ZFqng9A0Tc7l0Vx0uCOC4bi/MiSZx/IYQaiz2iNYjYt3SxD7YGUQejoZgEQgMKRFBpRKTBiBtJFTd2MyA1C4YwkDoGUcWPXlvDCOLEVAST4Gl2umIMtWLzSVCTs2o2TqjqrL4v1J/b79a2uZ1Tldx3HCcJ4njUhHXzNCvOg2Rx3sVBpE1Txf6QyS7fyHdC39LE3tcRhOR9Swhp8w8IEC1dehVXnDH//u/fN4ceepx5+eVXbGVhH0aPP/6kOf/8ZaWGQrFILMPT/BeeNyONj3Vgfr+zDj3seLs9/4Vto8O1dXFQcFAFyoIQpXaCwFSE5Mn/j4qTploowulX7pb32osrfKNauC1+qhhElfCy/7MReeKiqr6Z+aWJ/OcloSyRvGR5MVHfjPG4Bnmh39hwobXXmWXXccXyG4PPfN166935uv793h8En4uQI7/45f8G06Gf/OTntpgs/v/4XZ/N14fX//vqN4P5UbxUKxobE44dj42QSt942WcSDV/PLNzzUFucNQarZ54pHgR43/2/CvqpTo888sd8eTx9Nv9BtK8sLr705eJZYWgvbJ9jx1cAloiwDZ7GeZAuzrdq2PifoeI9/PJDH76gvAz7QmsQhcDRFIKnIYQ0EHUwGuL5fQj1BERYKe+EJoAIBsHTASKYA3TgQe8NQZQ1yne/+0PzxBNP2pL6DCIHrDJ8qkCEbR100DHUmQ5E519weR4EeHJoWxhVgQhGK/9fc+2t1vz9II+LE0gXtp2/z+rPBUmrTAeUBEQ22RWjiAmv0jQ2JgVEIlTC9h8tgfnkvV2vN5//sD4xVoDDhw8e8oeTCzbgVBABalUAgp5++hm7LykgQn/LdECJgYN5H374UftcI15PlVCZ+557vmb/B3xQjfujH700CiK02c9//gsLEty6j2rbaA8874n7JCaAxe7niPXMdvMWmRdeeNGc8aHzy/NlMbDd9t7nw9a1DxF8+OFH3L4oMcTx2UhKHqSJc6waQkliPyCxn1QrhA4rBE+HEMph1A5Cmt4QIMKjjvH8HgcZNypiEMl7zHvgQe9rBCL8HwMRflg2KKuuwCCCCpiVA4SDiyVwlRdMHkHqT4Pp+y8BgT8dJibJgf/9FxJQnrgqiSXrCN5T4trpmanLNAGADyjeRzENf6SC7VvIKJ/58MH//jHgsQ5sdBBe+Iv18NNk/fXJiGq99Te3j1CAwTFs/NEN4g+Qkc/wuAX/M0xLGVkBHAAQRjE+iAAneaFtBUS8rJ2efWd06mkftcauAUoEsPgvjHwAGQYNnkskIMIjO2S0BEAJbDAacvBybQgwaaMiPI/Kf8nIBxD75Ke+aG/UwHx4bz8b7kAjLxxTDq0MPADTX/7yXDESbgkg2cd8WgAXXfK4dXnhAYa4aQHPsJIX/sc6t9l2oe2nP2SjP8SUfAZ98Ytftce27XZ7WuhjGvL7YV7X0Ml2XnnhoZQWdEMmlUammD54CMriNINQV0AUAMjd1NUJiLAO+Z8h1BMQYUOooI27K3hnfGmX5s47f1k+IsJo6PHHn3DgIBAJrHBwGKW4y3gFiPyXgKcKRHxp7t/vdaMmDUSyPQYRhCKEQxHkQ8KzILww2kFw4i+OUf73R0QwW39EhP8ZPoDGtdk6/MSyZkylSjD/tdfeFr6nZMa6xBDw3m4ze+aRDyJf2Dep4I3XddffZrcv4MF0WV5MRsAqELHLE3AgGLe8ZDSUryubB8v6723NLw9GeOF5PvLMpLXW2djOL6MbQMl9fqO59TY3ipIyN/4oqmpEBHBg9IL/f/9wASIAxgcJoOSDCPmEl8wjNdvwFN9ddtmvEkS+ZLSDWmt+iR6ZDlgs2POQEnw++7kv55/BHAEyKc8EM9RA5AtQklEQnkgLEKG8ET6TUQ6gw5fe8BBGf9o9X3LzCETbQAjCdrEv9r0CHE3bbrunzW9cQhMII78AJ7SJlOp65s9/MZ/69D0WRHiW2H//7H67HVyCw77jf7QjgIPPfBBhXWgnAQ2Ek2a73FAHGdkeTgaefubPCnzqISTr7wmEbA1QeSJCOwhBUuKHAdQzENnq2fmQs0xRX0svcSMiISX+YtklS06wZnHwIcfkoxUHpQJEPnwuueTq7HIZOsRdTrvwwivs/5iG5Rw4wktz2EfZBp7oiZpPw1G4dDguQ03OQeQDxW77gd8GoEEwIKBdUiHxXCDLsN6Zufsf0xxEChAhmLHsD374X9nIxC0P0/a/t8H/AgkZTcCgUbQRRozikXJ2WkDA3Z7K72WdGIn89re/c0VPR0217wUQbP4+IPDCfADQE08+5QqHZoUz8eLRkLzs8WYPyYOBWBMetb558smn7PHbumnenWUOWO7pqf72ZeRlC6WOQuFPFO9c3z48DyMi7O/aE9yICCABnOyoJlvv2hmYll95o/nxj39W2ke83OPDHYjwUEMxTH/0AXDsNv8AW3AUBvzLX/6v3R+MjvDdj8wrIx9ex113fdbm1vzdDzA//el95qtf+5ZtD0wHiHh+aE8aEcH4RqPg62hXPBRP58UISB6JIVAakb3H5zjuj557qdls8/L3SmhT+90S3d3HIyL7OPSRUy2IYNRScBXLAsz33/8/dmSEXJBabnaUdH8xSnr22efNs889n1cOl+KhDD4LCW/k47+XuLcgzgqXCmwkzmP6+X1uRIT9dCcxDsz88gGD5SSHMe9nPnOPmbfjXuYv6KuR65VABDihbXwv8EdD8nKPlndQf/XVV+2lSx9e4lX83nmO1Mpz22BIaRLo8DT/MwugQROsjw4dJvXw3A/+A3jlCn1eeIDlpRi2AEkg1RMQYSSEA2AisqouzQl8cCAwflyiw+hIQMSjHrzkRgZ8dsEFl+eNg++S3CW+8ohIxJfmXIO5zi5GRGhAd2YiN0iEZywuSFwBwnBEhG3k773vjFJGRHIZD8pB5F2/xrqsqdOISEYfsfciLAvgONNxIxPthW1jXgGY7BuWxT6JOcsISUBkL6cp3wE4KGbvh69rYeaPkHz4+d8FiWTdp33w3PxJrjB7Gc3IfLfcereNAQGRTJcREkZMuCyHGJNj8OWPiLB+vLA9zbTwwjwCIlmH/x0RC7n1qU9/MT8G/4XPcDzywjoBDpxB4xgw2rGQyYxY+55H5pGbCHgexIw/IsK68RRZecnoBiMfzO+PiORSHE4C0I/yXkBkwaL0PYQRkZgw5J8cNZGtXp36HK9ADigYMWJ0hP0HeAQ4IoyI/EtuEKCCZfEUXP8Snp0vuyyHfvWhIpfw/JEP9kPeb73NAjvyKkZHIUhYsv5wBNRgJAQpoyF4sD8iYr9OFZbnUVBPR0RSPFQ2wDskqgPRAQc6EEEwf0wDbGS5oqHcCEluWhB4SOPKiCgKokPLIJJO1UCE5bWbFXwQIXgYQnUgkv8FRD6Y5NKcvMf/doREX6Y6U3c3FPiA8ZOO30MF2JRr7XRpzh+NQZguozW85BIaX5rLP1NAJJf2ILsMwQbK56Pp/jYh+UEpoIJ4kOkwcrwvLs19304HoOTSXXGZLnz0edWlOV/+d0R1l+ZEuASH3Npl1/3ciYA33V9e9oUhgu907I0II4uRDt9sUHVpTubBtmVdfNcbbkLAeuUmBIxq5Lse+d4H1cP9mxG0S3O+MC8M95Of+oK7AqHd9VanLIbtOumSdJpc7iBvABJ8R4RLi/Z7mwQQyTTACyMffOaDKHZpDnH2qU99MYeP84wCTIAR1pEKInliQAigDkGU+a/88J+9uomwPMOnpyDiDfAOibTviACJQzwQYT65jIcXQJTDxGuwYhT1vmC0JJf/BET8GUDE3xHJpTxeF8yM4RNTJYjkfRbQ+B8vGQnJS24skEtweAmU8B2R/3IjHQcqCN8DCWAgfi/KYYL3nOjKd0Syr7JNARH+ygvbwXxiOnx5TuAj+6pN91/+aCiYn6Ah4psMZDrg4093Nys4+Pg3K+AlwHIgcv/HhDN/AZFM025WOOW0c4KRz/uOOSVYH0D0l2efC6ZDAIa8/vTY41aAh/9lt7wADYAI82g3K+Azeb3yyisWSLw96P5f/E8+3x//9LiVQCa4fRvLZHfFyUvA5c9rRx4ZgNxVjyfte1xWxOVveAFy83vf+1E+H0OonSabbbPvfPz9k1GQf4MBLpVhpKSBSObNwTVkktlmWwcRgQ/frAC48OW5//7v++0olKdheYaOphA8DSHEAPIg5Is9vImYC6yeg6gKRinixggaLBsVpYk7qRB3blwhdGJiGKnyghqyAeyJL83xvHFx8jWQAqQ24rPgOsXOntkUo4qYaF8pZuL/EOI+CfounMbi+GgtjtdG4jwpxPmVKoFOndgfqsW+o4t9LBR7oCL20y6DSBjAXOgpiOR6or1Rgb6UqtMa2bJyowEayU7nRuFG857uiu94/O95gkYPOkpAVHz55y+vSQsq+4Wc8thePxCjAYv5sy9QcYlFrpVjej7qUBJAksAum98ogUs5WdIHSRhR/sVv+tNdfeXb9h6TXawjNCSW3KiB7xmKY1CgxOaYmb99yicebIcv671jSJHcYCI3PDRdHrLL2+0XT3fleWLK999+WR95SqmyTP5/tn17o4h9sJ/rf16Gl/On+U/XlXp39nPpH60vIn1nL+v5n2fr4ZiRuLHH3+TJwlrcZuvIl+X4zkXwyR6KV8ScW55zLCa7feRs9v2W3JQQ5LfiF75n2BsOvGXZb2KynkIP1sP0ZAAlQAg+jm3Ak/HQ0ZTv/3M/l8t6uOkB+5YtyxDqLYhoo7yTmiyIsrvf7DVJj8J1MJInu7YHkVte7j6pCggtsOy2FRD5MIoFaSmoRxZPmsT0qhGRlhB+QrmE42RUlIMo+9JYrrezCUTkm0FuhNp8ipGJWflm5tYRNz8rz0zdMu1AJMt3B0RixunLOxC5J7TaOx47AJEDSXxZbb1lEE01w+vancR9F4yMasCSgyAFRBy32feabnlvWWW+AEIKiPwTwBTJfsldsm1AhPkBIVmWvaZK/h1pAopGIyENROSz4uf5E2AbggjbwDL+zQ4MoZ6AyO2ATj7eUU12x5UvxriBNBhhWen4oMFLCkEkqoNQWSGMiuXDzyqVBTeSiQM+VTYZLEQ46TgpdcmZNE+3YlNQVB4JxcVmJoIR8rRaeabqj8aaCuCT3+HwZ6my+69MT5HAlKenSm7V5umpchBpBiFfft9xf9cJ28e+8/RcHIsku3wsbq04HwpJzsn3Q40FEAx33w9pYh/Q5DyjGYR8z3Lb6QKEFBBVeXKKxPv7/WaFpiCCcOA8zU2vAVEGozSFEIK4w+sVBlZMHKSaJDnaihOtCZDyUYzymRUbRIdiMwvOphuqE4h0Q52AoFNh27FLcqqU9utE+Si8m+L4iykfUWjiHCgA1LH8nFVymfM/pmJe9hZd7Fmh2OsUsW9GIFTnyVVi72ce+OpTEMkO1Sl20NxQvYCRdDR3frXC4NLEgaqKg72FOOlSYRRPZk9sFl2Qb2ZscE0UnNGz+fZY/Q0inhZIabNuyPZht0HEcVejMHY57rsIIcrZ7oCIPUUX+1Uo9jhF7JcKhDoFkeb7PM1Xn4NIdqpK3Aj8WaCgUZuo70AkQVcpCWoO/obi5AvFiaslc4XYOLqgroPIF5tyD5QEgx4pum1uhy7K7ztsi/uzlTjOElXELsd5byEE2fW2hJB4QugputivGkMICvwy9NTQd9NBxH4vns/TfL3hQCSfV4KoEYx0EPUbjPyg5iRoKE7CULFkThSbSIfq1DiTQcZm3SVFYdAHKl2W5OPtgbS+42mNxfHVQPJlf5U4PxqLczWTXXdLCME73DLsJ6HYq7oCof/LIIJ4531pDcGfB+LGbQkj7nAOhmpxkFWLAzqHT5dAJOKEjMGoMYhEbCgtxWbG5lenZBDVSTH6FPUZiHh/60aDXRL3V1XfNRLHUxvZ9XBsdxFCEOcqgYjzu17ON1JAFIKHxZ6miP0xEULOc9NAxD7v+z1P89VvIIL4IIqDDqexuPE6g1EcRH0NIz676haQODE1GLUGkW8GHajOzNgYWV0DUUwMBFLXQcTbr1CvQMR9EBP2l6cliWOorey6OK7DPGgtzknKWc7rNDnPqAMR+1Eo9jNF7IsNIOT8th5E7O/s9TzN1xsWRDJfIG7shjCKdTwHR7U44OLSgpqnWXFitBAnKcOoYxCJ2GwSlWpmbJainoOoRgEMOgBLUwXb7lDc5nVK7TsrjpeOlMWvXW/fQ0hylvO6XoVfYB2hhzixD4ViH1PEftgQQs5r/4FBBPHBuIMOp2nihuwMRFB153OQVIsDLy4Oag70XJwgLcTJWlI3TYLNJ0GNzEwB0oADUR+qW8fObZyq5L7jOOlIHLtdhhDnX4U4p6tV9gq3PPtH6D+62MMUsR+2AlE4zRf7Oqtunjc0iGTeQNzoDWBUFQAcKPXiAIxLAroSRBAnSwsFAFKTmZO+pdiIKpRsZopgot0y47bqdxC1OH5ux7aq7TuOi9ZS4pZil+O9lTjvIpLc5XzWxf7g5JYPp7P/NAYQxD7YAkLiszzNF/s6q26eroPI7bReWSEmPuCmv+L1GzTvRG78RBgVde7i4oDxA8omQh5YHIjVwnIoMcTBHoiTJhMStckvxDmZnZH7yc4mUK1ieUVsTIrw63ye1kR+mRc23Dph39USNQ3UqjJEJlfZoT3I8tJCyme+uM1EqVUxYor2HceBIsSM/UGs8llZYcxCWB77zvGdKonZfBrnW0SSt1iec1lX6BlQ2TNCvwlV9ixZlqdbsQcqJ+/spyysp8qT2c819XllBf/BeLyxKvkHLY+VbSJpVNRbcjWX2o2Mugui5jBCQnLAq4okVBMQiUogymrttYGRmDhPL4mNyjezUREzS1Sp3pgnNmNNBYjqzTwm1Hrjaakq6p2Fn6UI5YFiy3N7sBAzAmH+LFVB33G/Vwj7WA+iEEA5iLLnGXFcp6qUN5xnijhnsf88LVToFyJ3HMU87DehEkEUeF9zCDlvdVeKeDrEPh5Tnz8YT6pnN3miH3YEf2VZfqws5DecNLT/v60Si2WHIzCLjuXO4SCQ6bJdqb4NSVCU53fFBjk4nZG7Aoh+4VSeB0HJQY2/clZYnJUX65CE4wTKkzF7SuWIUXhssisA6cwgTNp8ucwwbCLmhT+d/AKQIklWVaizhsc120dVuyeFWgPMjcYp/z+7jGTXm9WIw3IonGkfd46acfxFf4Xyx0Xn2y8qMfvz2XbK6pIJNF2b41HT2aPG7aPWXR/USZZ3j6p2y7tHtRcjK39e/30u9NtId+yyffvEUZ5PkQOQPCo7e0x79sjr2LFz22Fa0HfKfH6/yfrwl/sujx2v3+MK+y7flsRMDrYiZuU9PtfitpQbVcpOXmzeyGPGPSDlOePlr5+zbh+KnLXLK3kfE+a1nmEf9432dFdDNM9hz8JfzOt7VhlmBKWSxE+Lab6XFu89Tx6K/cX6i+XZx1myPITHjfueLp4v/3cdRFhxmxGR7Bgaoc2IyC1LI6IWo6IywPhMpCw/OCQwimANPw/PkkIhkRhWtRLAZMnLwEqVmECQsLn4LLUsMUeeHhXBLjirbqjYiKhK+cihvy/NdTgi6uTSmhi6GHEb2b7j/k2U3X91RMTxV1YetxkUOZ5T5YCXBhDOVz9ndbEHhBLPYH8JFfqV80u3nXwa+10HoyHnq/qIiP27Sliep/nqOoiwUjwunDeUKjlwPuhUcWM3hZFQu5jGwVANo2pxkIZCUMr/nASVUhKsqcSUOOF1sWl4xsTTE1VZgTlBbY04X57PwvPpofFr6gQkxcgjFO+PJn+k0kaxY6+V9J0KkkTRusJYC8VxC3E8J8nmTibOKRLnqpazZXH+65J1s7ekQEhV4HWhJ7JvVsktU/Zk9u06YXme5qsnIOpU3BBNxY2uwog7r1IcFL2FEYsTIipOsg7Eia9LMZVuiM3uDSCGR6p4PW8IcX91TRxfoThOOxLnT4U4J+vFeV8t9pSuQUgBEftlG7Fnd6oBCaJOG4sbXgVRBEguKHg6B0YoDqxqcdAWigU9J0ZUnGxNRGeVbAK62Ezay43GPLEB1qiTEUE31J/b75NtK30W7bvG4rgKFcQrxSpPqxTnDWn18duZ96x3kFllo5PNOze/vFpb8LRllVp55r+Yd693qFltrZ1z72A/KYv9KCL2NgVCbb3VX479OkV1yw1IEHEjtBE3fhRG1Jk6iCAOjlAhcKoUwqYKRH0BIy2Z2QziYmNprqiZsSFG1CdmXKH+3H5Pt839oSjad7XiONLFcclKmScX50umQaM2Mu/carl5y/4PmDcd9XKf6M0HPWxW2vYms9roLQI/GSgQEj/FX/bqVNUt+w8LIog7IRVGcXGQdAKiOIyqxMkTFSdfh2Jj0MUm00y1ZsYG+U/1Vtz+FartO1UcP7o4FjsS50mmlTc9x6xw2FMBKPpKKxzxnFlpyyvNGkPW7Q6EFP9jf2wj9upuaUCCSMSN0EbcGWGHKR1bqRBA3YQRkoKnsTiJKvX/2zsPsCuKq4/HVI2FKmCJqAQUNIpgx4LYYqVIEQWjRo2kaIoticbyRLCgoFFI7C3FqChgx04Uo35qxC6KIiBFiqBSVM73/Gfu2Tt7ZnZ3tty7L3L3eX7P++7szp6ZnZnzvzO791w5EHMinYQb6XD8SO3MpOMsmZrOSuqBvL8pSNd2sr/YyH6XGzkuKjTfeiB979AJljCUxXcPnUDNthrg8DsxSH+mfJrt+6RvTIv0z6lIyN8khcistLwZWZANoj4tWA2ngThYDW1hC1BRYoTBIYXHhRxQschBGYGvA5BOIxrpgOJJ58wMKo60bCEo034u2/J+ZsCv7WT/cCP7mw+x+eR4qNCyw8H03b6PWWJQNt/p+xg13/Igh99xIP2YQ4SkP8yK9NNpSMrf5IWI9/MgG0aLkasBfYUI2AIksQUnjnRCVCsxSoN0INFIh+TGz5lFk+n14wLJJQb1xnH/8pDcdrJP2Mj+VQhyHBiss/9Nlgg0Fb7b++GKH5F+x0D6L4Xt66Q/zIL00WlJukaTFCKJvClZkI0TJ0b+2OKTXYiqYpQWOcAikYO0AKQziUc6J0GiM0uJdL5rOvL+FEnk9WUfcCP7VSHI/m+w/k5n0TdOXm4JQFNivR3PcvgcA8t32T5O+sGsSJ9cNDUQovwFd+WXNyYKbiQ73YFjia510qeQEG7xkftpwCCRQuMD8gWD2jHwfMQIzkSm+aJsBw7PdjRhpLPSqBmFI90X9b0cR3oI6ZwN8s5o8kQmyP2FVI6Kwch6JxB8odVxzIdw28n2job7HZB9Kg1WftnvBd8Z+Lzl+Jsa3zxmOrVss53tdywBYmwfJ/1gWrTvdfvkNKAsMs2kcCFCgXFTshac88t0sNPBveiQ3x5BA4YPpkGjj3Jy5OijFTK9elyDaxx+en/a44gDQ42KTppOjEBVdFT+HGLEMe6k0PiAgd0WUYQdA8/CMZhVwFM5oD1RthNDBEnCzkzFyHM4OV84+rRMT6TiyPOEyQFBjL8MqFhlOSJLcBw5q26e6NBGdrovuu1k+0YT6nf8IcDRr3xA/VWcNk6TfV2wwQ6/bPKzIWb97X8Z9jVShPDhGf7CIURSVLJQ9cnZ/DlT9+jbMBiEyUkpRqhskN8Qs75/HEAH/msf2vGWbTKx5z92pH73HELDHj6ezp58Bl045Tz603/Ool9MOoEGjD+MDrtjfxp08WDaaBM4IXRWLQq24GhcxxDfjgOnqqCvDjHCIJDCw+AYBqIZOFHOeKTwmMeQBwNaORTlHJIHpMIYzCpgayVgphzscbAj5AjSVadmOyAXSgQ22kYFvuTgkb5OkesMgqCbaRxyIEI6ACf+phUjrrsKmJpSzHCuum+b6GCtPvlD96ZyDcS5C8Xak/WMeI7D9w95w20Xny84Ztx7Z7vLfdFv+N6r+145V/avOHAN1Xaq3yLN0ccF6+x3neXw07DJWStp7hKipcuJ1hpmH2cee/Mrwnb5pC9pLcdxH9be97qKD7GFSPmNit9pE4o3ZwtKNrRPVvE7Kz45jU/HNZAHqBieMROU2glRjNEolBBV4r3h//1P6k2Dbu1vCYsvEKDBE/vRJf+9kO57dwK9OPcF+nDJDFqwbAHNXjqT/jfvJXpw+n008rkR6rxj/jmUDhjWN5MQIQ2dIb8QVWc0UnCiUHnbVMPZayfhKUTAGNBKCNMKUUVApQjxsSTYGbIQ6fA3ttOLgvNz5OlUQmQ400CI4mw7hIHrXnXG8UJignM5P4RI/QxFUvnN8rGYcfTpmLyueplClFh3i2rbJQmR7DNB36nMZnIJkYpe7S9E3+n3pOXwfRlwzRe0eBnRws/ihQjnLfuCaPkX+YToW0PeqQqRYybEQhQIRWEipH13MDlgn5fCp+MayjcaPp2vKylciNh4lMEkdP6O1HmX3Wiff+xmiYsvEKFTHx1G9787geZ8+hGtolXq04nckD73szn00PT76bQnTqEDb9+bdu+9f7XBHUIUhSk2pghJQYoDAzGcZgtPFBBCnd8efImw00gpQibKkTjyS+GJQs3G1P/S4fmhl+bsdB/YoWbND9TSmiPdB7Yv032BAGValqyQru5xbWcj+4ME58C2TPeCn42miJ79raHvWA7flzc+WkWvzV5Fox79MlKIkPbR4lX05pxV9OnygoTIsSTHb8gpP1ERoSKEKMony/Q01H1pThrIwg+36557JvTLSSfSEzMepc9Xfi61x7mt+HIFPTPrP0q8jvnnEOq43Y6ZxEgKjwspPibvvvs+ffbZ55nFSCIHYhw+TiMv0kmFqHwiRv3femuacUw6Qjf+jrQ2lGmfPwTI9OJwtJej7RjZ7jWB+66Knh0vROaYWOun8y2Hn5bLY4ToqbdX0ZJlRN/6+QpauiyfEIFWrRxC5HgxoQgRAtIfg6h0X5LyN0khGjTqKEtc0nDUvUfQve+Op6Url0q9id1w/sRp96hlOpQh3PBpsMWHGT36b7R48Sf05ZdfKptfffUVLVmylCZPftYpRA8//DjNm/dxLkGSgzKKhx5+nJYu/ZRWrdKzR5Rx0eJP6Pob/q4G+rbb7UXvvfcBffGFLjvOQ1mff/6lwDlg/823ptlOw8ByYsKZ2ULESOcYpkwhAGXar51t2QYRGEIk27twHH03Mt2xxF3EiwpRQsRLcmfc9SV9a1h9hUgKShY22nIv6rDzcbRJpwOopfHSGI5JP52GpPxNTohabdiRDv7Xfpa4+ILZ0KX/Ha6W47Jscz+dQ1e8MJIG3tVHr2sWKEavv/62svHxxwto3N330RlnnE+33HI7zZw5m+66616nEMEhf/75stSzo9NPP79ynWQx6vDDnWjWrI+UsHw4czbdeOM/6IwzL6AJEx+iOXPm0a9/c7Ya6HPnzqcVK1fSU09NUcev/Mu1qrzPPvt/gZPwESImyplFC5GJdJi1dMZ+lGm/WNvyXnuQdWktLY7+C1AGmQbkuABrnbDQcvZpcQkR/sdLDFNnrVL/f7NWQlQjEQLd+o+i3U+8k3Y6+lpqv12/QIxwTPrqNCTlb3JCtNNBvSxxScPA8b3p4ekPRD4T8tmenPEYDbm3P+188L45hCgsRmPG3qiuDcdtpvstzUnswSV5881pISECcpAyzz77ghKhJ598xjrGDuCnJ/xaidBzz71oOweDNELEmM4Mf/2EiKk60GKdcXrKtJ/ftryv/qg2rIcQyb5poMoh0uSYYL419G3L2afFJURPT1tFiz6vphUhRHieFRKiGooQ/G/XfpfSHsMmKnY55hbatPMhKk4cH89KUv4mJ0T4npAUF29u3oZOfWQYvTZ/qtSWVNur86bSKZNOpkN/29+eEqcWJC04H300l5YtW2bNkqQYSSFy7WOpDrMStAk2LKEhnQcajsttypQXnIKE2RCWBpHHNZiZooRo8FE/UzNCXt5D2T/44ENqv0W3wJnhGlgCxD3jJcxPPllCl1x6leUEQ+R2xvnILwbZSWfbce9SItu1ZkLk6IsuVJkq/0vhkXxnwBTL4afFJUR4QSFqm/OJniXJ6yTx7f7PVoWoxiIE2m62C3U/8mrqcfJ4LUY/uZU26bS/8lPSV6fBtOGiyQlR/+FH2gLjw82a8yb/gWYtnSn7Qapt1pKZ6jqDRg22RSijGK1YsYJmzJhliZAUI5fwyH04cTzLGTX6b3R476H0yCNPqmdNL774SjDYqvnsgchg0P7pTxcpZw+BMQezi/nzF6h+cNXV19sOo0KSEB09ZJgq2/ARo9UzJ8zCUPZnpjwfEiKkvf3Ou3TIoUfR8T89VS1frlz5Bf3613+0nGKA8ZyiinTCtSOdGBRLsm15X9Ij29Ik6XgmHH0wCmXfQ4TAOvvm+x4RcAmRpIgZ0dq9rtNC5BChooQo7IM70sYdetIOR4yi3U+6R4nRrsfeRj/ocii13DC7GNl2wjQ5IRp0xWBbZHy4eRvqfmMXGvH0BbRw2QKpLak25Md1Bo06Uje4FKEMQoQNz4ikAEkxcgmP3Md2/vmXVtL04MIsQ7/UoPd9hAjwkuFd4+4NBnMUAwedQAsXLlLnQwgxK+u01a4h55EkRC5Q9lmz54SEaOGixWqWhH2Uq0ePQ9SMMnbJzilEJtI5F0uyGNQOt21Z/2zI9nLhe543jv4Xj/7agg/rd80fWaFeQqQjK9gCVBsRqtCqI23caT/q2vdS6vGzcUqMdj7mFmq/fX9q1aaLfb4HkbYq1ESIkozGMfCiDDOiymyo+w1d6Nwnfk+zl8wyZCX9hvznPv57GnhZjBBFiBHEQaYBbElCBFzCI/fDLy9oMYIIAQxK7HsL0ZiqENmD28311/9dzY7wXAnigCUzOA84oyxChGthGc4UIsyGIs9zOEugnbGdHo2PM/cnz/d4YDuXfeRNXX8DR355/+PIuzQX2HP0N19k347jW0e/YTn9psZax82llm13sARIihD8ixQYX6T/DYAYddyXuva+mHr8DMt0E2inoTfSFt0GZxKjWFu1EqI8ZHpGBBG6qQt1u74L/er+n9Frc/M9I0J+XOfgU/tWG1+KUIwYucDS3PTpH1jCI3EJT9w+w0LEA80lRPPnh58dYYntnMrSHGY3cmAn8dvf/Yk+/fQz9Yo3z16ShOh3p52rZj+4H/yaODYIDJ8TdQ0IEWyx4yoeh4Nv0sjy50fe87ri6GNJSIHxZb3VJvp2vAjlQfpeC4hRh57Utc8lSoh6nDyBdh5yPW3ZfTC13DC9GMVRuBDljdSKwKaW0CRRWZbrdl1nGnh7b3p02qSQw027TZ7+JA29ayDt+GP8jrwOcxErSB4zonnz5ldeVsC+LUBSiPC/S3jkvhQiXqJwCdExx/xCvTLOdNlmD9qyw05KTPhlBeWMHAM+CnyHCKIyaPCJ6lNxlIiAX/zqLHXu7Nlz6ORhpwfpPNPhwJW4Bl5WkPn5PJkOUO5qnDXbwfqQd0aVKzJCENZI2vCjOqOyj8UR3LtKXnlffQkFHc2Asu3oX1GY/Rp9Ps3SnGYr+t5hEy3n31T49oDnqVWbzl4iBJ/SMuJYFNLvxrHR5j1oh74X0x4nT1CCtPOQG2nzHQaGvmeURN0jKyDsRJY4c0zrNp3Sf4+IhejaztTjmu502ZMX0byl86S+eG1zl86lq54eTQNu7UOt26CRPYSoIkbo3HqQ2GKEL6Zig0DEiZEpRD4zJClEGNAYaC4hiuKNN98JXt9O6xBeffUN1Tf69jtWObM4IXr6mefUPTj7nBFBWoeOO6u39iAwiHeGNFzDfEYE9j9ggLITdW3AAVuls/UBZXfGSkuBDvFjp/sA21rI7GM+qLIjerrjmETetyB/juU1bjtvjD4E+8q2o3+5kP1X16uLlR6NHjMtmuovtPbBL7T+2E+EWumgpOxzfZA+Nwnkadd+N9q+94hAjPACQ/sf9bPOjULdb0c6U7gQ4UugHIQv6uZJUBD8RR6An2mwxCYOFqJrOlPXq7aiQbf1oYmvjqdPV3wqZCZ+W7p8KU189R6Vv8+fj6hEnwWmqOjYTlJoUG4EPEUARvzVAyYsFnjzCxucLr7IilnJqFF/o6lTX6czzzxfOZJ339MCoqLVGsLDg1DuMyxEKoL2Rl1oyrMvKFt33DmB9tjjEAUPYjmo8SLAokWL1Ztq06fPoJGXjVFfWL3ttjvolVdep/32O0JFhPjww1lKUM888wLFG2+8rd7gwwsEsAtnhLLhGjiOawD8P/SYn6tnSbDxzrT3aI89D1XLgvjCLNLmzJlLmyB6duUaWC7EdYb9/PTgPPTBE0/8TdWpVp5rcORsFX27EvyTn1kEzz5YYBz7HDSU8+sAmuHgpE4q+XXA0kr+SuBXy54oM6MEcGMdPZvtKzH0oTILVAFXUW8OfCptV+6F67pIC9XdFTOO76UB7/O947bTQVerx12YgoS+yn1HRdB2nK/yOF7RxiyIP0AgL9db9vE4WnU5ktY+/F5LDMrie4dOoGZbDbB8jrkPX4m/8A+hiP8Vn5sEO3+XDzb3cS775DZtt6LNttqfdv3JTcH3jHY8cgy1bBUtgOH8unyYGUl7NREiXDjPjAj5OnXdMV2sOWNG1PXqrWiXv3SlX915Mv33/Sn0xVdfCLlxb19+9SW9OOMF+s3dv6QBV/WjLbbZnlq07GDPiBg5I6r8qJ4eJLZQMZh1YAbAG4f4Oe308wqcEbHwfaSuDx5/4mnHJ8MqWKKbOvUNtXwY3JMvv1RvtO27Xz/6/R/+TIsXLwm+14MNL03gy7DtN99B1ZtnRK6Nl9Reenmqeg0bG0QMMxwgZ0SIPOH6HpH1ydp0agk/YSGdm0nZMyK2L9N9cZVd1j8OFimZ7ovXjMghBABlTfodLdlfTSBIuIZMtwmPGabNRtvSOvtfT9846XNLGOrJ9w4eRy3bdbV9TcwHerUChZ/ciTnHRPpbH5CvXftd9IxIidAE2vW4vzftGREuipmENOQL/wZGt/170m637WCLjgvjGVHXMVvTdqM60W6ju9Fp406lSW88RHOXzI2MtID0OZ/MoUffmkR/nHgG9fzLbrT7gF7UouWWQXlUgzs6hxQi+bzIn+rSnPqU5liyA3IApUMOSpu4QS8dgxMVfNKV7nBKDvIsDYE8jlQ69izwbKBehMqfU0jyEtt2sj+kQPZDF8nnyrHgpsUW+9H3DhlHa52wyBKJWrHWSUvou4c/QM069rP9i6e4+D4fkr7Wl3ab705d++oXFrA0t/PQm2jzrumeEcHPyTSTmghRUex/oufvERlvze0wdmva7opOtO0lHWmnkdtR/2sPp1GPXUqTpz1J786fRp8sW6xmSUuWL6H3Pn6Xprz3NF35+CgacF1v6jOyN+0+aD9q3mILNRtCGbgRZQeppRhFIQdOeuQATY90FKmQDmo1QDr/spDlWi2Q7Z8C2e+yIfu/H63abkfNtvkJrbfT72mdvUYXz56jad2dzqb1tz2RWrbtWvEZDt/iKTA+SN/qBYKgdtgr9NbcTkNvoC27H9X035qTBrJg3rgN222tImHvcduOtgAZQsTfI9rhms60/V+2oh9d1pG2veiHtM2FHWj3kd1p8A1H0O/uOpUufvhCuuqJ0TTykYvojHG/oaE3DaJ9Rvegg849mNpt1olatNiCmrfAbKgDtRTrprKTxIpRJkGqDASHCBUnSHKwVvF1ANJppEY6rAp5HW7e/FkJBCPjsp68XhbKnA2BUD1ke6dE9jcf7Hyy36dDjjk3etzq8+VYjkD6iMBP2H5FiklWpH/1Ac9+Nv5hL9re+B4RXt3eovsa8j0iEFVoBEQ9/Mz+SpgsLj+KBl42mPpfMoj6XngEHX5eHzrkj4fTQWcdQj8+42A68PSD6MDTfhyi54kH0PY9d6WWG25BzZq3p2bNN68syYWX5UxkZylajHwHgRw46ZCDNmowRyOdRybinFkG8ubPS5liUHrd8Ve2bwZkP/MlnFf293TIseZGjll7LFtI36D8A/wH/y1ehID0o0lAhPAzEJgJ9fjZ3eq50E5Db1r9IiuUSwc1o8HyGoSlWbP2tEGzzahZ882oGf5KkF4RIb0kV5kNOUSIkZ2mWDGSHT4aOYDSYQ/mLEhHkgnTmTVYfZHtmgLZr7Ij+7k/cnxFI8dsAtIfBDh8SMkiVI01dzn1OEmL0C7H3kqbItZczsCncXwNhQgIMWoOMYLYuGneoiJClSU5XCNOiIDsPEUJkR4QvC8HgBs5oNIhB3J2pHNJjXRsqxlrlJC62k6meSD7UD5k3/ZDjqd4ksasA+kPAr9g+xDpZ/Jg+8Vk2rbflboPvLKyHIfo2zfTplsfrGZJ8tw0JJWnSQpRUqGTgRCZYsSCtDk1N6kIkH4mZM6E4kWIkZ1Ii1GEIMnOGYHdqeVAcCMHV3qKcQzS0aTCdGbS8XlQthCUab9utmWbudrOA9lv8lH92kRa5DiKxh6r0WPWQPoBpwjpfelf8mD7RD+69rss+J4QAp1ChNbI3yMqDsxswoKkaK6FR4mPIUDIo19O8BMhxhKiQJBcnS8rclC4kYMsPXKAZ0c6nlxIZ9igvsj2yIHsJ/mRfdgfOX6ikePREzn+nSKkkX4lD7Yv9KfbgCupx0njaOejr6P22/bJPRPypUkKUd6bGUYKUkWEKuk4xxSgtJ1CdqiqEEWIUYIg6QFip9uDw40cbGmohaOQjiiWJKcnHaSgbrOCCMq0XxPb8v7HkPSyguwX+XH1XbtPRyHHTTRyHNro64l0OeZjRAjnS7+SB9sH+oM35Trt9UvatMshoe8J5b1uUv6aCFGS0SRy5Y/My8KjqS7BhWdAaYWI85idqipGjo6YIEbOTh0gB4kNDzI58HwID2Y58JOJczjSMblIcmYWwnHmdcarc/48eUPIe+xJVNvJfhCF/7l2v7X7bjRyvJhjxo0cgzY6f2VfjvNEEaoIUQa/Y/of/t/2e/nJG8haXyM+f+FCBIN5Q/ygYWS6L9whZLoL2aCq7JVOJdN9QL05AGFWMUJMJplWRQ6SMBsiAKQRmUEOwiR0PChzQEsnEA1st4VDTIiCLB2VCcLUyDQvKk6Uo29bztUDOFIOkSOP+YIQQzLNF477JtN9UQFP8+Tnust764lsO9nucaDPoO+gD8ljYew+C2CPYzPGIccLgzED2zLdHn9ugjErx7eHCGmfo68j/YkvHOJH+reigI2816979G04Yg5uh+UpaTAOVBb5VP6UYqYapBJ81De/2ZhsG8H9NmyjG1Y2ePVcu9Ow7SC4n+qkQoxcnbXSmXlAIQikHsjhgRDeDw8YHMNgQvBDFQAxyG8PxijYtnKG1qdL6RDC4Hw4EuRVKIfmL0hKBNp2UYE78Rd4O0XDiUMIsjhklX8jI7/jnDjM4KFpY7axAMK2su8hhvI47Klgtx6x9oJ94/5xnDsO1ho6HjPb4WNm22FftrNse/MY17/ab+zzZF+V/VaX39Vvq8gxkzRupNi4YPvKNv7nMWqNcVuAlL+pfHCFz9C2082MTH/JtpEu/VxWONxa4NNV3fyvz34RqA8KMeUrXIh8heTSkVfLsG/qx9mOP/4UWrFyJb3zznuhmHVz586j4cNHha6B39F58qln1P+qYVp1VGnmhp+0Nq/B5zPHHvcrWrFiZSgPbKMBXNfSHcAWIqRxp7KEqHXHSiBTVycNd2oMiOrgsTt/mOqAUrMhNah5MFcHHIKhTpnyfHBdcx9/eUM65zeDlyLQqu0cwg4F5/DG0cHleUDbfkH9b+bBZjozts+/OhsHO7N99z8iCNqKYKmI2i2dsQsWksWLP6n+ZHqFCRMfSrwW8r/88qu08osvdHSFGDGQwFb3nfZXAWR5e+CBR63z4oA9/M4Tb3ffc39wbLmRjujpPOtFVHXeEHndjF4t7y/z73+PV4Fvcc6LL75Cr7/+VpCHI2fjA8gO3fYN2g8Bd4ePuEK19wEHDiTjtxBV8Fv1AUbMyMJ9xhYVE5yvhSRaiKQAhcZNJb+y7T3uNHx9NWbwf+utVJR5+Muzzx5u+QAT9hnIo2ZkKnK27VfiMIUoywd/HzioqhK6SqRteU4UqowVH6fqVym3PA8ULkR8g6MMMhAiUySY444/RXViMHToz4N0KUST//Os+rE5/DyAmR/iMWLE6FA+Fp8oIVK2jvm5KrMZyRbXGj5idNDw06ZND8TIRdA5HR1QC5F7qQ714M499q83Gb9Z5EN1YOlPLvYSg4zWzftjx+qfCTcHNYA4mcKFDefqfekoqgLDjgT/R4mXKUTatk5HGouO+X8aICT/e+U1Kz3A4cQDZ962sxaiuyYGaegT+F2kBQsWxgoRHDT6IaKoy2M+zJgxM3DqB/54oHLQ8pw4Znw4m16Z+roSpHPPv0S17557H04fzpxNg448Mag/RAn7555XOWevw1S6yv/K67EiBFxChP/Rfig7t+UHH3yojkGUbq/kwf8QIv7f7BO4Nl8njC0qLrh8Mh3IseBC5U8hQBLkl2M66suq7FtCfiPn0hznNf1akWgb+a5f96U5aSCKKCGCMOATGoTGFBkpRLyPc03BUuIhzksjRGZHkUIEcA3M3GRnkMjOx+LKGxw9OqyceZgbzkGamW6KFv43Nwwq/jkIHmR8DbmPQSpnSlGDGeexEMky2s5DC4kpROaGdBYi1H3s2JvU/yxQwNwgzK406SQnTHhQ9QWZDtA/eFOzG/wwn0jHjAKO+05DiCBAsIVyRglRtx33UwIkBQT7vGFWMOKiK5QjNzfMfJAf18fxQFhmzHTOijDTMTc182GBGVwVHAgLH2NM8YHomLMjHENded/kgxkzA3toOxYSCBHajDdOx2wIP9nBYoN9PY6uUKI0a9ZHlhBlER8JymruS7Fx8corrwXlx3bHHRNUXtx/3mbMmKXS9unVV5Ud9w0b7qU6pq7VicaPf4AWLFhEvXr1Ux9o+ANt+Fozg3N5Q9vh+vAZCxcuCqX7iJP0n7Uir62k/KUKkdwgIIEwDP25JSIsMCxW+H/atPfUUhpfVy6nmcITJURyaY6FxiVEmBXpZUO7U0hMIcI2ZuwN6v8xY27UM6RWndT/Slwqn6SqwqHFBv9L8cE5Y8ZWrhF8MrMHGoCzwLlyH50f+U1hYYGS8AxKYoqKiRauqsBIUTLzsBAjTTuT6owI/0vHyCIn0/FbSmZdICxI36dXHy0kFfGBYGGWg/8XLfqE/vc/PYNiUVJCVLke/t9n376xQvT++zOUiJhCBHHBUptLTBiI0qzZc9T/cEB8bmReUV8IDYvJgoWLQ8IDJ8b7ECXeeHaEY7gH5jKduc+gjKgTz1Y++GBmSIj4f31Mz4Iw61mx4ouQ2Hy8YCHd/8AjSojMLSxKdv9KA8qLv7L/RwFhwfg+++wLQ7MbiBOLD/YXLlysBArnY9kXS7A4hv4Cn8hCBJHBMVOIcC2Ik7nKMmToMFq2fHkgMpjBwx76Jc71ER9G+tRaktdeUv5ShShqRsRCJEWJhcgUH3kd14yIz40SIraBfbOh8woRwzMiOUPyFSI1e6rs438WJp4RaaGxxagqVu59FiIezNivLsFV08x9OSPSM6qqCElx0vnDIhU1I2LBMoWI980tSohYfHgfjtqc9fCG8yBQ+pN79RoQJogP8iAv0qSQSUetlqAqMyAWIvyvnLRDfMyNhejAA8OzJ/wY4QMPPGLZkzMiFiLMaMwfLMS9kzMiECVQmA25ZkQvvTRV1Y/bwVxm46U5FhJetosTIrMfmOmwJYUlPfaSdBI8I2JxYUGRmxKYfVlg9LMSgHMhUr327auPKYHrEwiRPj5ev4RQ8QXmbIg3FiB8IEE7/vHs4YmCJP1mrclrMyl/kxYi7EN0sERnCpGc9WAzj8lnSbzEV4QQIc1nac6kVkLE4Fr6+mExQl59Lfe+FBm5VCeFCcfMPFw2c5/FhIkSIik25rnmMQgVNj6HZ0T4OfNVlSffmJVAeMznQzzzQbuaAsXECRH+urZXX31DCQU2fJo3XzDgDcdvufXfFYddvTbERi3RjbhC7asZkZoRhMvVrbt+0I/zZs+eo64JgUN94KTMWY25vGY+3+FnQfLa/CxIpvNS3YUXjgrqByeaRYi6dd8vWIpDurk0Z7Y1qF6jCCGyhSae6vhBXXFv8YIB7oMpTAxmRCw2PFYhKmo2M/HByiwK59lCZIoKL+GZaTxbAj336aNmXvIcifSbtSavzaT8TV6IADoy0iAwrnwsVnxurWZEyB/3skIcTiHCMt3YGwJRYiEKhClmac4cJKAqRIwWEnPwyX1TmDDwsLHwSBECumwQCL2Pc1iIqiKEY2HhMcUJG8QEAmOKFNKihMg8T14PwJFJwcHzHjgVOAYMbF6CM4lbmmPiZkQmEBo1I6qIiV5eq85qzOMATsolRFHp8gUDrp8UIoiNmW5izojM68IJDxx0YuieAgiPLrP/0hz2o15WqF57K9qhWy9Vn7wzIu7L5v/xhMcNw7ObqVNfV/1IXy9eiPbZR6fhfvPMxxQiXppDfvYDWJrDB6h/GwJlChGAGOEaZj7G9F31JK/tpPylCpHcIBJSGMxzITBJYiJnS/L1bXnM9YyIhUteC2InO4YvUULE/2NTotCqU2CPZ0fmSwksSlhmMzctKFqoAI7DafMAlPsM28bGooLz5MYiY57PMyIgN1M8zE3ncb++zefL2ZJZnqrghZ0mwKyIN34OBOTyHC+7memhlxUMR51FiHifN54Jmcs+qAMLjrlkp522fX2A8vEGZw+Qbi7Zmc968OzI3MzZkHns7rvvt+4lA/HhDWXW5dNCZLYfpyNP1OvbKK+58WyI397EX+5LSMcyOK6D/6UA+QuPSVhY+FV/bPpZjj7HbCeeKbHomELEy3NauHDdjiEhwrhPelkB28svT1UzXpkmhUj60K8TpQlRHGXedNO2FJMiMMXIojILMjs6O3tzEKVDDsZo5EAvDtvBudAOJzsyv3TktSbp9eda4mNb3q8iSb6+7BP5cPVdmRZGjosUhF7LNgjGrvm/PcNJwvd86avqSV77SfmbpBCVS/iGyc5QBLLThokQIhapTMhB6Ycc/PmRzimtM4snLr90yrXARwzqjbwPtSLaluwD+ZB91A85HjyRwuMUIVuI5HgvAttPrV4k1aEhRJ7IjlEEtghViBKiXGIE5ABNRjqCYpDOqgTgOCtI5726YdbBqmcpyPbOj+yXfsj+nwIpPJEiFEaO8SKQvujrSOFClDdSK/KiI8h0X/I2HmxH5ZcdxEXazig7sg71ke1nJKqD1j4WRg5YDTsymQ6kY3Ch89vp8VQdmPvb9f64Q8T4gXxmfunsfeAwM1mAbZ8ZlSx3tfw6vI5M90Xnt9N90W0n29YfbdtOl/3QhS6/7Leyz0dTtVVJk+MtQYR4zMqx7Yu2a6dL/xOFPt9OLwpdRv/yuKh7ZAUVmyjGmSeBfEmFjoOD7Ml0X/gho0wHsqNI0Fjml9d8MTs1HjSHOrocCDFixM5KpruxBzR/cVKmVwd8PFVHbh9LRkdwlg4uDVoIsjljlDs66KaNFAggI1CngYO9Sju+tHEEHPXFN3K6G91+CPxpt6kfqL9LyGT/i0Ldw7adK/uynyfDbaD25TgLsAWIQV45ptOg65rtDTn8llraYKRpQVlQPpmeBtRRppkULkRmBGpfh4yCcIPo/NwRwz/MZJ4r/2cRgG3gKwh8fdiCTR19W9uXNkxbErbdtl3Yvqba6XV+e5/zttsIn4z5/vE17MGjymuIg86voxCbgVMlXM/qfsURtOus86ro1fHfdpdOFCCvigBdsY80eb7My/twQij7xpXAm0nBNyU6zzYV+/oa+vrh86L2YQv5ZP4kOL++78hfib7tmFmx45bXgHBW81ciYHvUXS0rBoFu+d5z2XX7hc43Zowm2evubjvzw4jM40Lbr/YdziuRH4TMfqsip1f6LdJkH48DfZX7rBq3LGahD3tyHOv/VdTrIGiqrg/HjbNx+wyVv+Kzonym9EG8z2XgvOYXZ+OQPjXKhi5j2Cf72gDh/Nyu1Q/6pq3ChQgX/rrOiBh5w8M3Xnc6eSwJ7pzWjIixPqHZsyPd6L4zIpPKwObB5PjUKZEDGuSbEclP1VXn7Us9Z0QuYF+m+aIcesYZDefPXPdUMyK73ey2S4cWJH1t2c98YFGz+7Uf3GetcaXGlmMsGmDsIr8cz2nQPqPq4KW/iaMxI4oQIlw0z3ol/waGTPeFf3VVpvuiO5edLpGdqQhgWw9Gu8Mr5CBxiFF2qo5BDvQkpGPJimt5RiOdoZusjria305Lgy6/ne4DO1OZ7ktt88v2sIluO39kv/LD8YwnDebYscaUYwwKEQKwLcdyGszrST/jQ16flwSXU6anAfdXppnURIjWFGSHKgrZ4UPIwVKoGAE50P2RjqV2SEfZoHjkPS8e2X/SIfttBuT48RQhOV6LQvqXNYkmKURlNkpa27Iz5QUDRP+NQQ6agsRIOwf8Lwe9P9LZpCHbsl7VeUZ/oq8PZdovxra8t/6kbTvZb9IR13c9keMmhwjhejItDfq6tm9pSqCcMi0NSfkbQiTIYlt2rDyYnVoOgrAYFS9I9mCWDsAf6Xh8SOvMwhTljLNTpv18tuW9TI9v28l+kh6737r7bgRynEjkOEsQITlmsyJ9SlMjbxmT8jdJIVodkR2rKORgsJADSSIHYiakM0iHdEb1QzrcBvY9qj2yP6RH9seMyLHhKUBxIpQX6UfWVBpCVCCyk2UBA8ZOS0AOKokckJmQziEd0jm58P1UnR3plIsl36ykFsj6146otpP9ID2yH2ZAjgeJHE8pRQg2ZJoP0n98nUmqb5MUoqRC15K8tmVnS0tcp5YDpGgx0o7DTg8jHUU6pKPycWa+pM8vHXc+yhSi9HUvFmlftnt6ZL+LR9u0061xIJHjKKUI8biUaT6YPkP6kaZG3jIm5W8IkaAI27LDpQGDR6aFj8cgB5lEDlLfwWwhnUZ6pCNzObO05M2vsZ28L/UXomq5i6l7dti+bOdsyP6WjLYt0mX/l8jxk0GEeEzKtDhc/kKmNTXyljEpf0OIBEXZlp3PFwwgmSaRAyaVGKkB6MY5mGORDiQ9LmeWlbz545EiYFM7IZJlsalt3f2QbZse2b/80fYr+7K/u5DjJoMAmeNRpkUh/QT7CpnW1MhbxqT8NRGiJKNJ5Mkf1+A+5Mkr88tO6AMGkkxzIQdPlcogkwNPkjSYU5PfGXFopazkdcarc/48ebPkd7WdTEuDvqbsU/4E+WU/t5DjxRgzKQRFjkWZ5kL6irCfsNN9ibt2EeQNZK2vEZ+/cCGCwbwhftAxZLovKtxFnvweIX6icNVddsYkMKBlWhzmgFKxq9SANNKtgRgtSCwEcpD7oZ0ZwsVIJ+MLYnbx/9Lx+ZAnxBDy5ckP4mL8JcH2ZbovHOtMpvviW3fZZq6280f3HVwXtu0+5YfKj7LJvh3q51J8qiAvj9ss+IxZ6StMWMhkug/1C/GT7/pJYdsKFyI0KgfgS3tzAmeK/CnFDOcijw5EmC8/x4uT55jnyjQVdZzLbtTd7Izc4Vxw3RH4VMae0sejBwqO4b5zwFctRsbgk4NSUhnMOnijdoZysMfBjgT5dcwy7dBsx+NGBUWsBE7FX5lfOkMTduAcPFMGXPVBXaMSPJMDZ8pz4uAymAFL5TlRcF4Z7FWeJ/PIfV336KChrnycpuxX8kfZl20W1XZyZuTOG+43uv5Vu7J/xYHzud8Hea3+bYuPxj1u5PiKQo7ZuDiT0l8EPoN9VuUDZJqZkbIfyp/O5yXB4dYCn67urf/1URaO/akDykaXr3Ah4k/lcUajMBsG/6dpFNUx8Okk+HQU3QFcqJte+XSTdMNd1+WbHlV37riygzLcqXXQ0+gO7UINyErwRuUMpBAliVEwoCsRiDM4A3YoWYJXqvzqZyC6qL/AdQ3pHBnYZmcc5UjjMMUgT36OHp0mP5+fRogk1fzxeV3HQnUX+eX9d6GuYbRdfD5339FCkFGIOAq3jJydKEKVcQP73GYYt5Wx26z9vrR+l6G0bvfTaJ09R7nZC4ymdfe+gr6/12j1v0oT560tWLfb72i9LsdSsy0PDnxWpg/ups/JkN+H4AN2Jp9a+eJ9yKe78xcuRGw8ymASeYOeqopntK3yp/xUYpJUdykgLtDoMs0X/vRhDzgPMWqlB2VaR2ASnV86JDdwhDItDulU9fKUne4DC4LLWfsCZyrTfMlru4j8+GkJeY99iW872R98+00Est/yzEv2adn/DVzjpsVG3Wmdva+kbw15h75x8oq68M2fzKC197uOmm+6p+UvfInzOUWAa+fxyQB+TaaZFC5E0kAWanlTk6i1bSkeEjlIsiAHnYUSTHtAhwa5HPyFIB1UGO2MshE4U4eTrRdl2s9qW97HrLivJdu/AGSfdfZdR5+PECHm+7tdQGv9dL4lFPVirZOW0Np7/4VatN7a8hlNAdwjmZaGpPwNIRLUw7YcBFJEZFoW5OBzEjeYayZGQDqsOGfmD+eXzrZeZBWDIkhjW963IghfV7Z3Qcj+KvtqBhHaoFN/+u4h4y1hKAuUZf2O/S2fUTa4VzItDUn5G0IkqJdtOSBMAZFpWZGD0IlrMEukQyiMOGeWHld+6YRrSRoxKJok2/K+FI22Idu3IGR/dKHOdfTvGBFqtsWP6Tt9HrXEoGxQpg02P9DyGWWC+yXT0pCUvyFEgnralgODxUOm5UUOSCem4MhBXlMxAqYzy45PfumgiyRJDGqJfDYm611b8n4HLQbZDyVBHzb/DyPHA7P2fjdaItBU+M7hD1OLlvXzRUngfsm0NCTlb6JCZKfVizJsywFSK+QAtXEMdBfSWRQEv7ZuOzo/8jhg6dibMrLsXH6ZVlvs9isM2d+isPqvjRwDzLo7nknfOHm5JQBNie93P9PyFasrSX61iQpRvHrWkrJsm2IhB02RyIEapjK45YCPQjqQnGhnKtOlA4ym1s5YCoKk6BmRtF8usl182i4lsn9FYfVbG9nvJd8e8Jzl+Jsa3xw6nZq33tbyFasjuOcyzWS1EqKdDupFh/ymH/UffiQNGnVULnCNw047gnr0O8DLdj1goZCDphbIgRsSopLEKN6ZScdoU7bzLtOLurc4AAAtWklEQVR+7WzLdnAT33YeyH4VhdVnw31X9nMX623/8yY/G2LW3e7nlp8oA9w3mZaGpPxNUogkff84gA781z604y3bZGLPf+xI/e45hIY9fDydPfkMunDKefSn/5xFv5h0Ag0Yfxgddsf+NPCiI2nDduW/OikHTS2xB7NAOoE4pGPJgL8zk86yaVA7Mag38n4n4992AtmP4pD9UyD7dxRr97rGcvhZueflr+jzlaS2r1YRzflkFW181krrvKx8r9d1TepZUVZw32WaSZMWov1P7E2Dbu1vCYsvEKDBE/vRJf+9kO57dwK9OPcF+nDJDFqwbAHNXjqT/jfvJXpw+n008rkR6rxj/jmU9juxt1WOeiMHTi2RgzkS6RSikI6mLkhH2iAd8n7WAdlvInH0xQhk347iO32fsBx+FjY6cyV9vJRo9KNf0lonr6Au56+khZ8RzVi4itYaZp+fhW8OeedrIURJFC5EeSO1aufYiTrvshvt84/dLHHxBSJ06qPD6P53J9CcTz+iVbRKf2wRG9LnfjaHHpp+P532xCl04O17026997PK5Yvu7Ha6L+Y3kOUASiLtgJR5zXhZkViOokooxIp0PB5Uwxtlg5/R2I42mSKezejy2+k+5LWt657GfvjeZZ7RVPBuO0e/QbrqO6E0R99zoPuu7reyT0fxzaG1i5zw5Nur6NPlVFch0vWy04uC/YNMT0PdIytw/CMUXhrzAfk6dd0x90zol5NOpCdmPEqfr/xcao9zW/HlCnpm1n+UeB3zzyHU4UfdrLIlgbLnqTt499336bPPPg9d0xcWEpnuiw4Y6+EEpCOpoOPsuUKt+PHssy+otpDpvthx8rTTnTLl+cp1pTOugnwy2GoqkD82zE08EBLYl+m+bFiJ1SbTw9j3jKmKuH3MBx19204PkH3CQMWLg+2gvzj6nINwv0+OgM2s9dN5lsMvildnraL5S4sTIhAnRPWLvh0vJEmgfWSaSeFCxNF4dRReuxO4QEHwVwXXa7MVHTn6KEtc0nDUvUfQve+Op6Urlwq5id9w/sRp96hlukGjjwqVzSyrq15IC9fdLQijRv2VFi/+hL788ktl86uvvqIlS5bS5MnPqnwsRCwoDz38OM2bN98ahBJlm6MIK4fEx8IOQZe1Ez3wwKOhcmBDG0+b9h61aQvH7HAmESgnXomgzIE31TGHEIVnHpxXl5uFiAUlCRaYuG3s2BtDQhS2r/9u2FYHDZ006QmaN+9jtS9tueD8HDS03cbbKDEyA7+a50r7jIr8jfwq8CgCp9rnSAIBqkQOV9G3g+jhti157010u8UHTZX5ZdtttDECtoajYAcz5Bhgj/tNGyPyvE24L5v+AjYRAZvvW3VMyvyaWr2osM/lX9CKL4junfpV4UJk+hD2Sfr+VX2O74dQdv4yDX833nJv6rDLcbRJpwPUh6vqPdb/8733AffabCPzg7JpvyZChAvnmRW0btOJDv7Xfpa4+ILZ0KX/Ha6W47Jscz+dQ1e8MJIG3tWHWm2Yrg5JdX/99beUjfnzF9C4cffSaaefSzff/C+aOXM23XnnRHWOnBG99dY0+vzzz61GdsENj/9PO+1cdR15DpgzZ54SQNi9+Zbb6fTTz1N/Yfv992eErpeIz4zIxHIwVdLOiHbvcTCdfsZ5AR9/vEBhpnXZpochRPIaYYF4623c62WOmYQHuWdE2qHIdF8gnvwBKAuFz4hku8fAEaStviWQ/ZhJPSM6YaHl7POC50WLPyd6e25xz4eYes6IuvUfRbufeCftdPS11H67fkE0crSpPDcNaB+ZZlK4EOGiedYrdzq4lyUuaRg4vjc9PP2ByGdCPtuTMx6jIff2V6+Ly/IlEVX3MWNuUNee9u5065jJu+9ODwmRiRxQcbz55jtOIYIYQoRuvfXf1jF2Ina6L7aTiUU4sylT0gmRBLMZPXuU140SojDRn8aB7fwlyUtj0VRnGhJZDjfmTKUMVN1l+yZh9R83sj9KuAwyPYpvDn3bcvZ5gAgt+JRo5qLiRQjPs+KESPsFOy0rXftdSnsMm6jY5ZhbaNPOhwRiJM9NA9pHppnURIjycMhvj7DExZubt6FTHxlGr82fGhKWtNur86bSKZNOVmWR5cvKRx/NpWXLllnpEgiVKURyH0IFZ/vUU1NUm2DD8hrSeaDhuNyemfK8OvbFF1/SjBkzrcEZxam//gMtWLBIiRc21GHCxActZ/HAA4+oY9hwLvIce+yvQo7n1lvvCM4xt5Urv1Ad1SUYmPXg3vESIpYxR4wYbTlCgHrHCdGtt1Xto4y4LmZMfB7PRs19971+3yqjeY94w7mPP/50JmFZrZAC44NDcFzI/lgE3+4/xXL4WWERen9B8SIEUNYkISqStpvtQt2PvJp6nDxei9FPbqVNOu1PLVvFC0lempwQ4YumlsD4cLPmvMl/oFlLZ4YcQtpt1pKZ6joDLx9slS8ry5evUAIg0yVyRiSFCPsQk6VLP1XPmw477GiaNOlJ5QRffPGVYLDxdcwBeN11t6n63XnXRGtwAjgVc//w3kOVSHz88UK1fHf0kGE0derr6hqTJ08JnAX+x4ZjQ4YO08tkCxaqvL17D1WOB39R7tdee0vt7767dt64NjsnlxDhORbq+uc/X06HHT6EZs+eo6/bZ6jlEJNmRCtWrKBbbrldiQ/+4jrvf/BhcJ5LiEL3+vAhNOmR6r2u2p2v6tJjj0PU/muVWaerjLWi7rMhS1gcaS4cYuNC9s0kYF+mRVHU94hYhKbNq40Igfp/j6gjbdyhJ+1wxCja/aR7lBjteuxt9IMuh1LLhOW1OHDfZZpJTYQoyWgcg64YbIuMDzdvQ91v7EIjnr6AFi5bEIhKlg35cZ2Blx9plS+JqLpjw7KYTJf4CBG2c8+7ODS45n+8IHipAfsuIcKsCBsERg5OIAczyrt8xQrq3GX3UPqHH85SMxN2GhALpGknpdO6bLO7cvxYIoQDwssY2EynFAiPa791J3r44cfV/nnnXxI4QIgIxOH119+2nGOSED322ORQ+vTpH1jCI/elfYDnUKYdiA5smGKADWlmvjjyLq3lyZsqvxSWQGAcaQG20NjgGtlECKTJV1RkBbyqHbU99U4x4uQTWQF1kmm5wEsLnfajrn0vpR4/G6fEaOdjbqH22/enVm262Od7kFTGmghRHhDhwBKZJCqzoe43dKFzn/g9zV4yS/aLVBvyn/v472nAyPRCFAW2ooQILy/wPg8uXpbi/TRCJJfy8DzLdU15HYgNHAA27XTDzgV54bTxvxQdFh44cXPfPAdCgLoGjq4ChA8vXEgnmSRE5jIccAmP3Ff2LTvhJUCuvxQiiK/MWyu8hSQtlqhEYJ0rhSYZ2c/SkDb/t45+w3L6TY21jptLzdtsb/mIugAx6rgvde19MfX4GZbpJtBOQ2+kLboNziRGuOcyzaTJCVGmZ0QQoZu6ULfru9Cv7v8ZvTY33zMi5Md1Djq1j1W+rGBp7r33PrDSJT5CZO4DNLIUDZcQYUkOG5bozHQsuWHp7f77H1HHWYiwJOUSIn7xAn9Hjrxa/e8SIi4D/scyFUTnhRdeVvtduvRQIoWlNnZeUoggNlGbS3CShEimu4Qnbr9qJyxEWIZEXbbZdg+1jzpi2U8KXy0pXIik0CTBeRwCE4fsW1lJe61G9G0PIEYdelLXPpcoIepx8gTaecj1tGX3wdRyw3RihHsu00yanBDhTTVLaJKoLMt1u64zDby9Nz06bZL0W6m2ydOfpKF3DaRuB+5NLVp2sMqYBTgun5cVsggRXz9JiLDEBjHAcpkcmGDM2KrAYF9ek+EZES/ZYeOXIUwnY86IAF5oML8/pV4W6NIjcGZSiAIhkE7PdH4GZQkRXsqAaPP26aefRb5QUSsKESJ5f9OgrmELTRSyT+UlyzW/e+gEy/k3Fb494Pkm87Ph7drvTl37XkR7nDxBCdLOQ26kzXcYqN6mk+dGgfst00yanBDhuzupv0fEQnRtZ+pxTXe67MmLaN7S6E/TcdvcpXPpqqdH04Bb+1DL1ihTMUL00EP6eUfa17el8Mh9RoqGS4gAXpiACMhZEZBChKVEPI+JekbE+1gqg6jwPpxC6BlRxflghoPnMtIpKRxChGdEKKt8+85JiUKEJTicxzOiMsgsRPI+piVoQ/P/eGS/K4K018WYwa+gNn6h1Y92m+1K2/ceHogRXmBo/6N+1nlR8D2PoskJEcDPNFhiEwcL0TWdqetVW9Gg2/rQxFfH06crqp9Sfbaly5fSxFfvUfl7X9CPmrfYsjAhAvgCKTY4bXyRFV9ovXzUWHrlldfpd6f9SZ2TV4jwPxqdZy3/vmM87bb7QQqkQ1QgInDw77//oXobDMtyAG97YWMhwrmYxZlvzb1ivDXHg5qX/HCMl/mQp/p2m3YUKDferJOOiZFCBCByeE4zbtx9QTkhbv/85zjLKQYCoRxklVoLEc5btOiT7GJQAKlsSzHJgtV+rrQwUgyKJM31zXGzfscj6LuHjLfEoCxQlvU79rfGd9ngvm38w160yzE3Bd8z6n7kGO83+uR9l9REiJKMJvHD7bqnizVnzIi6Xr0V7fKXrvSrO0+m/74/hb746gvlhJK2L7/6kl6c8QL95u5fUv+r+tHmXbbLJERJdX/iyaeVEPAGQcB+UUJk2ofw4frg8cf/EwxECAxEAw7e3NDG8+d/HHqZ4SfH/tL6HhGW2OTgnjDhQet7RPgOEh+Ho0CUCLlhGQuzs5AQsfNqpZ8loR6YmWHj+zVmzI2WcwwJkUFI4AyHLIUmaZ+RQvTXv90cCpWEDeV95ZXXrLxxpBKTpLxSOJLwyeMQF0Z/GdhOl/0kCtiXaWnwsSXHDNNyw63pe/teS9846XNLGOrJdw+6K9PLCXF1KwJ8YbbtZjvT9r1HVERoAu163N+b9owIBuPC3CShO1Un6rZ/T9rtth1s0XFhPCPqOmZr2m5UJ9ptdDc6bdypNOmNh2jukrmRkRaQPueTOfToW5PojxPPoJ5/2Y1279+LmrfYgpq3gAj5C1HeugMMaJnmCweclelyQEaRNpaUCWzrED/u/BCTRYsW6xmYGZZnwUL1fAWOREdwtp1ZgHSMAhWmBl8adRyLpeLIs4S5wfIhliDx/aIzzzw/qBd/32rkZVdbeVzAdhCjLwMcZ82qmyeR4ZlkG0Qg2062fxxBiB/HMR9Q/7g4a3I8SDhETrPNeikxWOuERZZI1Iq1TlpC3z38Adrgh32tcvlQdIgfF+02370ScWGCWprbeehNtHnXdM+Ikvxa4UKEDsUB+NLeHHRgDpKHm7v/SZ6/R2S8NbfD2K1puys60baXdKSdRm5H/a89nEY9dilNnvYkvTt/Gn2ybLGaJS1ZvoTe+/hdmvLe03Tl46NowHW9qe9lvanH4P2oZastqWWrDhUhssvp6txKBLjsEXV35Qvyo+4cQdohZnJfHlODWUXProqBPCcO7Ux0/rSORDlCDoBpOHPzHGzmF2nZYT333Itq9oD8bTfqrPtPIAa2wwsIHGVFRFSst2rgS8uhRmGIEIKXphUjzIxmfDirErwTAUt1frwxhw1CJfOYsG0zYKyXfVF+GXDUqmflXFeabrvOobYL32+5X0X1eaPtWglBQF7ZX8xjquzq3m8dtLs8Lw6UgYNy4n95XI4VOSZc46Z5621ovc5D6Ps7nklr7zkqknX2HEXf32s0rbv3FeovQJo8z8X3d/oDrb/tCdSqXVdtX9UdZbbLGYW6/1x+497J87LSsjWW4/amHfpqEVJvzQ29gbbsfpTXW3N8f+P8GlO4EPGnmzijUfAneuUMVUf6ofrVVDwz2uO2HW0BMoSIv0e0wzWdafu/bEU/uqwjbXvRD2mbCzvQ7iO70+AbjqDf3XUqXfzwhXTVE6Np5CMX0RnjfkNDbxpE+4zuQQedexBttBnKvCW1bNlBETUbctUr6NQZ664HlVn3dPkDIYzpkHKQmvCAzipE7FCCAS2ugWU7vOSASBDYx/IgnvtgNoFXuFF2ODMdwJIdru34bHRHx6d5dmbOT/Yx8M8QqPJvqAeMPCeEIQiIzIDluwsvHKWEBPcBUSDwtqDfK9xaOFlIAhGWNqMw6540I3Rdl4XIaDv7Hseh77+qe6VOsn/EEThS/gCRuu9F91vZ/yU6f2XMVj48phEClb/y8yn63vrZtfIb9uU5ceB8WX55TlYQ0gfPhLr2qX6PaOchN9AWOx7l/T0irp8qY4JfK1yI2HhLz4dYEnQEdCiZDvBq9+Fn9lfCZHH5UTTwssE04NJB1PfC/nT4eX3okD8eTgeddQgdeMZBdMDpB9EBp/04RM8TDqDteu5CLVpvQRs024yaNWtPLVpuoUi7LKfLXql7xM32AY0m03xRje5hWw5mhp2jTPclzhENHzFavXjAz5qw4RkVnlXxOexMshI4UnUfHE43jopDdTrrGOQzLGwQIKR5ve1XQYupne4LnHisCAVUnEPFiTOBfcd9jSLU9m38o19L+N7LdF9kv5X9PQnfcRNFnjGr82crd5A/Y72jgAjhZyDw/aEeP7tbPRfa6ZibckVWqPvSnDSQhXw3FUtqW6pnPM2ab67EBSKj+YEDfQzn4fwWLZE3/UsKRZGv7umwB7Q9yOuJ6Uyk0/MjwpFazrhG5BCS3MTZlvcjB7LNXG1XBlw22cfrQV67efMXC8eau5x6nKRFaJdjb6UfbHMYtWy9msWay0tSoZMRYtQcYmQKkgkESIsQztd508+GiiJ/3dPhGsxlEeXMpDOMxtPpSkddFHFiUGtM27K+OZHt4SKq7eqJ7Nv1Iq/tvPmLpG37Xan7wCsry3GIvn0zbbr1wWoJWZ6bhqQ6fo2FyBQjFiQtSmGQhqU4gJmQzm9fsz7kr3s2YNfX6dSKJGcmHaRNDicsHXsWyhCiIuoegbz/cSS1Xa0I+nBJ4waEypGBvPmLpGu/y4LvCSHQKUQI9zZvGZPyf02FCOhZjSlICiVKmiBNHdfnp3lYWQuKqXs25CCvN2mcmXSamoKdsXT6SdRaiGT5QiQd90PeZ1/StF1RhPqv3K8jVllSkjd/kXQbcCX1OGkc7Xz0ddR+2z7B7xDlLWNS/iYpRMUiBUnCy3DlzYKaGnLAry5Ip9ogHnn/Vhdkf21QHHhTrtNev6RNu+hfZpXHa0WTFKLadDZTcCTV82pj25+y7TNy8NeDvJ+qzfzS6daHYmYltUTes6LI23a+yH7aFGiq5WpKJN2jNUiI/CjTNijTvsu2dAS1JK8zi8svHXJtKFOI3LblfagVcfe+CGS/tPA5p0Z4lS+GvPnrQd4yJuVvkkK0JpPUYGUgnUKtqLUzM5EOuxjcYlBPZD3rRS1ty/7Y1Fgdylg2SfeoNCG6tPKDaub25FPP0LHH/YpWrFhJ77zzXuj8uXPn0fDho0JpCJiJPDLN3BDHzLyGPJ/tmRvbjrtWWlyBSusFwtA888zzkfsmSI/6qQr+QTzeOEp3FLDDG+ovjzM4xtfC/z42zDw+IBq43GbN+ih0DiJ64wu3+PJtz5695elqe/DBRy3nz5xzznB1ztVjbgjt88bpABHYeXvvvfed6QhAm0dgTjrpt2rcQiAPOHCA+p83RF7Pel0JAtzytnDh4uADxcv/ezVIR2SNPfc61Mobhex7qwtDhgwj+Ms//vHC0l98Wp0oXIhw8306EoTI5diPO/4U5WTA0KHV32uXQjT5P88qR4ffuDHzQzzgSMx8LD5RQmTa4kEUXMuwOW3ae84yM1x3VweMEyL++QYwduyNkUKQRNQglrblPgPHhJ+PiLJvlhPnSXExHRtEwjyOqOJAOhzAooJvX8trRuESIo6TJs91Mf/jBaqf8H7PfXqryA8yPTjeUx+X6QD1HjTop8HvMrHg4Lefhv38dPX/o489pcrM/5sig2jiyHPOn0YoUeLrIn3KlBcsey44LJKZZgrRq6++GRIf/GzF3/9+Z3CuyptBmO4ad68SH0S1wP4HH3xI/6tEHcd44zIhHSGeZBkZLpfscz5wfpnuC5dBpvuSFDUgiTx1B7r8dnpR5L2/IOkeFS5ECDfhE2stTogwSCA0pshIIeJ9RHQ2BYt/HdM8L40Q4YZx2aUQRV2DQT4OMSOPsbjyxjMSMw0CYG48OzHTTTEwZxzYMMj5Jwr4HDnDkfumffxcApAzGVkXMy8PYogMb8iPNGx83BQOc2aFdJyPNMRLixKiqDzmORzzy5z9vPbaW9a1XKKC2HD4EIBru4ToxRdfcV6LgQDhhwWVqFxtz9QGVoSKzzUF5tFHn1I/I4+YYWYe/O5SlBDhWryhvjpWmxYc3hDD75NPlqh7ct99k9R5cCimQOFaOMabmS754IOZwXksKuecM0Lds577HK7OWbZ8OQ0adIKVF4IVJURI0+PO7mM+aEGPd3Qu/ve/14L6YPv3v8er8uADBG/4H2noM5hBow7YUGc+hg9A48c/oGaG++zTJ2hn2HBdC+fytnz5CpUfHwIWLqzOLJHO14ijHtG3uY1kehpQR5lmUrgQYUBwAMW4qf9Ix9LciItG009POFU18k9+8guaO3d+SER4pnPscRCrxer/adOmq6U02EJnlstpTz1V/QE3XMPcB66luacmTwmuBSEyz8esCPZkfWA/XPfwgMMGx4kym7MF/A+nqoN9bkVTnn1B/Q4OCyJEgx07UMtqU563Zhw4n+2bwSOlwzb38T+uz44AEYwhRFJgXDMZlIHTOU84AnS13qruY7VNpONc5ME+/yrs2L/eSO3adQ7Ox4bzeNbAefD/mLE3Vq55oy57Jehl23Zbq0/e+GVZpG+3/d4qH/9st7avA5ViiY33ITIPPfQYdevWS59/0RUqndm+a8/KT1VU08zrPfbYZHr22RdU4E/1W0ljMSOqHgdabLAE10kJDP8PIEwQoraV6N+IYI10zDT0jCpsl68NcK/hAM/6/QV08rDTVMw7/BwFjr362ptq3CpHB8G5XwsOp+E6J538O7Xfrl0X1Xavvfamuj+tN9T3ncEsB06Y02Hz7nvuU/3m3HMvCn6P6cjBJwZtb+ZHu+B8Mw2Y/TbOZ2DcyP1Q/raVwJ+Gw5TXMOm5Tx81vs8+Z3g14OuGnVQ9WTAAxAECBSHC8uLLL09V6UOGDlP3TdvemmbMmEUvv/wq9dq3rxIilAPXwn0y2wv5INbcjvjNKtzXiRMfogUL9bmy7FH7ONe8d+wzknDdn6h91/2V14uC24eD+ur/qx/0TVuFC5EqfM4ZEZwBZijmbMWcEbEYuK7jmhHxua7ZTNoZkWlbEld32HDtsxBxOpytOWPB/+bzHPzP5/PMhQVONbwxEFmsovZlmdDJpH2Zh9PMMqsyTnm+0lGrHREb/49r4Bz+3+yw2OcZkZluimBUHjMNAwa/byS3ByqiA+RsiD/pou5dd+ipritnRHGzIcx0EOCU7btmRHB2WIoz08wfR8S9hDCxYAC1xOeYWTHmjEiLzwVKaMzlN3PmI2dEyIPfTTJnQ7zxeaY9czbEGxyta0Z09933hfLiWREv15npQb/jcWP0sTRoUUv/iZ1nRBAQ9F2kmTMY3l56eao10+FzIVL77qfFB8fM/sXHzTzmbIg3JVYb4oPHIiXo+vmS7UNcNGZEEUKEi/pMsaWAMFIY4PixRGcKkZz1YDOPDR8RfpbES3w+QmR2AJcQuV6QMImqu3TmUUIkn9HECZF5Le2ow/Z5WS9qX5YJdZf2pRDJfb4uysX2cR05k+J64v8oUZGOyicP/3Q5tnHj7lVO1BQeCRy1KSqulxiw8TV4VsXitNHG26p9bOi/5ssF5sZLahAhWXaJWqp79oXgGY1cuht9xd9o1Sr9w44QLAgf6lGtwyI648zzlahECZF8JoQlPAisKVBmmR56+PGgLs8//5JyqhATWXZ+JsQiKpfgIEJySc7sO9W+Z6f54vtcOgrUjQUAZYXwyOuZAsNpEBXkxa8Tm0t4SUIE4THT9H2p2sHMS54TR55754tvWaJIyl8TIfLBV4gAnL9yBsNHOfOxWPG58llSmhmRecNc15K2fZHOm/elY4cQyNmGua+W5hxvvMnru9LkPi/NmWm4tnmeKV6yrFF5OI1FBECUTFHh2RGuiU0LUdjJ4XxzRuTKY56P/HDE8vkPg0GOmYBMZ6ToADhr+XZdFHC25ozIR4SwZGeeI0XIBYQI5cL/5uzG/B/HIDYsRB9+WM0DIEzYRx5spki5gNjAQe6x5yGhdBYaXkkwX0qQIiT7TVOCReOVV153Pp9xCRGnoY4sOOZ5mHFJQcFbdfhQIQUqydbqTlJdShUiufHr26YwmOdCFJLERM6W5Ovb8pjrGVHU69vyDb00SEdt7uN/bHD4aDDe+MUCXoLDxqLEzpg3FgscB3KmJfelbWxw9GyTN7Ocrg3XxTEzD9sxy206W7PsSOfyYlnQ3Ewhi8rDxwELmTnLMYUHIhUnKlKIsI/fTIqbYZmYQoQlu+UrVgTl4E0ew28XnTzsdJUfz47kJpf0AIsHNoxLLJudcWZVfHgzX1aIe31bLs+ZgmUil+f4pQTX69uYGclNC9mhNGfOXDUWkRdjEOPtmJ/8gpYvX6mezyJd9tNEUubhmQdvpmCYy3M8U4oSB5yLtuR0eV7SywrY8NwJsypzc83KyiRvWZLylyZEcSQVupaUaRtI+3JprpZI27UANqKQM6K05M2fF7m0WE/Kr7udJtu+ptTbnkHeuubNXw/yljEpf0OIBGXaBtL+102ITKTjcjmzNOTNn5c1XYhk+9aVOvddE9RfpqUhb/56kLeMSfkbQiQo0zaQ9r/OQsSYzkw6uDTkzZ+XMu2XaZvbULZrXSnRft66581fD/KWMSl/Q4gEZdoGZdov0zaQDi4tZTpjUKb9ett2tZ1Mqysl2s9b97z560HeMiblbwiRoEzboEz7ZdoGpn3p+HyotzOWlGm/XrZlm7narhRKtJ+37nnz14O8ZUzK3xAiQZm2Qan2y7QdUXfpCOOolzOOokz7tbYt20Xic05NKdF+3rrnzV8P8pYxKX9NhCjJaBJ58vsOnCjy5F3d8+t7Z6f7ksc28H3gzW0syeuMV+f8efLK/PJ+++DbdlFktavz5s2fPW9R+cscd0nkvb/6GvH5CxciGIwKc+ODyp8QqTUO2DbD3KTFDPGTlrx1B3nqjre28tSdnZFM96GIUCMIkSPTktCDWOOK8ecL6i5DFKUF9mWaL2YcriykjQMmKaPtmLwhflD+PEKo6p5j3OQZsyDPF36LGHdJ6Pubr45J96hwIUIEYQ7Al/bmsDNQ+VM2Dg8m5M2bnx2SPMc8V6apwcRlj6i7K1+QvxInTgUHdJRd7stj+equ7av8QcBS+7woQvY3TG9f1j1Nfh4kOj/qn15MQv0ugxhxfg7smCa/advXvjyOfV336KChrnx8/8y2czlFuW8i2w77vnl1mTpVfYbDdhxBv63kz9VvM9nP3m8BC3DWccf3Pq7t8iDvr2rfFNfn+2Peo6jyFS5E6sZkcEZmwVWnUoPFPicK1anxqRQ3DY1iDDYf1E2vfKpNKrvrWFD2HHVXgzJD3UEghDnqjnhhUSIaR1B2I3+a8nPbobPib9rycx6z7dJgioGPEEg4vyp/Jvt6NqSdaTb77EyT8sp7p/OH206eE4fKb7Sdy0YcoX6bYdxwfhVNXNm3z4mCy56931Z9hmq3lPV32ZfnxJG37XwItU/G+vn4tcKFSN+caINJ8M2V6b7AtvxUloYsg4Gp1j1bflBu3bOXHUsEyn7G/AAdXqalwbftcI6E712SI4/DjJ6dlry2tYD51V9SdttpZ9WxtKW5/OMme911ft2GMt2HItouibz3FyTdo8KFSBrIQtZGKYIybYMy7ZdpG+S1nye/dOxZyCMkWZHll/WqF2XaBmXaz2s7b/56kLeMSfmbpBA1aNBUkI6/LGS5GjT4OpFbiJ5++mm6//776R//+EdhQlTmwCvTNijVfpm2C6h73vx5keIRh8ybl1pcMw1l2y+z7+ate9789SBvGZPym0IELYGmQFsShei9996jqVOnNoSoYEq1X6btAuqeN39eyrRfpm2wJtvPaztv/nqQt4xJ+aEdw4cPpzFjxoSECBoDrbGEaNGiRTRnzpyaClGDBg0aNFhzSBIiaE4gRJ999llIiF599VV65pln6IEHHqB//vOfhQlRknrWkjJtg7Ltl0neuufNn5ey7ZdJo+52eoMqSfcI2jFixAgaO3as0hJoCrTFEqIVK1aEhGj69OlKiKZMmUIPPvgg/etf/2oIUQGUar9M2wXUPW/+vJRpv0zbYE22n9d23vz1IG8Zk/KzEP31r39VWgJNgbZAY6A1lhAtXryY5s6dS++//z699tpr9Oyzz9JDDz1Et99+e2FCtCaT1GBfZ1b3uq/u5c9Do+52eoMqSfcI2nHxxRfT3/72N6Ul0BRoCzQGWgPN+QZ+t90Uonnz5tEHH3xAr7/+Ov33v/+lSZMm0R133NEQogYNGjRokBpoxyWXXELXXnut0hJoCrQFGgMhguYEQvT555/TJ598QvPnz6cZM2bQm2++Sc8//zw9+uijdNddd6mLIaIC1K+syAradrz6xpH12+kgb91Bnm+o5697vvxl1h002i57/nLrnvyJOQ7tM/Llz2M/T91B2W2XRN77C5LuEbRj5MiRdP311ysteeSRR5S2vPHGG0prAiFauXKlEqIlS5bQxx9/TB9++CG99dZb9H//93/0+OOP0z333KMupmIT5XIIOraRTPeFg+zJdF9gO1fZUwYGlCBMjEzzBY44T911mJhsZS8iCjDiUcm0NBTRdlnzgzz9dk1uu8BnOI75oEP0ZL93qu558ucYs0B9gCqx7ZLQQpT9/oCkewTtGDVqFN10001KS6Ap0BZoDLQGk59AiJYtW6aEaMGCBTRr1ix655136OWXX6annnqKJk6cqC6GDtmmzdZeARgZFIQFSOVvy8Enq5U3z+V9M53za9s6CrK044KvpxyBClxZjYLssiH3GdQ1XHe3fZnfrLu2r8seZT+K4N5V6h517133EudyfrPuvuj81bpLQZD2zH385fq2bReuuy/Ve5eu7XgfbZW33ya1nay7iW/bmSS1nbQl95motrOBPft6UW0XZU8Srnv0vZfXM+2bdTfFWF5DwvdO1h31jGs7WXez3aPK74J9Ttq2432d36ftwsj6xNkI2sfwyfJ6UfD9lfdI2sP/0I4rr7ySbr31VqUl0JSXXnpJaQy0BpoTCBFe4V66dKn1pVZ+hftb3/42tWzZIdcnS668TPelMSPKXvfV+VM1KKLtsuYHefrtmtx2jRlRY0YEITJf3TajKsyePVtpzje++uorMr9LZL45h4dJzz33nFrT22CDZtSseXsd7tthzAcVWj1jowAVyTdHo+hPNHa6DyoSrvjUkZY8dVcdJodt8xNKFvLWPY8jB422y54/b93ztN3qXvc87Q7KLn8Sqn1y1jEuf/MWHWittdai6667ju68887gRQV+Yw6vbuNrQ4EQyRcW+DnRiy++SE8++SR17tyF1lt/I8tQWmp5U5Mo0zYo036ZtkFe+3nz56VM+2XaBmuy/by28+avB3nLGJd/g2abUYsWLemWW26hCRMm0BNPPGE9H4LmKCEynxNheQ5rdpgyYerEy3PHHXc8rb9Ba8tQWuIKXWvKtA1KtV+m7QLqnjd/Xsq0X6ZtsCbbz2s7b/56kLeMcfmbNW9Le+/dU31/CF9khZaYy3LQGmhOIEQy5hyW5/B9Irxi98ILL6j3v9dee221PCeNpSGu0LWmTNugVPtl2i6g7nnz56VM+2XaBmuy/by28+avB3nLGJW/eYstaZ111qULLriAxo8fr96Wg5ZAU6At0BhoDTTnG6tWrSK5PMevceONhmnTpikFQ0iGo48eQuuv38IymIaoQteDMm2DUu2XabuAuufNn5cy7ZdpG6zJ9vPazpu/HuQtY1T+Vq03oj333EtNYhBNgWdD0BRoCzQGy3LQnECIzOU5OSvCl1vxrAjre5tu+gNq3nxjy6gvUYWuB2XaBqXaL9N2AXXPmz8vZdov0zZYk+3ntZ03fz3IW0ZX/pYt21OzZs3o5ptvVtG28co2ng1BS+RsCJqjhChqVsTPivAqN95ywLdh8dBp3XXXpfXWa2sZ98FV6HpRpm1Qqv0ybRdQ97z581Km/TJtgzXZfl7befPXg7xllPnxUtv3v78unXPOOXTvvfeqJTm8fY0gp9ASaIo5G4LmhITI/E4RlAqvcuOthpkzZ6rpFF5cwAWhcj/4wWbUqlUbatZ8c6tgcchC15MybYNS7Zdpu4C6582flzLtl2kbrMn289rOm78e5C0j58czodat21GrVq3pz3/+cyBCeF0bS3L4AivelENIH2gLz4agOd8gIiVEclbEb9DxEh0ugAuxGCEG3fHH/5TWWef7tO66LZUK4lU9vMwQR/MWm1tp9aJM26BU+2XaLqDuefPnpUz7ZdoGa7L9vLbz5q8HucrYrD2tv8EmSgOgBQce+GP1xVUsx5ki9Pbbb6u4ctASfIEV2sKzIWiOJUTmG3S8RIeM+OIRLsRihGW6yZMnq9fyTjnlFNp1191o8823oNatN6R1112P1l57Hfr2t7/ToEGDBg2+RsC3w8fj+0GbbLIp7bBDNxo69Bj1C6z4rtDDDz+snglBI6AVECE8F4KG4HEPNAXBE6AxmA1Bc5QQucSIl+iQgZ8XsRhhmQ7PjPACA96mw0sMMI44QuPGjVPi9Pe//10t4d14443qW7UIAY7fowD4gSSAsA8NGjRo0KDpwX4awG9fc801ypffcMMNyrffdttt6ofuEFEbvh9vxkELoAnQBmgEtAKawSKE50JShKA5gRBJMcKsSIoRZkaYWuGZEX5ZD9+OheLhbQgYRwQGhAPCF5ewPoh3xyFMCO2AV/ggUACFB5jCNWjQoEGDpgf7afbb8OHw5fDp8O3w8fD18Pnw/Xg9G98TwlIc3o7DiwnQCmiGKUL8XAgaA62B5kQKES/RSTHCMyO8wIA3H6B0+IYsjEKQoIJ4foQCYdkO6vjYY4+pgmLGBMVEwQGC3zVo0KBBg6YL+2v4bvhw+HL4dPh2+Hj4evh8+H5oAL6silkQluKgEXgxARMYXo4zRYhnQ5YQJYkRnhnhIRPeeIDCQenwxSQYhfphLRCBUlEg/IQECgeFREHx0Ao/D4uZE0AFGjRo0KBB04X9NXw3fDh8OXw6fDt8PHw9fD58PyYl0AJoArQBr2hDK6AZ5nKcFCGnEGGLEiN+mw6v3fHsCMZgFOqHN+tYlKCKKBxmS1BJFBZrhniXnEElGjRo0KBB08P01fDd8OHw5fDp8O3w8fD1iKIN3w8NYAGCNkAjoBWYwMSJEDanEGEzxcgUJIgRz45YkHiGhCU7FAS/Z4RCYX0QBcQSHgQKBQZ4vtSgQYMGDZo+7LfhwwF8Onw7Zj7w9fD58P3QAJcA8SvaLEBShLD9P0UF9T1clOPVAAAAAElFTkSuQmCC;" parent="PfXECihAOiwtT0cOO5vL-21" vertex="1">
                    <mxGeometry x="100" y="40" width="95" height="170" as="geometry"/>
                </mxCell>
                <mxCell id="PfXECihAOiwtT0cOO5vL-22" value="" style="endArrow=none;html=1;strokeWidth=4;rounded=0;fontFamily=Open Sans;fontSource=https%3A%2F%2Ffonts.googleapis.com%2Fcss%3Ffamily%3DOpen%2BSans;fontSize=22;fontColor=default;fontStyle=1;exitX=1;exitY=0.5;exitDx=0;exitDy=0;entryX=0;entryY=0.5;entryDx=0;entryDy=0;flowAnimation=1;curved=0;fillColor=#cdeb8b;strokeColor=#3333FF;" parent="1" source="PfXECihAOiwtT0cOO5vL-19" target="PfXECihAOiwtT0cOO5vL-6" edge="1">
                    <mxGeometry width="50" height="50" relative="1" as="geometry">
                        <mxPoint x="630" y="530" as="sourcePoint"/>
                        <mxPoint x="680" y="480" as="targetPoint"/>
                    </mxGeometry>
                </mxCell>
                <mxCell id="2" value="" style="endArrow=none;html=1;strokeWidth=4;rounded=0;fontFamily=Open Sans;fontSource=https%3A%2F%2Ffonts.googleapis.com%2Fcss%3Ffamily%3DOpen%2BSans;fontSize=22;fontColor=default;fontStyle=1;flowAnimation=1;curved=0;fillColor=#cdeb8b;strokeColor=#3333FF;entryX=0;entryY=0.5;entryDx=0;entryDy=0;exitX=0;exitY=0.5;exitDx=0;exitDy=0;" edge="1" parent="1" source="PfXECihAOiwtT0cOO5vL-9" target="PfXECihAOiwtT0cOO5vL-6">
                    <mxGeometry width="50" height="50" relative="1" as="geometry">
                        <mxPoint x="205" y="495" as="sourcePoint"/>
                        <mxPoint x="940" y="335" as="targetPoint"/>
                        <Array as="points">
                            <mxPoint x="750" y="470"/>
                        </Array>
                    </mxGeometry>
                </mxCell>
            </root>
        </mxGraphModel>
    </diagram>
</mxfile>